<?xml version="1.0" encoding="UTF-8"?>
<svg version="1.1" xmlns="http://www.w3.org/2000/svg" width="1200" height="1754">
<path d="M0 0 C97.6900023 -2.49841184 197.22523545 30.82851926 272.66650391 93.07080078 C273.96394531 94.10914063 273.96394531 94.10914063 275.28759766 95.16845703 C281.32726179 100.02588903 287.08470405 105.11242471 292.76025391 110.38330078 C295.38825563 112.81349592 298.05010483 115.19709274 300.72900391 117.57080078 C308.22663471 124.30902525 315.3971574 131.39230192 321.93994141 139.06689453 C323.88391436 141.32313464 325.89973908 143.50443971 327.91650391 145.69580078 C333.49991589 151.90063805 338.61139765 158.43617468 343.66650391 165.07080078 C344.20436523 165.77350098 344.74222656 166.47620117 345.29638672 167.20019531 C358.53310545 184.57004315 370.26445856 202.80996617 380.58007812 222.05810547 C381.59089085 223.93072122 382.6253336 225.78746384 383.67041016 227.64111328 C406.30686105 268.5239155 419.63353374 314.48608054 426.91650391 360.44580078 C427.06772705 361.39366455 427.2189502 362.34152832 427.37475586 363.31811523 C430.34280712 383.23305209 431.07404642 403.08436099 431.04150391 423.19580078 C431.04068817 425.10167465 431.04068817 425.10167465 431.03985596 427.04605103 C430.99881862 447.97624055 430.03502462 468.41105309 426.66650391 489.07080078 C426.55995483 489.73094177 426.45340576 490.39108276 426.34362793 491.07122803 C413.99878467 567.01624225 381.59234693 640.06034784 330.66650391 698.07080078 C330.03357422 698.80298828 329.40064453 699.53517578 328.74853516 700.28955078 C327.06738262 702.22845439 325.36887321 704.15050462 323.66650391 706.07080078 C323.03421875 706.78719727 322.40193359 707.50359375 321.75048828 708.24169922 C315.96214882 714.74355975 309.94405771 720.9764565 303.79150391 727.13330078 C302.87498047 728.06207031 301.95845703 728.99083984 301.01416016 729.94775391 C295.6196649 735.35362996 290.07230604 740.36446695 284.09057617 745.11425781 C281.80280964 746.96078425 279.63372707 748.8843904 277.47900391 750.88330078 C201.77745312 818.77223601 95.70667541 848.72109059 -20.12255859 846.84375 C-72.07806472 843.78252852 -124.36304881 830.58384958 -171.33349609 808.07080078 C-172.08920898 807.71034668 -172.84492188 807.34989258 -173.62353516 806.97851562 C-177.56663702 805.08310735 -181.46944629 803.12050673 -185.34960938 801.09960938 C-187.51281666 799.9778083 -189.68656107 798.87800886 -191.86083984 797.77783203 C-221.46173157 782.66526896 -248.42595399 762.9837481 -273.33349609 741.07080078 C-274.26033203 740.25740234 -275.18716797 739.44400391 -276.14208984 738.60595703 C-282.97368692 732.47205498 -289.50221987 726.03393376 -296.02099609 719.57080078 C-296.90021729 718.70463135 -297.77943848 717.83846191 -298.68530273 716.94604492 C-303.86427189 711.77389084 -308.61945913 706.42688828 -313.18969727 700.7109375 C-315.20391123 698.23038747 -317.2894951 695.85189928 -319.43505859 693.48486328 C-323.46360703 688.9978457 -327.11401015 684.28438564 -330.70849609 679.44580078 C-331.68447754 678.13603271 -331.68447754 678.13603271 -332.68017578 676.79980469 C-338.16572598 669.38847623 -343.39738798 661.85804006 -348.33349609 654.07080078 C-348.76049805 653.39936035 -349.1875 652.72791992 -349.62744141 652.03613281 C-381.3845408 601.80617654 -402.77029951 545.88731235 -411.64599609 487.07080078 C-411.79327148 486.095625 -411.94054687 485.12044922 -412.09228516 484.11572266 C-414.88873349 464.11489546 -415.70955964 444.18389222 -415.64599609 424.00830078 C-415.64417328 422.80224182 -415.64235046 421.59618286 -415.64047241 420.35357666 C-415.59405305 402.07826042 -415.08381023 384.16595269 -412.33349609 366.07080078 C-412.15657227 364.87535645 -411.97964844 363.67991211 -411.79736328 362.44824219 C-405.47843019 320.73127892 -393.53325891 280.17123883 -375.33349609 242.07080078 C-374.88103516 241.12205078 -374.42857422 240.17330078 -373.96240234 239.19580078 C-351.79306591 193.05474285 -319.75958973 146.17703869 -280.52099609 112.69580078 C-277.53119136 110.12331105 -274.61139716 107.49089963 -271.70849609 104.82080078 C-266.05495898 99.72136225 -260.09633539 95.06250985 -254.06982422 90.41748047 C-252.46461888 89.17249838 -250.87487772 87.90764613 -249.28662109 86.64111328 C-234.87636991 75.25477491 -219.32725311 65.09434068 -203.33349609 56.07080078 C-202.42035645 55.55549805 -201.5072168 55.04019531 -200.56640625 54.50927734 C-138.75719687 19.89769963 -70.71363552 2.14552776 0 0 Z M-209.33349609 128.07080078 C-209.86845703 128.46831543 -210.40341797 128.86583008 -210.95458984 129.27539062 C-232.00968071 144.95941365 -252.4122526 162.95125632 -269.33349609 183.07080078 C-270.11595703 183.96412109 -270.89841797 184.85744141 -271.70458984 185.77783203 C-333.74322538 256.98349075 -364.4703015 353.26712986 -358.81787109 447.12329102 C-353.80883801 519.46729491 -328.30109339 588.38839295 -284.33349609 646.07080078 C-283.66519775 646.95541992 -283.66519775 646.95541992 -282.98339844 647.85791016 C-277.05339454 655.68491781 -270.77458179 663.03473023 -264.04052734 670.18017578 C-261.88893511 672.47769129 -259.81089768 674.80049868 -257.77099609 677.19580078 C-250.9158342 685.10431682 -243.29699243 692.29629869 -235.33349609 699.07080078 C-234.36412109 699.92931641 -233.39474609 700.78783203 -232.39599609 701.67236328 C-207.20205784 723.88049205 -178.57219653 741.6109489 -148.33349609 756.07080078 C-147.6106543 756.41965332 -146.8878125 756.76850586 -146.14306641 757.12792969 C-100.90798265 778.79213002 -51.32671319 789.43220562 -1.33349609 791.07080078 C-0.640625 791.09416504 0.05224609 791.1175293 0.76611328 791.14160156 C98.30739248 793.91849444 190.94232044 754.46291028 263.68969727 686.85791016 C274.1067755 676.93760558 283.77254787 666.37716973 292.66650391 655.07080078 C293.73392308 653.74504708 294.80165629 652.41954619 295.86962891 651.09423828 C308.66762631 635.0770688 319.59218685 617.90912689 329.66650391 600.07080078 C330.21419434 599.11318848 330.21419434 599.11318848 330.77294922 598.13623047 C355.60075719 554.42592818 369.97870381 503.03276315 373.66650391 453.07080078 C373.72290039 452.30687012 373.77929688 451.54293945 373.83740234 450.75585938 C380.34507159 357.66538357 351.19613524 264.09152678 291.66650391 192.07080078 C290.87115234 191.10142578 290.07580078 190.13205078 289.25634766 189.13330078 C278.15265278 175.7305663 266.27743756 162.47880678 253.05712891 151.12548828 C251.26279051 149.58329548 249.48408182 148.02288703 247.71337891 146.45361328 C228.11168744 129.18879908 206.43906138 114.7750534 183.66650391 102.07080078 C182.9141748 101.64798828 182.1618457 101.22517578 181.38671875 100.78955078 C137.77948875 76.4524004 87.38662647 61.92382188 37.66650391 58.07080078 C36.99780273 58.0144043 36.32910156 57.95800781 35.64013672 57.89990234 C-50.68837979 50.76566308 -139.99034962 76.14842027 -209.33349609 128.07080078 Z " fill="#000000" transform="translate(592.33349609375,403.92919921875)"/>
<path d="M0 0 C292.13152724 0 292.13152724 0 328.4375 36 C333.95735085 41.61269238 338.95950635 47.20987171 343 54 C343.65097656 55.02996094 344.30195312 56.05992187 344.97265625 57.12109375 C361.14897181 83.36924036 365.68471642 117.81772016 358.59082031 147.71923828 C350.98833786 177.06733376 335.170349 201.83428478 309 218 C303.43447126 221.19438779 297.73565743 224.12522739 292 227 C294.76818731 228.46280895 297.4633697 229.53599768 300.45703125 230.4453125 C329.07097223 239.37860261 353.03852682 255.38609153 367.45703125 282.4921875 C377.40730404 302.1361883 381.42970588 322.29708793 381.3125 344.25 C381.31034485 344.97810883 381.3081897 345.70621765 381.30596924 346.45639038 C381.2547474 357.24510008 380.8313778 367.53178829 378 378 C377.70198486 379.16281494 377.70198486 379.16281494 377.39794922 380.34912109 C372.97758352 397.34517887 366.45391325 412.79923864 356 427 C355.42121094 427.80179688 354.84242188 428.60359375 354.24609375 429.4296875 C330.89482408 460.19485921 297.12324619 476.97599533 259.453125 482.60546875 C258.31359375 482.73566406 257.1740625 482.86585938 256 483 C255.29812939 483.08358481 254.59625877 483.16716963 253.87311935 483.25328732 C242.69256827 484.38802902 231.46340703 484.13195495 220.23925781 484.11352539 C217.79479346 484.11321873 215.35032903 484.11335311 212.90586472 484.11389065 C206.38432822 484.11411558 199.86281022 484.10833717 193.34127808 484.10128021 C187.21238143 484.09556776 181.08348919 484.09531614 174.95458984 484.09460449 C157.05305746 484.08936582 139.1515285 484.0754046 121.25 484.0625 C81.2375 484.041875 41.225 484.02125 0 484 C0 324.28 0 164.56 0 0 Z M66 55 C66 105.16 66 155.32 66 207 C90.3375 207.061875 114.675 207.12375 139.75 207.1875 C147.39897461 207.21481201 155.04794922 207.24212402 162.92871094 207.27026367 C169.86062421 207.28030472 169.86062421 207.28030472 176.7925415 207.28633118 C179.8500641 207.28909572 182.90742612 207.30021431 185.96490479 207.31672668 C218.63746122 207.48521854 253.1237087 206.59459756 278.30078125 182.828125 C293.86641634 166.81775748 296.44932008 146.25833457 296.21484375 124.890625 C295.75278214 107.01658972 290.11315817 89.70177206 277.875 76.3125 C252.74857677 52.97682408 214.92219538 54.68206704 182.98408508 54.79743958 C179.26518433 54.80897998 175.54631149 54.80937387 171.82739258 54.81079102 C161.00991223 54.82121221 150.19245444 54.84913461 139.375 54.875 C103.054375 54.936875 103.054375 54.936875 66 55 Z M66 263 C66 317.78 66 372.56 66 429 C92.3175 429.04125 118.635 429.0825 145.75 429.125 C154.02545898 429.14320801 162.30091797 429.16141602 170.82714844 429.18017578 C178.31790078 429.18686926 178.31790078 429.18686926 185.80865479 429.19088745 C189.11613714 429.19273265 192.42355372 429.20015424 195.73101807 429.21115112 C246.39863792 430.11079936 246.39863792 430.11079936 290 407 C290.77730469 406.30132813 291.55460938 405.60265625 292.35546875 404.8828125 C306.60574717 391.46797753 315.20467463 371.8479758 316.1262207 352.32617188 C316.74119057 328.44581814 313.99227157 306.63214878 296.9375 288.375 C274.97793995 267.60445166 244.16120796 262.6301168 215.05883789 262.77294922 C213.39496845 262.77356363 211.73109848 262.77329195 210.06722927 262.7722187 C205.65914095 262.77177191 201.25116384 262.78326287 196.8431015 262.79743958 C192.68865148 262.80893042 188.53422689 262.80937125 184.37976074 262.81079102 C172.27399275 262.82123615 160.16824492 262.84915868 148.0625 262.875 C107.4415625 262.936875 107.4415625 262.936875 66 263 Z " fill="#000000" transform="translate(422,586)"/>
<path d="M0 0 C80.54557751 -0.01705252 161.09115518 -0.03303106 241.63673401 -0.04234314 C242.82782417 -0.0424812 244.01891434 -0.04261925 245.24609815 -0.04276149 C271.1283831 -0.04575403 297.01066807 -0.04852427 322.89295306 -0.05106533 C335.58464124 -0.05231272 348.27632941 -0.05360927 360.96801758 -0.05493164 C362.23102889 -0.0550624 363.49404021 -0.05519316 364.7953246 -0.05532788 C405.77236453 -0.05959327 446.74940309 -0.06710759 487.72644218 -0.07629722 C529.81699131 -0.08571948 571.90753968 -0.09188304 613.99808984 -0.09391499 C619.93583556 -0.09420317 625.87358127 -0.0945288 631.81132698 -0.09487724 C632.98002171 -0.09494467 634.14871645 -0.09501209 635.35282617 -0.09508156 C654.20592635 -0.09626572 673.05902417 -0.10091035 691.91212339 -0.10683203 C710.84140681 -0.11270441 729.7706879 -0.11497172 748.6999722 -0.11350138 C759.96199329 -0.11273773 771.22400585 -0.11479581 782.48602541 -0.12079754 C789.99424812 -0.12452735 797.5024652 -0.12467793 805.01068828 -0.12183181 C809.29822807 -0.12031158 813.58575166 -0.12042919 817.87328976 -0.12488318 C821.76489213 -0.12889547 825.6564655 -0.12840362 829.54806737 -0.12413998 C830.95569098 -0.12341897 832.36331665 -0.1244159 833.77093762 -0.12723524 C835.66650093 -0.13079459 837.56207337 -0.12770895 839.45763677 -0.1241985 C840.51190981 -0.12435448 841.56618285 -0.12451046 842.65240356 -0.12467116 C845 0 845 0 846 1 C846 19.48 846 37.96 846 57 C566.82 57 287.64 57 0 57 C0 38.19 0 19.38 0 0 Z " fill="#000000" transform="translate(177,1339)"/>
<path d="M0 0 C1.33776555 1.13760745 2.6523841 2.30323582 3.9375 3.5 C4.535625 4.04527344 5.13375 4.59054688 5.75 5.15234375 C14.9040613 14.49030361 20.9375 28.52054954 20.9375 41.5 C10.0475 41.5 -0.8425 41.5 -12.0625 41.5 C-14.3725 36.88 -16.6825 32.26 -19.0625 27.5 C-26.63673114 19.43710878 -34.72186856 16.00625044 -45.6875 15.25 C-55.8067187 15.46242635 -64.60482897 18.62394976 -72.0625 25.5 C-84.42098589 39.63753856 -86.04311167 56.90935604 -85.26220703 74.9453125 C-84.27824206 87.53236558 -79.28390267 99.73857229 -70.0625 108.5 C-62.65271737 114.62764046 -52.73739946 117.13144871 -43.2109375 116.71875 C-34.2149444 115.80279434 -27.21653085 113.07022359 -20.875 106.4375 C-15.59777854 99.86613704 -13.33736183 91.46201642 -11.0625 83.5 C-0.1725 83.5 10.7175 83.5 21.9375 83.5 C21.9375 99.87803278 15.50783369 115.56541712 4.19482422 127.43847656 C-9.38931687 141.01800191 -26.688191 146.41756153 -45.5625 146.875 C-67.16970549 146.35187818 -86.4514702 139.13927894 -101.5546875 123.390625 C-118.2445626 104.15307427 -122.49714077 79.64331227 -120.82421875 54.98828125 C-118.32494224 33.25214921 -108.89868313 14.56856502 -92.40234375 0.1796875 C-65.80145737 -20.42718472 -26.68807508 -19.72203515 0 0 Z " fill="#000000" transform="translate(296.0625,188.5)"/>
<path d="M0 0 C10.56 0 21.12 0 32 0 C32 50.49 32 100.98 32 153 C22.1 153 12.2 153 2 153 C1.67 149.37 1.34 145.74 1 142 C0.484375 142.721875 -0.03125 143.44375 -0.5625 144.1875 C-6.83595825 151.42610567 -14.66713503 154.4894785 -24 156 C-39.58132775 156.87877337 -52.23944261 154.52168693 -64.625 144.4375 C-76.49207302 133.33537768 -81.22544824 116.51198993 -82.203125 100.71875 C-82.45537663 83.3974714 -79.13401301 66.05804607 -67 53 C-57.95264139 43.85483211 -48.52375109 38.88283099 -35.50537109 38.61962891 C-21.31505373 38.65342269 -11.17707948 41.82292052 -1 52 C-0.67 34.84 -0.34 17.68 0 0 Z M-42.8125 70.8125 C-51.37376981 81.30444341 -50.73320454 94.11732463 -50 107 C-48.87224965 114.87513804 -45.15141352 122.30691664 -39.16015625 127.63671875 C-32.37829376 132.64067226 -26.15919868 132.55182986 -18 132 C-12.21028932 130.62342543 -7.36687691 127.1984945 -4.234375 122.16015625 C-3.74453125 121.13792969 -3.2546875 120.11570312 -2.75 119.0625 C-2.24984375 118.04285156 -1.7496875 117.02320313 -1.234375 115.97265625 C1.25760407 109.97140286 1.21382507 104.22902797 1.25 97.8125 C1.270625 96.91724609 1.29125 96.02199219 1.3125 95.09960938 C1.37213075 84.77603578 -1.27979011 75.95387161 -8 68 C-13.93315251 62.81207437 -19.89149276 62.64454107 -27.484375 62.73046875 C-34.35839106 63.25747665 -38.17550754 65.8580371 -42.8125 70.8125 Z " fill="#000000" transform="translate(991,178)"/>
<path d="M0 0 C12.89703166 12.02130729 18.0117515 28.85351499 18.875 46 C18.545 48.97 18.215 51.94 17.875 55 C-8.195 55 -34.265 55 -61.125 55 C-58.37137467 68.9321302 -58.37137467 68.9321302 -49.125 78 C-41.74083046 81.00116832 -32.21053239 81.38969497 -24.48046875 79.27734375 C-19.63066696 76.98690198 -15.60464166 73.52496209 -12.87573242 68.86816406 C-11.125 67 -11.125 67 -8.3059082 66.54589844 C-6.63274536 66.57731934 -6.63274536 66.57731934 -4.92578125 66.609375 C-3.71728516 66.62226563 -2.50878906 66.63515625 -1.26367188 66.6484375 C-0.00103516 66.68195313 1.26160156 66.71546875 2.5625 66.75 C3.83673828 66.76804687 5.11097656 66.78609375 6.42382812 66.8046875 C9.57496841 66.85189559 12.7246114 66.91773616 15.875 67 C14.19176724 78.00194446 8.47539148 87.89066114 -0.125 95 C-15.29041157 104.8401213 -32.55142755 107.54190505 -50.33203125 104.34765625 C-65.15651391 100.7903911 -76.75227921 93.30609673 -84.875 80.375 C-93.55446039 64.72026552 -95.25833076 46.2729717 -91.125 29 C-87.152359 15.21259888 -79.2900794 3.78565081 -67.125 -4 C-45.47715601 -15.94363806 -19.83095327 -15.51987647 0 0 Z M-56 19.875 C-59.72117712 24.43534919 -61.125 28.07383269 -61.125 34 C-45.285 34 -29.445 34 -13.125 34 C-16.60207492 22.09155112 -16.60207492 22.09155112 -25.125 14 C-36.09524042 8.66830972 -47.94839523 11.2800354 -56 19.875 Z " fill="#000000" transform="translate(416.125,229)"/>
<path d="M0 0 C11.04428038 8.8480946 17.96516012 23.6645303 19.91796875 37.51171875 C19.91796875 43.45171875 19.91796875 49.39171875 19.91796875 55.51171875 C-6.15203125 55.51171875 -32.22203125 55.51171875 -59.08203125 55.51171875 C-57.00128548 68.39848139 -57.00128548 68.39848139 -49.64453125 77.88671875 C-42.37305959 82.4978959 -34.41374176 82.21481668 -26.08203125 81.51171875 C-19.6054543 79.90172222 -15.35390954 76.53117574 -11.08203125 71.51171875 C-10.58703125 70.02671875 -10.58703125 70.02671875 -10.08203125 68.51171875 C-0.84203125 68.51171875 8.39796875 68.51171875 17.91796875 68.51171875 C16.06922509 79.60418069 9.80319161 90.445234 0.640625 97.1875 C-13.90242391 106.44634473 -31.5188413 109.06020901 -48.41015625 105.79296875 C-62.78820495 102.18390389 -74.8595056 94.84409056 -82.7734375 81.953125 C-91.50175901 65.66894308 -93.57343938 47.89988776 -89.1796875 29.95703125 C-84.4752541 15.19080258 -75.71501798 3.12217867 -62.08203125 -4.48828125 C-41.53684194 -13.81599102 -18.71060969 -13.37475101 0 0 Z M-53.9921875 20.56640625 C-57.89203966 25.89528225 -58.19121493 28.38518816 -59.08203125 35.51171875 C-43.57203125 35.51171875 -28.06203125 35.51171875 -12.08203125 35.51171875 C-13.12543 28.20792751 -14.35226919 22.60287623 -20.01953125 17.63671875 C-30.30218522 10.50181599 -45.27645212 11.19119805 -53.9921875 20.56640625 Z " fill="#000000" transform="translate(881.08203125,227.48828125)"/>
<path d="M0 0 C1.25039063 0.00322266 2.50078125 0.00644531 3.7890625 0.00976562 C5.74199219 0.02233398 5.74199219 0.02233398 7.734375 0.03515625 C9.71050781 0.04192383 9.71050781 0.04192383 11.7265625 0.04882812 C14.97918604 0.06061299 18.23178624 0.07854835 21.484375 0.09765625 C21.484375 8.01765625 21.484375 15.93765625 21.484375 24.09765625 C13.234375 24.41015625 13.234375 24.41015625 10.65527344 24.4855957 C7.46157097 24.64104475 4.95829811 24.88769032 2.015625 26.19140625 C-0.2771055 29.04562177 -0.36938298 31.6859579 -0.765625 35.28515625 C-1.013125 37.53328125 -1.260625 39.78140625 -1.515625 42.09765625 C5.414375 42.09765625 12.344375 42.09765625 19.484375 42.09765625 C19.484375 49.02765625 19.484375 55.95765625 19.484375 63.09765625 C12.554375 63.09765625 5.624375 63.09765625 -1.515625 63.09765625 C-1.515625 92.79765625 -1.515625 122.49765625 -1.515625 153.09765625 C-11.745625 153.09765625 -21.975625 153.09765625 -32.515625 153.09765625 C-32.515625 123.39765625 -32.515625 93.69765625 -32.515625 63.09765625 C-38.455625 63.09765625 -44.395625 63.09765625 -50.515625 63.09765625 C-50.515625 56.16765625 -50.515625 49.23765625 -50.515625 42.09765625 C-44.575625 42.09765625 -38.635625 42.09765625 -32.515625 42.09765625 C-32.61875 39.54015625 -32.721875 36.98265625 -32.828125 34.34765625 C-32.95662632 24.2578875 -30.73419454 16.19339705 -23.765625 8.59765625 C-16.91150546 2.3536572 -9.11627269 -0.0414376 0 0 Z " fill="#000000" transform="translate(710.515625,177.90234375)"/>
<path d="M0 0 C10.23 0 20.46 0 31 0 C31 10.89 31 21.78 31 33 C38.26 33 45.52 33 53 33 C53 39.93 53 46.86 53 54 C45.74 54 38.48 54 31 54 C31.08566931 61.45880218 31.17950563 68.91739548 31.28752708 76.37590981 C31.33736909 79.83959613 31.38369952 83.30325373 31.421875 86.76708984 C31.46596918 90.75375233 31.5255705 94.74011191 31.5859375 98.7265625 C31.59748871 99.96427399 31.60903992 101.20198547 31.62094116 102.47720337 C31.64081085 103.6379538 31.66068054 104.79870422 31.68115234 105.99462891 C31.69447601 107.01166901 31.70779968 108.02870911 31.7215271 109.0765686 C32.03249556 112.34114108 32.71003286 114.98507563 34 118 C38.45177692 120.1291107 42.35713897 120.07240042 47.2578125 120.0390625 C48.87260498 120.03060303 48.87260498 120.03060303 50.52001953 120.02197266 C51.33841309 120.01472168 52.15680664 120.0074707 53 120 C53.02886984 123.97915159 53.04675406 127.95827653 53.0625 131.9375 C53.07087891 133.07380859 53.07925781 134.21011719 53.08789062 135.38085938 C53.09111328 136.46044922 53.09433594 137.54003906 53.09765625 138.65234375 C53.10289307 139.65257568 53.10812988 140.65280762 53.11352539 141.68334961 C53 144 53 144 52 145 C47.88900089 145.24454794 43.7741558 145.22863397 39.65649414 145.24023438 C37.60194447 145.24981605 35.54844978 145.28076173 33.49414062 145.3125 C23.26929211 145.35253856 14.19943601 144.63763867 6 138 C0.75962522 132.46849329 -0.25290106 127.08840617 -0.22705078 119.61767578 C-0.22734283 118.90478897 -0.22763489 118.19190216 -0.22793579 117.45741272 C-0.22655138 115.11991868 -0.2110326 112.78275031 -0.1953125 110.4453125 C-0.1915792 108.81721165 -0.18873372 107.18910854 -0.18673706 105.56100464 C-0.17912556 101.28993452 -0.15949856 97.01900189 -0.1373291 92.74798584 C-0.11681703 88.38409281 -0.1077239 84.02017742 -0.09765625 79.65625 C-0.07625016 71.10409675 -0.04108842 62.55208136 0 54 C-6.27 54 -12.54 54 -19 54 C-19 47.07 -19 40.14 -19 33 C-12.73 33 -6.46 33 0 33 C0 22.11 0 11.22 0 0 Z " fill="#000000" transform="translate(547,187)"/>
<path d="M0 0 C8.32513122 8.32513122 13.8125 17.89944533 13.8125 29.8125 C5.8925 29.8125 -2.0275 29.8125 -10.1875 29.8125 C-11.5075 26.5125 -12.8275 23.2125 -14.1875 19.8125 C-20.77652847 13.86111945 -26.60329933 11.26604795 -35.53515625 11.5078125 C-43.23877236 12.39276398 -48.90609183 15.46221235 -53.71875 21.5234375 C-60.86571246 32.66205453 -61.7262956 46.11929938 -59.69140625 58.9375 C-57.42997741 67.11441784 -53.2970104 74.02725262 -46.1875 78.8125 C-37.80033821 82.67870097 -30.87017728 82.72827356 -22.265625 79.6640625 C-21.57984375 79.38304687 -20.8940625 79.10203125 -20.1875 78.8125 C-19.48109375 78.53148437 -18.7746875 78.25046875 -18.046875 77.9609375 C-15.70423746 76.51401432 -15.20646028 75.34857892 -14.1875 72.8125 C-13.84589844 72.008125 -13.50429687 71.20375 -13.15234375 70.375 C-12.64380859 69.1065625 -12.64380859 69.1065625 -12.125 67.8125 C-11.61259766 66.5440625 -11.61259766 66.5440625 -11.08984375 65.25 C-10.05399675 62.58831563 -10.05399675 62.58831563 -9.1875 58.8125 C-1.2675 58.8125 6.6525 58.8125 14.8125 58.8125 C13.48260705 73.44132248 9.6935408 84.00976432 -1.50390625 93.84765625 C-13.62232552 103.00941464 -28.25515801 105.16540894 -43 103.125 C-56.49191049 100.63919692 -67.1070652 94.44978364 -75.5 83.5625 C-86.11327437 68.03924617 -88.20751826 50.57385854 -85.125 32.25 C-81.94456582 18.10816244 -74.7169147 5.34015406 -62.3125 -2.5625 C-42.25610672 -13.59039226 -18.9843585 -13.02848133 0 0 Z " fill="#000000" transform="translate(261.1875,1475.1875)"/>
<path d="M0 0 C9.59780048 8.08160547 13.27221709 17.87655642 15.12109375 30.08203125 C16.15324981 43.0646192 13.9509595 56.6669191 5.43359375 66.89453125 C-0.30842255 72.95852977 -6.8388832 76.72033548 -15.19921875 77.3203125 C-22.97998293 77.47209332 -30.09275798 77.38815079 -36.87890625 73.08203125 C-38.52890625 71.43203125 -40.17890625 69.78203125 -41.87890625 68.08203125 C-42.20890625 79.63203125 -42.53890625 91.18203125 -42.87890625 103.08203125 C-50.13890625 103.08203125 -57.39890625 103.08203125 -64.87890625 103.08203125 C-64.87890625 67.77203125 -64.87890625 32.46203125 -64.87890625 -3.91796875 C-57.94890625 -3.91796875 -51.01890625 -3.91796875 -43.87890625 -3.91796875 C-43.54890625 -1.60796875 -43.21890625 0.70203125 -42.87890625 3.08203125 C-42.41742188 2.68371094 -41.9559375 2.28539062 -41.48046875 1.875 C-29.27364445 -8.04002923 -13.27265851 -8.84243599 0 0 Z M-38.19140625 16.33203125 C-43.6870286 25.28786026 -45.07444831 34.46280534 -43.12890625 44.70703125 C-41.54369216 51.14765635 -38.2576816 55.26026982 -32.87890625 59.08203125 C-29.18156211 60.93070332 -24.92258785 60.4184855 -20.87890625 60.08203125 C-15.69411023 58.32115713 -13.01429893 55.52383755 -9.87890625 51.08203125 C-6.35672022 42.62139558 -6.37703756 30.98303462 -9.50390625 22.33203125 C-12.12561486 16.90398665 -15.40409679 14.12145123 -21.00390625 11.76953125 C-27.50473312 10.21498569 -33.4149094 11.68462891 -38.19140625 16.33203125 Z " fill="#000000" transform="translate(501.87890625,1500.91796875)"/>
<path d="M0 0 C1 1 1 1 1.11352539 3.77563477 C1.10567017 5.59019165 1.10567017 5.59019165 1.09765625 7.44140625 C1.09282227 9.39916992 1.09282227 9.39916992 1.08789062 11.39648438 C1.07953401 12.7851569 1.07106905 14.17382877 1.0625 15.5625 C1.05748666 16.95507656 1.05292347 18.34765481 1.04882812 19.74023438 C1.03699434 23.1601987 1.0205088 26.58007844 1 30 C-0.68416016 29.94779297 -0.68416016 29.94779297 -2.40234375 29.89453125 C-14.03106271 29.54513687 -14.03106271 29.54513687 -25 33 C-26.051875 33.474375 -27.10375 33.94875 -28.1875 34.4375 C-33.92288505 39.66307304 -37.71794311 48.01410256 -38.15821838 55.79681396 C-38.17376266 56.87158997 -38.18930695 57.94636597 -38.20532227 59.05371094 C-38.22526749 60.27467468 -38.24521271 61.49563843 -38.26576233 62.75360107 C-38.29083107 64.72408417 -38.29083107 64.72408417 -38.31640625 66.734375 C-38.33698919 68.09629936 -38.35798601 69.45821752 -38.37937927 70.82012939 C-38.43446165 74.39734872 -38.48393164 77.97462438 -38.53222656 81.55194092 C-38.58254289 85.20525085 -38.63812472 88.85848042 -38.69335938 92.51171875 C-38.80126814 99.67441727 -38.9003984 106.83716184 -39 114 C-49.56 114 -60.12 114 -71 114 C-71 77.37 -71 40.74 -71 3 C-61.1 3 -51.2 3 -41 3 C-40.505 10.92 -40.505 10.92 -40 19 C-38.576875 16.9890625 -38.576875 16.9890625 -37.125 14.9375 C-27.32455419 2.39055828 -15.4403347 -1.10288105 0 0 Z " fill="#000000" transform="translate(518,217)"/>
<path d="M0 0 C6.23300761 5.95598505 7.02225981 12.4814375 7.30297852 20.79174805 C7.3374522 22.94827792 7.36231891 25.10497713 7.37890625 27.26171875 C7.39590073 28.41114456 7.4128952 29.56057037 7.43040466 30.74482727 C7.48321 34.39233002 7.52368724 38.03982371 7.5625 41.6875 C7.60655308 45.34583168 7.65332804 49.00407987 7.70530701 52.66230774 C7.73704936 54.93160164 7.76400439 57.20096895 7.78553772 59.47038269 C7.79902756 60.50198013 7.8125174 61.53357758 7.82641602 62.59643555 C7.83592789 63.49750534 7.84543976 64.39857513 7.85523987 65.32695007 C8.01293091 68.2387741 8.52059762 71.12358574 9 74 C1.41 74 -6.18 74 -14 74 C-14.66 72.35 -15.32 70.7 -16 69 C-16.78375 69.598125 -17.5675 70.19625 -18.375 70.8125 C-28.13366505 77.14549048 -40.93007453 77.70534274 -52.10546875 75.34375 C-58.70738365 73.02658774 -62.61679996 69.06150992 -66.109375 63.109375 C-68.96313781 56.35046308 -68.40389041 48.75378735 -66 42 C-62.76188534 35.64831354 -58.10441616 32.41904621 -51.48046875 30.12890625 C-44.29963313 28.19058279 -36.94330681 27.12382586 -29.58666992 26.08935547 C-25.49273769 25.4949045 -21.71906444 24.92867334 -18 23 C-16.50501087 20.01002175 -16.88422554 17.29957225 -17 14 C-17.495 12.515 -17.495 12.515 -18 11 C-21.32404666 9.65473876 -24.89333339 9.79916763 -28.4375 9.75 C-29.54996094 9.72421875 -30.66242187 9.6984375 -31.80859375 9.671875 C-35.48560753 10.04992782 -37.17554627 10.61641297 -40 13 C-40.99 15.31 -41.98 17.62 -43 20 C-50.26 20 -57.52 20 -65 20 C-63.98688388 10.88195493 -62.96896572 6.96896572 -56.75 0.75 C-41.09099137 -9.21482367 -15.49136836 -11.53612537 0 0 Z M-27.75 39.25 C-28.75289062 39.45496094 -29.75578125 39.65992188 -30.7890625 39.87109375 C-36.07932148 41.02877642 -40.13494785 41.94007127 -44 46 C-45.59745879 49.19491759 -45.50816842 52.53209389 -45 56 C-42.79259319 58.96858157 -41.51402627 59.82865791 -38 61 C-32.11079361 61.63808453 -26.88891624 61.40284995 -21.6953125 58.375 C-18.49544376 55.77971475 -16.99331497 52.97325987 -16 49 C-15.70394029 44.97358794 -15.75833214 41.02779772 -16 37 C-19.86547617 37 -23.98930573 38.4359763 -27.75 39.25 Z " fill="#000000" transform="translate(738,1502)"/>
<path d="M0 0 C8.30106283 6.3993648 13.18317283 15.81763928 14.87109375 26.08984375 C16.35584016 39.82897601 14.06074813 52.59417769 5.515625 63.796875 C-1.58782677 71.39591643 -10.85687605 75.50481399 -21.21875 75.95703125 C-22.72123373 75.97645212 -24.2239955 75.98001724 -25.7265625 75.96875 C-26.51667725 75.96311035 -27.30679199 75.9574707 -28.12084961 75.95166016 C-40.07572272 75.70344509 -49.24780572 71.70977486 -57.6015625 63.03125 C-62.96604963 56.53148769 -66.39250107 48.07237626 -66.8515625 39.65625 C-66.90183594 38.84929687 -66.95210937 38.04234375 -67.00390625 37.2109375 C-67.44321356 24.87518827 -64.11009144 12.54991752 -55.66015625 3.3203125 C-40.75327375 -10.39530725 -16.59246593 -10.95424935 0 0 Z M-37.6796875 14.2109375 C-44.45282646 21.60878345 -44.3757142 29.7695449 -44.1640625 39.28125 C-43.86006385 45.24975675 -42.4730162 49.84314956 -38.35546875 54.26171875 C-33.6335319 58.46553784 -29.49279103 59.02304915 -23.41796875 58.92578125 C-19.46937456 58.51108871 -16.77886823 57.33775144 -13.8515625 54.65625 C-6.98853636 45.95714154 -6.89768814 36.34640054 -7.8515625 25.65625 C-9.02805779 20.59395883 -11.0524634 17.5296839 -14.5390625 13.71875 C-22.18454974 8.95835229 -30.45153645 8.06392016 -37.6796875 14.2109375 Z " fill="#000000" transform="translate(920.8515625,1502.34375)"/>
<path d="M0 0 C8.13584297 6.29918001 12.74776087 14.62084806 14.83203125 24.69921875 C16.48467356 37.71799288 14.99226954 50.83050896 7.21484375 61.71484375 C1.08949441 69.41687754 -6.96989955 74.29645405 -16.78515625 75.71484375 C-29.92902986 76.6829815 -42.45598167 76.12572514 -53.04296875 67.33984375 C-61.95103995 59.03097017 -65.83239212 49.88090884 -66.78515625 37.71484375 C-66.91426161 24.89037802 -64.14815855 13.98684638 -55.59765625 4.21484375 C-40.13929099 -9.52592537 -17.57718647 -11.65165197 0 0 Z M-35.78515625 12.71484375 C-41.85760757 18.39126564 -43.85670724 24.38472339 -44.18969727 32.48168945 C-44.3141693 40.44328963 -43.81261661 48.19315197 -38.2890625 54.39453125 C-33.53513004 58.59126963 -29.35324962 59.01398028 -23.28515625 58.92578125 C-18.20227074 58.49691279 -15.52862354 56.47520802 -12.03515625 52.90234375 C-6.66595409 45.29597402 -6.20943508 36.47507616 -7.47265625 27.46484375 C-8.37616104 22.73508715 -9.61535514 19.44402153 -12.78515625 15.71484375 C-13.32140625 14.97234375 -13.85765625 14.22984375 -14.41015625 13.46484375 C-20.90524119 8.67899169 -28.89771367 8.8551482 -35.78515625 12.71484375 Z " fill="#000000" transform="translate(350.78515625,1502.28515625)"/>
<path d="M0 0 C9.16242798 8.07308393 13.41446949 17.66062614 14.2578125 29.671875 C14.77610134 42.86497364 12.21686327 55.00450192 3 65 C-8.57719994 74.67157234 -21.42930844 76.14997962 -36 75 C-46.62725653 73.04853475 -54.42860008 67.76026983 -60.875 59.1875 C-68.30800369 47.61546874 -68.48884888 34.16139359 -66.53125 20.80078125 C-63.9338098 10.95215381 -57.29965464 2.73194899 -49 -3 C-32.89368064 -10.73998125 -15.01312612 -9.69856219 0 0 Z M-39.875 14.625 C-45.51572344 23.58379606 -46.52079637 33.31887628 -44.4609375 43.72265625 C-42.73807089 49.39296997 -40.32993212 53.39123734 -35.375 56.8125 C-29.68239209 58.81545464 -24.40061855 58.81530441 -18.6875 56.875 C-12.8660799 52.81354412 -9.88828666 47.99728997 -8.375 41.1875 C-7.24515601 31.5838261 -8.04503502 22.80949527 -13.5859375 14.66015625 C-16.56116141 11.16714475 -20.01150183 10.26111272 -24.3125 9.125 C-30.59592031 8.9120027 -35.21295028 10.36834591 -39.875 14.625 Z " fill="#000000" transform="translate(590,1503)"/>
<path d="M0 0 C7.45226032 6.0973039 10.41289602 12.43217223 11.54104614 21.78567505 C11.95975537 26.72377768 11.87051782 31.67280395 11.84765625 36.625 C11.8462413 37.7900708 11.84482635 38.9551416 11.84336853 40.15551758 C11.83779916 43.8537052 11.82525231 47.55183087 11.8125 51.25 C11.80748104 53.76692621 11.80291883 56.28385337 11.79882812 58.80078125 C11.78869335 64.95056353 11.76911191 71.10021294 11.75 77.25 C4.16 77.25 -3.43 77.25 -11.25 77.25 C-11.28738281 73.57746094 -11.32476563 69.90492187 -11.36328125 66.12109375 C-11.40952921 62.55324441 -11.46075114 58.98549862 -11.51245117 55.41772461 C-11.54564804 52.94350508 -11.57369618 50.46921078 -11.59643555 47.99487305 C-11.63007701 44.43245666 -11.68239987 40.87072228 -11.73828125 37.30859375 C-11.74467117 36.20728622 -11.7510611 35.1059787 -11.75764465 33.97129822 C-11.87153936 27.98401783 -12.3044433 23.51328366 -15.25 18.25 C-18.64874851 15.23967989 -21.74254947 14.76449376 -26.26171875 14.96875 C-31.0392399 15.64454867 -33.61921459 17.44873205 -36.5625 21.1875 C-38.83830918 25.31767222 -39.37088525 28.52192536 -39.45532227 33.20214844 C-39.47526749 34.18286316 -39.49521271 35.16357788 -39.51576233 36.17401123 C-39.54083107 37.7507663 -39.54083107 37.7507663 -39.56640625 39.359375 C-39.58718735 40.44132141 -39.60796844 41.52326782 -39.62937927 42.63800049 C-39.69472931 46.09193613 -39.75369229 49.54594737 -39.8125 53 C-39.85569904 55.34245571 -39.89931378 57.6849038 -39.94335938 60.02734375 C-40.05117755 65.76815283 -40.15035965 71.50901983 -40.25 77.25 C-47.51 77.25 -54.77 77.25 -62.25 77.25 C-62.25 51.18 -62.25 25.11 -62.25 -1.75 C-55.32 -1.75 -48.39 -1.75 -41.25 -1.75 C-40.92 0.89 -40.59 3.53 -40.25 6.25 C-39.82589844 5.85167969 -39.40179687 5.45335937 -38.96484375 5.04296875 C-28.21532186 -4.66703893 -13.00435996 -7.00234767 0 0 Z " fill="#000000" transform="translate(1011.25,1498.75)"/>
<path d="M0 0 C10.56 0 21.12 0 32 0 C32 36.63 32 73.26 32 111 C21.44 111 10.88 111 0 111 C0 74.37 0 37.74 0 0 Z " fill="#000000" transform="translate(617,220)"/>
<path d="M0 0 C10.23 0 20.46 0 31 0 C31 36.63 31 73.26 31 111 C20.77 111 10.54 111 0 111 C0 74.37 0 37.74 0 0 Z " fill="#000000" transform="translate(750,220)"/>
<path d="M0 0 C7.59 0 15.18 0 23 0 C23 7.59 23 15.18 23 23 C27.95 23 32.9 23 38 23 C38 28.28 38 33.56 38 39 C33.05 39 28.1 39 23 39 C23.09337381 45.08751688 23.19943093 51.1746284 23.31738281 57.26171875 C23.35572685 59.33359681 23.39057005 61.40554269 23.421875 63.47753906 C23.46740809 66.45141887 23.52542118 69.42482962 23.5859375 72.3984375 C23.59748871 73.32868744 23.60903992 74.25893738 23.62094116 75.21737671 C23.64081085 76.07811798 23.66068054 76.93885925 23.68115234 77.82568359 C23.69447601 78.58513275 23.70779968 79.34458191 23.7215271 80.12704468 C23.84617052 82.2431226 23.84617052 82.2431226 26 84 C28.89223503 84.46396693 28.89223503 84.46396693 32.125 84.625 C33.22070312 84.69976563 34.31640625 84.77453125 35.4453125 84.8515625 C36.70988281 84.92503906 36.70988281 84.92503906 38 85 C38.02684312 87.81256281 38.04676188 90.62487241 38.0625 93.4375 C38.07087891 94.23994141 38.07925781 95.04238281 38.08789062 95.86914062 C38.0965143 97.91295221 38.0522815 99.95683902 38 102 C35.75257588 104.24742412 30.57556115 103.24088657 27.5625 103.25 C10.97256922 103.22949872 10.97256922 103.22949872 5.37109375 98.67578125 C-0.5421128 92.25717243 -0.27639403 84.87094075 -0.1953125 76.6953125 C-0.1924826 75.61619598 -0.18965271 74.53707947 -0.18673706 73.42526245 C-0.1755766 69.99172701 -0.1504793 66.55845609 -0.125 63.125 C-0.11496487 60.79167044 -0.10583995 58.45833678 -0.09765625 56.125 C-0.07565075 50.41656534 -0.04114908 44.70832746 0 39 C-4.29 39 -8.58 39 -13 39 C-13 33.72 -13 28.44 -13 23 C-8.71 23 -4.42 23 0 23 C0 15.41 0 7.82 0 0 Z " fill="#000000" transform="translate(765,1474)"/>
<path d="M0 0 C1 1 1 1 1.11352539 3.04125977 C1.10828857 3.91580811 1.10305176 4.79035645 1.09765625 5.69140625 C1.09443359 6.63564453 1.09121094 7.57988281 1.08789062 8.55273438 C1.07532227 10.04256836 1.07532227 10.04256836 1.0625 11.5625 C1.05798828 12.55958984 1.05347656 13.55667969 1.04882812 14.58398438 C1.03700007 17.05604849 1.02051849 19.52799518 1 22 C0.154375 21.95359375 -0.69125 21.9071875 -1.5625 21.859375 C-8.61785572 21.63488641 -14.22831616 21.62492114 -20 26 C-26.11300232 32.11300232 -26.31271484 39.03835761 -26.4140625 47.2109375 C-26.43342865 48.17907379 -26.4527948 49.14721008 -26.4727478 50.14468384 C-26.5322833 53.2213677 -26.5788247 56.29808951 -26.625 59.375 C-26.66320373 61.46746377 -26.70225685 63.55991222 -26.7421875 65.65234375 C-26.8395541 70.76814713 -26.91932958 75.88379734 -27 81 C-34.59 81 -42.18 81 -50 81 C-50 54.93 -50 28.86 -50 2 C-42.74 2 -35.48 2 -28 2 C-27.67 5.3 -27.34 8.6 -27 12 C-26.01 10.9275 -25.02 9.855 -24 8.75 C-17.00605245 1.74186595 -9.66551238 -0.31690205 0 0 Z " fill="#000000" transform="translate(666,1495)"/>
<path d="M0 0 C1 1 1 1 1.11352539 3.04125977 C1.10828857 3.91580811 1.10305176 4.79035645 1.09765625 5.69140625 C1.09443359 6.63564453 1.09121094 7.57988281 1.08789062 8.55273438 C1.07532227 10.04256836 1.07532227 10.04256836 1.0625 11.5625 C1.05798828 12.55958984 1.05347656 13.55667969 1.04882812 14.58398438 C1.03700007 17.05604849 1.02051849 19.52799518 1 22 C0.154375 21.95359375 -0.69125 21.9071875 -1.5625 21.859375 C-8.61785572 21.63488641 -14.22831616 21.62492114 -20 26 C-26.11300232 32.11300232 -26.31271484 39.03835761 -26.4140625 47.2109375 C-26.43342865 48.17907379 -26.4527948 49.14721008 -26.4727478 50.14468384 C-26.5322833 53.2213677 -26.5788247 56.29808951 -26.625 59.375 C-26.66320373 61.46746377 -26.70225685 63.55991222 -26.7421875 65.65234375 C-26.8395541 70.76814713 -26.91932958 75.88379734 -27 81 C-34.59 81 -42.18 81 -50 81 C-50 54.93 -50 28.86 -50 2 C-43.07 2 -36.14 2 -29 2 C-28.67 5.63 -28.34 9.26 -28 13 C-27.01 11.6696875 -27.01 11.6696875 -26 10.3125 C-19.2764321 2.27840615 -10.23026275 -0.52915152 0 0 Z " fill="#000000" transform="translate(428,1495)"/>
<path d="M0 0 C7.26 0 14.52 0 22 0 C22 26.07 22 52.14 22 79 C14.41 79 6.82 79 -1 79 C-1.02255146 68.84733453 -1.04091534 58.69468557 -1.05181217 48.54200077 C-1.05704089 43.82820267 -1.06413834 39.11442253 -1.07543945 34.40063477 C-1.08626873 29.85544596 -1.09227692 25.31027448 -1.09487724 20.76507378 C-1.09673142 19.02705042 -1.10035189 17.28902806 -1.10573006 15.55101204 C-1.11294103 13.12521405 -1.11399092 10.69948854 -1.11352539 8.27368164 C-1.11712067 7.54791931 -1.12071594 6.82215698 -1.12442017 6.07440186 C-1.11405216 1.11405216 -1.11405216 1.11405216 0 0 Z " fill="#000000" transform="translate(819,1497)"/>
<path d="M0 0 C10.56 0 21.12 0 32 0 C32.020625 4.104375 32.04125 8.20875 32.0625 12.4375 C32.071604 13.73357178 32.08070801 15.02964355 32.09008789 16.36499023 C32.09258545 17.37762939 32.09508301 18.39026855 32.09765625 19.43359375 C32.10289307 20.47572021 32.10812988 21.51784668 32.11352539 22.59155273 C32 25 32 25 31 26 C28.70848583 26.08790975 26.41427476 26.10694038 24.12109375 26.09765625 C23.09110008 26.09553383 23.09110008 26.09553383 22.04029846 26.09336853 C19.83932199 26.08775479 17.63844591 26.07520007 15.4375 26.0625 C13.94856917 26.05748676 12.45963676 26.05292355 10.97070312 26.04882812 C7.31373195 26.03863021 3.65697883 26.01905779 0 26 C0 17.42 0 8.84 0 0 Z " fill="#000000" transform="translate(617,178)"/>
<path d="M0 0 C10.23 0 20.46 0 31 0 C31 8.58 31 17.16 31 26 C20.77 26 10.54 26 0 26 C0 17.42 0 8.84 0 0 Z " fill="#000000" transform="translate(750,178)"/>
<path d="M0 0 C7.06892396 3.68093518 10.86431241 7.95567215 14.0625 15.25 C16.09602925 23.6510177 15.11792742 31.00947902 10.7734375 38.4609375 C6.75075374 44.24757884 2.12412279 47.87619338 -4.9375 49.25 C-13.96237665 49.92041941 -20.58285511 49.15309659 -28.125 44.125 C-34.02281131 38.80730128 -36.59256715 31.734127 -37.1875 24 C-36.69896294 16.67194417 -34.25921794 9.49345738 -28.9375 4.25 C-20.14730325 -1.72361962 -10.1776009 -4.36182896 0 0 Z M-26.49609375 9.52734375 C-30.68710316 14.53611109 -31.51621565 20.41364161 -31.28125 26.796875 C-30.32774511 33.60143264 -26.82010097 37.87157115 -21.62109375 42.12109375 C-16.75030108 45.3871241 -10.53897226 44.76582948 -4.9375 44.25 C0.48133138 42.54135947 3.85589456 38.73924762 7.0625 34.25 C9.81192372 28.42315113 10.18782682 22.18527462 8.41015625 15.96875 C5.78597441 10.11220684 1.73488746 5.67882625 -4.296875 3.33203125 C-12.91996263 1.12269979 -20.07296514 3.46188355 -26.49609375 9.52734375 Z " fill="#000000" transform="translate(1006.9375,1256.75)"/>
<path d="M0 0 C15 0 15 0 20 2 C22.51012963 4.51012963 22.29721609 5.46805237 22.3125 8.9375 C22.32925781 9.81277344 22.34601562 10.68804688 22.36328125 11.58984375 C22 14 22 14 20.66796875 15.81640625 C19 17 19 17 16 17 C16.33773437 17.59167969 16.67546875 18.18335938 17.0234375 18.79296875 C19.27641158 22.78450953 21.4619821 26.66558593 23 31 C20.2578125 31.37109375 20.2578125 31.37109375 17 31 C14.8046875 28.41015625 14.8046875 28.41015625 12.875 25.0625 C11.02224655 21.76760873 11.02224655 21.76760873 9 19 C7.68 18.67 6.36 18.34 5 18 C5 22.29 5 26.58 5 31 C3.35 31 1.7 31 0 31 C0 20.77 0 10.54 0 0 Z M5 5 C5 7.64 5 10.28 5 13 C6.62463842 13.05395478 8.24978541 13.09277195 9.875 13.125 C10.77992188 13.14820313 11.68484375 13.17140625 12.6171875 13.1953125 C15.18806994 13.24324836 15.18806994 13.24324836 17 11 C16.83492354 8.42459787 16.83492354 8.42459787 16 6 C13.59454362 4.79727181 12.05003047 4.89928528 9.375 4.9375 C8.55773437 4.94652344 7.74046875 4.95554687 6.8984375 4.96484375 C6.27195312 4.97644531 5.64546875 4.98804688 5 5 Z " fill="#000000" transform="translate(986,1265)"/>
<path d="M0 0 C7.59 0 15.18 0 23 0 C23 5.94 23 11.88 23 18 C15.41 18 7.82 18 0 18 C0 12.06 0 6.12 0 0 Z " fill="#000000" transform="translate(818,1468)"/>
</svg>
