<?xml version="1.0" encoding="UTF-8"?>
<svg version="1.1" xmlns="http://www.w3.org/2000/svg" width="400" height="400">
<path d="M0 0 C0.70226141 1.24176695 1.38629109 2.49385599 2.0625 3.75 C2.44535156 4.44609375 2.82820313 5.1421875 3.22265625 5.859375 C4.16561372 8.4560619 3.9194049 9.42911713 3 12 C0.85527184 14.03705524 -1.26994093 15.89624762 -3.5625 17.75 C-4.85084328 18.82456699 -6.13731294 19.90138444 -7.421875 20.98046875 C-8.04255859 21.50044434 -8.66324219 22.02041992 -9.30273438 22.55615234 C-16.41138148 28.60341054 -22.2570204 35.67838146 -28 43 C-28.76932861 43.97864014 -28.76932861 43.97864014 -29.55419922 44.97705078 C-36.14530851 53.39374813 -42.53348796 61.79638154 -48 71 C-46.35 71 -44.7 71 -43 71 C-43 93.44 -43 115.88 -43 139 C-122.2 139 -201.4 139 -283 139 C-283 116.56 -283 94.12 -283 71 C-277.66432861 70.98018066 -272.32865723 70.96036133 -266.83129883 70.93994141 C-249.22924219 70.8731231 -231.62724496 70.79558274 -214.02525806 70.71247292 C-203.35010527 70.66233209 -192.67496021 70.61588931 -181.99975586 70.578125 C-172.69622051 70.54520372 -163.39274494 70.5053717 -154.08927554 70.45720994 C-149.16229583 70.43194636 -144.23535576 70.41016461 -139.30832863 70.39665604 C-134.67168011 70.38383448 -130.03516756 70.36177893 -125.3985939 70.33261681 C-123.69623598 70.3235418 -121.99385616 70.31785097 -120.2914753 70.31578636 C-117.96778791 70.31246329 -115.64448593 70.2969848 -113.32087708 70.2784729 C-112.02022717 70.27294214 -110.71957727 70.26741138 -109.37951374 70.26171303 C-106.11499653 70.00890545 -103.95804615 69.3195272 -101 68 C-96.87629745 67.6701038 -95.50662485 67.6622501 -92 70 C-84.33658617 71.79718297 -75.55472797 72.38483976 -68 70 C-62.1755335 65.57649419 -58.91733787 58.84024026 -55.46875 52.53466797 C-53.40348035 48.97056731 -50.9189695 45.94291356 -48.1875 42.875 C-47.51605957 42.10446289 -47.51605957 42.10446289 -46.83105469 41.31835938 C-45.56325024 39.87078459 -44.28186857 38.43513547 -43 37 C-41.84757812 35.68322266 -41.84757812 35.68322266 -40.671875 34.33984375 C-10.3126932 0 -10.3126932 0 0 0 Z " fill="#EE2F25" transform="translate(359,167)"/>
<path d="M0 0 C0.02578125 0.82242188 0.0515625 1.64484375 0.078125 2.4921875 C0.46639221 10.13399213 1.79577174 16.08420734 5 23 C5.495 24.485 5.495 24.485 6 26 C6.62003906 25.71125 7.24007812 25.4225 7.87890625 25.125 C16.91998824 21.33485209 26.1380194 20.17444785 35.625 23.12890625 C38.48753497 24.31375268 41.25385992 25.56812063 44 27 C44.2990625 26.236875 44.598125 25.47375 44.90625 24.6875 C46 22 46 22 47.5 19 C49.48821577 14.47128631 49.9317567 9.66055641 50.5703125 4.79296875 C51 2 51 2 52 0 C53.32 0 54.64 0 56 0 C58.61449675 5.2289935 57.58244275 12.84826828 56.10546875 18.3046875 C55.14695822 20.91264901 54.10102576 23.45028654 53 26 C60.39292842 25.45838047 67.5444973 24.43426073 74.8125 23 C106.83808637 16.99874103 106.83808637 16.99874103 119 25 C121.15572004 26.71006638 121.91782856 27.5303338 122.3984375 30.27734375 C122.243902 47.81712301 115.49926803 62.08492352 103.55078125 74.57421875 C97.90719754 79.94124093 93.84154018 81.44996534 86.07421875 81.328125 C74.45704987 80.08817305 63.76583295 71.95900944 54 66 C54.2165625 67.051875 54.2165625 67.051875 54.4375 68.125 C57.25 82.5 57.25 82.5 55 87 C53.35 86.67 51.7 86.34 50 86 C49.76216797 84.19015625 49.76216797 84.19015625 49.51953125 82.34375 C48.08304257 72.20152593 46.87459586 64.30312997 39.0625 57.125 C32.49704256 52.56937647 25.82520836 52.04522615 18 53 C11.54410425 55.08053072 6.65677655 58.19217843 3 64 C-0.18338646 70.86485379 -1.67287838 77.45984658 -2 85 C-3.65 85.33 -5.3 85.66 -7 86 C-10.08173179 79.83653642 -7.48384923 71.34610517 -6 65 C-7.05058594 65.60328125 -8.10117188 66.2065625 -9.18359375 66.828125 C-34.27099968 81.14841675 -34.27099968 81.14841675 -45.015625 78.50390625 C-52.61262292 75.93774474 -57.36454918 71.22180859 -61.5625 64.5 C-61.94599609 63.89486572 -62.32949219 63.28973145 -62.72460938 62.66625977 C-68.59612181 53.09773115 -72.08416959 43.17375945 -72.3125 31.9375 C-72.34988281 30.72964844 -72.38726562 29.52179688 -72.42578125 28.27734375 C-71.92334336 24.40995482 -71.03972761 23.34254238 -68 21 C-49.25665123 11.62832561 -21.03205892 21.9168552 -2 26 C-2.28584961 25.30092529 -2.57169922 24.60185059 -2.86621094 23.8815918 C-5.19543587 17.90341732 -6.48520425 13.22181576 -6.25 6.8125 C-6.21390625 5.51957031 -6.1778125 4.22664063 -6.140625 2.89453125 C-6.09421875 1.93933594 -6.0478125 0.98414062 -6 0 C-3.50907189 -1.24546405 -2.58919267 -0.7767578 0 0 Z " fill="#040303" transform="translate(237,90)"/>
<path d="M0 0 C51.48 0 102.96 0 156 0 C156 3.63 156 7.26 156 11 C108.15 11 60.3 11 11 11 C11 81.62 11 152.24 11 225 C94.16 225 177.32 225 263 225 C263 199.92 263 174.84 263 149 C266.63 149 270.26 149 274 149 C274 177.71 274 206.42 274 236 C183.58 236 93.16 236 0 236 C0 158.12 0 80.24 0 0 Z " fill="#687819" transform="translate(59,89)"/>
<path d="M0 0 C0.70226141 1.24176695 1.38629109 2.49385599 2.0625 3.75 C2.44535156 4.44609375 2.82820313 5.1421875 3.22265625 5.859375 C4.16561372 8.4560619 3.9194049 9.42911713 3 12 C0.85527184 14.03705524 -1.26994093 15.89624762 -3.5625 17.75 C-4.85084328 18.82456699 -6.13731294 19.90138444 -7.421875 20.98046875 C-8.04255859 21.50044434 -8.66324219 22.02041992 -9.30273438 22.55615234 C-16.41071915 28.6028471 -22.25991089 35.67687241 -28 43 C-28.76135254 43.97066406 -28.76135254 43.97066406 -29.53808594 44.9609375 C-36.39251415 53.73591044 -43.09027456 62.55181109 -49 72 C-49.48434006 72.6906102 -49.96868011 73.3812204 -50.46769714 74.09275818 C-54.74999176 80.53194909 -55.87763315 85.38203151 -55.8046875 93.0390625 C-55.81839386 94.04593109 -55.83210022 95.05279968 -55.84622192 96.09017944 C-55.88326051 99.26891842 -55.87982459 102.44607742 -55.875 105.625 C-55.89314501 107.79559705 -55.91395333 109.96617357 -55.9375 112.13671875 C-55.98910525 117.42463268 -56.00759307 122.71185707 -56 128 C-56.83249268 128.01981934 -57.66498535 128.03963867 -58.52270508 128.06005859 C-61.614765 128.13820742 -64.70643383 128.22490206 -67.7980957 128.31738281 C-69.7929536 128.37444092 -71.7880854 128.42164442 -73.78320312 128.46875 C-75.03681641 128.50742187 -76.29042969 128.54609375 -77.58203125 128.5859375 C-78.73936768 128.6173584 -79.8967041 128.6487793 -81.08911133 128.68115234 C-84.19127028 128.79471033 -84.19127028 128.79471033 -87 131 C-87 130.01 -87 129.02 -87 128 C-91.62 128 -96.24 128 -101 128 C-101.00410889 126.85523193 -101.00821777 125.71046387 -101.01245117 124.53100586 C-101.03431561 120.26086143 -101.08868034 115.99162888 -101.15258789 111.72192383 C-101.17570437 109.87826311 -101.19014865 108.03447153 -101.19555664 106.19067383 C-101.20489303 103.53124033 -101.24598304 100.87384703 -101.29296875 98.21484375 C-101.2890361 97.39789536 -101.28510345 96.58094696 -101.28105164 95.73924255 C-101.43400614 89.66344739 -103.01170172 86.60049756 -107 82 C-109.13850148 80.78521313 -109.13850148 80.78521313 -111.3125 80.5625 C-113.1378125 80.2840625 -113.1378125 80.2840625 -115 80 C-114.04882866 78.8274869 -113.08882991 77.66212985 -112.125 76.5 C-111.32449219 75.52546875 -111.32449219 75.52546875 -110.5078125 74.53125 C-109.76144531 73.77328125 -109.76144531 73.77328125 -109 73 C-108.34 73 -107.68 73 -107 73 C-106.67 72.01 -106.34 71.02 -106 70 C-102.30887219 67.9962449 -99.15873245 67.63837109 -95 68 C-93.515 68.99 -93.515 68.99 -92 70 C-84.33658617 71.79718297 -75.55472797 72.38483976 -68 70 C-62.1755335 65.57649419 -58.91733787 58.84024026 -55.46875 52.53466797 C-53.40348035 48.97056731 -50.9189695 45.94291356 -48.1875 42.875 C-47.73987305 42.36130859 -47.29224609 41.84761719 -46.83105469 41.31835938 C-45.56325024 39.87078459 -44.28186857 38.43513547 -43 37 C-41.84757812 35.68322266 -41.84757812 35.68322266 -40.671875 34.33984375 C-10.3126932 0 -10.3126932 0 0 0 Z " fill="#FBF9F9" transform="translate(359,167)"/>
<path d="M0 0 C-0.9590625 0.7115625 -0.9590625 0.7115625 -1.9375 1.4375 C-3.88293306 2.83738726 -3.88293306 2.83738726 -5 4 C-3.989375 3.34 -2.97875 2.68 -1.9375 2 C5.63710654 -1.78730327 15.40139133 -1.05915707 23.375 1.25 C25.4609375 1.953125 25.4609375 1.953125 27 3 C27.7890625 5.046875 27.7890625 5.046875 28 7 C27.67 7.33 27.34 7.66 27 8 C27.04125 9.03125 27.0825 10.0625 27.125 11.125 C26.98018117 15.6143837 25.95141364 18.01586381 24 22 C22.7625 21.5875 21.525 21.175 20.25 20.75 C19.42371094 20.48058594 18.59742188 20.21117187 17.74609375 19.93359375 C15.88964481 19.30245393 14.0479553 18.62641284 12.22265625 17.91015625 C1.96225033 14.04012395 -7.64441953 14.55330862 -18.37890625 15.76953125 C-27.7908181 16.59710621 -36.79651798 16.10365303 -46 14 C-46 11.36 -46 8.72 -46 6 C-44.79988281 5.90203125 -43.59976562 5.8040625 -42.36328125 5.703125 C-32.06662893 4.79978178 -22.01823842 3.42194124 -11.89379883 1.32128906 C-7.86839977 0.49440387 -4.13727748 -0.25486309 0 0 Z " fill="#F5F5F5" transform="translate(326,117)"/>
<path d="M0 0 C14 0 14 0 19 3 C20.67527538 4.67527538 20.13005577 6.72786922 20.1328125 9.0234375 C20.13474609 10.55484375 20.13474609 10.55484375 20.13671875 12.1171875 C20.13285156 13.19226563 20.12898438 14.26734375 20.125 15.375 C20.13080078 16.97601563 20.13080078 16.97601563 20.13671875 18.609375 C20.13542969 19.63289063 20.13414063 20.65640625 20.1328125 21.7109375 C20.13168457 22.65243652 20.13055664 23.59393555 20.12939453 24.56396484 C20 27 20 27 19 30 C19.33 30.66 19.66 31.32 20 32 C20.08543895 34.10528933 20.10714725 36.21331157 20.09765625 38.3203125 C20.09443359 39.57714844 20.09121094 40.83398438 20.08789062 42.12890625 C20.07951172 43.44761719 20.07113281 44.76632813 20.0625 46.125 C20.05748489 47.46484211 20.05292201 48.804686 20.04882812 50.14453125 C20.03701086 53.42973206 20.02053617 56.71484397 20 60 C17.69 60 15.38 60 13 60 C13 51.09 13 42.18 13 33 C11.02 32.67 9.04 32.34 7 32 C7 41.24 7 50.48 7 60 C4.69 60 2.38 60 0 60 C0 40.2 0 20.4 0 0 Z M7 5 C7 12.26 7 19.52 7 27 C8.98 26.67 10.96 26.34 13 26 C13 19.4 13 12.8 13 6 C10.03 5.505 10.03 5.505 7 5 Z " fill="#687719" transform="translate(95,107)"/>
<path d="M0 0 C0.99 0.495 0.99 0.495 2 1 C1.16597656 1.81082031 0.33195312 2.62164062 -0.52734375 3.45703125 C-7.50723639 10.30059379 -13.98851802 17.27405204 -20 25 C-20.77601563 25.9590625 -21.55203125 26.918125 -22.3515625 27.90625 C-29.67842987 37.11716898 -35.917291 46.9338867 -42 57 C-42.42200684 57.69528809 -42.84401367 58.39057617 -43.27880859 59.10693359 C-48.81304375 68.31116947 -53.24416808 77.77100034 -57.2734375 87.72265625 C-57.71200073 88.8055896 -57.71200073 88.8055896 -58.15942383 89.91040039 C-58.7079435 91.27397281 -59.24977267 92.64026125 -59.78393555 94.00952148 C-61.78129604 98.96949274 -63.70653207 100.98543741 -68 104 C-68.66 104 -69.32 104 -70 104 C-70.51046875 102.47246094 -70.51046875 102.47246094 -71.03125 100.9140625 C-73.73947066 92.94725326 -76.65756208 85.09913482 -80 77.375 C-80.30744141 76.6423291 -80.61488281 75.9096582 -80.93164062 75.15478516 C-82.97540923 70.53726448 -85.37239412 67.12941794 -88.92578125 63.52978516 C-89.28027344 63.02495605 -89.63476562 62.52012695 -90 62 C-89.67 61.01 -89.34 60.02 -89 59 C-85.535 58.505 -85.535 58.505 -82 58 C-75.78901777 65.14262956 -72.49351846 73.38270127 -68.86621094 82.02050781 C-67.97751662 84.05137973 -67.00753569 86.02575975 -66 88 C-65.7097998 87.41323486 -65.41959961 86.82646973 -65.12060547 86.22192383 C-48.97906582 53.83509097 -27.82370478 23.47139342 0 0 Z " fill="#090909" transform="translate(345,183)"/>
<path d="M0 0 C2.31 0 4.62 0 7 0 C7.33 17.82 7.66 35.64 8 54 C9.32 54 10.64 54 12 54 C12.33 36.18 12.66 18.36 13 0 C15.31 0 17.62 0 20 0 C20.10132712 7.90190696 20.17143514 15.80364672 20.21972656 23.70605469 C20.237599 26.39504466 20.26544475 29.08365826 20.30175781 31.77246094 C20.35021615 35.63487561 20.37295626 39.49671208 20.390625 43.359375 C20.41127014 44.5636615 20.43191528 45.767948 20.45318604 47.00872803 C20.45348816 48.12958801 20.45379028 49.250448 20.45410156 50.40527344 C20.46298401 51.39122498 20.47186646 52.37717651 20.48101807 53.39300537 C19.85784357 56.77045143 18.68858489 57.92090788 16 60 C9.83869441 61.51507515 6.56031202 60.95036964 1 58 C0 57 0 57 -0.12025452 54.71580505 C-0.11803391 53.70542679 -0.11581329 52.69504852 -0.11352539 51.65405273 C-0.11344986 50.5129454 -0.11337433 49.37183807 -0.11329651 48.19615173 C-0.10813522 46.9545076 -0.10297394 45.71286346 -0.09765625 44.43359375 C-0.0962413 43.16983414 -0.09482635 41.90607452 -0.09336853 40.60401917 C-0.08870582 37.23875111 -0.0797148 33.8735501 -0.06866455 30.50830078 C-0.05844846 27.0765033 -0.05387049 23.64469891 -0.04882812 20.21289062 C-0.0377738 13.47524176 -0.0210171 6.73762475 0 0 Z " fill="#687719" transform="translate(120,107)"/>
<path d="M0 0 C-0.66 6.27 -1.32 12.54 -2 19 C-4.784375 18.2575 -4.784375 18.2575 -7.625 17.5 C-18.61378272 14.97974657 -29.0608496 15.49962276 -40 18 C-41.26582219 14.13276369 -41.1118765 10.26848738 -41.0625 6.25 C-41.05798828 5.55261719 -41.05347656 4.85523438 -41.04882812 4.13671875 C-41.0371002 2.42444197 -41.01916653 0.71220967 -41 -1 C-27.97645818 -6.62456305 -12.80186699 -5.32025641 0 0 Z " fill="#010100" transform="translate(282,171)"/>
<path d="M0 0 C0.95390625 -0.03738281 1.9078125 -0.07476562 2.890625 -0.11328125 C6.68674056 0.45198732 8.1054849 1.53274779 10.75 4.3125 C11.23457516 7.21052867 11.40685491 9.51128224 11.34375 12.40234375 C11.34379028 13.18388321 11.34383057 13.96542267 11.34387207 14.77064514 C11.33851991 16.42066503 11.32094971 18.07068453 11.29199219 19.72045898 C11.2501948 22.2382654 11.25091968 24.75339003 11.2578125 27.27148438 C11.24731702 28.87762265 11.23437699 30.4837472 11.21875 32.08984375 C11.21854858 32.83894516 11.21834717 33.58804657 11.21813965 34.35984802 C11.11763236 38.82851001 10.51677462 41.76047953 7.75 45.3125 C4.98547967 46.69476016 2.7038637 46.40775387 -0.375 46.375 C-1.47070312 46.36597656 -2.56640625 46.35695313 -3.6953125 46.34765625 C-4.53835937 46.33605469 -5.38140625 46.32445312 -6.25 46.3125 C-6.27527062 39.92212769 -6.29283317 33.53176817 -6.30493164 27.14135742 C-6.30997308 24.96557127 -6.31680607 22.78978853 -6.32543945 20.61401367 C-6.33751338 17.49396933 -6.34323005 14.37396962 -6.34765625 11.25390625 C-6.35281754 10.27474747 -6.35797882 9.29558868 -6.36329651 8.28675842 C-6.36337204 7.38590012 -6.36344757 6.48504181 -6.36352539 5.55688477 C-6.365746 4.75968521 -6.36796661 3.96248566 -6.37025452 3.14112854 C-6.11611783 -0.72335499 -3.26304116 0.08288474 0 0 Z " fill="#FDECEB" transform="translate(233.25,248.6875)"/>
<path d="M0 0 C13 0 13 0 18 2 C20 4 20 4 20.24291992 5.83178711 C20.23675659 6.91858765 20.23675659 6.91858765 20.23046875 8.02734375 C20.22853516 8.81947266 20.22660156 9.61160156 20.22460938 10.42773438 C20.20624023 11.67006836 20.20624023 11.67006836 20.1875 12.9375 C20.18685547 13.76185547 20.18621094 14.58621094 20.18554688 15.43554688 C20.15988965 18.94488444 20.120149 21.63955301 19 25 C19.33 25.33 19.66 25.66 20 26 C20.08713831 27.70772358 20.10700007 29.41898649 20.09765625 31.12890625 C20.09443359 32.16337891 20.09121094 33.19785156 20.08789062 34.26367188 C20.07951172 35.35228516 20.07113281 36.44089844 20.0625 37.5625 C20.05798828 38.65498047 20.05347656 39.74746094 20.04882812 40.87304688 C20.03699826 43.58208495 20.02051543 46.29101599 20 49 C17.69 49 15.38 49 13 49 C12.67 42.07 12.34 35.14 12 28 C10.35 27.67 8.7 27.34 7 27 C7 34.26 7 41.52 7 49 C4.69 49 2.38 49 0 49 C0 32.83 0 16.66 0 0 Z M7 5 C7 10.61 7 16.22 7 22 C8.98 21.67 10.96 21.34 13 21 C13.02685095 18.52076199 13.04676547 16.0418116 13.0625 13.5625 C13.07087891 12.85544922 13.07925781 12.14839844 13.08789062 11.41992188 C13.09653588 9.61306441 13.05220011 7.80612397 13 6 C12.67 5.67 12.34 5.34 12 5 C10.35 5 8.7 5 7 5 Z " fill="#687719" transform="translate(158,178)"/>
<path d="M0 0 C5.00659883 4.19019863 7.69216863 8.39596044 8.80859375 14.82421875 C9.01990548 17.22627249 9.03798791 19.58987798 9 22 C8.32453125 21.79503906 7.6490625 21.59007812 6.953125 21.37890625 C6.06109375 21.10949219 5.1690625 20.84007812 4.25 20.5625 C3.36828125 20.29566406 2.4865625 20.02882812 1.578125 19.75390625 C0.72734375 19.50511719 -0.1234375 19.25632813 -1 19 C-1.62390625 18.80792969 -2.2478125 18.61585938 -2.890625 18.41796875 C-12.6595083 16.48228261 -22.63770019 18.07101235 -32 21 C-32.55039116 14.39530611 -31.88169538 9.48708791 -28 4 C-20.72119819 -4.05575256 -9.25013441 -5.50207596 0 0 Z " fill="#040300" transform="translate(273,147)"/>
<path d="M0 0 C0.7321875 -0.00773438 1.464375 -0.01546875 2.21875 -0.0234375 C5.45885391 0.54247106 6.98636785 1.18044126 9.5 3.375 C10.2646529 6.64436436 10.15202305 9.87920424 10.09375 13.22265625 C10.09379028 14.19029404 10.09383057 15.15793182 10.09387207 16.15489197 C10.08851062 18.20008847 10.07090131 20.245284 10.04199219 22.2902832 C10.00011095 25.42918476 10.00092358 28.56594419 10.0078125 31.70507812 C9.99732145 33.69011915 9.9843838 35.67514907 9.96875 37.66015625 C9.96854858 38.6028688 9.96834717 39.54558136 9.96813965 40.51686096 C9.94427185 41.82347939 9.94427185 41.82347939 9.91992188 43.15649414 C9.91150269 43.92465958 9.9030835 44.69282501 9.89440918 45.48426819 C9.5 47.375 9.5 47.375 6.5 49.375 C1.22295034 50.59278069 -2.42950124 50.26400934 -7.5 48.375 C-9.87716833 45.99783167 -9.76052545 45.48346888 -9.80639648 42.24829102 C-9.83037758 40.97170372 -9.83037758 40.97170372 -9.85484314 39.66932678 C-9.86020584 38.74848801 -9.86556854 37.82764923 -9.87109375 36.87890625 C-9.88012222 35.93442123 -9.8891507 34.98993622 -9.89845276 34.01683044 C-9.9129757 32.01703065 -9.92184705 30.01718311 -9.92553711 28.01733398 C-9.93744056 24.95280218 -9.98661159 21.89027877 -10.03710938 18.82617188 C-10.04657232 16.88542652 -10.05380797 14.94466877 -10.05859375 13.00390625 C-10.07812607 12.08509171 -10.09765839 11.16627716 -10.11778259 10.21961975 C-10.10080168 7.83299251 -10.0460858 5.69841931 -9.5 3.375 C-6.45651334 0.73279763 -3.99397968 -0.04218993 0 0 Z M-1.5 5.375 C-2.91726236 6.56410251 -2.91726236 6.56410251 -2.61352539 9.97680664 C-2.61336625 11.57959856 -2.60767063 13.1823956 -2.59765625 14.78515625 C-2.5962413 15.62719101 -2.59482635 16.46922577 -2.59336853 17.33677673 C-2.58775263 20.03705335 -2.57519748 22.73724828 -2.5625 25.4375 C-2.55748705 27.26367068 -2.55292379 29.08984266 -2.54882812 30.91601562 C-2.53777804 35.40237542 -2.52050279 39.88867384 -2.5 44.375 C-0.60820797 45.0564823 -0.60820797 45.0564823 1.5 45.375 C3.89839483 43.41760658 3.89839483 43.41760658 3.72705078 39.75146484 C3.72673357 38.19625311 3.71540299 36.64101949 3.6953125 35.0859375 C3.6924826 34.26751373 3.68965271 33.44908997 3.68673706 32.60586548 C3.67552532 29.98709607 3.65041929 27.36866636 3.625 24.75 C3.61497147 22.97656743 3.6058454 21.20312951 3.59765625 19.4296875 C3.57558278 15.07799374 3.54104644 10.7265545 3.5 6.375 C1.84385343 5.99281233 0.17542976 5.66104898 -1.5 5.375 Z " fill="#687719" transform="translate(114.5,177.625)"/>
<path d="M0 0 C12 0 12 0 15.25 1.6875 C18.01415415 6.91964892 17.66083831 12.20549141 17 18 C16.61972656 19.06347656 16.23945313 20.12695312 15.84765625 21.22265625 C15.56792969 22.13917969 15.28820312 23.05570312 15 24 C15.66 24.99 16.32 25.98 17 27 C17.22705078 29.0847168 17.22705078 29.0847168 17.1953125 31.44921875 C17.18886719 32.29677734 17.18242187 33.14433594 17.17578125 34.01757812 C17.15902344 34.89865234 17.14226562 35.77972656 17.125 36.6875 C17.11597656 37.58017578 17.10695312 38.47285156 17.09765625 39.39257812 C17.07409748 41.59532314 17.04120329 43.79752588 17 46 C15.33388095 46.042721 13.66617115 46.04063832 12 46 C10.48578999 44.48578999 10.78690144 43.07527232 10.68359375 40.96484375 C10.64169922 40.15595703 10.59980469 39.34707031 10.55664062 38.51367188 C10.51732422 37.66353516 10.47800781 36.81339844 10.4375 35.9375 C10.39431641 35.08349609 10.35113281 34.22949219 10.30664062 33.34960938 C10.20023298 31.23327963 10.09958269 29.11666187 10 27 C8.68 26.67 7.36 26.34 6 26 C6 32.6 6 39.2 6 46 C4.02 46 2.04 46 0 46 C0 30.82 0 15.64 0 0 Z " fill="#FDE7E6" transform="translate(126,249)"/>
<path d="M0 0 C-0.5410734 7.21431204 -4.20268523 12.57971789 -9.375 17.4375 C-12.87131899 20.1786745 -15.44461916 21.31967585 -20 21 C-26.93448104 17.2720647 -31.45965501 12.19181009 -33.75 4.6875 C-34.17799122 3.12806392 -34.5984982 1.56646534 -35 0 C-23.674412 -5.96925109 -11.325588 -5.96925109 0 0 Z " fill="#010000" transform="translate(278,193)"/>
<path d="M0 0 C1.98 0 3.96 0 6 0 C6.33 14.19 6.66 28.38 7 43 C8.32 43.33 9.64 43.66 11 44 C12.52791083 42.47208917 12.16183457 41.07010592 12.20532227 38.93920898 C12.22526749 38.07839218 12.24521271 37.21757538 12.26576233 36.33067322 C12.28247482 35.39526199 12.29918732 34.45985077 12.31640625 33.49609375 C12.3475779 32.06657127 12.3475779 32.06657127 12.37937927 30.60816956 C12.44498177 27.5513559 12.50380918 24.49445344 12.5625 21.4375 C12.60567506 19.37043337 12.64928901 17.30337586 12.69335938 15.23632812 C12.80067401 10.15764405 12.90191091 5.0788703 13 0 C14.98 0 16.96 0 19 0 C19.07597206 6.49609906 19.12856672 12.99208385 19.16479492 19.48852539 C19.17989525 21.69918092 19.20037709 23.90980643 19.22631836 26.12036133 C19.26264655 29.29515993 19.27971384 32.46956297 19.29296875 35.64453125 C19.30845261 36.63524124 19.32393646 37.62595123 19.33988953 38.64668274 C19.34011612 39.56741074 19.34034271 40.48813873 19.34057617 41.43676758 C19.34723801 42.2472908 19.35389984 43.05781403 19.36076355 43.89289856 C18.90428306 46.55905124 18.15900926 47.40498813 16 49 C10.29767172 50.23550446 6.43591048 50.10780202 1 48 C-0.18695418 45.62609164 -0.12075833 44.19755049 -0.11352539 41.55029297 C-0.11344986 40.62948944 -0.11337433 39.70868591 -0.11329651 38.75997925 C-0.10813522 37.76410797 -0.10297394 36.76823669 -0.09765625 35.7421875 C-0.0962413 34.72399933 -0.09482635 33.70581116 -0.09336853 32.6567688 C-0.087759 29.39614965 -0.07520488 26.13559849 -0.0625 22.875 C-0.05748623 20.66796974 -0.05292311 18.46093841 -0.04882812 16.25390625 C-0.03778648 10.83591419 -0.02103905 5.41796195 0 0 Z " fill="#687719" transform="translate(132,178)"/>
<path d="M0 0 C0.74378906 0.00386719 1.48757812 0.00773438 2.25390625 0.01171875 C4.4375 0.3125 4.4375 0.3125 8.4375 2.3125 C8.4375 6.9325 8.4375 11.5525 8.4375 16.3125 C6.4575 16.3125 4.4775 16.3125 2.4375 16.3125 C2.4375 12.6825 2.4375 9.0525 2.4375 5.3125 C1.1175 5.6425 -0.2025 5.9725 -1.5625 6.3125 C-2.39521106 10.41128888 -2.71142307 14.26861409 -0.59716797 18.02978516 C2.15379176 22.00339365 5.30997081 25.63431182 8.4375 29.3125 C9.94679383 32.33108766 9.66260073 35.44150954 9.6875 38.75 C9.708125 39.43126953 9.72875 40.11253906 9.75 40.81445312 C9.78894906 45.78532642 9.78894906 45.78532642 8.15625 48.234375 C4.63302136 50.44440024 0.4068843 50.65516534 -3.60546875 49.95703125 C-8.16956676 48.70543324 -8.16956676 48.70543324 -9.5625 47.3125 C-9.63508946 45.12610547 -9.64623783 42.93749611 -9.625 40.75 C-9.61597656 39.55246094 -9.60695313 38.35492188 -9.59765625 37.12109375 C-9.58605469 36.19425781 -9.57445313 35.26742187 -9.5625 34.3125 C-7.5825 34.3125 -5.6025 34.3125 -3.5625 34.3125 C-3.5625 37.6125 -3.5625 40.9125 -3.5625 44.3125 C-1.9125 44.3125 -0.2625 44.3125 1.4375 44.3125 C2.36937828 38.56591727 2.59721029 33.63600473 -0.75390625 28.69140625 C-3.20624265 25.43491496 -5.88238179 22.3820371 -8.5625 19.3125 C-10.03765195 16.36219611 -9.84942341 13.65754661 -9.9375 10.375 C-9.98648438 9.12847656 -10.03546875 7.88195312 -10.0859375 6.59765625 C-9.5625 3.3125 -9.5625 3.3125 -7.32421875 1.390625 C-4.64023879 0.34284782 -2.85607087 -0.06457204 0 0 Z " fill="#687719" transform="translate(89.5625,177.6875)"/>
<path d="M0 0 C3.0625 1.8125 3.0625 1.8125 5 5 C5.3956155 8.70629256 5.29246282 12.28897176 5 16 C2.69 16 0.38 16 -2 16 C-2.33 12.7 -2.66 9.4 -3 6 C-4.32 5.67 -5.64 5.34 -7 5 C-6.67 17.87 -6.34 30.74 -6 44 C-5.01 44 -4.02 44 -3 44 C-2.67 40.37 -2.34 36.74 -2 33 C0.31 33 2.62 33 5 33 C5.10841951 34.91541138 5.18578079 36.83259773 5.25 38.75 C5.29640625 39.81734375 5.3428125 40.8846875 5.390625 41.984375 C5 45 5 45 3.1953125 47.3359375 C0.12736115 49.66146646 -2.18118408 49.86831669 -6 50 C-9.52079438 49.13640893 -11.43435189 48.56564811 -14 46 C-14.26069641 44.18519592 -14.26069641 44.18519592 -14.2746582 41.96508789 C-14.28419022 41.13405045 -14.29372223 40.303013 -14.30354309 39.4467926 C-14.30263168 38.54782761 -14.30172028 37.64886261 -14.30078125 36.72265625 C-14.30506638 35.80036728 -14.3093515 34.87807831 -14.31376648 33.92784119 C-14.31951559 31.97509584 -14.32000578 30.02232908 -14.31567383 28.06958008 C-14.31251627 25.07791665 -14.3359573 22.08724401 -14.36132812 19.09570312 C-14.36360126 17.20052208 -14.36430455 15.30533838 -14.36328125 13.41015625 C-14.372491 12.51321548 -14.38170074 11.61627472 -14.39118958 10.69215393 C-14.38496078 9.85796432 -14.37873199 9.02377472 -14.37231445 8.16430664 C-14.37294388 7.4308754 -14.3735733 6.69744415 -14.3742218 5.94178772 C-13.89319109 3.44578259 -12.94689172 2.58285222 -11 1 C-7.5025229 -0.74873855 -3.81623278 -0.54611607 0 0 Z " fill="#687719" transform="translate(198,178)"/>
<path d="M0 0 C6.68517191 -0.12834161 13.37001848 -0.21498615 20.05615234 -0.2746582 C22.32352569 -0.29957263 24.59082069 -0.33351698 26.85791016 -0.37719727 C40.53545078 -0.63383986 52.24322633 -0.27335045 65 5 C66.44536133 5.57560669 66.44536133 5.57560669 67.91992188 6.1628418 C68.60634766 6.439104 69.29277344 6.71536621 70 7 C69.43555175 11.34863652 67.84572036 14.17827655 65.4375 17.8125 C64.79683594 18.78832031 64.15617187 19.76414063 63.49609375 20.76953125 C63.00238281 21.50558594 62.50867188 22.24164063 62 23 C61.46632813 22.63648438 60.93265625 22.27296875 60.3828125 21.8984375 C45.8122374 12.0670806 33.97473717 6.06027849 16.30078125 5.48242188 C10.6777383 5.24400485 5.45050571 4.40027256 0 3 C0 2.01 0 1.02 0 0 Z " fill="#F5F5F5" transform="translate(279,133)"/>
<path d="M0 0 C5.61 0 11.22 0 17 0 C17 1.65 17 3.3 17 5 C13.7 5 10.4 5 7 5 C7 12.26 7 19.52 7 27 C9.97 27 12.94 27 16 27 C16 28.65 16 30.3 16 32 C13.03 32 10.06 32 7 32 C7 39.59 7 47.18 7 55 C10.3 55 13.6 55 17 55 C17 56.65 17 58.3 17 60 C11.39 60 5.78 60 0 60 C0 40.2 0 20.4 0 0 Z " fill="#687719" transform="translate(144,107)"/>
<path d="M0 0 C1.07770157 0.0028299 2.15540314 0.00565979 3.26576233 0.00857544 C6.68900924 0.01972057 10.11198916 0.04481494 13.53515625 0.0703125 C15.8639285 0.08034961 18.19270487 0.08947418 20.52148438 0.09765625 C26.2136319 0.11964134 31.90562499 0.15306237 37.59765625 0.1953125 C37.26765625 1.1853125 36.93765625 2.1753125 36.59765625 3.1953125 C30.75540022 4.52075825 25.07559347 5.27218191 19.09667969 5.43725586 C2.31299936 5.94955873 -9.18079373 12.39076047 -22.40234375 22.1953125 C-25.04056077 19.67547702 -27.220091 17.22799515 -29.15234375 14.1328125 C-29.5803125 13.46121094 -30.00828125 12.78960937 -30.44921875 12.09765625 C-31.40234375 10.1953125 -31.40234375 10.1953125 -31.40234375 7.1953125 C-29.3830452 6.39973923 -27.3618243 5.60904448 -25.33984375 4.8203125 C-24.21449219 4.37945312 -23.08914062 3.93859375 -21.9296875 3.484375 C-14.25159377 0.67842713 -8.17135996 -0.08144305 0 0 Z " fill="#F8F8F8" transform="translate(206.40234375,132.8046875)"/>
<path d="M0 0 C6.6 0 13.2 0 20 0 C20 1.65 20 3.3 20 5 C18.02 5 16.04 5 14 5 C14 23.15 14 41.3 14 60 C11.69 60 9.38 60 7 60 C7 41.85 7 23.7 7 5 C4.69 5 2.38 5 0 5 C0 3.35 0 1.7 0 0 Z " fill="#687819" transform="translate(74,107)"/>
<path d="M0 0 C5.28 0 10.56 0 16 0 C16 1.65 16 3.3 16 5 C13.03 5 10.06 5 7 5 C7 10.61 7 16.22 7 22 C9.97 22 12.94 22 16 22 C16 23.65 16 25.3 16 27 C13.03 27 10.06 27 7 27 C7 32.61 7 38.22 7 44 C10.3 44 13.6 44 17 44 C17 45.65 17 47.3 17 49 C11.39 49 5.78 49 0 49 C0 32.83 0 16.66 0 0 Z " fill="#687719" transform="translate(208,178)"/>
<path d="M0 0 C7.05978094 -0.36230547 13.35131038 1.04913619 20.1640625 2.67578125 C32.22374163 5.55437553 44.04983307 6.15452833 56.4140625 6.23828125 C56.4140625 6.89828125 56.4140625 7.55828125 56.4140625 8.23828125 C51.23823428 9.31442285 46.34814681 9.30509897 41.09765625 9.1953125 C39.26238082 9.17290547 37.42709355 9.15145214 35.59179688 9.13085938 C32.73070472 9.09398774 29.87023338 9.051171 27.00952148 8.99145508 C14.50231392 8.74315421 4.43458913 9.29854479 -7.17797852 14.37036133 C-9.5859375 15.23828125 -9.5859375 15.23828125 -13.5859375 15.23828125 C-15.34341364 10.73474863 -15.77888158 7.06188314 -15.5859375 2.23828125 C-10.96252459 -0.0734252 -5.07734005 0.46785158 0 0 Z " fill="#FBFBFB" transform="translate(186.5859375,122.76171875)"/>
<path d="M0 0 C-0.9590625 0.7115625 -0.9590625 0.7115625 -1.9375 1.4375 C-3.88293306 2.83738726 -3.88293306 2.83738726 -5 4 C-3.989375 3.34 -2.97875 2.68 -1.9375 2 C5.63710654 -1.78730327 15.40139133 -1.05915707 23.375 1.25 C25.4609375 1.953125 25.4609375 1.953125 27 3 C27.7265625 5.109375 27.7265625 5.109375 28 7 C24.69048933 7.9928532 21.94002527 7.96312903 18.5625 7.5625 C6.04369854 6.19815345 -4.8916664 7.44163297 -17.00219727 10.51928711 C-21.12921507 11.51233343 -25.05451288 12.1425824 -29.30078125 12.31640625 C-30.27724609 12.35830078 -31.25371094 12.40019531 -32.25976562 12.44335938 C-33.26716797 12.48267578 -34.27457031 12.52199219 -35.3125 12.5625 C-36.33923828 12.60568359 -37.36597656 12.64886719 -38.42382812 12.69335938 C-40.94909569 12.79906825 -43.47445562 12.90116468 -46 13 C-46 10.69 -46 8.38 -46 6 C-44.79988281 5.90203125 -43.59976562 5.8040625 -42.36328125 5.703125 C-32.06662893 4.79978178 -22.01823842 3.42194124 -11.89379883 1.32128906 C-7.86839977 0.49440387 -4.13727748 -0.25486309 0 0 Z " fill="#303030" transform="translate(326,117)"/>
<path d="M0 0 C12.7302808 0.82130844 22.16183965 6.16258754 32 14 C33.87890625 16.28125 33.87890625 16.28125 35 18 C33.87720538 18.98169476 32.75168527 19.96027298 31.625 20.9375 C30.99851562 21.48277344 30.37203125 22.02804688 29.7265625 22.58984375 C25.5945495 25.96463265 21.1082921 25.39234194 16 25 C12.5625 24.125 12.5625 24.125 10 22 C9.07110011 19.59997159 8.45922752 17.20724336 7.8515625 14.70703125 C6.66449726 10.93347064 4.61965948 8.08316511 2.3046875 4.91015625 C1 3 1 3 0 0 Z " fill="#F8F8F8" transform="translate(304,140)"/>
<path d="M0 0 C3.73967234 0.32238555 5.06627084 0.65535818 7.625 3.3125 C8.7827506 6.78575181 8.69366652 9.67317448 8.625 13.3125 C6.645 13.3125 4.665 13.3125 2.625 13.3125 C2.295 11.0025 1.965 8.6925 1.625 6.3125 C0.635 5.9825 -0.355 5.6525 -1.375 5.3125 C-1.375 16.5325 -1.375 27.7525 -1.375 39.3125 C-0.385 39.6425 0.605 39.9725 1.625 40.3125 C1.955 38.0025 2.285 35.6925 2.625 33.3125 C4.28114657 32.93031233 5.94957024 32.59854898 7.625 32.3125 C8.625 33.3125 8.625 33.3125 8.875 36.5625 C8.59666336 40.73754957 7.6009036 43.3365964 4.625 46.3125 C-0.53783349 46.82031969 -0.53783349 46.82031969 -3.375 46.3125 C-6.52479903 43.24346505 -8.29779898 40.73908126 -8.53613281 36.33496094 C-8.57341153 32.97207382 -8.60612653 29.60965396 -8.61523438 26.24658203 C-8.62490135 24.0845638 -8.65590494 21.92351224 -8.6875 19.76171875 C-8.6940343 18.37760979 -8.69928309 16.99349405 -8.703125 15.609375 C-8.7124707 14.35479492 -8.72181641 13.10021484 -8.73144531 11.80761719 C-8.14066881 6.01477032 -6.27393256 0.58091968 0 0 Z " fill="#FDE9E8" transform="translate(95.375,248.6875)"/>
<path d="M0 0 C3.69230769 0.69230769 3.69230769 0.69230769 5 2 C5.23192865 3.51469448 5.41215238 5.03754562 5.5625 6.5625 C5.64628906 7.38878906 5.73007813 8.21507813 5.81640625 9.06640625 C5.87699219 9.70449219 5.93757812 10.34257813 6 11 C6.99 10.67 7.98 10.34 9 10 C10.89470816 9.9314505 12.7916834 9.91519628 14.6875 9.9375 C15.68136719 9.94652344 16.67523438 9.95554687 17.69921875 9.96484375 C18.83810547 9.98224609 18.83810547 9.98224609 20 10 C20.99 7.03 21.98 4.06 23 1 C25.475 1.495 25.475 1.495 28 2 C28.25249169 9.32225914 28.25249169 9.32225914 26.8125 13.1875 C25.62720756 16.05125774 25.62720756 16.05125774 27.4375 18.625 C27.953125 19.40875 28.46875 20.1925 29 21 C28.6875 23.3125 28.6875 23.3125 28 25 C26.948125 24.525625 25.89625 24.05125 24.8125 23.5625 C15.16394594 19.46331471 6.81251358 21.2930997 -3 24 C-2.45276317 20.62537285 -1.9451 18.91765 0 16 C-0.30404678 14.32774271 -0.64628502 12.66246041 -1 11 C-1.14523909 7.66468806 -1.2098525 4.3329514 -1 1 C-0.67 0.67 -0.34 0.34 0 0 Z " fill="#000000" transform="translate(249,89)"/>
<path d="M0 0 C4.62 0 9.24 0 14 0 C14 1.98 14 3.96 14 6 C11.36 6 8.72 6 6 6 C6 10.62 6 15.24 6 20 C8.64 20 11.28 20 14 20 C14 21.65 14 23.3 14 25 C11.36 25 8.72 25 6 25 C6 29.95 6 34.9 6 40 C8.64 40 11.28 40 14 40 C14 41.98 14 43.96 14 46 C9.38 46 4.76 46 0 46 C0 30.82 0 15.64 0 0 Z " fill="#FDEAE8" transform="translate(108,249)"/>
<path d="M0 0 C-0.37511719 0.43828125 -0.75023437 0.8765625 -1.13671875 1.328125 C-4.49435815 5.48922974 -6.5764582 9.2606232 -8.375 14.3125 C-10.44680063 19.56150288 -10.44680063 19.56150288 -12.80859375 21.43359375 C-14.91254554 22.29075929 -16.74760136 22.72053572 -19 23 C-19.67546875 23.09667969 -20.3509375 23.19335938 -21.046875 23.29296875 C-26.51743811 23.68523781 -29.6978088 22.07299371 -34 19 C-34.33 18.01 -34.66 17.02 -35 16 C-24.63380834 7.67345253 -14.0005888 -0.56085445 0 0 Z " fill="#F9F9F9" transform="translate(220,140)"/>
<path d="M0 0 C4.62 0 9.24 0 14 0 C14 1.98 14 3.96 14 6 C11.03 6 8.06 6 5 6 C5 10.62 5 15.24 5 20 C7.97 20 10.94 20 14 20 C14 21.65 14 23.3 14 25 C11.03 25 8.06 25 5 25 C5 29.95 5 34.9 5 40 C7.97 40 10.94 40 14 40 C14 41.98 14 43.96 14 46 C9.38 46 4.76 46 0 46 C0 30.82 0 15.64 0 0 Z " fill="#FEF5F5" transform="translate(209,249)"/>
<path d="M0 0 C5.94 0 11.88 0 18 0 C18 1.98 18 3.96 18 6 C16.02 6 14.04 6 12 6 C12 19.2 12 32.4 12 46 C10.02 46 8.04 46 6 46 C6 32.8 6 19.6 6 6 C4.02 6 2.04 6 0 6 C0 4.02 0 2.04 0 0 Z " fill="#FDECEB" transform="translate(147,249)"/>
<path d="M0 0 C1.921875 0.8203125 1.921875 0.8203125 4.734375 2.3203125 C4.78853688 3.92410591 4.82724138 5.52842656 4.859375 7.1328125 C4.88257813 8.02613281 4.90578125 8.91945312 4.9296875 9.83984375 C4.734375 12.3203125 4.734375 12.3203125 2.734375 15.3203125 C0.703125 15.70849609 0.703125 15.70849609 -1.765625 15.71875 C-3.0959375 15.72455078 -3.0959375 15.72455078 -4.453125 15.73046875 C-5.38125 15.71886719 -6.309375 15.70726562 -7.265625 15.6953125 C-8.19375 15.70691406 -9.121875 15.71851563 -10.078125 15.73046875 C-10.965 15.72660156 -11.851875 15.72273438 -12.765625 15.71875 C-13.5803125 15.71536621 -14.395 15.71198242 -15.234375 15.70849609 C-15.9046875 15.58039551 -16.575 15.45229492 -17.265625 15.3203125 C-19.474765 12.0066025 -19.49044053 10.9757104 -19.390625 7.1328125 C-19.37257812 6.23175781 -19.35453125 5.33070312 -19.3359375 4.40234375 C-19.31273437 3.71527344 -19.28953125 3.02820313 -19.265625 2.3203125 C-13.41292259 -1.47603501 -6.6530598 -1.99591794 0 0 Z " fill="#F7CC03" transform="translate(269.265625,119.6796875)"/>
<path d="M0 0 C4.62 0 9.24 0 14 0 C14 1.98 14 3.96 14 6 C11.03 6 8.06 6 5 6 C5 10.62 5 15.24 5 20 C7.64 20 10.28 20 13 20 C13 21.65 13 23.3 13 25 C10.36 25 7.72 25 5 25 C5 31.93 5 38.86 5 46 C3.35 46 1.7 46 0 46 C0 30.82 0 15.64 0 0 Z " fill="#FEF7F7" transform="translate(180,249)"/>
<path d="M0 0 C3.61833743 2.84847841 5.94898619 5.48064064 7 10 C6.92642014 14.635531 6.61309565 17.68097439 3.75 21.375 C-0.01222732 24.96621699 -2.30157299 25.84559754 -7.4375 26.3125 C-12.5540132 25.86368305 -15.59741947 24.32676536 -19.3125 20.8125 C-21.44314125 17.26143125 -22.18669091 14.09164248 -22 10 C-20.74025577 5.55384389 -19.66569372 3.53822045 -16.0625 0.625 C-10.28181251 -2.44230357 -6.11091671 -2.21520731 0 0 Z M-15 5 C-17.56619697 8.42159595 -17.50984054 11.84844133 -17 16 C-14.42950213 19.58311824 -12.74541015 20.78702567 -8.5 22 C-4.5736584 22 -3.03417666 21.42734133 0 19 C2.48386059 15.27420911 2.3804212 13.41288598 2 9 C0.71419959 6.10694908 -0.28429075 4.50099647 -2.875 2.6875 C-7.79098868 1.09703307 -10.90068317 1.89781429 -15 5 Z " fill="#000000" transform="translate(336,81)"/>
<path d="M0 0 C0.67160156 0.15855469 1.34320313 0.31710938 2.03515625 0.48046875 C6.75632966 1.30776264 11.52388106 1.28576443 16.30859375 1.42578125 C21.43728841 2.2235782 24.51132841 4.22186449 27.828125 8.18359375 C28.29734375 8.92738281 28.7665625 9.67117187 29.25 10.4375 C29.72953125 11.17871094 30.2090625 11.91992188 30.703125 12.68359375 C34.21796502 18.96160619 34.21796502 18.96160619 33.54785156 22.15405273 C33.36706055 22.76321533 33.18626953 23.37237793 33 24 C29.28048684 21.81708266 25.56356819 19.62982867 21.84887695 17.4387207 C20.5878432 16.69569494 19.32613786 15.95380766 18.0637207 15.21313477 C11.52980986 11.37863149 5.06033536 7.56551267 -1 3 C-0.67 2.01 -0.34 1.02 0 0 Z " fill="#F6F6F6" transform="translate(278,137)"/>
<path d="M0 0 C-1.43516212 3.60188101 -3.0126414 4.92802312 -6.3671875 6.8046875 C-7.24802002 7.30323242 -8.12885254 7.80177734 -9.03637695 8.31542969 C-10.44149536 9.08741699 -10.44149536 9.08741699 -11.875 9.875 C-12.82141357 10.40512695 -13.76782715 10.93525391 -14.74291992 11.48144531 C-21.3989344 15.18599865 -28.10990761 18.74753403 -35 22 C-33.02269491 14.50705441 -30.08448388 8.05805379 -23.74609375 3.3125 C-20.36506485 1.69653171 -17.67185082 1.52677041 -13.9375 1.375 C-9.22464033 1.16375122 -4.64891854 0 0 0 Z " fill="#F2F2F2" transform="translate(246,137)"/>
<path d="M0 0 C8.43832022 1.10423331 16.68722697 2.76337106 25 4.5625 C33.35563617 6.36056465 41.43116972 7.81590404 50 8 C50 9.65 50 11.3 50 13 C22.98798208 14.02617251 22.98798208 14.02617251 12 8 C10.42605469 7.20916016 10.42605469 7.20916016 8.8203125 6.40234375 C1.23809013 2.47618026 1.23809013 2.47618026 0 0 Z " fill="#EFEFEF" transform="translate(193,114)"/>
<path d="M0 0 C1.65 0 3.3 0 5 0 C5 15.18 5 30.36 5 46 C3.35 46 1.7 46 0 46 C0 30.82 0 15.64 0 0 Z " fill="#FEFBFB" transform="translate(198,249)"/>
<path d="M0 0 C1.65 0 3.3 0 5 0 C5 15.18 5 30.36 5 46 C3.35 46 1.7 46 0 46 C0 30.82 0 15.64 0 0 Z " fill="#FEFBFB" transform="translate(169,249)"/>
<path d="M0 0 C5 1 5 1 6 2 C6.21809756 6.25748426 6.18579161 10.52045724 6.18530273 14.78295898 C6.18748743 16.92517 6.20563512 19.06686471 6.22460938 21.20898438 C6.22754359 22.5651024 6.2295282 23.92122288 6.23046875 25.27734375 C6.23457764 26.51734131 6.23868652 27.75733887 6.24291992 29.03491211 C6 32 6 32 4 34 C2.68 34 1.36 34 0 34 C0 22.78 0 11.56 0 0 Z " fill="#EE2F25" transform="translate(233,255)"/>
<path d="M0 0 C7.59 0 15.18 0 23 0 C21.24858504 4.3785374 19.37016034 7.97072742 17 12 C13.45926865 12.70529659 10.50868061 12.94719099 7 12 C4.35879247 9.13134227 0 4.13427987 0 0 Z " fill="#EE3026" transform="translate(268,238)"/>
<path d="M0 0 C-3.35169797 2.79866781 -7.00424457 4.46149512 -11 6.125 C-11.61617188 6.38925781 -12.23234375 6.65351562 -12.8671875 6.92578125 C-18.04201803 9.1134242 -22.0254592 10.12752415 -27.640625 10.09765625 C-28.71054687 10.09443359 -29.78046875 10.09121094 -30.8828125 10.08789062 C-31.99398438 10.07951172 -33.10515625 10.07113281 -34.25 10.0625 C-35.93996094 10.05573242 -35.93996094 10.05573242 -37.6640625 10.04882812 C-40.44276217 10.03705397 -43.22135409 10.0206084 -46 10 C-46 8.68 -46 7.36 -46 6 C-44.79988281 5.90203125 -43.59976562 5.8040625 -42.36328125 5.703125 C-32.06662893 4.79978178 -22.01823842 3.42194124 -11.89379883 1.32128906 C-7.86839977 0.49440387 -4.13727748 -0.25486309 0 0 Z " fill="#EDEDED" transform="translate(326,117)"/>
<path d="M0 0 C7.15032964 -0.48777443 11.27361642 1.74558594 16.70703125 6.265625 C17.36703125 6.925625 18.02703125 7.585625 18.70703125 8.265625 C17.55847656 8.25402344 16.40992188 8.24242188 15.2265625 8.23046875 C5.98975119 8.16667036 -3.09279121 8.35536008 -12.29296875 9.265625 C-12.39453125 6.875 -12.39453125 6.875 -12.29296875 4.265625 C-8.81579844 0.52098005 -4.82587112 0.5590447 0 0 Z " fill="#F4F4F4" transform="translate(182.29296875,113.734375)"/>
<path d="M0 0 C0.54414551 0.26216309 1.08829102 0.52432617 1.64892578 0.79443359 C4.13919476 1.99164775 6.63205931 3.18335973 9.125 4.375 C10.40890625 4.99375 10.40890625 4.99375 11.71875 5.625 C19.73501399 9.44814129 26.18413417 11.29621397 35.0625 11.5625 C45.73839148 11.92795295 45.73839148 11.92795295 50 13 C50 13.33 50 13.66 50 14 C36.55687176 14.58029176 24.34731017 14.05951122 11.27001953 10.78515625 C4.25631901 9.09047284 -2.21912201 8.56902665 -9.41943359 8.921875 C-13.18057954 9.10008613 -15.80674408 9.13708859 -19 7 C-10.65667456 5.80809637 -2.40676978 5.90716451 6 6 C3.69 4.68 1.38 3.36 -1 2 C-0.67 1.34 -0.34 0.68 0 0 Z " fill="#2C2C2C" transform="translate(193,115)"/>
<path d="M0 0 C0.66 0.99 1.32 1.98 2 3 C-2.75867575 4.69952705 -7.00313709 5.15549325 -12.0625 5.375 C-19.2774292 5.83589427 -19.2774292 5.83589427 -25 10 C-27.18790064 13.23936746 -29.10623391 16.58323527 -31 20 C-31.66 20.99 -32.32 21.98 -33 23 C-33.33 22.34 -33.66 21.68 -34 21 C-31.98488028 15.71836201 -29.44006916 10.61783413 -25 7 C-38.55686578 7.8746365 -47.45600497 14.03882796 -58 22 C-58.66 21.34 -59.32 20.68 -60 20 C-44.4713572 8.48460385 -32.29103346 3.64204001 -12.88525391 2.63061523 C-11.79647949 2.57333252 -10.70770508 2.5160498 -9.5859375 2.45703125 C-8.6067334 2.41553955 -7.6275293 2.37404785 -6.61865234 2.33129883 C-3.98217057 1.99774431 -2.27430784 1.33828319 0 0 Z " fill="#2D2D2D" transform="translate(244,134)"/>
<path d="M0 0 C2.24112368 0.14128027 4.47983936 0.21506524 6.72412109 0.28955078 C23.83045186 0.88293193 39.38482156 5.64560045 52 18 C52 18.66 52 19.32 52 20 C48.84431445 18.53743341 46.1750219 16.74419361 43.375 14.6875 C34.67479103 8.56937059 26.40659905 5.19933279 16 3 C16.70576172 3.92619141 16.70576172 3.92619141 17.42578125 4.87109375 C25.27418871 15.54687781 25.27418871 15.54687781 26 22 C25.34 22.99 24.68 23.98 24 25 C23.85304688 24.38253906 23.70609375 23.76507813 23.5546875 23.12890625 C21.62760561 15.85251085 18.88600352 9.01028442 12.78125 4.28125 C9.22153853 2.64138292 6.28147755 2.5569288 2.375 2.4375 C-4.68714507 2.20856995 -4.68714507 2.20856995 -8 0 C-5.11832391 -1.44083804 -3.1757477 -0.53948149 0 0 Z " fill="#252525" transform="translate(288,137)"/>
<path d="M0 0 C1.60875 -0.04125 3.2175 -0.0825 4.875 -0.125 C5.77992188 -0.14820312 6.68484375 -0.17140625 7.6171875 -0.1953125 C10 0 10 0 12 2 C11.68143549 4.00240549 11.34578768 6.00211562 11 8 C11.37617294 11.26410357 11.37617294 11.26410357 12 14 C10.35 13.67 8.7 13.34 7 13 C6.67 12.01 6.34 11.02 6 10 C5.34 9.67 4.68 9.34 4 9 C4 10.65 4 12.3 4 14 C2.68 14 1.36 14 0 14 C0 9.38 0 4.76 0 0 Z M4 3 C4 3.99 4 4.98 4 6 C4.99 6 5.98 6 7 6 C7 5.01 7 4.02 7 3 C6.01 3 5.02 3 4 3 Z " fill="#000000" transform="translate(323,86)"/>
<path d="M0 0 C1.19625 0.556875 2.3925 1.11375 3.625 1.6875 C4.12 3.1725 4.12 3.1725 4.625 4.6875 C3.76519531 4.6153125 2.90539062 4.543125 2.01953125 4.46875 C-13.71736707 3.20367272 -13.71736707 3.20367272 -29.375 4.6875 C-22.25148472 -3.62326782 -9.68624129 -2.93852264 0 0 Z " fill="#F2F2F2" transform="translate(349.375,118.3125)"/>
<path d="M0 0 C0 1.32 0 2.64 0 4 C-8.58 4 -17.16 4 -26 4 C-25.67 2.35 -25.34 0.7 -25 -1 C-17.20111109 -3.41901021 -7.58969855 -2.89131373 0 0 Z " fill="#E5BC03" transform="translate(274,176)"/>
<path d="M0 0 C1.28197266 -0.00386719 1.28197266 -0.00386719 2.58984375 -0.0078125 C4.88930852 0.11569746 6.85890348 0.48079313 9.0625 1.125 C7.72340471 5.50749366 5.97255056 7.70449251 2.0625 10.125 C-1.16955124 10.2260016 -2.18005863 8.91064586 -4.625 6.75 C-6.9375 4.125 -6.9375 4.125 -7.9375 1.125 C-5.0043642 0.14728807 -3.05571006 -0.00919011 0 0 Z " fill="#ECC303" transform="translate(259.9375,195.875)"/>
<path d="M0 0 C0.7739209 0.00193359 1.5478418 0.00386719 2.34521484 0.00585938 C11.20304549 0.06977637 20.03605842 0.57624088 28.875 1.125 C28.875 1.455 28.875 1.785 28.875 2.125 C25.52112183 2.29781872 22.16689008 2.46243564 18.8125 2.625 C17.30308838 2.70089355 17.30308838 2.70089355 15.76318359 2.77832031 C10.14107389 3.04240407 4.6217229 3.09238134 -1 2.875 C-9.31085259 2.77330992 -16.39658825 5.38729317 -24.125 8.125 C-26.45703125 8.91015625 -26.45703125 8.91015625 -28.125 9.125 C-28.785 8.465 -29.445 7.805 -30.125 7.125 C-27.39729834 6.14158385 -24.66797895 5.16314947 -21.9375 4.1875 C-21.16857422 3.90970703 -20.39964844 3.63191406 -19.60742188 3.34570312 C-12.9097151 0.95982475 -7.14610591 -0.04346969 0 0 Z " fill="#4B4B4B" transform="translate(203.125,130.875)"/>
<path d="M0 0 C7.14396727 3.60936538 14.56631037 7.62119875 20.2578125 13.328125 C20.2578125 13.988125 20.2578125 14.648125 20.2578125 15.328125 C17.10212695 13.86555841 14.4328344 12.07231861 11.6328125 10.015625 C2.97277528 3.8846252 -5.91063919 -1.10513693 -16.7421875 -0.671875 C-17.0721875 -1.331875 -17.4021875 -1.991875 -17.7421875 -2.671875 C-11.72972645 -4.67602868 -5.58585038 -2.63704764 0 0 Z " fill="#2B2B2B" transform="translate(319.7421875,141.671875)"/>
<path d="M0 0 C9.62385157 -0.51251281 17.05344459 0.50958331 26 4 C28.44715956 4.7792828 30.89987766 5.53689946 33.35546875 6.2890625 C35 7 35 7 36 9 C35.34 9.66 34.68 10.32 34 11 C34 10.34 34 9.68 34 9 C33.33097656 8.8865625 32.66195312 8.773125 31.97265625 8.65625 C29.0642097 8.01417507 26.29909772 7.13549412 23.47875977 6.18481445 C16.64349833 3.89167867 10.43253473 2.42425055 3.16015625 2.23828125 C2.09087891 2.12033203 2.09087891 2.12033203 1 2 C0.67 1.34 0.34 0.68 0 0 Z " fill="#2B2A2A" transform="translate(315,131)"/>
<path d="M0 0 C2.475 0.495 2.475 0.495 5 1 C5 4.96 5 8.92 5 13 C3.35 13.33 1.7 13.66 0 14 C0 9.38 0 4.76 0 0 Z " fill="#EE2E24" transform="translate(132,255)"/>
<path d="M0 0 C2.5625 1.625 2.5625 1.625 3.5625 3.625 C-3.3675 3.625 -10.2975 3.625 -17.4375 3.625 C-12.80234005 -2.55521327 -6.88662323 -2.75464929 0 0 Z " fill="#F5CA03" transform="translate(268.4375,153.375)"/>
<path d="M0 0 C0.66 0.33 1.32 0.66 2 1 C-7.66796875 10.66796875 -7.66796875 10.66796875 -9.37963867 12.37573242 C-10.84576693 13.84539512 -12.29868829 15.32820393 -13.75 16.8125 C-16.01321934 19.01285214 -18.23437072 20.49865839 -21 22 C-19.40584497 18.08790692 -16.86106668 15.62781914 -13.875 12.6875 C-13.38797607 12.20692139 -12.90095215 11.72634277 -12.39916992 11.23120117 C-8.40772859 7.32352841 -4.27851659 3.59199244 0 0 Z " fill="#212121" transform="translate(345,183)"/>
<path d="M0 0 C0.84884766 -0.01224609 1.69769531 -0.02449219 2.57226562 -0.03710938 C3.7875293 -0.04000977 3.7875293 -0.04000977 5.02734375 -0.04296875 C5.7555835 -0.04707764 6.48382324 -0.05118652 7.23413086 -0.05541992 C9.0625 0.1875 9.0625 0.1875 11.0625 2.1875 C5.27762232 3.01296771 -0.34675198 3.37013271 -6.1875 3.375 C-7.37085938 3.39336914 -7.37085938 3.39336914 -8.578125 3.41210938 C-9.34125 3.41404297 -10.104375 3.41597656 -10.890625 3.41796875 C-11.57286133 3.42207764 -12.25509766 3.42618652 -12.95800781 3.43041992 C-15.28389339 3.14499119 -16.90885626 2.33194309 -18.9375 1.1875 C-12.59348999 0.38890861 -6.39184605 0.00501321 0 0 Z " fill="#4D4D4D" transform="translate(192.9375,120.8125)"/>
<path d="M0 0 C9.25599658 -0.27675737 17.87995448 0.46859805 27 2 C25 4 25 4 22.69335938 4.07519531 C21.28280273 3.95289551 21.28280273 3.95289551 19.84375 3.828125 C18.82152344 3.74046875 17.79929687 3.6528125 16.74609375 3.5625 C15.67488281 3.459375 14.60367187 3.35625 13.5 3.25 C12.42878906 3.16234375 11.35757812 3.0746875 10.25390625 2.984375 C2.25843013 2.25843013 2.25843013 2.25843013 0 0 Z " fill="#414141" transform="translate(327,121)"/>
<path d="M0 0 C0.66 0 1.32 0 2 0 C0.54254576 3.36335594 -1.31117854 5.54534005 -3.9140625 8.109375 C-4.67460937 8.86347656 -5.43515625 9.61757812 -6.21875 10.39453125 C-7.0128125 11.17183594 -7.806875 11.94914063 -8.625 12.75 C-9.42679687 13.54277344 -10.22859375 14.33554688 -11.0546875 15.15234375 C-13.03202846 17.10614493 -15.01388909 19.05512103 -17 21 C-17 18 -17 18 -14.55078125 15.29296875 C-13.47870995 14.25019629 -12.39891118 13.21532394 -11.3125 12.1875 C-8.10575475 9.11323268 -5.00855932 6.08716975 -2.23046875 2.61328125 C-1.49441406 1.75089844 -0.75835937 0.88851562 0 0 Z " fill="#CFCFCF" transform="translate(351,178)"/>
<path d="M0 0 C2.27057377 -0.05398987 4.54151288 -0.09278742 6.8125 -0.125 C8.07707031 -0.14820313 9.34164063 -0.17140625 10.64453125 -0.1953125 C14 0 14 0 17 2 C13.4908758 3.13005694 10.46707065 2.98574145 6.8125 2.6875 C5.21341797 2.56955078 5.21341797 2.56955078 3.58203125 2.44921875 C2.72996094 2.30097656 1.87789063 2.15273437 1 2 C0.67 1.34 0.34 0.68 0 0 Z " fill="#414141" transform="translate(315,131)"/>
<path d="M0 0 C0 3 0 3 -2.125 5.4375 C-4.98226437 7.98419215 -7.76860975 9.97098752 -11 12 C-9.49650623 8.33213607 -7.36271208 6.31089607 -4.375 3.75 C-3.14910156 2.69039062 -3.14910156 2.69039062 -1.8984375 1.609375 C-1.27195312 1.07828125 -0.64546875 0.5471875 0 0 Z " fill="#121212" transform="translate(328,201)"/>
<path d="M0 0 C0.90105469 0.00902344 1.80210937 0.01804687 2.73046875 0.02734375 C3.41753906 0.03894531 4.10460937 0.05054687 4.8125 0.0625 C1.7655371 1.75683918 -1.01571466 2.55717112 -4.4375 3.1875 C-5.77554687 3.43886719 -5.77554687 3.43886719 -7.140625 3.6953125 C-7.81609375 3.81648438 -8.4915625 3.93765625 -9.1875 4.0625 C-8.8575 3.0725 -8.5275 2.0825 -8.1875 1.0625 C-5.17259443 0.05753148 -3.14568308 -0.04085303 0 0 Z " fill="#292929" transform="translate(324.1875,121.9375)"/>
<path d="M0 0 C5.61 0 11.22 0 17 0 C17 0.33 17 0.66 17 1 C15.98679688 1.09087891 15.98679688 1.09087891 14.953125 1.18359375 C14.06109375 1.26738281 13.1690625 1.35117188 12.25 1.4375 C11.36828125 1.51871094 10.4865625 1.59992188 9.578125 1.68359375 C7.30649548 1.96238465 5.20148177 2.38790577 3 3 C3 2.34 3 1.68 3 1 C2.01 0.67 1.02 0.34 0 0 Z " fill="#050505" transform="translate(218,138)"/>
</svg>
