<?xml version="1.0" encoding="UTF-8"?>
<svg version="1.1" xmlns="http://www.w3.org/2000/svg" width="335" height="209">
<path d="M0 0 C2.48515303 1.92122942 4.80979894 3.92813904 7.12109375 6.0546875 C7.9615625 6.80363281 8.80203125 7.55257812 9.66796875 8.32421875 C16.22185324 14.47096799 20.82870427 21.18696665 25.12109375 29.0546875 C25.54261719 29.82554688 25.96414063 30.59640625 26.3984375 31.390625 C29.60589296 37.90236476 30.81543035 44.96086025 32.12109375 52.0546875 C32.40146484 53.55322266 32.40146484 53.55322266 32.6875 55.08203125 C35.40379025 73.70452563 30.65065921 93.73859334 20.1953125 109.296875 C6.24580643 127.84367591 -11.78923701 139.91038789 -34.87890625 144.0546875 C-57.91620512 145.91120756 -78.76469175 141.30391306 -96.75488281 126.40649414 C-105.37671042 119.03705551 -105.37671042 119.03705551 -107.87890625 115.0546875 C-107.87890625 114.3946875 -107.87890625 113.7346875 -107.87890625 113.0546875 C-108.53890625 113.0546875 -109.19890625 113.0546875 -109.87890625 113.0546875 C-117.81025748 102.51456953 -123.66946767 89.27212341 -124.87890625 76.0546875 C-123.28271333 74.45849458 -121.57591876 74.86323191 -119.36254883 74.79833984 C-118.40097366 74.76936615 -117.4393985 74.74039246 -116.44868469 74.71054077 C-112.03197975 74.61328934 -107.61544268 74.53897348 -103.19799805 74.48486328 C-100.86886828 74.44821472 -98.53994839 74.39365647 -96.21166992 74.32080078 C-92.8564947 74.21734458 -89.5049622 74.17292901 -86.1484375 74.140625 C-84.59187187 74.07565323 -84.59187187 74.07565323 -83.00386047 74.0093689 C-75.92428416 74.02782534 -75.92428416 74.02782534 -72.84750366 77.05010986 C-68.87890625 82.83052594 -68.87890625 82.83052594 -68.87890625 86.0546875 C-68.10546875 86.4259375 -68.10546875 86.4259375 -67.31640625 86.8046875 C-64.7379638 88.12696568 -62.24880675 89.57511783 -59.7578125 91.0546875 C-52.9142371 94.69700622 -46.52890854 94.96367831 -38.87890625 94.0546875 C-31.34275591 91.60085408 -25.11271131 87.83999097 -20.87890625 81.0546875 C-20.46898437 80.41015625 -20.0590625 79.765625 -19.63671875 79.1015625 C-15.74388868 71.85284443 -15.54665819 63.33638098 -17.5390625 55.4375 C-20.73110442 47.45048602 -26.22652335 41.24965027 -34.08203125 37.74609375 C-41.0864498 35.05091531 -49.81383124 34.62208473 -56.94921875 37.13671875 C-58.60354143 37.99350975 -60.23497814 38.89748756 -61.828125 39.86328125 C-63.8622205 41.04499388 -65.58302133 41.60380265 -67.87890625 42.0546875 C-68.23082031 41.03890625 -68.58273438 40.023125 -68.9453125 38.9765625 C-73.87458891 25.08989307 -80.33007509 12.60351866 -90.87890625 2.0546875 C-90.87890625 1.0646875 -90.87890625 0.0746875 -90.87890625 -0.9453125 C-65.24925587 -21.4296164 -25.72379572 -17.38188639 0 0 Z " fill="#04ADEE" transform="translate(265.87890625,24.9453125)"/>
<path d="M0 0 C2.22958138 1.69837239 4.37713523 3.46235217 6.515625 5.2734375 C7.11890625 5.74394531 7.7221875 6.21445312 8.34375 6.69921875 C19.29143277 15.45243358 26.43611731 27.43156291 30.890625 40.5234375 C31.15375488 41.29236328 31.41688477 42.06128906 31.68798828 42.85351562 C31.92759277 43.59537109 32.16719727 44.33722656 32.4140625 45.1015625 C32.62724121 45.7605957 32.84041992 46.41962891 33.06005859 47.09863281 C33.515625 49.2734375 33.515625 49.2734375 33.515625 55.2734375 C17.015625 55.2734375 0.515625 55.2734375 -16.484375 55.2734375 C-16.814375 53.6234375 -17.144375 51.9734375 -17.484375 50.2734375 C-18.144375 50.2734375 -18.804375 50.2734375 -19.484375 50.2734375 C-22.484375 46.81189904 -22.484375 46.81189904 -22.484375 44.2734375 C-23 44.0259375 -23.515625 43.7784375 -24.046875 43.5234375 C-26.484375 42.2734375 -26.484375 42.2734375 -29.734375 40.2734375 C-37.72655332 35.7428396 -45.31176375 35.57573874 -54.09765625 37.9921875 C-61.92575033 40.74805674 -67.05726144 45.13647401 -70.859375 52.5234375 C-74.23943493 59.87139387 -74.81488551 68.06543922 -72.80078125 75.94921875 C-68.96375314 85.16763899 -63.04157108 90.17915587 -54.19140625 94.35546875 C-47.35628587 96.67329456 -38.99800971 96.3604612 -32.421875 93.3984375 C-31.10196602 92.70400777 -29.78838841 91.99727545 -28.484375 91.2734375 C-26.82242762 90.59509163 -25.15838597 89.92144175 -23.484375 89.2734375 C-20.74949131 94.64191289 -18.19016604 100.06245556 -15.73046875 105.5625 C-15.31925781 106.45710938 -14.90804687 107.35171875 -14.484375 108.2734375 C-14.04351562 109.23765625 -13.60265625 110.201875 -13.1484375 111.1953125 C-11.22628966 114.75083479 -8.94437173 117.75541392 -6.421875 120.8984375 C-1.0688013 127.60329749 -1.0688013 127.60329749 0.515625 131.2734375 C-6.33553126 136.42508213 -13.37919289 139.55887532 -21.484375 142.2734375 C-22.38414062 142.59570312 -23.28390625 142.91796875 -24.2109375 143.25 C-39.02845648 147.81909087 -56.06148331 146.45957717 -70.484375 141.2734375 C-71.55042969 140.89960938 -72.61648437 140.52578125 -73.71484375 140.140625 C-93.05125903 132.73936085 -108.71665348 116.83091391 -117.484375 98.2734375 C-126.00994128 78.83413445 -125.60544133 55.20868056 -117.95703125 35.5859375 C-113.58103243 25.74284201 -107.96171153 17.97939763 -100.484375 10.2734375 C-99.93265625 9.64824219 -99.3809375 9.02304687 -98.8125 8.37890625 C-90.50241017 -0.73339523 -79.01391956 -5.94544478 -67.484375 -9.7265625 C-66.60136719 -10.04625 -65.71835938 -10.3659375 -64.80859375 -10.6953125 C-43.62144943 -17.31821145 -18.06243005 -12.55282088 0 0 Z " fill="#8FC642" transform="translate(154.484375,23.7265625)"/>
<path d="M0 0 C1.99954746 -0.04254356 4.00041636 -0.04080783 6 0 C7 1 7 1 7.0625 4.0625 C7.041875 5.031875 7.02125 6.00125 7 7 C8.32 7 9.64 7 11 7 C11.33 7.66 11.66 8.32 12 9 C12.845625 8.484375 13.69125 7.96875 14.5625 7.4375 C18.74108496 5.69009174 20.66586486 5.76167567 25 7 C27.41797356 8.47735527 28.98316871 9.9339777 31 12 C31 12.99 31 13.98 31 15 C31.66 15 32.32 15 33 15 C33.2475 14.236875 33.495 13.47375 33.75 12.6875 C35.19136752 9.58855984 35.98708331 8.58574563 39 7 C43.87941711 5.80014333 46.59183701 5.415995 51 7.9375 C51.99 8.618125 52.98 9.29875 54 10 C54.66 9.01 55.32 8.02 56 7 C58.6015625 6.48828125 58.6015625 6.48828125 61.625 6.3125 C62.62789063 6.24675781 63.63078125 6.18101562 64.6640625 6.11328125 C65.82035156 6.05720703 65.82035156 6.05720703 67 6 C67.495 7.485 67.495 7.485 68 9 C69.24136719 8.24783203 69.24136719 8.24783203 70.5078125 7.48046875 C74.54134354 5.77050425 77.63444952 5.84817616 81.875 6.3125 C82.56335938 6.37373047 83.25171875 6.43496094 83.9609375 6.49804688 C85.64210098 6.64981858 87.32133301 6.82273618 89 7 C89.495 8.98 89.495 8.98 90 11 C90.99 10.0409375 90.99 10.0409375 92 9.0625 C95.91455545 6.37124313 98.28142871 6.22831797 103 6 C103.99 6.33 104.98 6.66 106 7 C106 4.69 106 2.38 106 0 C108.14576637 -0.02685938 110.29162645 -0.04633088 112.4375 -0.0625 C113.63246094 -0.07410156 114.82742188 -0.08570313 116.05859375 -0.09765625 C119 0 119 0 120 1 C120.23192865 2.51469448 120.41215238 4.03754562 120.5625 5.5625 C120.64628906 6.38878906 120.73007812 7.21507812 120.81640625 8.06640625 C120.87699219 8.70449219 120.93757813 9.34257812 121 10 C121.99 9.319375 122.98 8.63875 124 7.9375 C127.58157583 5.90745702 130.11222994 5.55913044 134.140625 6.31640625 C138.38397771 7.87646239 140.58890907 11.3833636 143 15 C143 16.98 143 18.96 143 21 C137.39 21 131.78 21 126 21 C126 21.66 126 22.32 126 23 C130.65052872 23.26932521 130.65052872 23.26932521 135 22 C137.3329866 21.95977609 139.66706666 21.95679753 142 22 C141.10368306 25.01488424 140.32087126 26.71802222 137.9375 28.8125 C133.33642372 30.67250956 128.44309349 30.98671677 123.78515625 29.10546875 C122 28 122 28 121 26 C120.34 27.32 119.68 28.64 119 30 C115.27098186 30.08736736 111.54222835 30.14051482 107.8125 30.1875 C106.22985352 30.22520508 106.22985352 30.22520508 104.61523438 30.26367188 C103.08286133 30.27817383 103.08286133 30.27817383 101.51953125 30.29296875 C100.58214111 30.3086792 99.64475098 30.32438965 98.67895508 30.34057617 C95.18461003 29.89633929 92.50536206 28.50536206 90 26 C89.67 27.32 89.34 28.64 89 30 C86.28996573 30.1358035 83.58681059 30.23444624 80.875 30.3125 C80.11445313 30.35439453 79.35390625 30.39628906 78.5703125 30.43945312 C74.4040605 30.52924304 71.80510776 30.28883246 68.5078125 27.60546875 C65.27181353 24.24345736 64.87298788 22.89084839 64.9375 18.375 C64.94652344 17.55773437 64.95554687 16.74046875 64.96484375 15.8984375 C64.97644531 15.27195313 64.98804688 14.64546875 65 14 C64.34 14.33 63.68 14.66 63 15 C62.68758629 17.54941373 62.48696579 20.00361513 62.375 22.5625 C62.33632812 23.27341797 62.29765625 23.98433594 62.2578125 24.71679688 C62.16328217 26.47742425 62.08054183 28.23867728 62 30 C59.125 30.1875 59.125 30.1875 56 30 C55.34 29.01 54.68 28.02 54 27 C53.360625 27.495 52.72125 27.99 52.0625 28.5 C47.95460302 30.51203117 44.50098167 30.62082506 40 30 C37.03087118 28.61019502 35.30342972 27.30342972 33 25 C33 24.01 33 23.02 33 22 C32.34 22 31.68 22 31 22 C30.896875 22.598125 30.79375 23.19625 30.6875 23.8125 C29.89363064 26.33844795 29.04427591 27.34885407 27 29 C22.19135086 30.60288305 17.82928589 30.77236515 13.1875 28.8125 C10.60900303 26.67603109 9.33129146 25.08299075 8 22 C7.9222654 19.66796188 7.91032272 17.33160941 8 15 C7.67 14.67 7.34 14.34 7 14 C7.01160156 15.07121094 7.02320313 16.14242187 7.03515625 17.24609375 C7.04453299 18.64322743 7.05363331 20.04036299 7.0625 21.4375 C7.07087891 22.14455078 7.07925781 22.85160156 7.08789062 23.58007812 C7.09653588 25.38693559 7.05220011 27.19387603 7 29 C6.67 29.33 6.34 29.66 6 30 C4.02 30 2.04 30 0 30 C0 24.72 0 19.44 0 14 C-1.32 13.34 -2.64 12.68 -4 12 C-3.67 10.35 -3.34 8.7 -3 7 C-2.01 7 -1.02 7 0 7 C0 4.69 0 2.38 0 0 Z M15.6875 14.75 C13.7794573 16.80659131 13.7794573 16.80659131 14.0625 19.0625 C15.17340428 21.35836885 15.84745844 22.58971415 18 24 C21.14921909 23.76716851 21.14921909 23.76716851 24 23 C24.66 21.02 25.32 19.04 26 17 C24.25065102 14.91666921 24.25065102 14.91666921 22 13 C18.04826643 12.59770489 18.04826643 12.59770489 15.6875 14.75 Z M40.6875 14.125 C38.78950188 15.90028033 38.78950188 15.90028033 38.5625 18.5 C38.85337294 20.98579109 38.85337294 20.98579109 40.0625 22.875 C43.17002199 24.67936761 45.62799333 23.81177938 49 23 C49.33 22.34 49.66 21.68 50 21 C52.5625 20.375 52.5625 20.375 55 20 C55 19.01 55 18.02 55 17 C47.99531648 13.33663552 47.99531648 13.33663552 40.6875 14.125 Z M72.6875 14.6875 C70.73067731 16.87651961 70.73067731 16.87651961 71.0625 19.625 C71.86655546 22.32289761 71.86655546 22.32289761 75 24 C78.82748905 23.81767408 78.82748905 23.81767408 82 22 C82.40153823 17.83041276 82.40153823 17.83041276 80.75 14.125 C77.64388292 12.12821045 75.54275408 12.60393621 72.6875 14.6875 Z M96.1875 14.0625 C94.32188015 17.10640607 95.30121391 19.63312157 96 23 C98.31 23.33 100.62 23.66 103 24 C104.66846734 22.30504044 104.66846734 22.30504044 106 20 C106.00635246 17.36462492 106.00635246 17.36462492 105 15 C101.77434741 12.84956494 99.7345304 11.98320632 96.1875 14.0625 Z M129 13 C128.34 13.66 127.68 14.32 127 15 C129.31 15 131.62 15 134 15 C133.34 14.34 132.68 13.68 132 13 C131.01 13 130.02 13 129 13 Z " fill="#20B6EE" transform="translate(151,178)"/>
<path d="M0 0 C4.29 0 8.58 0 13 0 C13.495 5.94 13.495 5.94 14 12 C14.66 11.195625 15.32 10.39125 16 9.5625 C19.22072046 6.81146794 20.83130208 6.06885299 24.94140625 5.8046875 C28.6050233 6.15227925 31.26261149 7.5812493 34 10 C36.73674478 14.14925822 37 15.89564179 37 21 C31.72 21.33 26.44 21.66 21 22 C22.98 22.33 24.96 22.66 27 23 C27.495 22.505 27.495 22.505 28 22 C30.33297433 21.95907063 32.66705225 21.95758277 35 22 C34.7395304 25.21245843 34.42509628 26.6147565 32 28.8125 C27.9786057 30.40430191 24.27774186 30.58924172 20 30 C17.72265625 28.98046875 17.72265625 28.98046875 16 28 C16 27.34 16 26.68 16 26 C15.34 26 14.68 26 14 26 C13.67 27.32 13.34 28.64 13 30 C9.27098186 30.08736736 5.54222835 30.14051482 1.8125 30.1875 C0.22985352 30.22520508 0.22985352 30.22520508 -1.38476562 30.26367188 C-2.91713867 30.27817383 -2.91713867 30.27817383 -4.48046875 30.29296875 C-5.41785889 30.3086792 -6.35524902 30.32438965 -7.32104492 30.34057617 C-10.81538997 29.89633929 -13.49463794 28.50536206 -16 26 C-16.33 27.32 -16.66 28.64 -17 30 C-19.72977064 30.08126109 -22.4571017 30.14061663 -25.1875 30.1875 C-25.95642578 30.21263672 -26.72535156 30.23777344 -27.51757812 30.26367188 C-32.18812274 30.32380764 -35.21957455 30.05424203 -39 27 C-41.20914 23.68629 -41.22481553 22.6553979 -41.125 18.8125 C-41.10695312 17.91144531 -41.08890625 17.01039063 -41.0703125 16.08203125 C-41.04710937 15.39496094 -41.02390625 14.70789063 -41 14 C-41.66 14.33 -42.32 14.66 -43 15 C-43.281765 17.32383502 -43.45171684 19.66176824 -43.5625 22 C-43.90349947 28.90349947 -43.90349947 28.90349947 -45 30 C-47.4375 30.25 -47.4375 30.25 -50 30 C-50.66 29.01 -51.32 28.02 -52 27 C-52.639375 27.495 -53.27875 27.99 -53.9375 28.5 C-58.05347873 30.51598958 -61.49154992 30.60659147 -66 30 C-69.66195861 28.40784408 -72.20204902 26.59590196 -74 23 C-74.66188351 19.18871471 -74.85234757 15.65909629 -73.05078125 12.15234375 C-70.51372045 8.89498177 -68.02839334 6.84315209 -64 6 C-59.21197976 6.01915208 -55.57155235 6.57726233 -52 10 C-51.34 9.01 -50.68 8.02 -50 7 C-47.3984375 6.48828125 -47.3984375 6.48828125 -44.375 6.3125 C-42.87066406 6.21388672 -42.87066406 6.21388672 -41.3359375 6.11328125 C-40.17964844 6.05720703 -40.17964844 6.05720703 -39 6 C-38.505 7.485 -38.505 7.485 -38 9 C-37.17242187 8.49855469 -36.34484375 7.99710938 -35.4921875 7.48046875 C-31.45865646 5.77050425 -28.36555048 5.84817616 -24.125 6.3125 C-23.43664062 6.37373047 -22.74828125 6.43496094 -22.0390625 6.49804688 C-20.35789902 6.64981858 -18.67866699 6.82273618 -17 7 C-16.505 8.98 -16.505 8.98 -16 11 C-15.34 10.360625 -14.68 9.72125 -14 9.0625 C-10.1009144 6.38187865 -7.69352843 6.23082927 -3 6 C-2.01 6.495 -2.01 6.495 -1 7 C-0.67 4.69 -0.34 2.38 0 0 Z M-65.1875 14.1875 C-67.22546263 15.87829008 -67.22546263 15.87829008 -67.4375 18.5 C-67.14662706 20.98579109 -67.14662706 20.98579109 -65.9375 22.875 C-62.82997801 24.67936761 -60.37200667 23.81177938 -57 23 C-56.67 22.34 -56.34 21.68 -56 21 C-53.4375 20.375 -53.4375 20.375 -51 20 C-51 19.01 -51 18.02 -51 17 C-51.928125 16.71125 -52.85625 16.4225 -53.8125 16.125 C-57 15 -57 15 -60 13 C-62.97541303 12.76145407 -62.97541303 12.76145407 -65.1875 14.1875 Z M-35 16 C-34.73343428 18.93443402 -34.73343428 18.93443402 -34 22 C-31.17431454 24.32038095 -31.17431454 24.32038095 -27.9375 23.8125 C-24.70259047 23.26245502 -24.70259047 23.26245502 -23 20 C-23.23205221 17.52477641 -23.82125221 16.23833038 -25.3125 14.25 C-29.14254694 11.41292819 -31.88830129 13.33282968 -35 16 Z M-8 13 C-10.26877535 15.41880929 -10.26877535 15.41880929 -12 18 C-11.34 19.65 -10.68 21.3 -10 23 C-7.69 23.33 -5.38 23.66 -3 24 C-1.33153266 22.30504044 -1.33153266 22.30504044 0 20 C0.00635246 17.36462492 0.00635246 17.36462492 -1 15 C-3.95377498 12.63019987 -3.95377498 12.63019987 -8 13 Z " fill="#27B7ED" transform="translate(111,178)"/>
<path d="M0 0 C2.14576637 -0.02685938 4.29162645 -0.04633088 6.4375 -0.0625 C7.63246094 -0.07410156 8.82742188 -0.08570313 10.05859375 -0.09765625 C13 0 13 0 14 1 C14.23192865 2.51469448 14.41215238 4.03754562 14.5625 5.5625 C14.68818359 6.80193359 14.68818359 6.80193359 14.81640625 8.06640625 C14.87699219 8.70449219 14.93757813 9.34257812 15 10 C15.99 9.319375 16.98 8.63875 18 7.9375 C21.58157583 5.90745702 24.11222994 5.55913044 28.140625 6.31640625 C32.38397771 7.87646239 34.58890907 11.3833636 37 15 C37 16.98 37 18.96 37 21 C31.39 21 25.78 21 20 21 C20 21.66 20 22.32 20 23 C24.65052872 23.26932521 24.65052872 23.26932521 29 22 C31.3329866 21.95977609 33.66706666 21.95679753 36 22 C35.10368306 25.01488424 34.32087126 26.71802222 31.9375 28.8125 C27.33642372 30.67250956 22.44309349 30.98671677 17.78515625 29.10546875 C16 28 16 28 15 26 C14.34 27.32 13.68 28.64 13 30 C9.22923111 30.05799124 5.45857666 30.09359306 1.6875 30.125 C0.61564453 30.14175781 -0.45621094 30.15851563 -1.56054688 30.17578125 C-2.58857422 30.18222656 -3.61660156 30.18867188 -4.67578125 30.1953125 C-5.62364502 30.20578613 -6.57150879 30.21625977 -7.5480957 30.22705078 C-10 30 -10 30 -13 28 C-10.75006641 27.97292861 -8.50003905 27.95357171 -6.25 27.9375 C-4.99703125 27.92589844 -3.7440625 27.91429687 -2.453125 27.90234375 C1 28 1 28 5 29 C5 20.09 5 11.18 5 2 C3.68 2 2.36 2 1 2 C1 4.64 1 7.28 1 10 C0.33613281 9.91621094 -0.32773437 9.83242187 -1.01171875 9.74609375 C-7.54720848 8.94574958 -7.54720848 8.94574958 -14 10 C-12.62689339 8.02615924 -11.46809897 7.11409912 -9.125 6.54296875 C-5.59968163 6.0569414 -3.43980157 5.85339948 0 7 C0 4.69 0 2.38 0 0 Z M23 13 C22.34 13.66 21.68 14.32 21 15 C23.31 15 25.62 15 28 15 C27.34 14.34 26.68 13.68 26 13 C25.01 13 24.02 13 23 13 Z " fill="#1DB4EE" transform="translate(257,178)"/>
<path d="M0 0 C4.29 0 8.58 0 13 0 C13.33 3.96 13.66 7.92 14 12 C14.66 11.195625 15.32 10.39125 16 9.5625 C19.22072046 6.81146794 20.83130208 6.06885299 24.94140625 5.8046875 C28.6050233 6.15227925 31.26261149 7.5812493 34 10 C36.73674478 14.14925822 37 15.89564179 37 21 C31.72 21.33 26.44 21.66 21 22 C22.98 22.33 24.96 22.66 27 23 C27.495 22.505 27.495 22.505 28 22 C30.33297433 21.95907063 32.66705225 21.95758277 35 22 C34.7395304 25.21245843 34.42509628 26.6147565 32 28.8125 C27.9786057 30.40430191 24.27774186 30.58924172 20 30 C17.72265625 28.98046875 17.72265625 28.98046875 16 28 C16 27.34 16 26.68 16 26 C15.34 26 14.68 26 14 26 C13.67 27.32 13.34 28.64 13 30 C5.41 30 -2.18 30 -10 30 C-10 29.67 -10 29.34 -10 29 C-8.0641649 28.63684334 -6.12624752 28.28477269 -4.1875 27.9375 C-3.10855469 27.74027344 -2.02960938 27.54304688 -0.91796875 27.33984375 C2 27 2 27 5 28 C5 19.42 5 10.84 5 2 C3.68 2 2.36 2 1 2 C1 4.31 1 6.62 1 9 C-1.97 8.67 -4.94 8.34 -8 8 C-8 7.34 -8 6.68 -8 6 C-5.69 6.33 -3.38 6.66 -1 7 C-0.67 4.69 -0.34 2.38 0 0 Z " fill="#12B1ED" transform="translate(111,178)"/>
<path d="M0 0 C1.99954746 -0.04254356 4.00041636 -0.04080783 6 0 C7 1 7 1 7.0625 4.0625 C7.041875 5.031875 7.02125 6.00125 7 7 C8.32 7 9.64 7 11 7 C11.33 7.66 11.66 8.32 12 9 C12.845625 8.484375 13.69125 7.96875 14.5625 7.4375 C18.74108496 5.69009174 20.66586486 5.76167567 25 7 C29.42212495 9.25126361 29.42212495 9.25126361 31 12 C31.73391382 16.42029011 31.86596085 20.59709515 31 25 C28.74487204 27.84983471 27.46468911 28.84510363 24 30 C18.69414624 30.34231315 15.26204172 30.53140599 11 27 C7.79376718 23.01984891 7.80759207 20.00260611 8 15 C7.67 14.67 7.34 14.34 7 14 C7.01160156 15.07121094 7.02320313 16.14242187 7.03515625 17.24609375 C7.04453299 18.64322743 7.05363331 20.04036299 7.0625 21.4375 C7.07087891 22.14455078 7.07925781 22.85160156 7.08789062 23.58007812 C7.09653588 25.38693559 7.05220011 27.19387603 7 29 C6.67 29.33 6.34 29.66 6 30 C4.02 30 2.04 30 0 30 C0 24.72 0 19.44 0 14 C-1.32 13.34 -2.64 12.68 -4 12 C-3.67 10.35 -3.34 8.7 -3 7 C-2.01 7 -1.02 7 0 7 C0 4.69 0 2.38 0 0 Z M15.6875 14.75 C13.7794573 16.80659131 13.7794573 16.80659131 14.0625 19.0625 C15.17340428 21.35836885 15.84745844 22.58971415 18 24 C21.14921909 23.76716851 21.14921909 23.76716851 24 23 C24.66 21.02 25.32 19.04 26 17 C24.25065102 14.91666921 24.25065102 14.91666921 22 13 C18.04826643 12.59770489 18.04826643 12.59770489 15.6875 14.75 Z " fill="#9BCC57" transform="translate(151,178)"/>
<path d="M0 0 C0.495 0.474375 0.99 0.94875 1.5 1.4375 C2.16 0.4475 2.82 -0.5425 3.5 -1.5625 C6.1015625 -2.07421875 6.1015625 -2.07421875 9.125 -2.25 C10.62933594 -2.34861328 10.62933594 -2.34861328 12.1640625 -2.44921875 C13.32035156 -2.50529297 13.32035156 -2.50529297 14.5 -2.5625 C14.995 -1.0775 14.995 -1.0775 15.5 0.4375 C16.325 -0.078125 17.15 -0.59375 18 -1.125 C22.48923493 -2.96879292 24.79648165 -2.45454658 29.5 -1.5625 C29.5 -1.2325 29.5 -0.9025 29.5 -0.5625 C25.87 -0.2325 22.24 0.0975 18.5 0.4375 C18.17 1.4275 17.84 2.4175 17.5 3.4375 C16.51 3.4375 15.52 3.4375 14.5 3.4375 C13.84 4.7575 13.18 6.0775 12.5 7.4375 C12.5 6.7775 12.5 6.1175 12.5 5.4375 C11.84 5.7675 11.18 6.0975 10.5 6.4375 C10.218235 8.76133502 10.04828316 11.09926824 9.9375 13.4375 C9.59650053 20.34099947 9.59650053 20.34099947 8.5 21.4375 C6.0625 21.6875 6.0625 21.6875 3.5 21.4375 C2.84 20.4475 2.18 19.4575 1.5 18.4375 C0.860625 18.9325 0.22125 19.4275 -0.4375 19.9375 C-4.55347873 21.95348958 -7.99154992 22.04409147 -12.5 21.4375 C-16.16195861 19.84534408 -18.70204902 18.03340196 -20.5 14.4375 C-21.16188351 10.62621471 -21.35234757 7.09659629 -19.55078125 3.58984375 C-14.42111893 -2.99618957 -7.06793571 -4.41745982 0 0 Z M-11.6875 5.625 C-13.72546263 7.31579008 -13.72546263 7.31579008 -13.9375 9.9375 C-13.64662706 12.42329109 -13.64662706 12.42329109 -12.4375 14.3125 C-9.32997801 16.11686761 -6.87200667 15.24927938 -3.5 14.4375 C-3.17 13.7775 -2.84 13.1175 -2.5 12.4375 C0.0625 11.8125 0.0625 11.8125 2.5 11.4375 C2.5 10.4475 2.5 9.4575 2.5 8.4375 C1.571875 8.14875 0.64375 7.86 -0.3125 7.5625 C-3.5 6.4375 -3.5 6.4375 -6.5 4.4375 C-9.47541303 4.19895407 -9.47541303 4.19895407 -11.6875 5.625 Z " fill="#24B6EE" transform="translate(57.5,186.5625)"/>
<path d="M0 0 C2.5 1.5625 2.5 1.5625 4 3 C4.66 2.01 5.32 1.02 6 0 C8.6015625 -0.51171875 8.6015625 -0.51171875 11.625 -0.6875 C13.12933594 -0.78611328 13.12933594 -0.78611328 14.6640625 -0.88671875 C15.82035156 -0.94279297 15.82035156 -0.94279297 17 -1 C17.495 0.485 17.495 0.485 18 2 C18.66 2.33 19.32 2.66 20 3 C19.67 3.66 19.34 4.32 19 5 C18.34 5 17.68 5 17 5 C16.67 6.65 16.34 8.3 16 10 C15.505 8.515 15.505 8.515 15 7 C14.34 7.33 13.68 7.66 13 8 C12.68758629 10.54941373 12.48696579 13.00361513 12.375 15.5625 C12.33632812 16.27341797 12.29765625 16.98433594 12.2578125 17.71679688 C12.16328217 19.47742425 12.08054183 21.23867728 12 23 C9.125 23.1875 9.125 23.1875 6 23 C5.34 22.01 4.68 21.02 4 20 C3.360625 20.495 2.72125 20.99 2.0625 21.5 C-2.04539698 23.51203117 -5.49901833 23.62082506 -10 23 C-12.96912882 21.61019502 -14.69657028 20.30342972 -17 18 C-17 17.01 -17 16.02 -17 15 C-17.66 15 -18.32 15 -19 15 C-19 12.69 -19 10.38 -19 8 C-18.34 8 -17.68 8 -17 8 C-16.7525 7.236875 -16.505 6.47375 -16.25 5.6875 C-14.86694005 2.71392111 -13.76995517 1.67876071 -11 0 C-7.16608823 -1.27797059 -3.87006105 -0.91106065 0 0 Z M-9.3125 7.125 C-11.21049812 8.90028033 -11.21049812 8.90028033 -11.4375 11.5 C-11.14662706 13.98579109 -11.14662706 13.98579109 -9.9375 15.875 C-6.82997801 17.67936761 -4.37200667 16.81177938 -1 16 C-0.67 15.34 -0.34 14.68 0 14 C2.5625 13.375 2.5625 13.375 5 13 C5 12.01 5 11.02 5 10 C-2.00468352 6.33663552 -2.00468352 6.33663552 -9.3125 7.125 Z " fill="#2FBAEE" transform="translate(201,185)"/>
<path d="M0 0 C3.57626271 2.46364764 5.27552993 4.90511224 6.8125 8.9375 C7.72692537 14.42405221 5.80221932 17.49563129 2.8125 21.9375 C-1.73429463 24.96869642 -5.52784942 25.21879671 -10.875 24.3125 C-15.22861301 22.50533988 -17.11278223 20.08693555 -19.1875 15.9375 C-19.83039334 11.94179583 -20.03731258 8.39240065 -17.953125 4.82421875 C-12.90950529 -1.20565333 -7.68760593 -2.56253531 0 0 Z M-0.1875 7.9375 C-0.5175 10.2475 -0.8475 12.5575 -1.1875 14.9375 C-0.1975 15.4325 -0.1975 15.4325 0.8125 15.9375 C1.1425 13.6275 1.4725 11.3175 1.8125 8.9375 C1.1525 8.6075 0.4925 8.2775 -0.1875 7.9375 Z M-14.1875 8.9375 C-14.1875 10.9175 -14.1875 12.8975 -14.1875 14.9375 C-13.8575 14.9375 -13.5275 14.9375 -13.1875 14.9375 C-13.1875 12.9575 -13.1875 10.9775 -13.1875 8.9375 C-13.5175 8.9375 -13.8475 8.9375 -14.1875 8.9375 Z M-7.1875 14.9375 C-7.5175 16.5875 -7.8475 18.2375 -8.1875 19.9375 C-7.1975 19.9375 -6.2075 19.9375 -5.1875 19.9375 C-5.5175 18.2875 -5.8475 16.6375 -6.1875 14.9375 C-6.5175 14.9375 -6.8475 14.9375 -7.1875 14.9375 Z " fill="#52C7F1" transform="translate(287.1875,2.0625)"/>
<path d="M0 0 C2.14576637 -0.02685938 4.29162645 -0.04633088 6.4375 -0.0625 C7.63246094 -0.07410156 8.82742188 -0.08570313 10.05859375 -0.09765625 C13 0 13 0 14 1 C15.12085168 7.88701086 15.05380976 14.75091733 14.625 21.6875 C14.56046631 22.74819702 14.56046631 22.74819702 14.49462891 23.83032227 C14.1332546 28.8667454 14.1332546 28.8667454 13 30 C9.21504445 30.25252843 5.41738304 30.18522639 1.625 30.1875 C0.02398437 30.20586914 0.02398437 30.20586914 -1.609375 30.22460938 C-3.14464844 30.22750977 -3.14464844 30.22750977 -4.7109375 30.23046875 C-5.65243652 30.23457764 -6.59393555 30.23868652 -7.56396484 30.24291992 C-10 30 -10 30 -13 28 C-10.75006641 27.97292861 -8.50003905 27.95357171 -6.25 27.9375 C-4.99703125 27.92589844 -3.7440625 27.91429687 -2.453125 27.90234375 C1 28 1 28 5 29 C5 20.09 5 11.18 5 2 C3.68 2 2.36 2 1 2 C1 4.64 1 7.28 1 10 C0.33613281 9.91621094 -0.32773437 9.83242187 -1.01171875 9.74609375 C-7.54720848 8.94574958 -7.54720848 8.94574958 -14 10 C-12.62689339 8.02615924 -11.46809897 7.11409912 -9.125 6.54296875 C-5.59968163 6.0569414 -3.43980157 5.85339948 0 7 C0 4.69 0 2.38 0 0 Z " fill="#66D1F2" transform="translate(257,178)"/>
<path d="M0 0 C1.32 0 2.64 0 4 0 C4 8.58 4 17.16 4 26 C-9.68227092 27.56025896 -9.68227092 27.56025896 -13.296875 26.0234375 C-16.55449395 23.26575017 -17.90218632 20.99769949 -18.3125 16.8125 C-17.914775 11.96025506 -16.88842552 9.90327773 -14 6 C-9.55917634 3.84302851 -4.56514198 5.79655299 0 7 C0 4.69 0 2.38 0 0 Z M-9 11 C-11.26877535 13.41880929 -11.26877535 13.41880929 -13 16 C-12.34 17.65 -11.68 19.3 -11 21 C-8.69 21.33 -6.38 21.66 -4 22 C-2.33153266 20.30504044 -2.33153266 20.30504044 -1 18 C-0.99364754 15.36462492 -0.99364754 15.36462492 -2 13 C-4.95377498 10.63019987 -4.95377498 10.63019987 -9 11 Z " fill="#10B0ED" transform="translate(112,180)"/>
<path d="M0 0 C1.32 0 2.64 0 4 0 C4 8.91 4 17.82 4 27 C-11.01101189 27.13899085 -11.01101189 27.13899085 -14 26 C-16.76462209 23.1606584 -17.98879692 21.16512011 -18.02734375 17.15625 C-17.77652172 14.41487125 -17.44464915 11.71622632 -17 9 C-11.23826317 5.93524637 -7.37259801 5.80062214 -1 7 C-0.67 4.69 -0.34 2.38 0 0 Z M-10.8125 12.0625 C-12.67811985 15.10640607 -11.69878609 17.63312157 -11 21 C-8.69 21.33 -6.38 21.66 -4 22 C-2.33153266 20.30504044 -2.33153266 20.30504044 -1 18 C-0.99364754 15.36462492 -0.99364754 15.36462492 -2 13 C-5.22565259 10.84956494 -7.2654696 9.98320632 -10.8125 12.0625 Z " fill="#07ADED" transform="translate(258,180)"/>
<path d="M0 0 C0.33 0.99 0.66 1.98 1 3 C1.825 2.484375 2.65 1.96875 3.5 1.4375 C7.98923493 -0.40629292 10.29648165 0.10795342 15 1 C15 1.33 15 1.66 15 2 C11.37 2.33 7.74 2.66 4 3 C3.67 3.99 3.34 4.98 3 6 C2.01 6 1.02 6 0 6 C-0.66 7.32 -1.32 8.64 -2 10 C-2 9.34 -2 8.68 -2 8 C-2.99 8.495 -2.99 8.495 -4 9 C-4.281765 11.32383502 -4.45171684 13.66176824 -4.5625 16 C-4.90349947 22.90349947 -4.90349947 22.90349947 -6 24 C-8.4375 24.25 -8.4375 24.25 -11 24 C-11.66 23.01 -12.32 22.02 -13 21 C-13.99 21.66 -14.98 22.32 -16 23 C-14.79618552 20.50638429 -13.54571278 18.31856917 -12 16 C-13.98 16.33 -15.96 16.66 -18 17 C-17.67 16.01 -17.34 15.02 -17 14 C-15.35 14 -13.7 14 -12 14 C-12 13.01 -12 12.02 -12 11 C-13.175625 11.0928125 -13.175625 11.0928125 -14.375 11.1875 C-15.674375 11.0946875 -15.674375 11.0946875 -17 11 C-17.66 10.01 -18.32 9.02 -19 8 C-16.03 8.495 -16.03 8.495 -13 9 C-12.855625 7.865625 -12.71125 6.73125 -12.5625 5.5625 C-12 2 -12 2 -11 1 C-7.26155861 0.36517033 -3.79819843 0 0 0 Z " fill="#4CC2F0" transform="translate(72,184)"/>
<path d="M0 0 C0.33 0.99 0.66 1.98 1 3 C-1.31 3.33 -3.62 3.66 -6 4 C-3.69 4 -1.38 4 1 4 C1.33 3.34 1.66 2.68 2 2 C4.86724686 2.57344937 5.8614515 2.8614515 8 5 C8.51953125 7.27734375 8.51953125 7.27734375 8.8125 9.9375 C8.92207031 10.81277344 9.03164063 11.68804687 9.14453125 12.58984375 C9 15 9 15 6 18 C5.67 15.03 5.34 12.06 5 9 C1.7317186 11.61210269 1.7317186 11.61210269 1.8125 14.6875 C1.874375 15.450625 1.93625 16.21375 2 17 C1.01 16.67 0.02 16.34 -1 16 C-1.33 15.34 -1.66 14.68 -2 14 C-2.99 13.67 -3.98 13.34 -5 13 C-5 14.65 -5 16.3 -5 18 C-5.99 17.67 -6.98 17.34 -8 17 C-8 13.37 -8 9.74 -8 6 C-8.99 6.33 -9.98 6.66 -11 7 C-11 4 -11 4 -9.6875 2.375 C-6.61836046 -0.12578036 -3.79439496 -0.10255122 0 0 Z " fill="#2BB9EC" transform="translate(283,2)"/>
<path d="M0 0 C4.29 0 8.58 0 13 0 C13 0.33 13 0.66 13 1 C11.35 1 9.7 1 8 1 C8 10.24 8 19.48 8 29 C9.65 29 11.3 29 13 29 C13 29.33 13 29.66 13 30 C5.41 30 -2.18 30 -10 30 C-10 29.67 -10 29.34 -10 29 C-8.0641649 28.63684334 -6.12624752 28.28477269 -4.1875 27.9375 C-3.10855469 27.74027344 -2.02960938 27.54304688 -0.91796875 27.33984375 C2 27 2 27 5 28 C5 19.42 5 10.84 5 2 C3.68 2 2.36 2 1 2 C1 4.31 1 6.62 1 9 C-1.97 8.67 -4.94 8.34 -8 8 C-8 7.34 -8 6.68 -8 6 C-5.69 6.33 -3.38 6.66 -1 7 C-0.67 4.69 -0.34 2.38 0 0 Z " fill="#5FD1F1" transform="translate(111,178)"/>
<path d="M0 0 C1.32 0 2.64 0 4 0 C4 1.98 4 3.96 4 6 C5.65 6 7.3 6 9 6 C9 7.32 9 8.64 9 10 C7.35 10 5.7 10 4 10 C4 15.61 4 21.22 4 27 C2.68 27 1.36 27 0 27 C0 21.39 0 15.78 0 10 C-1.65 10 -3.3 10 -5 10 C-5 8.68 -5 7.36 -5 6 C-3.35 6 -1.7 6 0 6 C0 4.02 0 2.04 0 0 Z " fill="#8EC744" transform="translate(152,180)"/>
<path d="M0 0 C1.65 0 3.3 0 5 0 C5.19756803 3.72870453 5.38128099 7.45796796 5.5625 11.1875 C5.61857422 12.24259766 5.67464844 13.29769531 5.73242188 14.38476562 C5.78076172 15.40634766 5.82910156 16.42792969 5.87890625 17.48046875 C5.9260376 18.41785889 5.97316895 19.35524902 6.02172852 20.32104492 C5.99989432 23.01302932 5.61586406 25.38516976 5 28 C3.35 28 1.7 28 0 28 C0 18.76 0 9.52 0 0 Z " fill="#0BAEED" transform="translate(119,179)"/>
<path d="M0 0 C1.99954746 -0.04254356 4.00041636 -0.04080783 6 0 C7 1 7 1 7.0625 4.0625 C7.041875 5.031875 7.02125 6.00125 7 7 C8.32 7 9.64 7 11 7 C12.125 10.75 12.125 10.75 11 13 C10.16387106 19.65757746 10.16387106 19.65757746 12.1171875 25.8359375 C13.6071347 27.3580684 13.6071347 27.3580684 16 29 C12.73810844 28.4376049 11.08865152 27.5859495 9 25 C7.84396189 21.53188567 8 18.63431887 8 15 C7.67 14.67 7.34 14.34 7 14 C7.01160156 15.07121094 7.02320313 16.14242187 7.03515625 17.24609375 C7.04453299 18.64322743 7.05363331 20.04036299 7.0625 21.4375 C7.07087891 22.14455078 7.07925781 22.85160156 7.08789062 23.58007812 C7.09653588 25.38693559 7.05220011 27.19387603 7 29 C6.67 29.33 6.34 29.66 6 30 C4.02 30 2.04 30 0 30 C0 24.72 0 19.44 0 14 C-0.99 13.67 -1.98 13.34 -3 13 C-1.68 12.67 -0.36 12.34 1 12 C1 17.61 1 23.22 1 29 C2.32 29 3.64 29 5 29 C5 23.39 5 17.78 5 12 C6.65 12 8.3 12 10 12 C10 10.68 10 9.36 10 8 C8.35 8 6.7 8 5 8 C5 6.02 5 4.04 5 2 C3.68 2 2.36 2 1 2 C1 3.98 1 5.96 1 8 C-0.32 7.67 -1.64 7.34 -3 7 C-2.01 7 -1.02 7 0 7 C0 4.69 0 2.38 0 0 Z " fill="#B2D681" transform="translate(151,178)"/>
<path d="M0 0 C1.32 0 2.64 0 4 0 C4 8.91 4 17.82 4 27 C2.68 27 1.36 27 0 27 C0 18.09 0 9.18 0 0 Z " fill="#03ABEC" transform="translate(265,180)"/>
<path d="M0 0 C16.17 0 32.34 0 49 0 C49.66 1.65 50.32 3.3 51 5 C50.34 5 49.68 5 49 5 C48.505 4.01 48.505 4.01 48 3 C31.83 3 15.66 3 -1 3 C-0.67 2.01 -0.34 1.02 0 0 Z " fill="#69C9F4" transform="translate(142,100)"/>
<path d="M0 0 C0 1.32 0 2.64 0 4 C-0.66 4 -1.32 4 -2 4 C-2 4.66 -2 5.32 -2 6 C-2.99 6 -3.98 6 -5 6 C-5 10.95 -5 15.9 -5 21 C-6.32 20.67 -7.64 20.34 -9 20 C-9 13.73 -9 7.46 -9 1 C-3 0 -3 0 0 0 Z " fill="#0CAEED" transform="translate(217,186)"/>
<path d="M0 0 C0 1.32 0 2.64 0 4 C-1.65 4.33 -3.3 4.66 -5 5 C-5.33 10.28 -5.66 15.56 -6 21 C-6.99 21 -7.98 21 -9 21 C-9 14.4 -9 7.8 -9 1 C-3 0 -3 0 0 0 Z " fill="#02ACED" transform="translate(71,186)"/>
<path d="M0 0 C-6.98227689 4.65485126 -15.43179419 4.31381195 -23.5625 4.25 C-24.55185547 4.25773438 -25.54121094 4.26546875 -26.56054688 4.2734375 C-32.38819612 4.25796929 -37.41450901 3.67365485 -43 2 C-43 1.67 -43 1.34 -43 1 C-41.53191895 1.00785522 -41.53191895 1.00785522 -40.03417969 1.01586914 C-36.39633095 1.03399561 -32.75848619 1.04545997 -29.12060547 1.05493164 C-27.54735645 1.05995437 -25.97411208 1.06677375 -24.40087891 1.07543945 C-22.13703257 1.08759529 -19.87324807 1.09324896 -17.609375 1.09765625 C-16.90818542 1.10281754 -16.20699585 1.10797882 -15.48455811 1.11329651 C-10.18321421 1.11390285 -5.30489476 -0.12056579 0 0 Z " fill="#52C6F1" transform="translate(243,165)"/>
<path d="M0 0 C1.98 0 3.96 0 6 0 C6 1.65 6 3.3 6 5 C6.66 5.33 7.32 5.66 8 6 C7.89300781 6.60328125 7.78601563 7.2065625 7.67578125 7.828125 C6.79093221 12.8808034 6.79093221 12.8808034 8.4375 17.5625 C8.953125 18.036875 9.46875 18.51125 10 19 C9.67 19.66 9.34 20.32 9 21 C8.34 20.34 7.68 19.68 7 19 C6.67 20.32 6.34 21.64 6 23 C4.02 23 2.04 23 0 23 C1.32 22.67 2.64 22.34 4 22 C4 15.07 4 8.14 4 1 C2.35 1.33 0.7 1.66 -1 2 C-0.67 1.34 -0.34 0.68 0 0 Z " fill="#49C4ED" transform="translate(234,185)"/>
<path d="M0 0 C1.99954746 -0.04254356 4.00041636 -0.04080783 6 0 C8.68585246 2.68585246 7.87958114 9.44011731 8 13 C7.94649658 15.90122299 7.80402617 18.79150754 7.625 21.6875 C7.58197754 22.39463135 7.53895508 23.1017627 7.49462891 23.83032227 C7.1332546 28.8667454 7.1332546 28.8667454 6 30 C4.00041636 30.04080783 1.99954746 30.04254356 0 30 C0 29.67 0 29.34 0 29 C1.65 29 3.3 29 5 29 C5 19.76 5 10.52 5 1 C3.35 1 1.7 1 0 1 C0 0.67 0 0.34 0 0 Z " fill="#72DCF4" transform="translate(264,178)"/>
<path d="M0 0 C1.32 0 2.64 0 4 0 C4.33 0.99 4.66 1.98 5 3 C6.2375 2.2265625 6.2375 2.2265625 7.5 1.4375 C11.98923493 -0.40629292 14.29648165 0.10795342 19 1 C19 1.33 19 1.66 19 2 C15.37 2.33 11.74 2.66 8 3 C7.67 3.99 7.34 4.98 7 6 C6.01 6 5.02 6 4 6 C3.34 7.32 2.68 8.64 2 10 C2 9.34 2 8.68 2 8 C1.01 8.495 1.01 8.495 0 9 C-0.47001033 12.27555608 -0.47001033 12.27555608 -0.625 16.0625 C-0.69976562 17.35285156 -0.77453125 18.64320313 -0.8515625 19.97265625 C-0.90054688 20.97167969 -0.94953125 21.97070312 -1 23 C-1.33 23 -1.66 23 -2 23 C-2 17.72 -2 12.44 -2 7 C-0.35 6.67 1.3 6.34 3 6 C3 4.35 3 2.7 3 1 C2.01 0.67 1.02 0.34 0 0 Z " fill="#8BD7EF" transform="translate(68,184)"/>
<path d="M0 0 C2.31 0 4.62 0 7 0 C7 0.33 7 0.66 7 1 C5.35 1 3.7 1 2 1 C2 2.32 2 3.64 2 5 C3.98 4.67 5.96 4.34 8 4 C8.33 3.01 8.66 2.02 9 1 C9 4.3 9 7.6 9 11 C8.01 10.67 7.02 10.34 6 10 C5.67 9.34 5.34 8.68 5 8 C4.01 7.67 3.02 7.34 2 7 C2 8.65 2 10.3 2 12 C1.34 12 0.68 12 0 12 C0 8.04 0 4.08 0 0 Z " fill="#0AADEC" transform="translate(276,8)"/>
<path d="M0 0 C2.92690129 1.11910932 4.26033877 2.28188832 6.125 4.8125 C6.5625 8.4375 6.5625 8.4375 6.125 11.8125 C2.89708445 13.9644437 1.84099191 14.01336443 -1.875 13.8125 C-1.25625 13.544375 -0.6375 13.27625 0 13 C2.4245233 11.85693152 2.4245233 11.85693152 4.125 8.8125 C3.8128236 6.16617713 3.8128236 6.16617713 3.125 3.8125 C0.22426819 3.13448966 0.22426819 3.13448966 -2.875 2.8125 C-5.28621859 4.76883975 -5.28621859 4.76883975 -5 8.4375 C-4.95875 9.55125 -4.9175 10.665 -4.875 11.8125 C-5.865 11.4825 -6.855 11.1525 -7.875 10.8125 C-8.36546322 5.41740463 -8.36546322 5.41740463 -6 2.5 C-2.53289474 -0.25328947 -2.53289474 -0.25328947 0 0 Z " fill="#49C9EE" transform="translate(251.875,189.1875)"/>
<path d="M0 0 C0.66 0 1.32 0 2 0 C1.95359375 0.59167969 1.9071875 1.18335938 1.859375 1.79296875 C1.67368439 5.8582668 1.6520961 8.35771587 3.625 12 C6.62218929 14.52394888 8.07975686 14.92603315 12 15 C15.0465748 14.4914065 18.01808139 13.80180478 21 13 C19 16 19 16 16 17 C14.52413385 17.11687338 13.04293388 17.17501742 11.5625 17.1875 C10.80066406 17.20167969 10.03882813 17.21585938 9.25390625 17.23046875 C6.76652685 16.97612666 5.15191894 16.24017196 3 15 C3 14.34 3 13.68 3 13 C2.34 13 1.68 13 1 13 C-0.00496852 9.98509443 -0.10335303 7.95818308 -0.0625 4.8125 C-0.05347656 3.91144531 -0.04445313 3.01039063 -0.03515625 2.08203125 C-0.02355469 1.39496094 -0.01195313 0.70789063 0 0 Z " fill="#5DCBEF" transform="translate(124,191)"/>
<path d="M0 0 C0.66 0.33 1.32 0.66 2 1 C1.67902344 1.556875 1.35804688 2.11375 1.02734375 2.6875 C-0.75455072 6.69845637 -0.65622935 10.70597749 0 15 C1.65306379 17.8905188 1.65306379 17.8905188 5 19 C8.69331469 19.3008599 12.30450998 19.23299061 16 19 C12.89013793 21.07324138 12.10891613 21.27392186 8.5625 21.25 C7.80066406 21.25515625 7.03882813 21.2603125 6.25390625 21.265625 C3.71710191 20.96666019 2.15069799 20.36987133 0 19 C-2.30055997 15.54916005 -2.27010256 14.12824272 -2.25 10.0625 C-2.25515625 9.02222656 -2.2603125 7.98195312 -2.265625 6.91015625 C-2.00629936 4.06901505 -1.46519702 2.41292366 0 0 Z " fill="#4AC3EE" transform="translate(273,187)"/>
<path d="M0 0 C0.33 0 0.66 0 1 0 C1 1.65 1 3.3 1 5 C-6.92 5.495 -6.92 5.495 -15 6 C-12.69 6.33 -10.38 6.66 -8 7 C-8.33 7.99 -8.66 8.98 -9 10 C-11.25 10.25 -11.25 10.25 -14 10 C-16.3125 8.125 -16.3125 8.125 -18 6 C-18 5.34 -18 4.68 -18 4 C-12.39 4 -6.78 4 -1 4 C-0.67 2.68 -0.34 1.36 0 0 Z " fill="#40BFEF" transform="translate(147,194)"/>
<path d="M0 0 C6.58251681 5.37348311 13.14342342 11.28684684 17 19 C17 19.66 17 20.32 17 21 C16.34 21 15.68 21 15 21 C15 20.01 15 19.02 15 18 C14.01 17.67 13.02 17.34 12 17 C11.09376583 15.35535281 10.19169116 13.70820009 9.31640625 12.046875 C7.2238612 8.79318477 4.43099116 6.32002646 1.609375 3.69921875 C0 2 0 2 0 0 Z " fill="#47C6EE" transform="translate(271,30)"/>
<path d="M0 0 C3.4375 1.5 3.4375 1.5 6 3 C6 3.99 6 4.98 6 6 C4.68 5.34 3.36 4.68 2 4 C1.01 4.66 0.02 5.32 -1 6 C-3.33199388 6.07905064 -5.66832622 6.08798769 -8 6 C-7.67 5.34 -7.34 4.68 -7 4 C-3.9375 3.375 -3.9375 3.375 -1 3 C-1 2.34 -1 1.68 -1 1 C-5.455 1.495 -5.455 1.495 -10 2 C-6.25816125 -0.49455917 -4.43756964 -0.37606522 0 0 Z " fill="#64D4F4" transform="translate(284,1)"/>
<path d="M0 0 C5.86400629 1.95466876 8.58707879 9.3462698 11.37890625 14.58984375 C14.39337601 20.9023745 14.39337601 20.9023745 13 25 C12.64808594 24.10539062 12.29617187 23.21078125 11.93359375 22.2890625 C9.02437947 15.16414606 5.98711957 8.98507424 1.3203125 2.79296875 C0 1 0 1 0 0 Z " fill="#55C8F0" transform="translate(182,34)"/>
<path d="M0 0 C2.31 0 4.62 0 7 0 C7.66 1.32 8.32 2.64 9 4 C5.37 4 1.74 4 -2 4 C-1.34 2.68 -0.68 1.36 0 0 Z " fill="#DAF1F8" transform="translate(132,190)"/>
<path d="M0 0 C-1.75 4.875 -1.75 4.875 -4 6 C-4 4.35 -4 2.7 -4 1 C-5.0828125 1.7425 -5.0828125 1.7425 -6.1875 2.5 C-9.14848659 4.07919285 -10.71253029 4.28178312 -14 4 C-14.33 3.01 -14.66 2.02 -15 1 C-14.05125 1.020625 -13.1025 1.04125 -12.125 1.0625 C-7.95348906 0.97906978 -4.3674678 -0.08087903 0 0 Z " fill="#4DC7EF" transform="translate(293,200)"/>
<path d="M0 0 C1.99954746 -0.04254356 4.00041636 -0.04080783 6 0 C7 1 7 1 7.0625 4.0625 C7.041875 5.031875 7.02125 6.00125 7 7 C7.99 7.33 8.98 7.66 10 8 C8.35 8 6.7 8 5 8 C5 6.02 5 4.04 5 2 C3.68 2 2.36 2 1 2 C1 3.98 1 5.96 1 8 C-0.32 7.67 -1.64 7.34 -3 7 C-2.01 7 -1.02 7 0 7 C0 4.69 0 2.38 0 0 Z " fill="#ADD47B" transform="translate(151,178)"/>
<path d="M0 0 C0.33 0.99 0.66 1.98 1 3 C-0.051875 3.103125 -1.10375 3.20625 -2.1875 3.3125 C-5.87430754 3.97733415 -7.96638599 4.88566296 -11 7 C-11 4 -11 4 -9.6875 2.375 C-6.61836046 -0.12578036 -3.79439496 -0.10255122 0 0 Z " fill="#12AEEB" transform="translate(283,2)"/>
<path d="M0 0 C2.5 2.0625 2.5 2.0625 4 4 C3.154375 3.67 2.30875 3.34 1.4375 3 C-3.87349246 1.45498401 -8.65735957 1.70481444 -14 3 C-9.92529991 -1.46276676 -5.67902898 -1.53116677 0 0 Z " fill="#63C9F2" transform="translate(55,185)"/>
<path d="M0 0 C0.66 0 1.32 0 2 0 C2 3.63 2 7.26 2 11 C1.01 11 0.02 11 -1 11 C-2.38550197 8.22899606 -2.1877467 6.0665294 -2 3 C-1.34 2.01 -0.68 1.02 0 0 Z M0 3 C0 4.98 0 6.96 0 9 C0.33 9 0.66 9 1 9 C1 7.02 1 5.04 1 3 C0.67 3 0.34 3 0 3 Z " fill="#94DCF6" transform="translate(273,8)"/>
<path d="M0 0 C0.66 0.33 1.32 0.66 2 1 C1.525625 1.598125 1.05125 2.19625 0.5625 2.8125 C-2.51959951 7.12743931 -3.1440681 11.81354828 -3 17 C-5.35951179 14.64048821 -5.34409415 13.98074365 -5.4375 10.75 C-5.36276208 5.60969166 -3.60792138 3.51772334 0 0 Z " fill="#4DC3ED" transform="translate(273,3)"/>
<path d="M0 0 C3.68069887 1.53643852 5.98775204 3.78150945 8.75 6.625 C9.54921875 7.44226563 10.3484375 8.25953125 11.171875 9.1015625 C12.07679688 10.04128906 12.07679688 10.04128906 13 11 C12.67 11.66 12.34 12.32 12 13 C9.99388266 11.21479439 7.9951283 9.42241288 6 7.625 C5.42765625 7.11710938 4.8553125 6.60921875 4.265625 6.0859375 C2.80558723 4.76495095 1.39847843 3.38599201 0 2 C0 1.34 0 0.68 0 0 Z " fill="#39CFF1" transform="translate(160,141)"/>
<path d="M0 0 C0 0.33 0 0.66 0 1 C-3.63 1.33 -7.26 1.66 -11 2 C-11.33 2.99 -11.66 3.98 -12 5 C-12.99 4.67 -13.98 4.34 -15 4 C-9.94011217 -1.40884561 -6.9355075 -1.0232716 0 0 Z " fill="#5ACEF2" transform="translate(87,185)"/>
<path d="M0 0 C0 0.33 0 0.66 0 1 C-7.5 2.5 -7.5 2.5 -15 4 C-9.94011217 -1.40884561 -6.9355075 -1.0232716 0 0 Z " fill="#74CEF2" transform="translate(141,185)"/>
<path d="M0 0 C0.33 0 0.66 0 1 0 C1.02578125 0.62648438 1.0515625 1.25296875 1.078125 1.8984375 C1.13484375 2.71570313 1.1915625 3.53296875 1.25 4.375 C1.29640625 5.18710938 1.3428125 5.99921875 1.390625 6.8359375 C1.7922092 9.18838927 1.7922092 9.18838927 4.046875 10.2890625 C4.69140625 10.52367187 5.3359375 10.75828125 6 11 C5.01 11.66 4.02 12.32 3 13 C1.00768051 11.61403861 0.10916527 10.45625486 -0.45703125 8.08984375 C-1.22476819 2.44953638 -1.22476819 2.44953638 0 0 Z " fill="#11AEEC" transform="translate(270,10)"/>
<path d="M0 0 C1.98 0 3.96 0 6 0 C6.1875 2.375 6.1875 2.375 6 5 C5.01 5.66 4.02 6.32 3 7 C3.33 5.68 3.66 4.36 4 3 C2.68 2.67 1.36 2.34 0 2 C0 2.66 0 3.32 0 4 C-0.99 3.67 -1.98 3.34 -3 3 C-2.34 3 -1.68 3 -1 3 C-0.67 2.01 -0.34 1.02 0 0 Z " fill="#5BC9F4" transform="translate(201,198)"/>
<path d="M0 0 C0.66 0.33 1.32 0.66 2 1 C1.319375 1.721875 0.63875 2.44375 -0.0625 3.1875 C-2.31737069 5.8205652 -2.31737069 5.8205652 -1.75 8.8125 C-1.37875 9.8953125 -1.37875 9.8953125 -1 11 C-1.99 10.67 -2.98 10.34 -4 10 C-4.25 6.6875 -4.25 6.6875 -4 3 C-2 1.0625 -2 1.0625 0 0 Z " fill="#54CCF0" transform="translate(102,190)"/>
<path d="M0 0 C-1.37154504 2.95409701 -2.98863724 5.44008376 -5 8 C-5.66 7.34 -6.32 6.68 -7 6 C-7 5.01 -7 4.02 -7 3 C-2.77777778 0 -2.77777778 0 0 0 Z " fill="#42BDF0" transform="translate(182,21)"/>
<path d="M0 0 C1.670625 0.061875 1.670625 0.061875 3.375 0.125 C3.375 1.115 3.375 2.105 3.375 3.125 C-0.39124671 4.38041557 -1.99688934 3.49561958 -5.625 2.125 C-3.625 0.125 -3.625 0.125 0 0 Z " fill="#18B1EC" transform="translate(282.625,21.875)"/>
<path d="M0 0 C0.66 0.33 1.32 0.66 2 1 C1.505 1.350625 1.01 1.70125 0.5 2.0625 C-1.73063966 4.94374289 -1.19980621 7.47009026 -1 11 C-1.99 10.67 -2.98 10.34 -4 10 C-4.25 7.25 -4.25 7.25 -4 4 C-2 1.625 -2 1.625 0 0 Z " fill="#55CBF1" transform="translate(248,190)"/>
<path d="M0 0 C0.33 0 0.66 0 1 0 C1.09765625 6.15234375 1.09765625 6.15234375 1 8 C0 9 0 9 -2.4375 9.25 C-3.283125 9.1675 -4.12875 9.085 -5 9 C-5.66 8.01 -6.32 7.02 -7 6 C-4.03 6.495 -4.03 6.495 -1 7 C-0.67 4.69 -0.34 2.38 0 0 Z " fill="#42D3F4" transform="translate(60,186)"/>
<path d="M0 0 C1.32 0 2.64 0 4 0 C4.33 0.99 4.66 1.98 5 3 C5.66 3.33 6.32 3.66 7 4 C6.67 4.66 6.34 5.32 6 6 C5.34 6 4.68 6 4 6 C3.67 7.65 3.34 9.3 3 11 C1 8 1 8 1 6 C1.66 6 2.32 6 3 6 C3 4.35 3 2.7 3 1 C2.01 0.67 1.02 0.34 0 0 Z " fill="#8BD8F2" transform="translate(214,184)"/>
<path d="M0 0 C-1.49097658 3.7952131 -3.75700849 5.61042731 -7 8 C-4.73913043 0 -4.73913043 0 0 0 Z " fill="#2AB9EE" transform="translate(102,185)"/>
<path d="M0 0 C3.81684226 1.55500981 6.19195732 4.03595495 9 7 C8.67 7.99 8.34 8.98 8 10 C6.66370254 8.52351062 5.33103329 7.0437367 4 5.5625 C3.2575 4.73878906 2.515 3.91507812 1.75 3.06640625 C0 1 0 1 0 0 Z " fill="#5CC3F0" transform="translate(238,65)"/>
<path d="M0 0 C0.99 0.33 1.98 0.66 3 1 C3.6875 3.0625 3.6875 3.0625 4 5 C3.34 5 2.68 5 2 5 C2 4.34 2 3.68 2 3 C0.02 3.33 -1.96 3.66 -4 4 C-2.68 2.68 -1.36 1.36 0 0 Z " fill="#B6D87F" transform="translate(129,113)"/>
<path d="M0 0 C0.66 0.33 1.32 0.66 2 1 C-0.75 3.0625 -0.75 3.0625 -4 5 C-6.203125 4.62109375 -6.203125 4.62109375 -8 4 C-6.71349294 3.30289269 -5.42059335 2.61757124 -4.125 1.9375 C-3.40570313 1.55464844 -2.68640625 1.17179687 -1.9453125 0.77734375 C-1.30335938 0.52082031 -0.66140625 0.26429687 0 0 Z " fill="#62CFF1" transform="translate(190,16)"/>
<path d="M0 0 C2.475 0.495 2.475 0.495 5 1 C4.67 1.99 4.34 2.98 4 4 C2.68 4 1.36 4 0 4 C0 2.68 0 1.36 0 0 Z " fill="#61CCEF" transform="translate(278,9)"/>
<path d="M0 0 C2.86724686 0.57344937 3.8614515 0.8614515 6 3 C5.625 5.125 5.625 5.125 5 7 C0 1.125 0 1.125 0 0 Z " fill="#0EADEC" transform="translate(285,4)"/>
</svg>
