<?xml version="1.0" encoding="UTF-8"?>
<svg version="1.1" xmlns="http://www.w3.org/2000/svg" width="538" height="359">
<path d="M0 0 C177.54 0 355.08 0 538 0 C538 118.47 538 236.94 538 359 C360.46 359 182.92 359 0 359 C0 240.53 0 122.06 0 0 Z " fill="#93C01C" transform="translate(0,0)"/>
<path d="M0 0 C-1 2 -1 2 -4.07592773 3.08154297 C-5.44294888 3.47613059 -6.81238612 3.86240357 -8.18359375 4.2421875 C-8.91312759 4.45183136 -9.64266144 4.66147522 -10.39430237 4.87747192 C-12.73997854 5.55078045 -15.0884058 6.21372361 -17.4375 6.875 C-26.8205082 9.52784925 -36.01127656 12.18155741 -45 16 C-46.30131273 16.49464825 -47.60590104 16.98079044 -48.9140625 17.45703125 C-74.33860658 26.74368051 -98.66093659 38.66867018 -121 54 C-122.95717802 55.29341657 -124.91552984 56.58505856 -126.875 57.875 C-141.09600126 67.36802822 -155.14757384 77.32463726 -167.73828125 88.921875 C-169.79026416 90.80728935 -171.88151954 92.62770033 -174 94.4375 C-178.18231543 98.06501849 -182.03354981 102.00032504 -185.8984375 105.9609375 C-188 108 -188 108 -190 109 C-189.58216177 114.04704594 -189.00953788 118.31107828 -187 123 C-187 124.32 -187 125.64 -187 127 C-188.06476563 126.75378906 -189.12953125 126.50757813 -190.2265625 126.25390625 C-198.49164041 124.72823739 -198.49164041 124.72823739 -206.14697266 127.42480469 C-210.16029593 131.08171008 -213.54108788 135.24302246 -216.75756836 139.60717773 C-217.37257202 140.29662476 -217.37257202 140.29662476 -218 141 C-218.66 141 -219.32 141 -220 141 C-218.68 134.73 -217.36 128.46 -216 122 C-219.63 121.34 -223.26 120.68 -227 120 C-224.94925444 115.89850887 -223.98993519 115.28220861 -220.20043945 113.15795898 C-211.25017416 107.96465233 -208.65981973 101.86480259 -206.04223633 92.04907227 C-205.59230952 90.33273065 -205.16262046 88.61084863 -204.76098633 86.88256836 C-204.50986084 86.2613208 -204.25873535 85.64007324 -204 85 C-202.515 84.505 -202.515 84.505 -201 84 C-200.32739649 85.76858691 -199.66211605 87.53996016 -199 89.3125 C-198.443125 90.79169922 -198.443125 90.79169922 -197.875 92.30078125 C-197 95 -197 95 -197 98 C-191.12013402 95.51236439 -186.7342661 92.25765029 -181.890625 88.11425781 C-164.43795726 73.2538873 -144.65071631 60.71878655 -125 49 C-123.77048114 48.2583961 -122.54133469 47.51617452 -121.3125 46.7734375 C-118.14769061 44.8631904 -114.97631249 42.96429836 -111.80029297 41.07275391 C-110.07491631 40.04464094 -108.35185699 39.01264202 -106.62890625 37.98046875 C-105.59636719 37.36816406 -104.56382812 36.75585938 -103.5 36.125 C-102.6028125 35.59132812 -101.705625 35.05765625 -100.78125 34.5078125 C-97.59723562 32.7816474 -94.33698085 31.40728905 -91 30 C-88.25926758 28.7325737 -85.53752529 27.42578521 -82.8125 26.125 C-25.67954401 -0.8559848 -25.67954401 -0.8559848 0 0 Z " fill="#F9FBF3" transform="translate(317,146)"/>
<path d="M0 0 C0.66 0 1.32 0 2 0 C2.41572266 1.39025391 2.41572266 1.39025391 2.83984375 2.80859375 C3.20207031 4.00613281 3.56429687 5.20367187 3.9375 6.4375 C4.29714844 7.63246094 4.65679687 8.82742187 5.02734375 10.05859375 C5.70889142 12.85867545 5.70889142 12.85867545 7 14 C9.52596259 14.23653523 12.03107207 14.42173692 14.5625 14.5625 C15.27341797 14.60568359 15.98433594 14.64886719 16.71679688 14.69335938 C18.47761912 14.79971777 20.2387832 14.90038846 22 15 C20.67824667 18.96526 19.04507324 19.27804426 15.4375 21.25 C12.45286736 23.03100937 12.45286736 23.03100937 10 25 C8.99765814 28.32594755 8.99765814 28.32594755 10 32 C10.18199122 33.97781639 10.34786148 35.95716358 10.5 37.9375 C10.66355574 39.62530436 10.82915623 41.31291777 11 43 C8.14844969 41.69048977 6.51302928 40.55537456 4.125 38.375 C0.49764663 35.61821144 -0.5734904 35.39961029 -5 36 C-8.04335454 37.92845262 -8.04335454 37.92845262 -10.8125 40.5 C-15.95833333 45 -15.95833333 45 -17 45 C-16.60085682 41.08839681 -16.00192684 38.00447028 -14.4375 34.375 C-13.02697101 31.06332324 -12.43325266 29.49952727 -13 26 C-15.19194965 24.19159107 -15.19194965 24.19159107 -18 22.875 C-20.8125 21.4296875 -20.8125 21.4296875 -23 20 C-23 19.01 -23 18.02 -23 17 C-21.41058594 16.80083984 -21.41058594 16.80083984 -19.7890625 16.59765625 C-18.40101721 16.41946125 -17.01299769 16.2410654 -15.625 16.0625 C-14.92632812 15.97548828 -14.22765625 15.88847656 -13.5078125 15.79882812 C-9.63216425 15.33681872 -9.63216425 15.33681872 -6 14 C-5.07737791 11.86158619 -4.2343601 9.6883919 -3.4375 7.5 C-1.08919383 1.08919383 -1.08919383 1.08919383 0 0 Z " fill="#F9FBF3" transform="translate(203,228)"/>
<path d="M0 0 C2.2344598 4.03292745 2.54496743 7.44967434 3 12 C8.53541942 14.09448302 14.18764979 15.02782755 20 16 C20 16.99 20 17.98 20 19 C19.16855469 19.19335938 18.33710938 19.38671875 17.48046875 19.5859375 C16.39378906 19.84632813 15.30710938 20.10671875 14.1875 20.375 C13.10855469 20.63023437 12.02960938 20.88546875 10.91796875 21.1484375 C7.84466657 21.88732881 7.84466657 21.88732881 5 24 C4.41312216 27.34613512 4.41312216 27.34613512 4.3125 31.125 C4.24675781 32.40632813 4.18101562 33.68765625 4.11328125 35.0078125 C4.07589844 35.99523437 4.03851563 36.98265625 4 38 C0.99060684 36.65593552 -0.99796933 35.13807855 -3.3125 32.8125 C-5.99170256 30.49657915 -6.63568878 30.02062139 -10.3125 29.8125 C-14.40092998 31.12911305 -18.00523529 32.88019885 -21.765625 34.94140625 C-24 36 -24 36 -27 36 C-25.30588371 32.23162425 -22.99576008 29.71928439 -20.14453125 26.78125 C-18.77427526 25.05001999 -18.77427526 25.05001999 -19.1953125 22.859375 C-19.87086973 20.80612549 -19.87086973 20.80612549 -22.0625 19.75 C-22.701875 19.5025 -23.34125 19.255 -24 19 C-24 18.34 -24 17.68 -24 17 C-25.98 16.67 -27.96 16.34 -30 16 C-30 15.01 -30 14.02 -30 13 C-29.44650879 13.03254883 -28.89301758 13.06509766 -28.32275391 13.09863281 C-17.80083729 13.88565802 -17.80083729 13.88565802 -8.07128906 10.77490234 C-4.70295543 7.64022789 -2.27760899 3.97382832 0 0 Z " fill="#F9FBF4" transform="translate(152,162)"/>
<path d="M0 0 C0.99 0.33 1.98 0.66 3 1 C3.71363593 2.67661452 4.39688268 4.36624941 5.0625 6.0625 C6.44928936 8.93566807 6.44928936 8.93566807 9 11 C14.85358299 12.34802139 21.08117067 11.55838013 27 11 C23.50257748 14.5927526 20.21594467 17.35277893 16 20 C16.45398189 23.08707688 17.15402429 25.30804858 18.5625 28.125 C20 31 20 31 20 34 C16.52139321 32.98187118 13.55470544 31.79354551 10.5 29.875 C6.70449262 27.84169247 5.20499843 27.55488809 1 28 C-1.94562899 29.44873181 -1.94562899 29.44873181 -4.6875 31.4375 C-9.78740157 34.92913386 -9.78740157 34.92913386 -13 36 C-12.5020163 32.26512223 -12.12508244 30.18762365 -10 27 C-9.83300768 23.87478167 -9.83300768 23.87478167 -10 21 C-10.99 20.87625 -11.98 20.7525 -13 20.625 C-17.08880024 20.04805273 -21.00861887 19.05036346 -25 18 C-25 17.34 -25 16.68 -25 16 C-20.73373481 14.42109521 -16.89361675 13.71991626 -12.375 13.3125 C-7.95986667 12.7879583 -7.95986667 12.7879583 -4.33984375 10.4921875 C-3.10582458 8.44663543 -3.10582458 8.44663543 -2 5 C-1.5875 4.030625 -1.175 3.06125 -0.75 2.0625 C-0.5025 1.381875 -0.255 0.70125 0 0 Z " fill="#F9FBF2" transform="translate(177,108)"/>
<path d="M0 0 C0.66 0 1.32 0 2 0 C2.87826282 1.47640825 3.74780992 2.95901795 4.5625 4.47143555 C8.13647531 11.29093483 8.13647531 11.29093483 14.5 15.1875 C15.99210693 15.49889623 17.49316972 15.7701888 19 16 C20.52353119 16.38531904 22.04459452 16.78058354 23.5625 17.1875 C24.696875 17.455625 25.83125 17.72375 27 18 C26.505 19.485 26.505 19.485 26 21 C23.93359375 21.94921875 23.93359375 21.94921875 21.4375 22.6875 C20.61121094 22.93886719 19.78492188 23.19023438 18.93359375 23.44921875 C18.29550781 23.63097656 17.65742188 23.81273438 17 24 C17.65840312 28.3454606 19.24867416 31.98654496 21 36 C21.37308631 37.32276056 21.73046415 38.65232077 22 40 C18.44759153 38.42762248 15.71252025 36.229949 12.6875 33.8125 C8.37417094 30.59140362 8.37417094 30.59140362 3.125 29.8125 C0.1483178 30.94363924 -2.30469613 32.32454084 -5 34 C-6.32 34 -7.64 34 -9 34 C-8.855625 33.39671875 -8.71125 32.7934375 -8.5625 32.171875 C-8.376875 31.37265625 -8.19125 30.5734375 -8 29.75 C-7.814375 28.96109375 -7.62875 28.1721875 -7.4375 27.359375 C-6.87845172 24.74443998 -6.87845172 24.74443998 -7 21 C-9.1411045 19.42171712 -11.12661028 18.14780418 -13.4375 16.875 C-19.89209559 13.21580882 -19.89209559 13.21580882 -21 11 C-15.06 11 -9.12 11 -3 11 C-2.5359375 8.5559375 -2.5359375 8.5559375 -2.0625 6.0625 C-1.125 1.125 -1.125 1.125 0 0 Z " fill="#F8FAF1" transform="translate(230,72)"/>
<path d="M0 0 C0.99 0.33 1.98 0.66 3 1 C4.38478332 4.24307318 5.43093459 7.54660886 6.5234375 10.8984375 C8.25026342 14.5256856 9.34187148 15.44568788 13 17 C16.11004262 17.77812951 16.11004262 17.77812951 19.3125 18.1875 C20.91544922 18.42533203 20.91544922 18.42533203 22.55078125 18.66796875 C23.76314453 18.83232422 23.76314453 18.83232422 25 19 C25 19.66 25 20.32 25 21 C21.7 22.32 18.4 23.64 15 25 C15.67415387 30.2584002 17.24265549 35.02638346 19 40 C16.02245105 38.6113673 13.48841335 36.98738657 10.875 35 C10.19179688 34.484375 9.50859375 33.96875 8.8046875 33.4375 C7 32 7 32 5 30 C2.94881302 29.94019242 2.94881302 29.94019242 0.6875 30.3125 C-0.07175781 30.41175781 -0.83101563 30.51101562 -1.61328125 30.61328125 C-4.09005752 31.01459197 -6.54321471 31.49124977 -9 32 C-8.80019531 31.11699219 -8.60039062 30.23398438 -8.39453125 29.32421875 C-7.13627818 22.61745534 -7.13627818 22.61745534 -9.03222656 16.28955078 C-11.30230461 13.60337383 -13.86200768 11.35616965 -16.55859375 9.109375 C-17.36425781 8.41328125 -18.16992188 7.7171875 -19 7 C-19 6.34 -19 5.68 -19 5 C-18.14728516 5.30744141 -18.14728516 5.30744141 -17.27734375 5.62109375 C-12.4915546 7.29092669 -8.04056799 8.46376936 -3 9 C-2.01 6.03 -1.02 3.06 0 0 Z " fill="#F8FAF1" transform="translate(328,214)"/>
<path d="M0 0 C4 2 4 2 4.9765625 4.27734375 C5.19054687 5.15519531 5.40453125 6.03304687 5.625 6.9375 C6.45291327 10.24428301 7.07215112 12.10822668 9 15 C12.09710423 16.24247222 12.09710423 16.24247222 15.625 17.1875 C16.81351562 17.53167969 18.00203125 17.87585938 19.2265625 18.23046875 C20.14179688 18.48441406 21.05703125 18.73835938 22 19 C22 19.66 22 20.32 22 21 C17.05 22.485 17.05 22.485 12 24 C13.29385256 29.49112038 13.29385256 29.49112038 15.125 34.8125 C16 37 16 37 16 40 C12.5174199 38.54378841 10.6865907 36.65686724 8.25 33.8125 C5.50601569 30.88308458 5.50601569 30.88308458 1.84375 29.62890625 C-1.75987005 30.05246607 -4.85529702 31.25294279 -8 33 C-8.99 33 -9.98 33 -11 33 C-10.44269314 30.58500362 -9.7648643 28.38603457 -8.875 26.0625 C-7.89693403 22.6392691 -7.89302838 21.34573485 -9 18 C-11.27887514 15.3126476 -11.27887514 15.3126476 -14.0625 12.8125 C-15.74087249 11.24240961 -17.39537969 9.64539106 -19 8 C-19 7.34 -19 6.68 -19 6 C-18.34773437 6.13277344 -17.69546875 6.26554688 -17.0234375 6.40234375 C-12.3591713 7.34482822 -7.70131546 8.25768703 -3 9 C-2.01 6.03 -1.02 3.06 0 0 Z " fill="#F8FBF2" transform="translate(270,232)"/>
<path d="M0 0 C3 1 3 1 4.16796875 3.21484375 C4.50441406 4.11332031 4.84085937 5.01179687 5.1875 5.9375 C5.53167969 6.83339844 5.87585938 7.72929687 6.23046875 8.65234375 C7 11 7 11 7 13 C12.28 13 17.56 13 23 13 C23 13.66 23 14.32 23 15 C20.49459202 16.59145698 17.89934177 17.96266026 15.28515625 19.3671875 C12.89834619 20.79037851 12.89834619 20.79037851 12.0625 23.00390625 C11.95916785 26.30407676 14.15833645 28.37702464 16 31 C16 31.99 16 32.98 16 34 C12.95583161 32.89302968 10.29545481 31.58765168 7.5625 29.875 C4.23036575 27.9451088 1.89636745 27.40707452 -2 28 C-3.69719127 28.94726954 -5.36935236 29.94228261 -7 31 C-7.99 31 -8.98 31 -10 31 C-9.33333333 27 -8.66666667 23 -8 19 C-8.721875 18.44570312 -9.44375 17.89140625 -10.1875 17.3203125 C-11.115625 16.59585938 -12.04375 15.87140625 -13 15.125 C-13.928125 14.40570313 -14.85625 13.68640625 -15.8125 12.9453125 C-16.8953125 11.98238281 -16.8953125 11.98238281 -18 11 C-18 10.34 -18 9.68 -18 9 C-17.175 9.165 -16.35 9.33 -15.5 9.5 C-11.58727683 10.05896045 -7.94816827 10.06807187 -4 10 C-2.68 6.7 -1.36 3.4 0 0 Z " fill="#F7FAEF" transform="translate(370,180)"/>
<path d="M0 0 C0.99 0.33 1.98 0.66 3 1 C4.13505078 3.99403158 4.91513949 7.02507105 5.7421875 10.1171875 C7.27979415 13.64126733 8.53127128 14.45100694 12 16 C14.42095205 16.76305262 14.42095205 16.76305262 16.8125 17.1875 C17.60269531 17.34605469 18.39289063 17.50460938 19.20703125 17.66796875 C19.79871094 17.77753906 20.39039063 17.88710937 21 18 C21 18.66 21 19.32 21 20 C18.03 21.32 15.06 22.64 12 24 C12.56606279 28.69023454 13.18537505 33.34500026 14 38 C10.72881807 36.61115767 9.16268987 35.0890784 7 32.3125 C4.53553104 29.70242784 3.51560592 29.03871884 -0.12109375 28.765625 C-3.12583153 29.03460035 -6.0401396 29.42163647 -9 30 C-8.81179688 29.23816406 -8.62359375 28.47632812 -8.4296875 27.69140625 C-7.81609509 24.23022654 -7.5281091 21.49533347 -8 18 C-10.85057782 14.30404287 -14.18263306 11.65672638 -18 9 C-14.34142468 7.68465506 -11.91973519 8.34531691 -8.25 9.4375 C-7.26515625 9.72496094 -6.2803125 10.01242188 -5.265625 10.30859375 C-4.51796875 10.53675781 -3.7703125 10.76492187 -3 11 C-2.86722656 10.37351562 -2.73445313 9.74703125 -2.59765625 9.1015625 C-2.42105469 8.28429687 -2.24445313 7.46703125 -2.0625 6.625 C-1.80146484 5.40683594 -1.80146484 5.40683594 -1.53515625 4.1640625 C-1 2 -1 2 0 0 Z " fill="#F9FBF3" transform="translate(301,72)"/>
<path d="M0 0 C0.66 0 1.32 0 2 0 C2.99 2.97 3.98 5.94 5 9 C9.34807375 8.48846191 12.97127652 7.67863478 17 6 C17.99 6 18.98 6 20 6 C20 6.66 20 7.32 20 8 C18.948125 8.8353125 18.948125 8.8353125 17.875 9.6875 C14.44238588 12.44851571 11.31298264 15.21362273 9 19 C8.91107661 22.13362718 8.91107661 22.13362718 10 25 C10.185625 25.94875 10.37125 26.8975 10.5625 27.875 C10.706875 28.57625 10.85125 29.2775 11 30 C7.58659675 30.08325374 4.98410953 29.99520288 1.6875 29 C-3.58756863 29 -5.61533713 31.65065367 -9.27734375 35.21484375 C-9.84582031 35.80394531 -10.41429687 36.39304688 -11 37 C-12.25127906 33.45332822 -11.72285053 31.27746562 -10.5625 27.75 C-10.13130859 26.41195312 -10.13130859 26.41195312 -9.69140625 25.046875 C-9.46324219 24.37140625 -9.23507812 23.6959375 -9 23 C-9.928125 22.71125 -10.85625 22.4225 -11.8125 22.125 C-15 21 -15 21 -18 19 C-18 18.34 -18 17.68 -18 17 C-17.18015625 16.88785156 -16.3603125 16.77570313 -15.515625 16.66015625 C-9.21301847 15.70571447 -9.21301847 15.70571447 -4.3828125 11.97265625 C-3.39385018 9.66891068 -2.65236862 7.41884729 -2 5 C-1.5875 3.989375 -1.175 2.97875 -0.75 1.9375 C-0.5025 1.298125 -0.255 0.65875 0 0 Z " fill="#F8FAF0" transform="translate(405,126)"/>
<path d="M0 0 C2 1 2 1 2.81640625 3.25 C3.06261719 4.1575 3.30882812 5.065 3.5625 6 C4.26490893 9.28253366 4.26490893 9.28253366 6 12 C8.18292774 12.23481693 10.37203174 12.41363323 12.5625 12.5625 C13.76003906 12.64628906 14.95757812 12.73007813 16.19140625 12.81640625 C17.11824219 12.87699219 18.04507813 12.93757813 19 13 C16.14723863 15.93200474 13.34920216 18.64315404 10 21 C10.656379 25.48525648 11.70074209 29.66914029 13 34 C9.59687262 32.94124926 6.98646769 31.99097846 4 30 C1.67319705 29.33022506 1.67319705 29.33022506 -1 30 C-2.98421279 31.44612119 -4.75758513 33.00712342 -6.546875 34.6875 C-8 36 -8 36 -9 36 C-8.82339844 35.14277344 -8.64679688 34.28554687 -8.46484375 33.40234375 C-7.91088101 29.76260338 -7.58981767 26.66600459 -8 23 C-10.11518766 20.43277627 -12.15778959 18.98118032 -14.99609375 17.26953125 C-15.65738281 16.85058594 -16.31867188 16.43164062 -17 16 C-17 15.34 -17 14.68 -17 14 C-10.565 13.505 -10.565 13.505 -4 13 C-3.2884375 10.0609375 -3.2884375 10.0609375 -2.5625 7.0625 C-1.125 1.125 -1.125 1.125 0 0 Z " fill="#F7FAEF" transform="translate(370,79)"/>
<path d="M0 0 C0.66 0 1.32 0 2 0 C3.49821059 3.37097383 4 5.20442119 4 9 C10.93 7.515 10.93 7.515 18 6 C16.84906278 9.45281166 15.6794007 10.38082163 12.9375 12.6875 C12.20402344 13.31011719 11.47054688 13.93273437 10.71484375 14.57421875 C9.86599609 15.27998047 9.86599609 15.27998047 9 16 C9.144375 16.721875 9.28875 17.44375 9.4375 18.1875 C9.95833333 20.79166667 10.47916667 23.39583333 11 26 C10.17757813 25.89558594 9.35515625 25.79117188 8.5078125 25.68359375 C3.21865235 25.29881651 -0.53137512 25.047529 -5.08984375 28.00390625 C-7.53060753 30.24156487 -9.81459685 32.51367226 -12 35 C-12.93045933 32.44855176 -13.08564091 31.25993522 -12.22265625 28.640625 C-11.83980469 27.85171875 -11.45695312 27.0628125 -11.0625 26.25 C-10.68222656 25.45078125 -10.30195313 24.6515625 -9.91015625 23.828125 C-9.45962891 22.92320313 -9.45962891 22.92320313 -9 22 C-9.95712891 21.83564453 -9.95712891 21.83564453 -10.93359375 21.66796875 C-12.17302734 21.43013672 -12.17302734 21.43013672 -13.4375 21.1875 C-14.26121094 21.03667969 -15.08492188 20.88585937 -15.93359375 20.73046875 C-16.61550781 20.48941406 -17.29742187 20.24835938 -18 20 C-18.33 19.01 -18.66 18.02 -19 17 C-18.13117188 16.86207031 -17.26234375 16.72414063 -16.3671875 16.58203125 C-8.99405469 14.99148107 -8.99405469 14.99148107 -3.80078125 9.83984375 C-2.34252831 6.59496613 -1.0730188 3.39054343 0 0 Z " fill="#F5F9EB" transform="translate(441,70)"/>
<path d="M0 0 C-1 2 -1 2 -4.07592773 3.08154297 C-5.44294888 3.47613059 -6.81238612 3.86240357 -8.18359375 4.2421875 C-8.91312759 4.45183136 -9.64266144 4.66147522 -10.39430237 4.87747192 C-12.73997854 5.55078045 -15.0884058 6.21372361 -17.4375 6.875 C-26.8205082 9.52784925 -36.01127656 12.18155741 -45 16 C-46.30131273 16.49464825 -47.60590104 16.98079044 -48.9140625 17.45703125 C-56.57678895 20.25594291 -64.08763085 23.24612321 -71.50830078 26.63989258 C-75.62763621 28.49956123 -79.64350374 29.85620948 -84 31 C-84.33 29.68 -84.66 28.36 -85 27 C-70.8692506 20.64423969 -56.72777138 14.8191881 -42 10 C-41.19046875 9.73203613 -40.3809375 9.46407227 -39.546875 9.18798828 C-10.616099 -0.35386997 -10.616099 -0.35386997 0 0 Z " fill="#F1F6E4" transform="translate(317,146)"/>
<path d="M0 0 C-1 3 -1 3 -2.83837891 4.13500977 C-3.62647949 4.48362061 -4.41458008 4.83223145 -5.2265625 5.19140625 C-6.52787109 5.77245117 -6.52787109 5.77245117 -7.85546875 6.36523438 C-9.22638672 6.95788086 -9.22638672 6.95788086 -10.625 7.5625 C-11.51574219 7.96146484 -12.40648437 8.36042969 -13.32421875 8.77148438 C-18.15690779 10.9031344 -22.87920483 12.70226424 -28 14 C-28.33 12.68 -28.66 11.36 -29 10 C-25.29965645 8.31517417 -21.58856915 6.65544649 -17.875 5 C-16.30492187 4.28457031 -16.30492187 4.28457031 -14.703125 3.5546875 C-13.68476563 3.10351562 -12.66640625 2.65234375 -11.6171875 2.1875 C-10.68503418 1.76855469 -9.75288086 1.34960938 -8.79248047 0.91796875 C-5.71381088 -0.09407861 -3.2198196 -0.16618424 0 0 Z " fill="#EFF5DF" transform="translate(261,163)"/>
<path d="M0 0 C0.66 0.33 1.32 0.66 2 1 C-1.4452597 4.54215763 -4.9231666 7.98347618 -8.6875 11.1875 C-12.38776583 14.38615808 -15.89706915 17.75115254 -19.375 21.1875 C-19.89924561 21.69885498 -20.42349121 22.21020996 -20.96362305 22.73706055 C-23.53809147 25.3048126 -25.65035022 27.59335387 -27 31 C-27.27734375 28.26953125 -27.27734375 28.26953125 -27 25 C-25.12890625 22.76171875 -25.12890625 22.76171875 -22.5625 20.6875 C-19.00518787 17.70216754 -15.61976849 14.6990473 -12.375 11.375 C-8.42404744 7.36770587 -4.29208298 3.63716023 0 0 Z " fill="#A3C948" transform="translate(153,230)"/>
<path d="M0 0 C-1 2 -1 2 -3.87109375 3.0703125 C-5.04800781 3.41835937 -6.22492188 3.76640625 -7.4375 4.125 C-9.19900391 4.65480469 -9.19900391 4.65480469 -10.99609375 5.1953125 C-14 6 -14 6 -16 6 C-16 5.34 -16 4.68 -16 4 C-16.66 3.67 -17.32 3.34 -18 3 C-11.88595404 1.14256832 -6.41481258 -0.42765417 0 0 Z " fill="#E9F1D3" transform="translate(317,146)"/>
<path d="M0 0 C0.66 0.33 1.32 0.66 2 1 C0.84371094 2.12148437 0.84371094 2.12148437 -0.3359375 3.265625 C-1.34922356 4.26014651 -2.36222975 5.25495323 -3.375 6.25 C-3.88289062 6.74113281 -4.39078125 7.23226562 -4.9140625 7.73828125 C-7.51583648 10.30582136 -9.64588097 12.57391571 -11 16 C-11.30859375 13.30078125 -11.30859375 13.30078125 -11 10 C-8.84765625 7.48046875 -8.84765625 7.48046875 -6.0625 5.1875 C-5.14597656 4.41792969 -4.22945312 3.64835938 -3.28515625 2.85546875 C-2.53105469 2.24316406 -1.77695313 1.63085938 -1 1 C-0.67 0.67 -0.34 0.34 0 0 Z " fill="#9EC73D" transform="translate(137,245)"/>
<path d="M0 0 C-1 3 -1 3 -2.75 4.1875 C-5.29960574 5.10819096 -7.30923081 5.14948718 -10 5 C-6.74272688 1.58761863 -4.94076175 0 0 0 Z " fill="#FAFCF5" transform="translate(261,163)"/>
<path d="M0 0 C1.60568666 0.28317926 3.20952047 0.57687791 4.8125 0.875 C6.15248047 1.11863281 6.15248047 1.11863281 7.51953125 1.3671875 C10 2 10 2 13 4 C10.03 3.67 7.06 3.34 4 3 C3.67 3.66 3.34 4.32 3 5 C1.5 3.625 1.5 3.625 0 2 C0 1.34 0 0.68 0 0 Z " fill="#CCE098" transform="translate(251,238)"/>
<path d="M0 0 C5.94 0 11.88 0 18 0 C18 0.33 18 0.66 18 1 C13.05 1 8.1 1 3 1 C3.33 1.99 3.66 2.98 4 4 C2.68 3.67 1.36 3.34 0 3 C0 2.01 0 1.02 0 0 Z " fill="#D4E4A8" transform="translate(122,175)"/>
<path d="M0 0 C-0.99 0 -1.98 0 -3 0 C-3 1.32 -3 2.64 -3 4 C-4.98 4.33 -6.96 4.66 -9 5 C-8.34 4.67 -7.68 4.34 -7 4 C-7 3.34 -7 2.68 -7 2 C-7.66 1.67 -8.32 1.34 -9 1 C-5.57367167 -0.61798838 -3.61944899 -1.34053666 0 0 Z " fill="#E1EDC3" transform="translate(284,155)"/>
<path d="M0 0 C-1.98 0.99 -1.98 0.99 -4 2 C-3.34 2.66 -2.68 3.32 -2 4 C-4.64 3.67 -7.28 3.34 -10 3 C-10 2.34 -10 1.68 -10 1 C-3.71428571 -1.42857143 -3.71428571 -1.42857143 0 0 Z " fill="#DDEABA" transform="translate(162,123)"/>
<path d="M0 0 C0.66 0.33 1.32 0.66 2 1 C0.7934375 2.0828125 0.7934375 2.0828125 -0.4375 3.1875 C-3.02292072 6.02515689 -3.68042813 7.27166147 -4 11 C-4.33 11 -4.66 11 -5 11 C-5.3125 7.75 -5.3125 7.75 -5 4 C-2.5 1.5625 -2.5 1.5625 0 0 Z " fill="#A9CC52" transform="translate(217,249)"/>
<path d="M0 0 C-0.33 0.66 -0.66 1.32 -1 2 C-4.23097953 2.86159454 -6.22486274 3.30597523 -9.375 2.0625 C-9.91125 1.711875 -10.4475 1.36125 -11 1 C-7.32589215 -0.17571451 -3.83070817 -0.07366746 0 0 Z " fill="#E3EDC6" transform="translate(317,146)"/>
<path d="M0 0 C0.99 0.33 1.98 0.66 3 1 C3 1.99 3 2.98 3 4 C2.01 4.66 1.02 5.32 0 6 C-0.66 6.99 -1.32 7.98 -2 9 C-1.125 2.25 -1.125 2.25 0 0 Z " fill="#E3EEC7" transform="translate(301,72)"/>
<path d="M0 0 C-0.33 1.65 -0.66 3.3 -1 5 C-2.32 5.33 -3.64 5.66 -5 6 C-4.67 5.01 -4.34 4.02 -4 3 C-4.66 2.67 -5.32 2.34 -6 2 C-2.25 0 -2.25 0 0 0 Z " fill="#E4EEC8" transform="translate(265,160)"/>
</svg>
