<?xml version="1.0" encoding="UTF-8"?>
<svg version="1.1" xmlns="http://www.w3.org/2000/svg" width="900" height="891">
<path d="M0 0 C0.87537415 0.00359528 1.75074829 0.00719055 2.65264893 0.01089478 C4.02812141 0.01067574 4.02812141 0.01067574 5.43138123 0.01045227 C8.47773564 0.01115177 11.52402973 0.01894589 14.57037354 0.02676392 C16.67644721 0.02862796 18.78252132 0.03005193 20.88859558 0.03105164 C26.44364612 0.03487786 31.99867069 0.04470903 37.55371094 0.05575562 C43.21746469 0.0659675 48.88122262 0.07054878 54.54498291 0.07559204 C65.66673914 0.0863312 76.78847606 0.10340887 87.91021729 0.12442017 C93.23058521 16.92526164 93.23058521 16.92526164 95.19146729 24.64004517 C95.37089371 25.34107864 95.55032013 26.04211212 95.73518372 26.76438904 C96.29773689 28.96668748 96.85422634 31.17045695 97.41021729 33.37442017 C97.80110275 34.91152682 98.19230043 36.44855411 98.58380127 37.98550415 C99.52812503 41.69726927 100.46723454 45.4103284 101.40454102 49.12387085 C102.13318243 52.00651172 102.86768714 54.88765484 103.60162354 57.76895142 C104.05915054 59.57481547 104.51623105 61.38079275 104.97271729 63.18692017 C105.2782251 64.38913208 105.2782251 64.38913208 105.58990479 65.6156311 C106.91021729 70.88975712 106.91021729 70.88975712 106.91021729 73.12442017 C107.55853516 73.22383911 108.20685303 73.32325806 108.87481689 73.4256897 C116.31350813 74.66051905 123.31665791 76.64758147 130.47271729 78.99942017 C132.06116455 79.50795532 132.06116455 79.50795532 133.68170166 80.02676392 C139.49118668 81.90956682 145.11268145 83.95694608 150.67169189 86.49209595 C153.45921051 87.27949623 155.1577606 86.95948946 157.91021729 86.12442017 C160.31652513 84.34499904 160.31652513 84.34499904 162.59771729 82.06192017 C165.80876933 79.05803277 169.01948553 76.15943394 172.47271729 73.43692017 C177.1019714 69.78301204 181.67039989 66.06088743 186.22271729 62.31192017 C187.31568115 61.41183228 187.31568115 61.41183228 188.4307251 60.49356079 C193.59052528 56.23460533 198.71527055 51.93624585 203.80010986 47.58804321 C206.43931298 45.33717686 209.1072141 43.16841536 211.91021729 41.12442017 C214.5542039 42.39017768 216.95889306 43.76117304 219.35162354 45.45254517 C220.3357019 46.14658447 220.3357019 46.14658447 221.33966064 46.85464478 C222.39552368 47.60693359 222.39552368 47.60693359 223.47271729 48.37442017 C224.21723145 48.90237183 224.96174561 49.43032349 225.7288208 49.97427368 C232.12018822 54.52413959 238.43865513 59.17041598 244.74591064 63.83584595 C256.20717202 72.31212481 267.775407 80.63815357 279.41021729 88.87442017 C280.13483154 89.38827271 280.8594458 89.90212524 281.60601807 90.43154907 C285.14265582 92.96545602 285.14265582 92.96545602 288.91021729 95.12442017 C288.27622345 100.62125209 286.42721797 105.32590976 284.37506104 110.41348267 C283.83964439 111.76124283 283.83964439 111.76124283 283.29341125 113.13623047 C282.1504146 116.00954942 280.9992141 118.87949863 279.84771729 121.74942017 C279.10042933 123.62420375 278.3536798 125.49920205 277.60748291 127.37442017 C276.86338547 129.24162488 276.11924493 131.10881241 275.37506104 132.97598267 C275.00843353 133.8971991 274.64180603 134.81841553 274.2640686 135.76754761 C272.38651171 140.47352137 270.48288976 145.16618533 268.53179932 149.8421936 C268.15479385 150.75568573 267.77778839 151.66917786 267.38935852 152.61035156 C266.6729336 154.34405912 265.9476462 156.07413941 265.21220398 157.79986572 C264.73509727 158.96091324 264.73509727 158.96091324 264.24835205 160.14541626 C263.9648439 160.81994843 263.68133575 161.49448059 263.38923645 162.18945312 C262.80577377 164.54631301 263.08811947 165.85768816 263.91021729 168.12442017 C265.54899844 170.38555528 265.54899844 170.38555528 267.66021729 172.74942017 C271.85550628 177.75020465 275.76963823 182.89994941 279.59771729 188.18692017 C280.13171143 188.91797974 280.66570557 189.64903931 281.21588135 190.4022522 C284.02873611 194.30706447 286.64424211 198.27019457 289.10479736 202.40737915 C289.63357986 203.29465195 290.16236237 204.18192474 290.70716858 205.09608459 C291.10417465 205.76543533 291.50118073 206.43478607 291.91021729 207.12442017 C292.66031067 207.07430786 293.41040405 207.02419556 294.18322754 206.9725647 C301.30184843 206.49769385 308.42070915 206.026671 315.53985977 205.55981445 C319.19860972 205.31975043 322.8572543 205.07827398 326.51568604 204.83340454 C330.05570354 204.59651586 333.59596073 204.36355286 337.13640594 204.13314819 C339.12370531 204.00283884 341.1107467 203.8686138 343.09777832 203.73428345 C350.71508127 203.24248544 358.27734279 203.01298166 365.91021729 203.12442017 C369.53624372 212.21084716 372.65547874 221.34809106 375.53173828 230.69314575 C376.7193777 234.54969554 377.92223046 238.40149243 379.12506104 242.25332642 C379.36295349 243.01579681 379.60084595 243.77826721 379.84594727 244.56384277 C381.91941638 251.19188645 384.07649436 257.79017896 386.28521729 264.37442017 C386.60530762 265.32969604 386.92539795 266.28497192 387.25518799 267.26919556 C388.65914694 271.44489361 390.0772665 275.61537501 391.51177979 279.78067017 C391.75106201 280.4815979 391.99034424 281.18252563 392.23687744 281.9046936 C392.85186202 283.70371303 393.47439647 285.50014704 394.09771729 287.29629517 C394.91021729 290.12442017 394.91021729 290.12442017 394.91021729 294.12442017 C394.29017822 294.44152954 393.67013916 294.75863892 393.03131104 295.08535767 C387.41131259 298.046696 382.10581158 301.25930688 376.84771729 304.81192017 C368.35981649 310.49279865 359.62526384 315.79855838 350.91021729 321.12442017 C365.43021729 321.12442017 379.95021729 321.12442017 394.91021729 321.12442017 C395.0233384 367.35088871 395.1128135 413.57732394 395.16554393 459.80390355 C395.17179718 465.26604864 395.17826882 470.72819346 395.18487549 476.19033813 C395.18618704 477.27771556 395.18749859 478.36509298 395.18884989 479.48542124 C395.21058405 497.07330749 395.2499946 514.6611117 395.29598127 532.24894935 C395.34280128 550.30661965 395.3705244 568.3642471 395.38065976 586.42197561 C395.38750741 597.55728238 395.40910551 608.69235725 395.44979962 619.82759261 C395.47630647 627.47187793 395.48420034 635.11604402 395.47772417 642.76037192 C395.47453361 647.16544258 395.4792933 651.57010909 395.50624466 655.97510719 C395.53080248 660.01871454 395.53166127 664.06165082 395.51471176 668.10529083 C395.51262091 669.55780028 395.51877189 671.0103538 395.5346332 672.46277815 C395.72461743 690.95517368 389.95408812 706.28238523 377.25396729 719.80801392 C366.54124255 730.39575687 353.39907941 735.5369652 339.42947388 740.50039673 C334.96041753 742.09032225 330.50189038 743.70928855 326.04302979 745.32754517 C324.54361092 745.87130798 324.54361092 745.87130798 323.01390076 746.42605591 C308.83779834 751.58404389 294.7334707 756.93522366 280.62153244 762.2655983 C276.82611504 763.69913059 273.03036612 765.13178467 269.23468018 766.56460571 C264.80495245 768.23686552 260.37528504 769.90928461 255.94581604 771.58222961 C244.77382458 775.80129984 233.5945765 780.0007421 222.41021729 784.18692017 C207.77862208 789.6650356 193.16131295 795.1804232 178.5479126 800.70687866 C163.54297964 806.38098866 148.52837155 812.0286867 133.50250244 817.64712524 C125.21849541 820.74653603 116.94407207 823.86888108 108.68365479 827.03067017 C107.00465267 827.67179203 105.32561666 828.31282511 103.64654541 828.95376587 C100.51517624 830.14913896 97.38671756 831.35171607 94.25982666 832.55874634 C85.57675556 835.88712695 76.91439525 838.7607658 67.91021729 841.12442017 C66.91381226 841.41615112 66.91381226 841.41615112 65.89727783 841.71377563 C60.91743503 842.74290644 55.66114642 842.39725884 50.59771729 842.43692017 C49.405979 842.46592407 48.21424072 842.49492798 46.98638916 842.52481079 C31.99326026 842.62977077 18.64678897 837.50624933 4.77386475 832.41278076 C0.46228456 830.83038409 -3.85729031 829.27003561 -8.17572021 827.70645142 C-9.03423584 827.3949968 -9.89275146 827.08354218 -10.77728271 826.76264954 C-17.9413188 824.16717438 -25.1304281 821.65406554 -32.33978271 819.18692017 C-44.28746648 815.09088913 -56.22482616 810.96649798 -68.15228271 806.81192017 C-69.07023621 806.49221252 -69.9881897 806.17250488 -70.93395996 805.84310913 C-83.64076404 801.41373363 -96.31619124 796.90474336 -108.96478271 792.31192017 C-121.68011149 787.69497919 -134.43294718 783.20895877 -147.23040771 778.82363892 C-156.63186904 775.60087256 -166.01802077 772.3343856 -175.40228271 769.06192017 C-176.30229004 768.7480838 -177.20229736 768.43424744 -178.12957764 768.11090088 C-195.01693958 762.21909376 -211.88407568 756.27026159 -228.73431396 750.27310181 C-237.90491057 747.01085176 -247.08051196 743.77082186 -256.29290771 740.62832642 C-258.60796003 739.83287388 -260.92265094 739.03637935 -263.23721313 738.23950195 C-264.64909974 737.75687933 -266.06271508 737.27927605 -267.47824097 736.80743408 C-285.45375548 730.81559591 -298.34770001 721.37361918 -308.08978271 705.12442017 C-313.92586972 693.42391563 -315.38600214 683.28375921 -315.33029175 670.34353638 C-315.33116462 668.83520387 -315.3329171 667.32687165 -315.33547008 665.81854105 C-315.33993158 661.68640388 -315.33195643 657.55437084 -315.32191396 653.42224693 C-315.31326448 648.9615416 -315.31620068 644.50084198 -315.31771851 640.04013062 C-315.31876641 632.31582756 -315.31249969 624.59155834 -315.30124283 616.86726379 C-315.28497797 605.69928114 -315.27977881 594.53131482 -315.27726685 583.3633216 C-315.27289129 565.24331394 -315.25958597 547.1233243 -315.24066162 529.00332642 C-315.22229921 511.40306692 -315.20814447 493.80281231 -315.199646 476.20254517 C-315.19912055 475.11738056 -315.1985951 474.03221596 -315.19805373 472.91416758 C-315.19544363 467.47013075 -315.19291622 462.02609389 -315.19042993 456.582057 C-315.16970177 411.42949827 -315.133929 366.27696156 -315.08978271 321.12442017 C-299.57978271 321.12442017 -284.06978271 321.12442017 -268.08978271 321.12442017 C-274.02978271 317.49442017 -279.96978271 313.86442017 -286.08978271 310.12442017 C-290.20953308 307.47687829 -294.31614903 304.82189572 -298.40228271 302.12442017 C-300.33534091 300.85277235 -302.26891562 299.58190928 -304.20306396 298.31192017 C-305.02588867 297.76922485 -305.84871338 297.22652954 -306.69647217 296.66738892 C-309.13043452 295.09821192 -311.59871812 293.60093503 -314.08978271 292.12442017 C-313.5482993 286.8108864 -312.63462319 282.16493046 -310.89447021 277.08535767 C-310.67000214 276.42176239 -310.44553406 275.75816711 -310.21426392 275.07446289 C-309.72644519 273.63456243 -309.2352544 272.19580081 -308.74102783 270.75808716 C-307.38595166 266.81517562 -306.05629738 262.86366388 -304.72259521 258.91348267 C-304.43634277 258.06793823 -304.15009033 257.2223938 -303.85516357 256.35122681 C-300.09455475 245.22151022 -296.47249208 234.04637822 -292.83978271 222.87442017 C-292.16519987 220.80197255 -291.49055926 218.72954373 -290.81585693 216.65713501 C-289.2392252 211.81331014 -287.66404906 206.96901429 -286.08978271 202.12442017 C-282.27895811 201.19952356 -279.00212371 201.10276321 -275.09710693 201.37808228 C-273.91172333 201.45824081 -272.72633972 201.53839935 -271.5050354 201.62098694 C-269.59405563 201.75997154 -269.59405563 201.75997154 -267.64447021 201.90176392 C-266.31038036 201.9935614 -264.97624225 202.08465988 -263.64205933 202.1750946 C-260.13108411 202.41446394 -256.62066449 202.66112962 -253.11035156 202.91000366 C-247.51468107 203.30620381 -241.91846764 203.69429712 -236.32184219 204.07675362 C-234.38372301 204.21068753 -232.44595878 204.34972733 -230.50820923 204.48890686 C-218.04418 206.37700126 -218.04418 206.37700126 -206.87103271 203.24551392 C-206.44822021 202.35992798 -206.02540771 201.47434204 -205.58978271 200.56192017 C-202.92337938 195.60547187 -200.06798422 191.12881487 -196.71478271 186.62442017 C-196.24765869 185.98979858 -195.78053467 185.355177 -195.29925537 184.70132446 C-191.62735634 179.74940117 -187.76669225 174.99054169 -183.76947021 170.29629517 C-181.9120574 168.14162786 -181.9120574 168.14162786 -181.08978271 165.12442017 C-181.75124358 162.67459237 -181.75124358 162.67459237 -182.90618896 159.97207642 C-183.33423828 158.90231567 -183.7622876 157.83255493 -184.20330811 156.7303772 C-184.68146973 155.56103638 -185.15963135 154.39169556 -185.65228271 153.18692017 C-186.39998343 151.32255896 -187.14763883 149.45817906 -187.89372253 147.59317017 C-188.42787405 146.25905553 -188.96319486 144.92540855 -189.49958801 143.5921936 C-192.6320509 135.80253669 -195.67708941 127.97907903 -198.71768188 120.15319824 C-199.64054548 117.77960813 -200.56623289 115.40713478 -201.49237061 113.03482056 C-202.06792072 111.55691768 -202.64336515 110.07897365 -203.21868896 108.60098267 C-203.47972412 107.93329361 -203.74075928 107.26560455 -204.00970459 106.5776825 C-205.47981818 102.79214604 -206.8381618 98.98764996 -208.08978271 95.12442017 C-185.51947021 78.82363892 -185.51947021 78.82363892 -183.30047607 77.22109985 C-181.81422505 76.14765074 -180.3280611 75.07408105 -178.84197998 74.00039673 C-175.10497215 71.3006603 -171.36652667 68.60296271 -167.62493896 65.90957642 C-166.13395147 64.83549935 -164.64306592 63.76128075 -163.15228271 62.68692017 C-162.05762695 61.89837646 -162.05762695 61.89837646 -160.94085693 61.09390259 C-156.89983804 58.17617546 -152.87821552 55.23438248 -148.87493896 52.26504517 C-148.01312012 51.62623413 -147.15130127 50.9874231 -146.2633667 50.32925415 C-144.60059837 49.0946419 -142.93985384 47.85729794 -141.28143311 46.61685181 C-140.5298291 46.05860718 -139.7782251 45.50036255 -139.00384521 44.92520142 C-138.34336182 44.43189331 -137.68287842 43.93858521 -137.00238037 43.43032837 C-135.09655251 42.12904253 -133.17609104 41.10489803 -131.08978271 40.12442017 C-125.18273631 44.91871634 -119.32133907 49.75712315 -113.52728271 54.68692017 C-109.06674894 58.47814666 -104.55256894 62.18270477 -99.96478271 65.81973267 C-96.06105441 68.94908008 -92.20046089 72.12970304 -88.33978271 75.31192017 C-87.61822998 75.90658081 -86.89667725 76.50124146 -86.15325928 77.11392212 C-85.45684326 77.68844116 -84.76042725 78.26296021 -84.04290771 78.85488892 C-83.3680835 79.405802 -82.69325928 79.95671509 -81.99798584 80.52432251 C-80.77576039 81.54920296 -79.57838247 82.60493947 -78.41595459 83.69717407 C-75.52390705 86.43716794 -75.52390705 86.43716794 -71.74212646 87.13613892 C-70.86685303 86.80227173 -69.99157959 86.46840454 -69.08978271 86.12442017 C-68.49052979 85.90608521 -67.89127686 85.68775024 -67.27386475 85.46279907 C-65.05618556 84.64664676 -62.85545936 83.79140406 -60.65228271 82.93692017 C-53.22840374 80.12508933 -45.75071458 77.7663612 -38.08978271 75.68692017 C-37.14046875 75.42822144 -36.19115479 75.16952271 -35.21307373 74.90298462 C-28.50550172 73.12442017 -28.50550172 73.12442017 -25.08978271 73.12442017 C-25.00704102 72.5681897 -24.92429932 72.01195923 -24.83905029 71.43887329 C-23.17507176 61.33621604 -20.4059181 51.50815892 -17.77728271 41.62442017 C-17.29837998 39.81202241 -16.81986205 37.99952293 -16.34173584 36.18692017 C-15.3969415 32.60661294 -14.44836154 29.02733847 -13.49749756 25.44863892 C-12.53739767 21.82939675 -11.59108658 18.20690605 -10.65472412 14.58145142 C-10.42614212 13.70017578 -10.19756012 12.81890015 -9.96205139 11.91091919 C-9.52726544 10.23268951 -9.09517303 8.55375907 -8.66612244 6.87405396 C-6.95834083 0.29973412 -6.83646121 0.01186139 0 0 Z " fill="#252021" transform="translate(393.08978271484375,19.875579833984375)"/>
<path d="M0 0 C0.92509506 -0.00275974 1.85019011 -0.00551949 2.80331835 -0.00836286 C3.81816214 -0.00630754 4.83300593 -0.00425222 5.87860256 -0.00213462 C6.96227912 -0.00388766 8.04595567 -0.0056407 9.16247091 -0.00744686 C12.82482915 -0.01213044 16.4871481 -0.00963531 20.14950806 -0.00721294 C22.78927039 -0.00907972 25.42902973 -0.01133981 28.06879103 -0.01407826 C33.82421444 -0.01923889 39.57962944 -0.02064831 45.33505493 -0.01962215 C53.89347398 -0.01809993 62.45188369 -0.02225293 71.01030092 -0.02749677 C87.18301653 -0.03717883 103.35572898 -0.03998132 119.52844714 -0.04055383 C132.01448577 -0.04101295 144.50052314 -0.04306906 156.98656136 -0.04625446 C160.57749232 -0.04715196 164.16842327 -0.04804178 167.75935423 -0.04892933 C169.09833025 -0.04926091 169.09833025 -0.04926091 170.46435629 -0.04959918 C195.5801172 -0.05575519 220.69587767 -0.05969955 245.81163937 -0.0592559 C247.23264998 -0.05923253 247.23264998 -0.05923253 248.68236788 -0.05920869 C253.4841563 -0.05912558 258.28594472 -0.05902654 263.08773314 -0.05892398 C264.04142918 -0.05890404 264.99512522 -0.05888409 265.97772114 -0.05886354 C267.90632708 -0.05882311 269.83493303 -0.05878131 271.76353897 -0.05873815 C301.77912746 -0.0581252 331.79470466 -0.06563486 361.81028992 -0.07931072 C395.51233057 -0.09465979 429.21436381 -0.10327766 462.91640818 -0.10234749 C466.50765349 -0.10227286 470.09889881 -0.10222415 473.69014412 -0.10219318 C474.57443731 -0.10218152 475.4587305 -0.10216987 476.36982046 -0.10215786 C490.62109961 -0.10212704 504.87236899 -0.10852198 519.12364524 -0.11712544 C533.43725888 -0.12558804 547.75085816 -0.12660282 562.06447291 -0.12001612 C570.57511628 -0.11631126 579.08571615 -0.11818065 587.59635495 -0.12795846 C593.27555119 -0.13393369 598.95471573 -0.13269053 604.63391048 -0.12548796 C607.87346579 -0.12158557 611.11291918 -0.12198254 614.35247188 -0.12894531 C617.83708606 -0.13594213 621.32147148 -0.13076174 624.80607754 -0.12238914 C625.81858016 -0.12735732 626.83108279 -0.1323255 627.87426731 -0.13744423 C634.19419537 -0.10507593 638.27039351 0.23423125 643.15526062 4.56399983 C646.7866393 8.69973666 646.55375884 12.43127906 646.55243164 17.66434163 C646.55610833 18.43910218 646.55978502 19.21386273 646.56357312 20.01210088 C646.57461449 22.61664677 646.57845463 25.22115278 646.58226258 27.82571858 C646.58852707 29.69006415 646.59517386 31.55440847 646.6021753 33.41875142 C646.62322619 39.55049203 646.63358114 45.68223291 646.64354187 51.81399983 C646.64758955 53.92585706 646.65170648 56.03771416 646.65589195 58.14957112 C646.67494875 68.07491696 646.68917671 78.00025535 646.69750392 87.92561597 C646.70726759 99.3737659 646.73356237 110.82172203 646.77400482 122.2698037 C646.80420264 131.12261843 646.81897643 139.97537774 646.82228494 148.82824296 C646.82463196 154.11316398 646.83354662 159.39787808 646.85874611 164.68274373 C646.88209481 169.6601029 646.88623274 174.63711995 646.87598473 179.61451977 C646.87549085 181.43532834 646.8817674 183.25615413 646.89554077 185.07691067 C646.99397869 198.8685154 645.69417906 209.79630733 636.21776062 220.62649983 C628.49270827 227.49321303 620.15036393 230.99008905 610.51805359 234.37649983 C607.12938282 235.57941139 603.76880555 236.85539514 600.40526062 238.12649983 C599.07206791 238.62687466 597.73873426 239.12687414 596.40526062 239.62649983 C595.74526062 239.87399983 595.08526062 240.12149983 594.40526062 240.37649983 C540.40526062 260.62649983 540.40526062 260.62649983 538.40355164 261.37698811 C537.07578096 261.8750035 535.74814325 262.37337355 534.42064148 262.8721053 C531.00322666 264.15547194 527.58342894 265.43181829 524.15916687 266.69681233 C515.91104374 269.72142029 515.91104374 269.72142029 507.84276062 273.18899983 C503.33267469 275.2752392 498.63221617 276.74402347 493.91282898 278.27127522 C490.48291298 279.39362881 487.17157698 280.59232094 483.90526062 282.12649983 C479.39778595 284.23964486 474.71074142 285.73458342 469.98558289 287.27103108 C465.57677045 288.71244801 461.28882126 290.32403409 457.00291687 292.09134358 C452.59882864 293.84635619 448.11970986 295.39171372 443.65135437 296.97415608 C436.63334609 299.4655068 429.69584109 302.16281034 422.74901062 304.84524983 C417.6590686 306.79560145 412.55400334 308.70393083 407.44041687 310.59134358 C399.04818065 313.66108796 399.04818065 313.66108796 390.84276062 317.18899983 C386.22322306 319.33282406 381.39390523 320.85021019 376.54368836 322.37674397 C373.4638209 323.3615179 371.12026069 324.31649978 368.40526062 326.12649983 C366.4398732 326.77408792 364.45792349 327.37210495 362.46776062 327.93899983 C357.88796247 329.2991846 353.53546312 330.84535266 349.15526062 332.75149983 C335.20932758 338.63777027 319.74248507 339.21390205 305.40526062 334.12649983 C304.16647156 333.72817952 302.9276825 333.32985921 301.65135437 332.91946858 C296.15000702 331.14602998 290.75901487 329.28859153 285.45994812 326.97024983 C280.81340463 325.06216353 276.03028393 323.50454185 271.28026062 321.87649983 C269.5693927 321.28651204 269.5693927 321.28651204 267.82396179 320.6846053 C259.62691514 317.86574756 251.4116988 315.10331117 243.16844422 312.42239827 C239.73371441 311.2944931 236.40507357 310.12641938 233.08104187 308.69681233 C227.90562048 306.48584591 222.6023193 304.70060354 217.28026062 302.87649983 C215.5693927 302.28651204 215.5693927 302.28651204 213.82396179 301.6846053 C205.62691514 298.86574756 197.4116988 296.10331117 189.16844422 293.42239827 C185.73165889 292.2938181 182.40241304 291.12527323 179.07713562 289.69290608 C173.92600556 287.49545592 168.64242001 285.7427162 163.34276062 283.93899983 C154.72514358 280.98582957 146.14081667 277.96281081 137.59276062 274.81399983 C130.7612791 272.29957586 123.93448228 269.98551866 116.95213562 267.92337483 C114.79114755 267.24723746 112.77947795 266.49082689 110.71776062 265.56399983 C107.15538634 264.01806382 103.59365489 262.95326313 99.87010437 261.87259358 C97.056638 261.02097381 94.34074456 260.00236508 91.60057312 258.94290608 C87.94680934 257.58412204 84.23598078 256.39738684 80.53026062 255.18899983 C76.78896733 253.91696011 73.09950192 252.52820939 69.40526062 251.12649983 C57.97127969 246.8085229 46.4790275 242.74649214 34.85447937 238.96756428 C29.34855101 237.16465176 23.97095129 235.18869969 18.60911804 232.99490803 C15.89840229 231.92677732 13.14313781 231.11354494 10.34276062 230.31399983 C0.72358858 227.1322737 -6.36134023 220.74096477 -11.59473938 212.12649983 C-16.1642234 201.70880224 -16.18449762 191.46581944 -16.15992492 180.33621663 C-16.17027704 178.47537231 -16.18227112 176.61453652 -16.19576782 174.75371236 C-16.22661231 169.73750783 -16.23209718 164.72159159 -16.23083609 159.70530361 C-16.23167041 155.50765915 -16.24393923 151.31007604 -16.2557857 147.1124506 C-16.28308066 137.2110881 -16.28850876 127.30987442 -16.28101867 117.40848225 C-16.27376272 107.20671022 -16.30728974 97.0056267 -16.36007607 86.80400407 C-16.40385592 78.02488263 -16.42057344 69.24598387 -16.41604018 60.46675491 C-16.41372032 55.23168775 -16.42199487 49.99717883 -16.45711082 44.76221722 C-16.48907474 39.84437555 -16.48725116 34.9276786 -16.45966667 30.00982159 C-16.45521452 28.20870797 -16.46264463 26.40751861 -16.48301071 24.60651463 C-16.64409346 9.32392171 -16.64409346 9.32392171 -12.29110473 4.05504292 C-8.55253545 0.49447186 -5.03757057 0.00184275 0 0 Z " fill="#EA2527" transform="translate(117.59473937749863,501.8735001683235)"/>
<path d="M0 0 C19.14 0 38.28 0 58 0 C59.41382376 3.53455941 60.27338282 5.91485273 60.875 9.5 C61.62638573 13.47999628 62.64894318 17.26483674 63.875 21.125 C65.60083944 26.57636 67.07155048 32.05963452 68.42041016 37.61328125 C69.35102616 41.43437776 70.32594478 45.23756235 71.36328125 49.03125 C71.59345947 49.87864746 71.8236377 50.72604492 72.06079102 51.59912109 C72.50970022 53.24432641 72.96433271 54.88798416 73.42553711 56.52978516 C74.58450778 60.80226565 75.25725398 64.52663911 75 69 C76.2375 69.12955078 76.2375 69.12955078 77.5 69.26171875 C85.81080816 70.2727434 93.27510513 72.16543683 101.1953125 74.78125 C104.45541311 75.82555328 107.6655002 76.67842687 111 77.4375 C122.08679549 80.11881739 132.59554351 84.45058919 142.546875 89.99609375 C145.3906785 91.15987958 146.17021884 90.98712505 149 90 C151.20642315 88.25931261 153.28928769 86.49985291 155.375 84.625 C160.12245277 80.45035465 164.92875536 76.41976811 169.9375 72.5625 C175.70995559 68.10007634 181.2280378 63.39331179 186.71289062 58.58349609 C191.3388639 54.53760907 196.07064761 50.67363661 201 47 C203.64398662 48.26575751 206.04867577 49.63675287 208.44140625 51.328125 C209.09834473 51.7914624 209.7552832 52.2547998 210.43212891 52.73217773 C211.13515137 53.23305908 211.83817383 53.73394043 212.5625 54.25 C213.66730713 55.03322632 213.66730713 55.03322632 214.79443359 55.83227539 C222.18096978 61.08965996 229.47437495 66.47223684 236.7578125 71.87109375 C240.47557615 74.62365258 244.22739977 77.32315501 248 80 C245.13970306 89.97816973 242.00471162 99.91386577 237.5625 109.3125 C235.04622588 114.65268049 233.1481621 120.13633364 231.24389648 125.71508789 C229.45506032 130.89219702 227.36018544 135.81070296 224.8828125 140.703125 C223.83926782 143.41818816 223.56854282 145.11604939 224 148 C225.57598733 150.29213202 225.57598733 150.29213202 227.8125 152.4375 C237.58745759 162.77934385 245.87829323 174.34026577 254 186 C254.57621094 186.82242188 255.15242187 187.64484375 255.74609375 188.4921875 C266 203.46022727 266 203.46022727 266 208 C270.31267644 207.71090799 274.62512203 207.41850981 278.9375 207.125 C280.24750977 207.03621582 281.55751953 206.94743164 282.90722656 206.85595703 C290.31859972 206.3486981 297.72210264 205.78151273 305.12353516 205.14355469 C315.78327469 204.22791253 326.30269147 203.73514229 337 204 C341.71462729 216.20967581 346.00179398 228.53734786 350 241 C350.35336426 242.09779785 350.35336426 242.09779785 350.71386719 243.21777344 C354.75579716 255.93565473 354.75579716 255.93565473 353 260 C350.74130426 262.0142308 348.21570771 263.51168193 345.625 265.0625 C344.86550049 265.53510254 344.10600098 266.00770508 343.32348633 266.49462891 C341.7076342 267.49923367 340.08779441 268.49744833 338.46435547 269.48974609 C335.34374059 271.40218157 332.24895244 273.35352252 329.15917969 275.31530762 C327.58793512 276.30680267 326.0115408 277.29021838 324.42843628 278.26266479 C320.31987889 280.80369051 316.39108164 283.41378226 312.60180664 286.41333008 C298.90511672 296.91128119 287.59481146 297.65108924 270.75 296.8125 C268.4324573 296.74709596 266.11473341 296.6878152 263.796875 296.63476562 C258.19387077 296.49347581 252.59782015 296.27766312 247 296 C246.77086385 294.0333964 246.5417277 292.06679281 246.31259155 290.10018921 C245.84715682 286.97310215 244.91929234 284.02053197 244 281 C243.73960937 279.93523437 243.47921875 278.87046875 243.2109375 277.7734375 C239.00761451 260.68516179 232.34710832 244.46621263 224 229 C223.38640625 227.845 222.7728125 226.69 222.140625 225.5 C214.13960533 210.9526915 204.30469064 197.82666011 193.28076172 185.44824219 C191.5705312 183.51437116 189.91599273 181.53449139 188.25 179.5625 C184.80525587 175.65625905 180.98030425 172.3469225 177 169 C175.61361328 167.78183594 175.61361328 167.78183594 174.19921875 166.5390625 C160.60894286 154.6578602 146.17030878 145.01432075 130 137 C130 136.34 130 135.68 130 135 C129.45214844 134.87753906 128.90429688 134.75507813 128.33984375 134.62890625 C125.65772481 133.90800283 123.14920468 132.95088364 120.5625 131.9375 C118.82226562 131.26847656 118.82226562 131.26847656 117.046875 130.5859375 C114.14603632 129.46008752 111.26700351 128.28839469 108.390625 127.1015625 C98.64377121 123.14829982 88.94154906 120.00018098 78.6875 117.625 C77.66374268 117.386604 76.63998535 117.14820801 75.58520508 116.90258789 C59.70482447 113.4096358 44.20004489 112.59613615 28 112.625 C27.00920441 112.62454681 26.01840881 112.62409363 24.99758911 112.62362671 C9.94721902 112.64383589 -4.31065778 113.4859988 -19 117 C-20.10601562 117.226875 -21.21203125 117.45375 -22.3515625 117.6875 C-25.28835565 118.33472714 -28.12260568 119.12427129 -31 120 C-31.72654785 120.21994629 -32.4530957 120.43989258 -33.20166016 120.66650391 C-65.15520419 130.47265369 -94.10721585 146.19305637 -118.74609375 168.93359375 C-120.7463006 170.76740558 -122.79343238 172.51037367 -124.875 174.25 C-156.80441059 202.26837837 -183.68398004 249.12457256 -188.56640625 291.4765625 C-189 295 -189 295 -190 296 C-191.42826383 296.13972415 -192.86320728 296.21211383 -194.29760742 296.25634766 C-195.2133403 296.28532135 -196.12907318 296.31429504 -197.07255554 296.34414673 C-201.31956805 296.44205034 -205.56641056 296.51591736 -209.81420898 296.56982422 C-212.04016897 296.60623349 -214.26591744 296.66054609 -216.4909668 296.73388672 C-231.17331891 297.21037971 -240.53714421 296.62302443 -252 287 C-253.83677783 285.78577701 -255.68841107 284.59330317 -257.5625 283.4375 C-258.44550781 282.87546875 -259.32851563 282.3134375 -260.23828125 281.734375 C-263.22599467 279.85807407 -266.23680613 278.02257544 -269.25 276.1875 C-274.19097217 273.15687984 -279.052104 270.02756395 -283.875 266.8125 C-284.78427246 266.20668091 -284.78427246 266.20668091 -285.71191406 265.58862305 C-289.86513377 262.80291301 -293.94148807 259.92192099 -298 257 C-296.54698281 250.90579197 -294.79349554 244.96275992 -292.875 239 C-292.57585693 238.06462402 -292.27671387 237.12924805 -291.96850586 236.16552734 C-288.40764181 225.07893699 -284.71056419 214.03722069 -281 203 C-276.56251365 202.97103178 -272.12505153 202.95321212 -267.6875 202.9375 C-266.42486328 202.92912109 -265.16222656 202.92074219 -263.86132812 202.91210938 C-262.65283203 202.90888672 -261.44433594 202.90566406 -260.19921875 202.90234375 C-259.08377686 202.89710693 -257.96833496 202.89187012 -256.8190918 202.88647461 C-254 203 -254 203 -251 204 C-249.54354254 204.1406729 -248.08224688 204.23428738 -246.62036133 204.29711914 C-245.73967484 204.33708511 -244.85898834 204.37705109 -243.95161438 204.41822815 C-243.00465195 204.45681442 -242.05768951 204.4954007 -241.08203125 204.53515625 C-240.10965012 204.57813339 -239.13726898 204.62111053 -238.13542175 204.66539001 C-235.02794169 204.80180273 -231.92024267 204.93222097 -228.8125 205.0625 C-226.70636305 205.15390236 -224.60024297 205.2456944 -222.49414062 205.33789062 C-217.32961204 205.56311683 -212.16487912 205.78296703 -207 206 C-206.71874268 205.09548096 -206.43748535 204.19096191 -206.14770508 203.2590332 C-205.17372792 200.49331931 -204.17624827 198.32301685 -202.63671875 195.85546875 C-202.16886963 195.10491211 -201.70102051 194.35435547 -201.21899414 193.58105469 C-200.71360107 192.79118164 -200.20820801 192.00130859 -199.6875 191.1875 C-199.15697021 190.35508789 -198.62644043 189.52267578 -198.07983398 188.66503906 C-190.0718207 176.2850707 -181.04864287 164.74069275 -171.04907227 153.90722656 C-167.1094571 149.60025469 -167.1094571 149.60025469 -166 144 C-166.81691171 140.94048781 -166.81691171 140.94048781 -168.1875 137.8125 C-168.65800781 136.6575 -169.12851563 135.5025 -169.61328125 134.3125 C-170.07089844 133.219375 -170.52851563 132.12625 -171 131 C-171.62801857 129.43871081 -172.25327803 127.87630723 -172.875 126.3125 C-173.19339844 125.52359375 -173.51179688 124.7346875 -173.83984375 123.921875 C-174.7849105 121.54170689 -175.71161881 119.15654441 -176.62890625 116.765625 C-180.46011415 106.75634253 -180.46011415 106.75634253 -184.75 96.9375 C-190.75414261 83.99479523 -190.75414261 83.99479523 -189 78 C-187.42797852 76.35351562 -187.42797852 76.35351562 -185.37890625 74.90625 C-184.23566895 74.08241821 -184.23566895 74.08241821 -183.06933594 73.24194336 C-181.82845215 72.3796814 -181.82845215 72.3796814 -180.5625 71.5 C-179.2926123 70.59229858 -179.2926123 70.59229858 -177.99707031 69.66625977 C-176.22550488 68.40097318 -174.44986411 67.14137522 -172.67041016 65.88720703 C-169.28299255 63.49328327 -165.9266136 61.05801427 -162.57006836 58.62109375 C-156.73363943 54.38579817 -150.87057776 50.18778125 -145 46 C-142.03941263 47.34690458 -139.83441252 48.87266416 -137.4375 51.0625 C-133.46278197 54.61499524 -129.37374304 57.99609487 -125.23828125 61.359375 C-122.11985836 63.89659703 -119.02081778 66.45690647 -115.92285156 69.01904297 C-113.74352694 70.81784282 -111.55764052 72.60842736 -109.37109375 74.3984375 C-106.48056638 76.76768008 -103.62335987 79.16995734 -100.78515625 81.6015625 C-99.46113902 82.7137816 -98.13692899 83.82577125 -96.8125 84.9375 C-95.9138623 85.7270105 -95.9138623 85.7270105 -94.99707031 86.5324707 C-92.19458339 88.85612683 -90.61126389 90.00927328 -86.91015625 89.953125 C-84.06996384 89.02291433 -81.35803704 88.02239749 -78.625 86.8125 C-59.12454311 78.49262292 -38.87969428 71.85980264 -18 68 C-17.78085937 67.02804688 -17.56171875 66.05609375 -17.3359375 65.0546875 C-15.16152934 55.55189186 -12.7323658 46.14188343 -10.10693359 36.75341797 C-8.76627294 31.93323408 -7.55938018 27.11834006 -6.50488281 22.22802734 C-5.61555586 18.30346364 -4.52443324 14.43611075 -3.4375 10.5625 C-3.10588867 9.36077148 -3.10588867 9.36077148 -2.76757812 8.13476562 C-1.12858631 2.25717262 -1.12858631 2.25717262 0 0 Z " fill="#E92326" transform="translate(405,44)"/>
<path d="M0 0 C0.62648438 0.53367187 1.25296875 1.06734375 1.8984375 1.6171875 C10.78941698 9.73166222 15.82818569 21.65181118 16.46875 33.5859375 C16.7406277 48.83710549 14.97181731 59.40782955 4.73046875 71.26171875 C-0.39692074 76.40377888 -6.14203543 80.72918491 -12 85 C-12.63260742 85.47211914 -13.26521484 85.94423828 -13.91699219 86.43066406 C-18.7655701 90 -18.7655701 90 -21 90 C-15.43450827 96.98091308 -9.66613562 103.65164121 -3.578125 110.17578125 C4 118.47727273 4 118.47727273 4 121 C4.66 121 5.32 121 6 121 C6.29003906 120.26265625 6.58007812 119.5253125 6.87890625 118.765625 C7.53931835 117.13645507 8.22455704 115.51633867 8.96484375 113.921875 C12.75752214 105.4530831 13.25589491 98.88326216 15 89 C31.17 89 47.34 89 64 89 C61.21925738 114.02668356 56.5149534 138.84301972 39 158 C40.50006391 161.44779086 42.50409262 163.82360533 45.0625 166.5625 C48.33018473 170.12296928 51.46479193 173.7393292 54.5 177.5 C57.4081338 181.0947765 60.38541332 184.58260628 63.5 188 C69.84801405 194.98170372 75.79744929 202.12256894 81 210 C72.73301125 210.32628678 64.46876452 210.57404096 56.19690323 210.72537041 C52.35435883 210.79805734 48.51625618 210.89635428 44.67626953 211.05615234 C17.71637307 212.15004076 17.71637307 212.15004076 11.31445312 206.85644531 C8.204457 203.56885264 6.10346437 199.98613339 4 196 C3.34 195.67 2.68 195.34 2 195 C0.17832429 195.83777615 0.17832429 195.83777615 -1.78125 197.16796875 C-2.53583496 197.64758057 -3.29041992 198.12719238 -4.06787109 198.62133789 C-4.87047363 199.13817139 -5.67307617 199.65500488 -6.5 200.1875 C-27.6206709 213.39363041 -51.17213422 215.08034388 -75.43359375 209.84765625 C-77.19896484 209.42806641 -77.19896484 209.42806641 -79 209 C-79.96035156 208.77183594 -80.92070312 208.54367187 -81.91015625 208.30859375 C-96.78977945 204.28396615 -109.26693195 195.44177273 -117 182 C-126.07200081 165.14491653 -128.95809149 144.49331277 -123.96875 125.921875 C-120.04362978 114.08320595 -112.50464367 105.37909039 -103.875 96.625 C-103.38443115 96.12500488 -102.8938623 95.62500977 -102.38842773 95.10986328 C-99.14460606 91.89481526 -95.84774878 89.40912461 -92 87 C-93.47624792 83.68597405 -95.390765 81.24329651 -97.75 78.5 C-102.15774939 73.05230974 -105.27478792 67.44372576 -108 61 C-108.51240234 59.79537109 -108.51240234 59.79537109 -109.03515625 58.56640625 C-113.51936807 45.53090678 -112.98742874 27.45173233 -107 15 C-98.25899418 -0.42400267 -85.67617093 -8.55701857 -69 -13.60546875 C-45.91365673 -18.15961068 -18.12276028 -16.16354295 0 0 Z " fill="#FEFEFD" transform="translate(484,542)"/>
<path d="M0 0 C2.57109402 0.01612584 5.14062206 0.00002175 7.71166992 -0.01904297 C21.22098677 -0.03543581 33.74121396 1.80454809 46.7487793 5.59033203 C48.74412492 6.16971709 50.7512617 6.7089966 52.7644043 7.22314453 C93.96552131 18.05341578 129.41276808 48.92908767 150.8190918 85.01611328 C157.08389024 95.84618467 161.86822561 106.74165297 165.40893555 118.72705078 C166.2753999 121.61937662 167.22047241 124.43305255 168.2565918 127.26611328 C169.32807179 130.40322997 169.79115749 133.34910172 170.0847168 136.64892578 C170.16625 137.5398291 170.2477832 138.43073242 170.33178711 139.34863281 C170.38947266 140.02265137 170.4471582 140.69666992 170.5065918 141.39111328 C156.25900708 141.64905198 142.01178868 141.84178837 127.7623415 141.96104717 C121.14460747 142.018305 114.52844864 142.09588695 107.91162109 142.22094727 C101.51832437 142.34101796 95.12653646 142.40635366 88.73219872 142.43476295 C86.30050099 142.45499106 83.86888013 142.4944938 81.43782997 142.55414391 C59.41190269 143.07278792 59.41190269 143.07278792 51.81201172 136.16381836 C50.01139474 134.26962809 48.24168218 132.34550311 46.5065918 130.39111328 C44.41099897 128.50869146 42.25094008 126.73786415 40.0690918 124.95361328 C35.48613092 121.08132287 30.92963982 117.17931927 26.3815918 113.26611328 C22.32030435 109.77296222 18.23140593 106.32662932 14.0690918 102.95361328 C8.96351715 98.81050337 4.00859126 94.50880878 -0.94628906 90.18823242 C-4.58078671 87.02645491 -8.24861663 83.92261122 -11.9934082 80.89111328 C-17.02769093 76.81289612 -21.91851529 72.5849427 -26.80371094 68.33081055 C-31.38456909 64.34394995 -36.00091107 60.40292248 -40.64477539 56.48974609 C-44.65724905 53.10629464 -48.64059382 49.69020551 -52.6184082 46.26611328 C-56.78020957 42.68480228 -60.9761019 39.15953036 -65.2434082 35.70361328 C-70.49254451 31.44502721 -75.51382373 26.96023309 -80.4934082 22.39111328 C-77.13428576 18.72429496 -73.1260497 17.04299464 -68.6809082 14.95361328 C-67.83737793 14.55400391 -66.99384766 14.15439453 -66.12475586 13.74267578 C-59.85135085 10.84634499 -53.69722854 8.72139641 -46.9855957 7.04736328 C-44.56919494 6.6348126 -44.56919494 6.6348126 -43.4934082 5.39111328 C-40.49854786 4.6423982 -37.51877809 3.99957854 -34.4934082 3.39111328 C-33.32173096 3.14264648 -32.15005371 2.89417969 -30.94287109 2.63818359 C-20.58229663 0.55086025 -10.55628844 -0.07847046 0 0 Z " fill="#EA2427" transform="translate(430.493408203125,198.60888671875)"/>
<path d="M0 0 C54.12 0 108.24 0 164 0 C164 15.84 164 31.68 164 48 C146.18 48 128.36 48 110 48 C110 105.75 110 163.5 110 223 C91.85 223 73.7 223 55 223 C55 165.25 55 107.5 55 48 C36.85 48 18.7 48 0 48 C0 32.16 0 16.32 0 0 Z " fill="#FEFEFD" transform="translate(531,529)"/>
<path d="M0 0 C54.12 0 108.24 0 164 0 C164 15.84 164 31.68 164 48 C145.85 48 127.7 48 109 48 C109 105.75 109 163.5 109 223 C90.85 223 72.7 223 54 223 C54 165.25 54 107.5 54 48 C36.18 48 18.36 48 0 48 C0 32.16 0 16.32 0 0 Z " fill="#FEFEFD" transform="translate(188,529)"/>
<path d="M0 0 C2.2890625 1.65234375 2.2890625 1.65234375 4.625 3.9375 C8.05474015 7.18539826 11.50448953 10.29151618 15.1875 13.25 C19.66214181 16.87262962 24.03394896 20.59474403 28.375 24.375 C34.67433237 29.85994883 41.0239578 35.27995091 47.41162109 40.66162109 C50.08908953 42.91767427 52.76372957 45.17706606 55.4375 47.4375 C55.96988281 47.88738281 56.50226563 48.33726562 57.05078125 48.80078125 C61.09344762 52.22149895 65.11071961 55.67105537 69.125 59.125 C73.18628745 62.61815106 77.27518587 66.06448396 81.4375 69.4375 C86.54307465 73.58060991 91.49800053 77.8823045 96.45288086 82.20288086 C100.08737851 85.36465838 103.75520843 88.46850206 107.5 91.5 C113.90948031 96.69273292 120.11361735 102.11689738 126.32617188 107.54199219 C127.79059059 108.81759145 129.26191852 110.08524992 130.734375 111.3515625 C131.46140625 111.97804688 132.1884375 112.60453125 132.9375 113.25 C133.54464844 113.77078125 134.15179688 114.2915625 134.77734375 114.828125 C135.18082031 115.21484375 135.58429688 115.6015625 136 116 C136 116.33 136 116.66 136 117 C125.27284809 117.2560153 114.54643445 117.45089128 103.81683826 117.56993389 C98.83324832 117.62710035 93.85176331 117.70449694 88.86938477 117.82983398 C84.05161389 117.95025755 79.23585357 118.01530878 74.41669273 118.04364967 C72.58778949 118.06381729 70.75898389 118.10320151 68.93094826 118.16303062 C59.20928795 118.46825658 52.02148888 118.33345738 44.50512695 111.63061523 C42.60328852 109.80504511 40.80747331 107.92267773 39 106 C37.77580914 104.92447583 36.53727839 103.86457821 35.2734375 102.8359375 C34.31695312 102.02382813 33.36046875 101.21171875 32.375 100.375 C28.49192286 97.08193519 24.58032671 93.83138911 20.625 90.625 C15.50266476 86.45843577 10.52582622 82.13798719 5.54956055 77.79956055 C1.04060043 73.8775046 -3.54698064 70.06968135 -8.19140625 66.30859375 C-12.11397529 63.0843402 -15.95236832 59.76540108 -19.79785156 56.44995117 C-23.42667248 53.32834726 -27.0946828 50.26585171 -30.8125 47.25 C-35.67138347 43.30666282 -40.36344278 39.20152222 -45 35 C-43.2578125 30.140625 -43.2578125 30.140625 -40.9375 28.875 C-40.298125 28.58625 -39.65875 28.2975 -39 28 C-38.67 27.01 -38.34 26.02 -38 25 C-30.65958168 17.21534887 -10.97290652 -1.86625812 0 0 Z " fill="#231F20" transform="translate(352,222)"/>
<path d="M0 0 C61.69444444 0 61.69444444 0 73 11 C80.51915654 20.86528722 83.13915187 29.56638275 83.23828125 41.83984375 C83.246353 42.7983876 83.25442474 43.75693146 83.26274109 44.74452209 C83.27655207 46.77440603 83.28728753 48.80431289 83.29516602 50.83422852 C83.30663239 52.88703331 83.32699836 54.93980956 83.35668945 56.99243164 C83.58684593 72.92465985 83.75212408 87.8200684 72 100 C71.51144531 100.56203125 71.02289062 101.1240625 70.51953125 101.703125 C64.62063689 107.70816913 58.66840247 108.11053251 50 111 C33.5 111 17 111 0 111 C0 74.37 0 37.74 0 0 Z " fill="#FDFDFD" transform="translate(500,366)"/>
<path d="M0 0 C8.67444763 6.18054394 14.0441767 14.74582962 16.1875 25.1875 C16.48963211 28.69065086 16.51521301 32.18047629 16.5234375 35.6953125 C16.5334227 37.19902908 16.5334227 37.19902908 16.54360962 38.73312378 C16.55370253 40.84940772 16.55842768 42.96572327 16.55810547 45.08203125 C16.56245824 48.2817997 16.59875831 51.48016446 16.63671875 54.6796875 C16.72434679 70.48898949 15.76547724 83.14641178 4.41015625 95.05078125 C-5.62344381 104.6329719 -17.2374256 106.72043825 -30.69921875 106.4609375 C-42.90069815 105.89080129 -51.60807576 99.89101337 -59.6875 91.1875 C-68.94958205 80.00027388 -68.11471074 65.50111287 -68.01831055 51.76220703 C-67.99999273 49.06142753 -67.99780192 46.36099163 -67.99804688 43.66015625 C-67.99313193 41.91666375 -67.98730372 40.17317353 -67.98046875 38.4296875 C-67.97935593 37.6356955 -67.9782431 36.84170349 -67.97709656 36.02365112 C-67.87144192 23.36060515 -65.79111466 13.64646731 -56.8984375 4.07421875 C-41.05673433 -10.25451277 -17.8536077 -10.97099782 0 0 Z " fill="#FDFDFD" transform="translate(366.8125,371.8125)"/>
<path d="M0 0 C59.50996016 0 59.50996016 0 72 10 C80.43035642 18.89394017 82.51321853 28.22493344 82.27734375 40.19921875 C81.66305352 48.61759054 78.17699315 55.29233721 72 61 C70.05108636 62.49269068 68.11514487 63.7409852 66 65 C66.5752203 68.44476994 67.43382132 71.2195059 69.04125977 74.31542969 C69.46162003 75.13267517 69.88198029 75.94992065 70.31507874 76.79193115 C70.76926682 77.65981262 71.2234549 78.52769409 71.69140625 79.421875 C72.38845924 80.77276215 72.38845924 80.77276215 73.09959412 82.15093994 C74.58140052 85.02035372 76.07153793 87.88533445 77.5625 90.75 C79.05556838 93.6296774 80.54688491 96.51024383 82.03611755 99.39190674 C82.96280536 101.18388351 83.89200054 102.97456617 84.8238678 104.76385498 C85.2410759 105.56849182 85.658284 106.37312866 86.08813477 107.20214844 C86.4581813 107.9132074 86.82822784 108.62426636 87.20948792 109.35687256 C88 111 88 111 88 112 C77.44 112 66.88 112 56 112 C53.93562937 107.75058036 51.87219961 103.50072821 49.81103516 99.24975586 C49.11137008 97.80744123 48.41118646 96.36537801 47.71044922 94.92358398 C37 72.88389354 37 72.88389354 37 70 C33.7 70 30.4 70 27 70 C27 83.86 27 97.72 27 112 C18.09 112 9.18 112 0 112 C0 75.04 0 38.08 0 0 Z " fill="#FDFDFD" transform="translate(203,365)"/>
<path d="M0 0 C61.89105058 0 61.89105058 0 72.03515625 10.0078125 C78.14763063 16.55293026 81.21655474 21.91203498 82 31 C82.09667969 31.98226563 82.09667969 31.98226563 82.1953125 32.984375 C82.70616559 42.3159582 79.73707392 52.13560917 73.6796875 59.29296875 C64.58646669 68.53421873 55.22992304 71.13595188 42.54760742 71.27685547 C37.36437962 71.24020133 32.18218456 71.11025925 27 71 C27 84.2 27 97.4 27 111 C18.09 111 9.18 111 0 111 C0 74.37 0 37.74 0 0 Z " fill="#FEFEFE" transform="translate(108,366)"/>
<path d="M0 0 C2.75187312 1.27604159 4.94516965 2.64472937 7.21484375 4.65234375 C7.81184082 5.17586426 8.40883789 5.69938477 9.02392578 6.23876953 C9.65540527 6.79935059 10.28688477 7.35993164 10.9375 7.9375 C12.28720157 9.12173098 13.63747171 10.30531424 14.98828125 11.48828125 C15.6632666 12.0807666 16.33825195 12.67325195 17.03369141 13.28369141 C19.87202917 15.76115782 22.74407607 18.19730484 25.625 20.625 C26.15134033 21.06884033 26.67768066 21.51268066 27.2199707 21.9699707 C28.27928967 22.86299462 29.33877788 23.75581782 30.3984375 24.6484375 C32.03928736 26.0331547 33.67638805 27.42218891 35.3125 28.8125 C40.31946389 33.06514124 45.33897129 37.29447886 50.4375 41.4375 C55.30208624 45.39572956 60.06062178 49.46649061 64.81054688 53.56054688 C68.31216351 56.57231987 71.84777593 59.53051691 75.4375 62.4375 C80.00734141 66.15049615 84.48460534 69.96084006 88.9375 73.8125 C89.57679443 74.36413818 90.21608887 74.91577637 90.87475586 75.48413086 C91.48198486 76.01143799 92.08921387 76.53874512 92.71484375 77.08203125 C93.25230225 77.54843018 93.78976074 78.0148291 94.34350586 78.49536133 C96.29098963 80.2643138 98.13963903 82.13963903 100 84 C53.8 84 7.6 84 -40 84 C-39.32011469 77.88103221 -38.57771971 72.64715174 -36.8125 66.875 C-36.59182861 66.14418213 -36.37115723 65.41336426 -36.14379883 64.66040039 C-28.9596258 41.43550829 -17.38627255 17.38627255 0 0 Z " fill="#E92427" transform="translate(305,256)"/>
<path d="M0 0 C8.91 0 17.82 0 27 0 C27.01401855 3.39055664 27.01401855 3.39055664 27.02832031 6.84960938 C27.06216429 14.33757419 27.11775432 21.82526557 27.18390274 29.31301117 C27.22332667 33.8506154 27.25553997 38.38802706 27.27099609 42.92578125 C27.28619634 47.30915936 27.32070112 51.69200784 27.36830902 56.07514954 C27.38308822 57.74314253 27.39103902 59.41121116 27.39188385 61.07926941 C27.20061253 73.16809355 27.20061253 73.16809355 32 84 C35.54815071 86.36543381 37.17256132 86.26923313 41.375 86.25 C42.49648438 86.25515625 43.61796875 86.2603125 44.7734375 86.265625 C47.97031716 86.00244362 50.16967506 85.48668693 53 84 C54.32481546 81.60470331 54.32481546 81.60470331 55 79 C55.495 77.515 55.495 77.515 56 76 C56.11929387 73.55256014 56.18518708 71.1313213 56.20532227 68.68286133 C56.21522186 67.94115189 56.22512146 67.19944244 56.23532104 66.43525696 C56.26690257 63.98421417 56.29168021 61.533152 56.31640625 59.08203125 C56.33697867 57.38237505 56.35797522 55.68272393 56.37937927 53.983078 C56.4345702 49.50985837 56.48399262 45.03659279 56.53222656 40.56329346 C56.58246332 35.99853426 56.63813804 31.43384177 56.69335938 26.86914062 C56.80090454 17.91281529 56.90185509 8.95643328 57 0 C65.91 0 74.82 0 84 0 C84.09067207 10.2407129 84.16392909 20.48115551 84.20724869 30.72218037 C84.22804873 35.4784325 84.25622639 40.23439374 84.30175781 44.99047852 C84.3454879 49.58761101 84.36919402 54.1844652 84.37950897 58.78178978 C84.38685191 60.52833621 84.40118995 62.27486887 84.42292023 64.02129555 C84.59383177 78.33748572 82.95286823 89.4144809 73 100.5 C64.10560079 109.08966604 52.66645919 111.91537567 40.6875 112.375 C28.30304671 112.12731093 17.66140344 107.77669696 8.96875 98.93359375 C-0.43981701 87.79082053 -0.56065144 76.04843096 -0.390625 62.20703125 C-0.38315053 60.40671929 -0.37746331 58.60639911 -0.37347412 56.80607605 C-0.35831258 52.10253839 -0.31911435 47.3995068 -0.2746582 42.69616699 C-0.23349916 37.88280072 -0.21541934 33.06935147 -0.1953125 28.25585938 C-0.15260923 18.8369832 -0.08233884 9.41861315 0 0 Z " fill="#FDFDFD" transform="translate(398,366)"/>
<path d="M0 0 C9.9 0 19.8 0 30 0 C35.61 12.54 41.22 25.08 47 38 C49.58584308 35.41415692 50.49743497 32.82190914 51.93359375 29.453125 C52.21219742 28.80430359 52.49080109 28.15548218 52.77784729 27.48699951 C53.66893185 25.40990591 54.55353922 23.33013411 55.4375 21.25 C56.31891186 19.18460567 57.20171411 17.11982366 58.08644104 15.05584717 C58.89301334 13.17286209 59.69551657 11.28813558 60.49780273 9.40332031 C61.90109993 6.22406418 63.44584991 3.10830019 65 0 C74.9 0 84.8 0 95 0 C93.72741398 3.18146505 92.48715348 6.1535388 90.96875 9.1953125 C90.5756665 9.98341309 90.18258301 10.77151367 89.77758789 11.58349609 C89.14518188 12.84154053 89.14518188 12.84154053 88.5 14.125 C87.8356897 15.45072021 87.8356897 15.45072021 87.15795898 16.80322266 C84.58370521 21.91895456 81.96820548 27.00979572 79.28100586 32.06713867 C78.4564078 33.62893499 77.6437175 35.19706694 76.84204102 36.77075195 C74.75093174 40.85131651 72.57056655 44.69217408 69.9609375 48.46484375 C57.74811666 67.36545211 60.60872856 90.36177968 61 112 C52.09 112 43.18 112 34 112 C34.19464844 109.20144531 34.38929688 106.40289062 34.58984375 103.51953125 C36.06311179 72.89108081 28.54122324 52.09845382 12.96533203 26.03759766 C9.89768312 20.88321574 7.04228584 15.62994901 4.24609375 10.32421875 C3.81571304 9.51483353 3.38533234 8.7054483 2.94190979 7.87153625 C2.55301071 7.1284874 2.16411163 6.38543854 1.76342773 5.61987305 C1.42125717 4.96681686 1.07908661 4.31376068 0.72654724 3.64091492 C0 2 0 2 0 0 Z " fill="#FCFBFB" transform="translate(675,365)"/>
<path d="M0 0 C8.91 0 17.82 0 27 0 C27 28.71 27 57.42 27 87 C42.51 87 58.02 87 74 87 C74 94.92 74 102.84 74 111 C49.58 111 25.16 111 0 111 C0 74.37 0 37.74 0 0 Z " fill="#FEFEFE" transform="translate(599,366)"/>
<path d="M0 0 C2.19140625 1.75 2.19140625 1.75 4.5625 4 C8.04224641 7.22575032 11.55910086 10.33034073 15.25 13.3125 C19.56450885 16.80432708 23.79709511 20.37576419 28 24 C32.12455611 27.55467214 36.27208312 31.0679263 40.5 34.5 C45.34596789 38.4337857 50.08098528 42.48447759 54.80859375 46.55859375 C58.33317903 49.58958284 61.89048832 52.56992581 65.5 55.5 C70.90076172 59.88712902 76.174677 64.41223412 81.44921875 68.94921875 C88.71031003 75.19427321 96.00553429 81.3963115 103.4375 87.4375 C108.30049424 91.39443418 113.05700203 95.46435942 117.80615234 99.55615234 C122.20687478 103.34007492 126.67722491 107.02895533 131.1796875 110.69140625 C134.5351661 113.43806533 137.8673198 116.2108319 141.1875 119 C141.76508057 119.48154541 142.34266113 119.96309082 142.93774414 120.45922852 C144.31109043 121.61701688 145.65839956 122.80557035 147 124 C147 124.33 147 124.66 147 125 C126.17478504 127.00485104 126.17478504 127.00485104 119.46386719 121.62451172 C117.38654529 119.66879887 115.40431393 117.65015212 113.47558594 115.54785156 C111.0341386 112.98683632 108.29494029 110.80296211 105.5625 108.5625 C104.48125171 107.6518977 103.40183577 106.73911544 102.32421875 105.82421875 C101.78200684 105.36450684 101.23979492 104.90479492 100.68115234 104.43115234 C97.73592444 101.92390198 94.80697798 99.39771606 91.875 96.875 C87.81371255 93.38184894 83.72481413 89.93551604 79.5625 86.5625 C74.45692535 82.41939009 69.50199947 78.1176955 64.54711914 73.79711914 C60.91262149 70.63534162 57.24479157 67.53149794 53.5 64.5 C48.46571728 60.42178284 43.57489292 56.19382942 38.68969727 51.93969727 C34.10883911 47.95283667 29.49249713 44.0118092 24.84863281 40.09863281 C20.83615915 36.71518136 16.85281439 33.29909223 12.875 29.875 C8.71319863 26.293689 4.5173063 22.76841707 0.25 19.3125 C-4.99913631 15.05391393 -10.02041553 10.56911981 -15 6 C-12.87748883 3.69895986 -10.84451444 2.18105541 -8.0625 0.75 C-7.39347656 0.39421875 -6.72445313 0.0384375 -6.03515625 -0.328125 C-3.47978501 -1.17174084 -2.4748033 -1.04703217 0 0 Z " fill="#FCFAF9" transform="translate(365,215)"/>
<path d="M0 0 C4.2796352 3.0853184 6.02161179 6.93983538 7.6875 11.9375 C7.8205752 14.70876801 7.89977364 17.45401352 7.92578125 20.2265625 C7.933853 21.0444223 7.94192474 21.8622821 7.95024109 22.70492554 C7.96407017 24.43819061 7.97479759 26.17148278 7.98266602 27.90478516 C7.99415248 29.66593481 8.0145512 31.42705057 8.04418945 33.18798828 C8.36974842 52.5360124 8.36974842 52.5360124 3.6875 58.9375 C-0.51215442 62.93717087 -3.36060307 64.29702954 -9.21484375 64.22265625 C-13.45383671 63.64640581 -16.23475674 61.09222492 -19.0625 58.0625 C-22.26596614 52.61660757 -22.62050022 47.45994807 -22.61328125 41.3203125 C-22.61756638 40.50432587 -22.6218515 39.68833923 -22.62626648 38.84762573 C-22.63198727 37.1280815 -22.63252671 35.40851308 -22.62817383 33.68896484 C-22.62501797 31.07737322 -22.64848617 28.46692029 -22.67382812 25.85546875 C-22.67610198 24.17708475 -22.67680421 22.49869773 -22.67578125 20.8203125 C-22.684991 20.0492215 -22.69420074 19.27813049 -22.70368958 18.4836731 C-22.65771441 13.01563931 -21.58500634 8.92976306 -19.3125 3.9375 C-13.42806162 -1.65989261 -7.68767263 -2.46585726 0 0 Z " fill="#252122" transform="translate(348.3125,390.0625)"/>
<path d="M0 0 C18 0 18 0 24 4 C30.48983957 10.66524064 29.18631959 19.47522993 29.18530273 28.20288086 C29.1874831 30.29627002 29.20565773 32.38912607 29.22460938 34.48242188 C29.29613452 51.227779 29.29613452 51.227779 25.25 57.875 C17.32623713 65.35855382 11.65973803 63 0 63 C0 42.21 0 21.42 0 0 Z " fill="#272324" transform="translate(527,390)"/>
<path d="M0 0 C3.03134997 1.51567499 4.7943843 2.5113539 7.21484375 4.65234375 C7.81184082 5.17586426 8.40883789 5.69938477 9.02392578 6.23876953 C9.65540527 6.79935059 10.28688477 7.35993164 10.9375 7.9375 C12.28720157 9.12173098 13.63747171 10.30531424 14.98828125 11.48828125 C15.6632666 12.0807666 16.33825195 12.67325195 17.03369141 13.28369141 C19.87202917 15.76115782 22.74407607 18.19730484 25.625 20.625 C26.15134033 21.06884033 26.67768066 21.51268066 27.2199707 21.9699707 C28.27928967 22.86299462 29.33877788 23.75581782 30.3984375 24.6484375 C32.03928736 26.0331547 33.67638805 27.42218891 35.3125 28.8125 C40.31946389 33.06514124 45.33897129 37.29447886 50.4375 41.4375 C55.30208624 45.39572956 60.06062178 49.46649061 64.81054688 53.56054688 C68.31216351 56.57231987 71.84777593 59.53051691 75.4375 62.4375 C80.00734141 66.15049615 84.48460534 69.96084006 88.9375 73.8125 C89.89644165 74.63995728 89.89644165 74.63995728 90.87475586 75.48413086 C94.02957449 78.22372061 97.0941225 80.99216188 100 84 C81.36041491 86.08114463 81.36041491 86.08114463 74.875 81.64453125 C71.86163648 79.16805717 69.15827647 76.40511379 66.49951172 73.55566406 C64.31835637 71.29283081 61.90211412 69.38231745 59.4375 67.4375 C52.64964146 61.9217438 45.99800975 56.24801532 39.33398438 50.58398438 C32.87593074 45.09729486 26.38502384 39.66222871 19.8125 34.3125 C16.12834364 31.28330477 12.49391059 28.19755864 8.86230469 25.10571289 C4.32133231 21.2477932 -0.29815061 17.49728716 -4.953125 13.77734375 C-7 12 -7 12 -8 10 C-5.36 6.7 -2.72 3.4 0 0 Z " fill="#FCFAF9" transform="translate(305,256)"/>
<path d="M0 0 C1.35097374 1.51151546 2.62927345 3.08813313 3.875 4.6875 C7.42451301 9.13295118 11.10544006 13.35509762 15 17.5 C19.61587357 22.42394077 23.95264375 27.47687503 28.16015625 32.7578125 C29.6937906 34.62682761 31.25235051 36.33401638 33 38 C31.19943102 42.2133314 29.10653759 43.90624123 25.09765625 46.01171875 C21.00284147 47.31813507 17.2158676 47.51873601 12.9375 47.5625 C12.18210937 47.57700195 11.42671875 47.59150391 10.6484375 47.60644531 C2.37135347 47.45889729 -4.18020629 43.81979371 -10 38 C-15.3290405 31.34697428 -14.85417604 23.11467243 -14 15 C-12.57060986 9.28243945 -6.49756382 0 0 0 Z " fill="#EB2729" transform="translate(422,660)"/>
<path d="M0 0 C3.77541495 2.54621008 6.18213363 4.46760003 7.17578125 9.078125 C7.57122329 14.13358006 6.91659769 17.21066762 3.625 21.125 C0.23207099 24.50419246 -3.17557024 27.39278637 -7.3125 29.8125 C-10.21475536 29.649648 -11.24016051 28.87978938 -13.3828125 26.88671875 C-14.06085938 26.09910156 -14.73890625 25.31148437 -15.4375 24.5 C-16.12070312 23.72011719 -16.80390625 22.94023438 -17.5078125 22.13671875 C-20.89315799 17.7768041 -21.81644767 14.54009527 -21.69921875 9.06640625 C-21.02865497 5.15817086 -19.18987766 3.49369282 -16.3125 0.8125 C-11.09897367 -2.31990677 -5.60300018 -2.00862271 0 0 Z " fill="#EB292B" transform="translate(445.3125,571.1875)"/>
<path d="M0 0 C3.17625 -0.0825 6.3525 -0.165 9.625 -0.25 C10.6145166 -0.28641602 11.6040332 -0.32283203 12.62353516 -0.36035156 C18.23555329 -0.43068613 21.65359775 0.07864024 26 4 C28.50052173 7.58739623 28.24373831 10.61096721 27.68359375 14.80859375 C26.50622832 18.58289094 24.25423837 19.87478311 21 22 C18.65147472 23.17426264 17.26225935 23.11508173 14.6484375 23.09765625 C13.88192871 23.09515869 13.11541992 23.09266113 12.32568359 23.09008789 C11.35195801 23.08098389 10.37823242 23.07187988 9.375 23.0625 C6.28125 23.041875 3.1875 23.02125 0 23 C0 15.41 0 7.82 0 0 Z " fill="#282425" transform="translate(230,390)"/>
<path d="M0 0 C3.155625 -0.12375 6.31125 -0.2475 9.5625 -0.375 C10.5429126 -0.42962402 11.5233252 -0.48424805 12.53344727 -0.54052734 C17.37190544 -0.63177273 20.31355596 -0.27661664 24.08984375 2.8984375 C26.70539256 5.44851042 27.89084157 7.03940583 28.3125 10.75 C27.9148114 14.88596145 26.62359816 16.80913737 24 20 C19.3767524 23.78750669 14.86066458 23.35121863 9.1875 23.1875 C6.155625 23.125625 3.12375 23.06375 0 23 C0 15.41 0 7.82 0 0 Z " fill="#272324" transform="translate(135,390)"/>
<path d="M0 0 C1.73868744 0.15266612 3.48247501 0.24932596 5.2265625 0.31640625 C6.2578125 0.35830078 7.2890625 0.40019531 8.3515625 0.44335938 C9.43179688 0.48267578 10.51203125 0.52199219 11.625 0.5625 C13.25695312 0.62727539 13.25695312 0.62727539 14.921875 0.69335938 C17.6144517 0.7996453 20.30712253 0.90168057 23 1 C23 1.33 23 1.66 23 2 C-19.57 2 -62.14 2 -106 2 C-106 1.67 -106 1.34 -106 1 C-92.28520201 0.27155569 -78.59599854 -0.19311298 -64.86328125 -0.3515625 C-63.03720379 -0.37477514 -61.21112859 -0.39816557 -59.38505554 -0.42172241 C-55.61146554 -0.46950764 -51.83785557 -0.51454119 -48.06420898 -0.55761719 C-43.22330647 -0.6131993 -38.38254837 -0.67696358 -33.5417757 -0.74279213 C-29.79560838 -0.79268674 -26.04939555 -0.83786636 -22.30315208 -0.88163376 C-20.51569838 -0.90318307 -18.72826317 -0.92632786 -16.94085121 -0.9510994 C-14.4649086 -0.98481527 -11.98897813 -1.01207099 -9.51293945 -1.03759766 C-8.40904625 -1.05466011 -8.40904625 -1.05466011 -7.28285217 -1.07206726 C-2.22844297 -1.11422149 -2.22844297 -1.11422149 0 0 Z " fill="#3B302F" transform="translate(490,339)"/>
<path d="M0 0 C0.99 1.98 0.99 1.98 2 4 C-27.37 4 -56.74 4 -87 4 C-87 3.34 -87 2.68 -87 2 C-58.29 2 -29.58 2 0 2 C0 1.34 0 0.68 0 0 Z " fill="#D52727" transform="translate(599,336)"/>
<path d="M0 0 C0.79921875 0.01804687 1.5984375 0.03609375 2.421875 0.0546875 C3.02515625 0.07789063 3.6284375 0.10109375 4.25 0.125 C4.58 0.785 4.91 1.445 5.25 2.125 C4.60933594 2.104375 3.96867187 2.08375 3.30859375 2.0625 C-0.76551613 2.15964718 -3.6792426 2.24079924 -6.90234375 4.90234375 C-8.62491801 6.9162625 -10.20245053 8.97513724 -11.75 11.125 C-12.41 11.785 -13.07 12.445 -13.75 13.125 C-13.29713369 8.25668719 -12.16678531 5.63940774 -8.75 2.125 C-5.7277776 0.26418366 -3.52535356 -0.10368687 0 0 Z " fill="#363233" transform="translate(340.75,388.875)"/>
<path d="M0 0 C0 3 0 3 -2.125 5.4375 C-4.98226437 7.98419215 -7.76860975 9.97098752 -11 12 C-11.66 11.67 -12.32 11.34 -13 11 C-8.71 7.37 -4.42 3.74 0 0 Z " fill="#474242" transform="translate(583,79)"/>
<path d="M0 0 C1.1484375 1.609375 1.1484375 1.609375 2 4 C1.1015625 7.015625 1.1015625 7.015625 -0.375 10.25 C-0.85710938 11.32765625 -1.33921875 12.4053125 -1.8359375 13.515625 C-2.22007812 14.33546875 -2.60421875 15.1553125 -3 16 C-3.66 16 -4.32 16 -5 16 C-4.34309381 12.21760329 -3.279869 8.78158474 -1.9375 5.1875 C-1.57527344 4.21167969 -1.21304688 3.23585938 -0.83984375 2.23046875 C-0.42412109 1.12638672 -0.42412109 1.12638672 0 0 Z " fill="#ED413C" transform="translate(541,665)"/>
<path d="M0 0 C0 0.66 0 1.32 0 2 C-7.28571429 5.42857143 -7.28571429 5.42857143 -12 5 C-8.24532309 1.94063363 -4.91886939 0 0 0 Z " fill="#382321" transform="translate(356,170)"/>
<path d="M0 0 C0.91848627 3.09989115 1.39332557 5.77473037 1 9 C-1 11.8125 -1 11.8125 -3 14 C-2.69024532 12.22868439 -2.37709575 10.45796222 -2.0625 8.6875 C-1.88847656 7.70136719 -1.71445312 6.71523438 -1.53515625 5.69921875 C-1 3 -1 3 0 0 Z " fill="#534E4E" transform="translate(386,21)"/>
<path d="M0 0 C0.33 0.66 0.66 1.32 1 2 C0.06421005 4.35981813 -0.93347808 6.69631264 -2 9 C-2.66 9 -3.32 9 -4 9 C-2.25 2.25 -2.25 2.25 0 0 Z " fill="#ED3E3A" transform="translate(500,594)"/>
</svg>
