<?xml version="1.0" encoding="UTF-8"?>
<svg version="1.1" xmlns="http://www.w3.org/2000/svg" width="612" height="207">
<path d="M0 0 C0 25.08 0 50.16 0 76 C4.62 76 9.24 76 14 76 C14 53.23 14 30.46 14 7 C11.36 7 8.72 7 6 7 C6.33 5.35 6.66 3.7 7 2 C8.10118164 1.96241577 8.10118164 1.96241577 9.22460938 1.92407227 C22.82910187 1.45447449 36.42113027 0.97734591 50 0 C50.495 3.465 50.495 3.465 51 7 C51.61488281 6.57847656 52.22976563 6.15695313 52.86328125 5.72265625 C53.67152344 5.17480469 54.47976563 4.62695312 55.3125 4.0625 C56.51326172 3.24458984 56.51326172 3.24458984 57.73828125 2.41015625 C63.51670444 -1.19262574 70.42963162 -0.68094226 77 0 C80.06347979 1.26795256 82.50318774 2.82885891 85 5 C85.33 4.01 85.66 3.02 86 2 C86.83772949 1.97494385 87.67545898 1.9498877 88.53857422 1.92407227 C91.64352256 1.82899643 94.74830181 1.72975975 97.85302734 1.62768555 C99.85894807 1.56301749 101.86502228 1.50316894 103.87109375 1.44335938 C105.75634766 1.38051758 105.75634766 1.38051758 107.6796875 1.31640625 C108.84226074 1.27974854 110.00483398 1.24309082 111.20263672 1.20532227 C113.9535501 1.18178341 113.9535501 1.18178341 116 0 C120.62 0 125.24 0 130 0 C130.33 24.75 130.66 49.5 131 75 C133.31 75.33 135.62 75.66 138 76 C137.67 77.65 137.34 79.3 137 81 C120.5 81 104 81 87 81 C86.67 79.35 86.34 77.7 86 76 C89.465 75.505 89.465 75.505 93 75 C93.33 52.56 93.66 30.12 94 7 C91.69 7 89.38 7 87 7 C87.17917969 7.61746094 87.35835937 8.23492187 87.54296875 8.87109375 C89.15330498 15.28315983 89.34233877 20.13645068 86 26 C83.23848236 29.06916682 80.06454628 31.76976723 75.86328125 32.23828125 C69.61445502 32.42010008 65.98095396 31.88514409 61 28 C57.92323442 24.12590187 56.2108782 19.95563773 56 15 C56.9375 11.625 56.9375 11.625 58 9 C53.54738268 12.83846321 51.28906715 16.93667657 50.74038696 22.75119019 C50.65332238 26.07654547 50.66289617 29.38863769 50.70703125 32.71484375 C50.71127609 33.92572159 50.71552094 35.13659943 50.71989441 36.38417053 C50.73663011 40.23551057 50.77427428 44.08631923 50.8125 47.9375 C50.82755338 50.55533096 50.84124064 53.17317016 50.85351562 55.79101562 C50.88651713 62.19421384 50.93826543 68.59701695 51 75 C54.3 75.33 57.6 75.66 61 76 C60.67 77.65 60.34 79.3 60 81 C26.01 81 -7.98 81 -43 81 C-43.495 78.525 -43.495 78.525 -44 76 C-40.535 75.505 -40.535 75.505 -37 75 C-36.67 52.56 -36.34 30.12 -36 7 C-38.64 7 -41.28 7 -44 7 C-44 5.35 -44 3.7 -44 2 C-43.22922119 1.97494385 -42.45844238 1.9498877 -41.66430664 1.92407227 C-38.13024164 1.80714506 -34.59638084 1.68486177 -31.0625 1.5625 C-29.85013672 1.52318359 -28.63777344 1.48386719 -27.38867188 1.44335938 C-21.63976408 1.24082333 -15.95438863 1.01116728 -10.25561523 0.19897461 C-6.84965958 -0.10147499 -3.41918175 0 0 0 Z " fill="#221E21" transform="translate(231,68)"/>
<path d="M0 0 C2.31 0.33 4.62 0.66 7 1 C7.00423194 1.54353024 7.00846388 2.08706049 7.01282406 2.64706135 C7.11608902 15.86696156 7.22478255 29.08680752 7.33933926 42.30661488 C7.39457309 48.69959077 7.4479939 55.09257124 7.49731445 61.4855957 C7.54495111 67.6517969 7.59729378 73.81794162 7.65294075 79.98407555 C7.67336745 82.34005012 7.69208 84.69604018 7.70907402 87.05204201 C7.73311094 90.34440348 7.76316667 93.63665786 7.79467773 96.92895508 C7.8004332 97.90934753 7.80618866 98.88973999 7.81211853 99.89984131 C7.82190735 100.79586563 7.83169617 101.69188995 7.84178162 102.61506653 C7.84823417 103.3939816 7.85468672 104.17289667 7.8613348 104.97541523 C7.92905842 107.20494952 7.92905842 107.20494952 9 110 C10.98 110 12.96 110 15 110 C14.67 111.65 14.34 113.3 14 115 C5.30085217 116.33604659 -3.30616491 115.89096784 -12.0625 115.5625 C-13.61130777 115.50917109 -15.16013596 115.4564318 -16.70898438 115.40429688 C-20.4729262 115.27633041 -24.23650151 115.14037916 -28 115 C-28.66 113.68 -29.32 112.36 -30 111 C-32.46800047 112.15173355 -34.04783565 113.04783565 -36 115 C-45.17288313 117.37470578 -52.89341947 116.5570005 -61.19921875 111.95703125 C-70.12873539 105.7175782 -74.46133234 96.59977068 -76.578125 86.14453125 C-78.50188234 71.80541401 -76.85193529 58.84835087 -68.5625 46.70703125 C-66.85444576 44.84098199 -65.31708536 43.9737751 -63 43 C-63 42.34 -63 41.68 -63 41 C-54.78365833 36.03596024 -48.18531869 33.50735845 -38.5 33.8125 C-35.695 33.874375 -32.89 33.93625 -30 34 C-29.67 25.42 -29.34 16.84 -29 8 C-31.64 8 -34.28 8 -37 8 C-37 6.35 -37 4.7 -37 3 C-36.16339844 2.97494385 -35.32679688 2.9498877 -34.46484375 2.92407227 C-31.32623274 2.82827164 -28.18775119 2.72908345 -25.04931641 2.62768555 C-23.03686399 2.56367259 -21.0242912 2.5034803 -19.01171875 2.44335938 C-12.61414496 2.2343934 -6.33128859 1.96099916 0 1 C0 0.67 0 0.34 0 0 Z M-40 38 C-40 61.76 -40 85.52 -40 110 C-34.55114688 107.82045875 -31.66992005 106.23737026 -29 101 C-28.18875456 96.31289459 -28.30088224 91.71719114 -28.4140625 86.97265625 C-28.42526943 85.61504501 -28.43380254 84.25740931 -28.43978882 82.89976501 C-28.46257104 79.34650297 -28.5213963 75.7947399 -28.5880127 72.24206543 C-28.64966851 68.60884881 -28.67685304 64.97538716 -28.70703125 61.34179688 C-28.7711547 54.22725567 -28.87340064 47.11372629 -29 40 C-30.258125 39.67 -31.51625 39.34 -32.8125 39 C-33.52019531 38.814375 -34.22789062 38.62875 -34.95703125 38.4375 C-37.14070009 37.8952993 -37.14070009 37.8952993 -40 38 Z " fill="#221E21" transform="translate(590,34)"/>
<path d="M0 0 C9.02272211 6.67459566 14.0220483 16.18799473 16.21875 27.03515625 C18.31890625 41.33237379 15.57154788 54.92083695 7.19140625 66.8515625 C1.67244311 73.70229998 -4.73151051 76.98752128 -13.15625 79.22265625 C-19.34815411 79.61788417 -24.98623554 79.63165914 -31.09375 78.41015625 C-31.09375 87.65015625 -31.09375 96.89015625 -31.09375 106.41015625 C-28.45375 106.41015625 -25.81375 106.41015625 -23.09375 106.41015625 C-23.09375 107.73015625 -23.09375 109.05015625 -23.09375 110.41015625 C-40.25375 110.41015625 -57.41375 110.41015625 -75.09375 110.41015625 C-75.09375 109.09015625 -75.09375 107.77015625 -75.09375 106.41015625 C-72.45375 106.41015625 -69.81375 106.41015625 -67.09375 106.41015625 C-67.09375 72.75015625 -67.09375 39.09015625 -67.09375 4.41015625 C-69.73375 4.41015625 -72.37375 4.41015625 -75.09375 4.41015625 C-75.09375 2.76015625 -75.09375 1.11015625 -75.09375 -0.58984375 C-74.05371826 -0.62742798 -74.05371826 -0.62742798 -72.99267578 -0.66577148 C-59.01748231 -1.17519952 -45.05281028 -1.74220055 -31.09375 -2.58984375 C-30.59875 0.38015625 -30.59875 0.38015625 -30.09375 3.41015625 C-29.248125 2.62640625 -28.4025 1.84265625 -27.53125 1.03515625 C-19.7760291 -5.31330365 -8.52393163 -4.87331337 0 0 Z M-25.03125 6.78515625 C-25.74152344 7.41164063 -26.45179688 8.038125 -27.18359375 8.68359375 C-30.31510271 11.24505958 -30.31510271 11.24505958 -31.33425903 14.96646118 C-31.32981781 16.04567841 -31.32537659 17.12489563 -31.32080078 18.23681641 C-31.32064972 19.45793121 -31.32049866 20.67904602 -31.32034302 21.93716431 C-31.31012903 23.27451743 -31.29969702 24.6118689 -31.2890625 25.94921875 C-31.2853328 27.31399326 -31.28248563 28.67877044 -31.28048706 30.04354858 C-31.27284714 33.63736348 -31.25319572 37.23101698 -31.2310791 40.82476807 C-31.21062832 44.49122942 -31.201487 48.15771682 -31.19140625 51.82421875 C-31.16995003 59.01960487 -31.13580992 66.21485795 -31.09375 73.41015625 C-27.15354642 74.67102139 -24.61794701 74.41015625 -20.09375 74.41015625 C-20.09375 50.98015625 -20.09375 27.55015625 -20.09375 3.41015625 C-22.06421398 3.41015625 -23.64359836 5.55559151 -25.03125 6.78515625 Z " fill="#221D21" transform="translate(170.09375,70.58984375)"/>
<path d="M0 0 C3.9028214 3.51590376 5.59977355 6.90061141 6.25 12.1953125 C5.68721922 16.61716148 4.8375633 19.94264339 1.30078125 22.89453125 C-2.87482648 25.56879688 -6.17522257 26.041978 -11.1875 25.6328125 C-9.30186993 27.59701049 -7.39872047 29.46184511 -5.28125 31.17578125 C0.23978146 35.67706996 4.14513427 39.82317676 5.15234375 47.08203125 C5.41874956 54.04055103 3.80277809 59.46311035 0.125 65.3203125 C-8.09273665 73.53804915 -18.24025131 75.89582315 -29.5625 76.0078125 C-41.80352456 75.90072048 -55.19190356 73.62840894 -64.1875 64.6328125 C-66.66376167 61.35847855 -68.35386974 58.48136521 -67.9765625 54.2890625 C-66.44650254 48.88885088 -64.18027485 45.44692196 -59.1875 42.6328125 C-55.01971886 41.81281003 -51.12339861 41.62519314 -47.28125 43.625 C-44.47218779 45.84195596 -42.17280197 48.18425562 -41.1875 51.6328125 C-40.7579196 57.04552559 -40.76883617 60.20121124 -44.1875 64.6328125 C-45.17781545 65.64240416 -46.17623348 66.64420741 -47.1875 67.6328125 C-41.25378341 69.3589846 -35.70523314 69.85087109 -29.5625 69.8828125 C-28.84650635 69.89183594 -28.1305127 69.90085937 -27.39282227 69.91015625 C-22.63944247 69.88387331 -18.70183955 69.12574369 -14.1875 67.6328125 C-18.46142563 63.0294565 -23.28833635 59.48332671 -28.375 55.8203125 C-34.54783289 51.34790043 -40.5625252 46.84399713 -46.27734375 41.79296875 C-48.14252994 40.38546055 -48.14252994 40.38546055 -50.44140625 40.94140625 C-51.30572266 41.28365234 -51.30572266 41.28365234 -52.1875 41.6328125 C-51.8575 40.6428125 -51.5275 39.6528125 -51.1875 38.6328125 C-51.96673828 37.99666016 -51.96673828 37.99666016 -52.76171875 37.34765625 C-58.98958352 32.10980326 -64.40793966 27.08654978 -65.42578125 18.66015625 C-65.65547743 12.19239526 -64.59545662 6.20946878 -61.1875 0.6328125 C-57.82508303 -2.18727916 -53.73778252 -5.3671875 -49.1875 -5.3671875 C-48.8575 -6.0271875 -48.5275 -6.6871875 -48.1875 -7.3671875 C-32.58277787 -11.30008495 -13.13700848 -9.61126723 0 0 Z M-48.1875 -1.3671875 C-43.79723746 3.35662682 -38.81320461 7.07365085 -33.625 10.8828125 C-32.77486328 11.51960938 -31.92472656 12.15640625 -31.04882812 12.8125 C-30.22705078 13.41835937 -29.40527344 14.02421875 -28.55859375 14.6484375 C-27.81536865 15.19790039 -27.07214355 15.74736328 -26.30639648 16.31347656 C-24.27265824 17.74085955 -24.27265824 17.74085955 -21.97680664 18.13183594 C-21.38633545 18.2971582 -20.79586426 18.46248047 -20.1875 18.6328125 C-19.8575 19.6228125 -19.5275 20.6128125 -19.1875 21.6328125 C-18.5275 21.6328125 -17.8675 21.6328125 -17.1875 21.6328125 C-18.27534968 18.38298115 -18.27534968 18.38298115 -20.1875 15.6328125 C-19.82424479 10.47804807 -19.39288258 5.1995227 -15.5625 1.4453125 C-14.77875 0.8471875 -13.995 0.2490625 -13.1875 -0.3671875 C-18.72233242 -4.05707578 -24.61444501 -3.54996711 -31.0625 -3.5546875 C-31.93519531 -3.56693359 -32.80789062 -3.57917969 -33.70703125 -3.59179688 C-38.93496092 -3.6035892 -43.23987638 -3.0725673 -48.1875 -1.3671875 Z " fill="#201C1F" transform="translate(89.1875,75.3671875)"/>
<path d="M0 0 C1.6640625 1.90234375 1.6640625 1.90234375 1.6640625 3.90234375 C2.3240625 3.90234375 2.9840625 3.90234375 3.6640625 3.90234375 C8.97359347 14.01477106 12.07559653 24.5023647 9.6640625 35.90234375 C8.12175273 37.44465352 6.6599654 37.06481862 4.51147461 37.10766602 C3.19021828 37.13758385 3.19021828 37.13758385 1.8422699 37.16810608 C0.88498489 37.18481857 -0.07230011 37.20153107 -1.05859375 37.21875 C-2.52141029 37.24992165 -2.52141029 37.24992165 -4.01377869 37.28172302 C-7.1419238 37.34732787 -10.27015572 37.40615403 -13.3984375 37.46484375 C-15.513681 37.50801858 -17.62891559 37.55163252 -19.74414062 37.59570312 C-24.94131843 37.70385013 -30.13855809 37.80284199 -35.3359375 37.90234375 C-35.3359375 47.47234375 -35.3359375 57.04234375 -35.3359375 66.90234375 C-23.19279223 66.19081221 -23.19279223 66.19081221 -12.3359375 61.90234375 C-12.0059375 61.24234375 -11.6759375 60.58234375 -11.3359375 59.90234375 C-10.5934375 59.48984375 -9.8509375 59.07734375 -9.0859375 58.65234375 C-5.22573528 56.19585143 -2.40440208 53.03927291 -0.3359375 48.90234375 C1.3140625 49.23234375 2.9640625 49.56234375 4.6640625 49.90234375 C3.51829706 56.42885572 -2.13099579 61.12709213 -7.0859375 65.15234375 C-16.45197501 71.70677918 -26.08335672 73.0310928 -37.3359375 71.90234375 C-49.09767855 69.68141164 -58.86435792 64.23544624 -65.86328125 54.390625 C-72.28481052 43.54045486 -72.83107184 31.4900216 -70.7109375 19.3125 C-68.01260096 9.18169181 -62.31000961 0.0421419 -53.51953125 -5.88671875 C-35.95599425 -15.62678399 -15.06399333 -13.52736525 0 0 Z M-36.3359375 -5.09765625 C-36.60261289 -2.260383 -36.68384984 0.3561742 -36.62890625 3.19140625 C-36.62466141 4.00983002 -36.62041656 4.82825378 -36.61604309 5.67147827 C-36.59922429 8.29043211 -36.56156724 10.90862177 -36.5234375 13.52734375 C-36.50839476 15.30077015 -36.49470564 17.07420859 -36.48242188 18.84765625 C-36.44931042 23.19951405 -36.39750702 27.55079926 -36.3359375 31.90234375 C-32.3759375 31.90234375 -28.4159375 31.90234375 -24.3359375 31.90234375 C-24.3359375 19.36234375 -24.3359375 6.82234375 -24.3359375 -6.09765625 C-32.67743132 -8.00118799 -32.67743132 -8.00118799 -36.3359375 -5.09765625 Z " fill="#221D21" transform="translate(501.3359375,79.09765625)"/>
<path d="M0 0 C2.475 0.495 2.475 0.495 5 1 C5 11.56 5 22.12 5 33 C10.28 33 15.56 33 21 33 C21 34.65 21 36.3 21 38 C16.05 38.33 11.1 38.66 6 39 C6 59.79 6 80.58 6 102 C9.00811206 98.23985992 10.56021266 96.26687912 12.1875 92.0625 C12.52265625 91.19753906 12.8578125 90.33257812 13.203125 89.44140625 C14.12932056 86.86586553 14.12932056 86.86586553 14.4375 83.5 C14.7159375 82.2625 14.7159375 82.2625 15 81 C17.5625 79.625 17.5625 79.625 20 79 C21.54808746 84.62940894 20.19647493 87.88440038 18 93 C17.43022652 94.49725229 16.86742747 95.99718206 16.3125 97.5 C15.879375 98.655 15.44625 99.81 15 101 C14.34 101 13.68 101 13 101 C12.62101562 101.89332031 12.62101562 101.89332031 12.234375 102.8046875 C9.6673737 107.37005058 4.79679526 110.12156676 0.1875 112.375 C-9.37911864 114.25080758 -17.12494692 113.1875347 -25.25 107.875 C-32.20580477 100.60302229 -32.58998294 92.62423991 -32.57421875 82.94140625 C-32.58838333 81.71590561 -32.60254791 80.49040497 -32.61714172 79.22776794 C-32.65885902 75.33925437 -32.67425591 71.45120538 -32.6875 67.5625 C-32.71654567 63.64901548 -32.7510264 59.73564828 -32.78999329 55.82225037 C-32.81250622 53.39283062 -32.82830999 50.96333783 -32.83683777 48.53382874 C-32.84387222 47.44186691 -32.85090668 46.34990509 -32.8581543 45.22485352 C-32.86163376 44.2616066 -32.86511322 43.29835968 -32.86869812 42.30592346 C-32.84903459 39.97222829 -32.84903459 39.97222829 -34 38 C-36.64 38 -39.28 38 -42 38 C-42 36.35 -42 34.7 -42 33 C-41.10539062 32.90203125 -40.21078125 32.8040625 -39.2890625 32.703125 C-31.62598802 31.75545268 -24.97063964 30.34172986 -18 27 C-17.27039063 26.67 -16.54078125 26.34 -15.7890625 26 C-13.82745703 25.1237 -13.82745703 25.1237 -13 23 C-12.01 22.67 -11.02 22.34 -10 22 C-9.29848848 20.6846659 -8.63474075 19.34882408 -8 18 C-7.525625 17.566875 -7.05125 17.13375 -6.5625 16.6875 C-2.44592128 12.24159498 -1.30850179 5.73727709 0 0 Z " fill="#221D21" transform="translate(409,37)"/>
<path d="M0 0 C1.6640625 1.90234375 1.6640625 1.90234375 1.6640625 3.90234375 C2.3240625 3.90234375 2.9840625 3.90234375 3.6640625 3.90234375 C8.97359347 14.01477106 12.07559653 24.5023647 9.6640625 35.90234375 C8.12175273 37.44465352 6.6599654 37.06481862 4.51147461 37.10766602 C3.19021828 37.13758385 3.19021828 37.13758385 1.8422699 37.16810608 C0.88498489 37.18481857 -0.07230011 37.20153107 -1.05859375 37.21875 C-2.52141029 37.24992165 -2.52141029 37.24992165 -4.01377869 37.28172302 C-7.1419238 37.34732787 -10.27015572 37.40615403 -13.3984375 37.46484375 C-15.513681 37.50801858 -17.62891559 37.55163252 -19.74414062 37.59570312 C-24.94131843 37.70385013 -30.13855809 37.80284199 -35.3359375 37.90234375 C-35.3359375 47.47234375 -35.3359375 57.04234375 -35.3359375 66.90234375 C-23.19279223 66.19081221 -23.19279223 66.19081221 -12.3359375 61.90234375 C-12.0059375 61.24234375 -11.6759375 60.58234375 -11.3359375 59.90234375 C-10.5934375 59.48984375 -9.8509375 59.07734375 -9.0859375 58.65234375 C-5.22573528 56.19585143 -2.40440208 53.03927291 -0.3359375 48.90234375 C1.3140625 49.23234375 2.9640625 49.56234375 4.6640625 49.90234375 C3.51829706 56.42885572 -2.13099579 61.12709213 -7.0859375 65.15234375 C-16.45197501 71.70677918 -26.08335672 73.0310928 -37.3359375 71.90234375 C-47.52568831 69.97824555 -56.01374893 65.73907858 -62.9609375 57.96484375 C-63.4146875 57.28421875 -63.8684375 56.60359375 -64.3359375 55.90234375 C-61.3359375 55.90234375 -61.3359375 55.90234375 -59.4609375 57.71484375 C-58.7596875 58.43671875 -58.0584375 59.15859375 -57.3359375 59.90234375 C-56.4490625 60.41796875 -55.5621875 60.93359375 -54.6484375 61.46484375 C-52.3359375 62.90234375 -52.3359375 62.90234375 -51.3359375 65.90234375 C-49.8509375 65.40734375 -49.8509375 65.40734375 -48.3359375 64.90234375 C-46.31075259 65.85030265 -44.31116596 66.85426334 -42.3359375 67.90234375 C-41.0159375 68.23234375 -39.6959375 68.56234375 -38.3359375 68.90234375 C-38.0059375 57.68234375 -37.6759375 46.46234375 -37.3359375 34.90234375 C-35.8509375 34.40734375 -35.8509375 34.40734375 -34.3359375 33.90234375 C-35.3259375 33.24234375 -36.3159375 32.58234375 -37.3359375 31.90234375 C-38.58876475 28.14386201 -38.45975585 24.64743456 -38.43359375 20.734375 C-38.4321788 19.93956223 -38.43076385 19.14474945 -38.42930603 18.32585144 C-38.42371128 15.7888105 -38.41115978 13.251858 -38.3984375 10.71484375 C-38.39342182 8.9941419 -38.38885903 7.27343867 -38.38476562 5.55273438 C-38.37374357 1.33590345 -38.35648256 -2.88086141 -38.3359375 -7.09765625 C-42.2974955 -8.41817558 -43.58921898 -7.35444441 -47.3359375 -5.66015625 C-53.03348518 -3.09765625 -53.03348518 -3.09765625 -56.3359375 -3.09765625 C-49.73057402 -9.47524857 -40.45962459 -11.7356591 -31.50390625 -12.1875 C-19.62387752 -11.8505818 -8.89515617 -7.98779074 0 0 Z M-36.3359375 -5.09765625 C-36.60261289 -2.260383 -36.68384984 0.3561742 -36.62890625 3.19140625 C-36.62466141 4.00983002 -36.62041656 4.82825378 -36.61604309 5.67147827 C-36.59922429 8.29043211 -36.56156724 10.90862177 -36.5234375 13.52734375 C-36.50839476 15.30077015 -36.49470564 17.07420859 -36.48242188 18.84765625 C-36.44931042 23.19951405 -36.39750702 27.55079926 -36.3359375 31.90234375 C-32.3759375 31.90234375 -28.4159375 31.90234375 -24.3359375 31.90234375 C-24.3359375 19.36234375 -24.3359375 6.82234375 -24.3359375 -6.09765625 C-32.67743132 -8.00118799 -32.67743132 -8.00118799 -36.3359375 -5.09765625 Z " fill="#221D21" transform="translate(501.3359375,79.09765625)"/>
<path d="M0 0 C1.88512299 1.19808535 3.61649046 2.41821182 5.30078125 3.8828125 C5.63078125 2.8928125 5.96078125 1.9028125 6.30078125 0.8828125 C14.22078125 0.8828125 22.14078125 0.8828125 30.30078125 0.8828125 C26.82709059 2.61965783 25.22458188 3.18365362 21.55078125 3.5078125 C20.7515625 3.58257812 19.95234375 3.65734375 19.12890625 3.734375 C18.525625 3.78335938 17.92234375 3.83234375 17.30078125 3.8828125 C17.30078125 5.2028125 17.30078125 6.5228125 17.30078125 7.8828125 C17.30078125 70.8828125 17.30078125 70.8828125 16.30078125 75.8828125 C27.19078125 75.8828125 38.08078125 75.8828125 49.30078125 75.8828125 C48.97078125 51.4628125 48.64078125 27.0428125 48.30078125 1.8828125 C45.33078125 1.8828125 42.36078125 1.8828125 39.30078125 1.8828125 C38.97078125 2.2128125 38.64078125 2.5428125 38.30078125 2.8828125 C35.96780692 2.92374187 33.633729 2.92522973 31.30078125 2.8828125 C31.30078125 2.2228125 31.30078125 1.5628125 31.30078125 0.8828125 C36.30078125 -1.1171875 36.30078125 -1.1171875 50.30078125 -1.1171875 C50.63078125 23.6328125 50.96078125 48.3828125 51.30078125 73.8828125 C53.61078125 74.2128125 55.92078125 74.5428125 58.30078125 74.8828125 C57.97078125 76.5328125 57.64078125 78.1828125 57.30078125 79.8828125 C40.80078125 79.8828125 24.30078125 79.8828125 7.30078125 79.8828125 C6.97078125 78.2328125 6.64078125 76.5828125 6.30078125 74.8828125 C8.61078125 74.5528125 10.92078125 74.2228125 13.30078125 73.8828125 C13.63078125 51.4428125 13.96078125 29.0028125 14.30078125 5.8828125 C11.99078125 5.8828125 9.68078125 5.8828125 7.30078125 5.8828125 C7.47996094 6.50027344 7.65914063 7.11773437 7.84375 7.75390625 C9.45408623 14.16597233 9.64312002 19.01926318 6.30078125 24.8828125 C3.53926361 27.95197932 0.36532753 30.65257973 -3.8359375 31.12109375 C-10.08476373 31.30291258 -13.71826479 30.76795659 -18.69921875 26.8828125 C-21.77598433 23.00871437 -23.48834055 18.83845023 -23.69921875 13.8828125 C-22.76171875 10.5078125 -22.76171875 10.5078125 -21.69921875 7.8828125 C-23.67921875 8.8728125 -23.67921875 8.8728125 -25.69921875 9.8828125 C-25.69921875 9.2228125 -25.69921875 8.5628125 -25.69921875 7.8828125 C-25.03921875 7.5528125 -24.37921875 7.2228125 -23.69921875 6.8828125 C-23.69921875 6.2228125 -23.69921875 5.5628125 -23.69921875 4.8828125 C-24.35921875 4.5528125 -25.01921875 4.2228125 -25.69921875 3.8828125 C-18.08119808 -1.3651573 -9.0042789 -3.72680719 0 0 Z " fill="#120F12" transform="translate(310.69921875,69.1171875)"/>
<path d="M0 0 C0 25.08 0 50.16 0 76 C4.62 76 9.24 76 14 76 C14 53.23 14 30.46 14 7 C11.36 7 8.72 7 6 7 C6.33 5.35 6.66 3.7 7 2 C8.10118164 1.96241577 8.10118164 1.96241577 9.22460938 1.92407227 C22.82910187 1.45447449 36.42113027 0.97734591 50 0 C50.495 3.465 50.495 3.465 51 7 C51.99 6.67 52.98 6.34 54 6 C54 6.66 54 7.32 54 8 C53.34 8 52.68 8 52 8 C51.34 9.32 50.68 10.64 50 12 C49.01 11.505 49.01 11.505 48 11 C48 8.03 48 5.06 48 2 C46.80375 2.33 45.6075 2.66 44.375 3 C38.85692956 4.26051769 33.47689158 4.11107746 27.84375 3.97265625 C25.09946328 3.66711162 25.09946328 3.66711162 24 5 C21.34536879 5.45459858 18.67810862 5.70243238 16 6 C16.495 6.495 16.495 6.495 17 7 C17.09429342 9.17805719 17.11742538 11.3592128 17.11352539 13.53930664 C17.11367142 14.22220261 17.11381744 14.90509857 17.1139679 15.60868835 C17.11326876 17.87587614 17.1054764 20.14298274 17.09765625 22.41015625 C17.09579207 23.97814387 17.09436817 25.54613207 17.09336853 27.11412048 C17.08954334 31.24876503 17.07971306 35.38337466 17.06866455 39.51800537 C17.05665582 44.47475717 17.05204819 49.43152061 17.04621124 54.38828278 C17.03650129 61.92554616 17.01734477 69.46273288 17 77 C27.23 77 37.46 77 48 77 C47.98839844 72.78734375 47.97679687 68.5746875 47.96484375 64.234375 C47.95841167 60.87299123 47.95298925 57.5116092 47.94824982 54.15022278 C47.94297174 50.60322838 47.93591956 47.05625792 47.92456055 43.50927734 C47.91160577 39.43847422 47.90676124 35.36769641 47.90234375 31.296875 C47.89718246 30.02696716 47.89202118 28.75705933 47.88670349 27.44866943 C47.88662796 26.26774719 47.88655243 25.08682495 47.88647461 23.87011719 C47.884254 22.83087097 47.88203339 21.79162476 47.87974548 20.72088623 C47.98625015 18.31110502 48.30592919 16.29963193 49 14 C49.66 14 50.32 14 51 14 C51.33 13.01 51.66 12.02 52 11 C52.66 11 53.32 11 54 11 C53.51104248 12.21872803 53.02208496 13.43745605 52.51831055 14.69311523 C50.50825588 20.75577929 50.62225621 26.57766789 50.70703125 32.91015625 C50.71127609 34.11820419 50.71552094 35.32625214 50.71989441 36.57090759 C50.73658906 40.40167212 50.77422526 44.23189642 50.8125 48.0625 C50.82755869 50.67121632 50.84124502 53.27994095 50.85351562 55.88867188 C50.88646258 62.25932042 50.93818193 68.62956884 51 75 C54.3 75.33 57.6 75.66 61 76 C60.67 77.65 60.34 79.3 60 81 C26.01 81 -7.98 81 -43 81 C-43.495 78.525 -43.495 78.525 -44 76 C-40.535 75.505 -40.535 75.505 -37 75 C-36.67 52.56 -36.34 30.12 -36 7 C-38.64 7 -41.28 7 -44 7 C-44 5.35 -44 3.7 -44 2 C-43.22922119 1.97494385 -42.45844238 1.9498877 -41.66430664 1.92407227 C-38.13024164 1.80714506 -34.59638084 1.68486177 -31.0625 1.5625 C-29.85013672 1.52318359 -28.63777344 1.48386719 -27.38867188 1.44335938 C-21.63976408 1.24082333 -15.95438863 1.01116728 -10.25561523 0.19897461 C-6.84965958 -0.10147499 -3.41918175 0 0 0 Z M-11.8359375 2.5 C-15.38005322 3.31885706 -18.91999042 3.01512085 -22.5390625 2.9375 C-25.47671333 2.99055013 -28.29778282 3.2012399 -31.21630859 3.50390625 C-32.56165176 3.64227905 -32.56165176 3.64227905 -33.93417358 3.78344727 C-34.95675766 3.89064087 -34.95675766 3.89064087 -36 4 C-35.87967597 10.30908024 -35.75535453 16.61806606 -35.62768555 22.92700195 C-35.5849806 25.06304916 -35.54327669 27.19911666 -35.50268555 29.33520508 C-35.25622564 42.26370087 -34.87028994 55.16941026 -34.19897461 68.08325195 C-33.98956884 72.20533385 -33.9915611 73.96624442 -35 78 C-19.82 78 -4.64 78 11 78 C11 77.67 11 77.34 11 77 C7.04 76.67 3.08 76.34 -1 76 C-2.14465838 72.56602485 -2.15979407 69.85638646 -2.20532227 66.23364258 C-2.21522186 65.55045456 -2.22512146 64.86726654 -2.23532104 64.16337585 C-2.26688679 61.90712947 -2.2916739 59.65086203 -2.31640625 57.39453125 C-2.33698004 55.82939611 -2.35797662 54.26426648 -2.37937927 52.69914246 C-2.43455609 48.58102884 -2.48398471 44.46286544 -2.53222656 40.34466553 C-2.58247365 36.14184136 -2.63814297 31.93908942 -2.69335938 27.73632812 C-2.80088726 19.4909465 -2.90234413 11.24550442 -3 3 C-6.09707898 2.14563339 -8.65772552 1.6344444 -11.8359375 2.5 Z " fill="#141114" transform="translate(231,68)"/>
<path d="M0 0 C2.31 0.33 4.62 0.66 7 1 C7.00423194 1.54353024 7.00846388 2.08706049 7.01282406 2.64706135 C7.11608902 15.86696156 7.22478255 29.08680752 7.33933926 42.30661488 C7.39457309 48.69959077 7.4479939 55.09257124 7.49731445 61.4855957 C7.54495111 67.6517969 7.59729378 73.81794162 7.65294075 79.98407555 C7.67336745 82.34005012 7.69208 84.69604018 7.70907402 87.05204201 C7.73311094 90.34440348 7.76316667 93.63665786 7.79467773 96.92895508 C7.8004332 97.90934753 7.80618866 98.88973999 7.81211853 99.89984131 C7.82190735 100.79586563 7.83169617 101.69188995 7.84178162 102.61506653 C7.84823417 103.3939816 7.85468672 104.17289667 7.8613348 104.97541523 C7.92905842 107.20494952 7.92905842 107.20494952 9 110 C10.98 110 12.96 110 15 110 C14.67 111.65 14.34 113.3 14 115 C5.30085217 116.33604659 -3.30616491 115.89096784 -12.0625 115.5625 C-13.61130777 115.50917109 -15.16013596 115.4564318 -16.70898438 115.40429688 C-20.4729262 115.27633041 -24.23650151 115.14037916 -28 115 C-28.66 113.68 -29.32 112.36 -30 111 C-32.46800047 112.15173355 -34.04783565 113.04783565 -36 115 C-45.17288313 117.37470578 -52.89341947 116.5570005 -61.19921875 111.95703125 C-70.12873539 105.7175782 -74.46133234 96.59977068 -76.578125 86.14453125 C-78.50188234 71.80541401 -76.85193529 58.84835087 -68.5625 46.70703125 C-66.85444576 44.84098199 -65.31708536 43.9737751 -63 43 C-63 42.34 -63 41.68 -63 41 C-54.78365833 36.03596024 -48.18531869 33.50735845 -38.5 33.8125 C-35.695 33.874375 -32.89 33.93625 -30 34 C-29.67 25.42 -29.34 16.84 -29 8 C-31.64 8 -34.28 8 -37 8 C-37 6.35 -37 4.7 -37 3 C-25.78 2.67 -14.56 2.34 -3 2 C-8.78207836 6.33655877 -13.84972 6.15099674 -20.875 6.0625 C-21.56335938 6.05798828 -22.25171875 6.05347656 -22.9609375 6.04882812 C-24.64066335 6.03716336 -26.32034375 6.01923271 -28 6 C-27.505 7.485 -27.505 7.485 -27 9 C-26.984115 10.99383492 -27.03364099 12.98848932 -27.12109375 14.98046875 C-27.16943359 16.14384766 -27.21777344 17.30722656 -27.26757812 18.50585938 C-27.32365234 19.72080078 -27.37972656 20.93574219 -27.4375 22.1875 C-27.48970703 23.41404297 -27.54191406 24.64058594 -27.59570312 25.90429688 C-27.72548401 28.93645018 -27.86045431 31.96828294 -28 35 C-27.01 35.495 -27.01 35.495 -26 36 C-26.99 36.495 -26.99 36.495 -28 37 C-27.83832336 37.70511719 -27.67664673 38.41023438 -27.5100708 39.13671875 C-26.98421931 42.08858489 -26.85924452 44.81564892 -26.83886719 47.8125 C-26.82925964 48.9571875 -26.8196521 50.101875 -26.80975342 51.28125 C-26.80550354 52.5084375 -26.80125366 53.735625 -26.796875 55 C-26.79117493 56.2684375 -26.78547485 57.536875 -26.77960205 58.84375 C-26.77016466 61.52347397 -26.76326069 64.20308628 -26.75976562 66.8828125 C-26.75427192 70.30925529 -26.73021122 73.73530254 -26.70179367 77.16162109 C-26.67865552 80.44105059 -26.67671801 83.72050031 -26.671875 87 C-26.6595282 88.2271875 -26.6471814 89.454375 -26.63446045 90.71875 C-26.63746155 91.8634375 -26.64046265 93.008125 -26.64355469 94.1875 C-26.63808624 95.69376953 -26.63808624 95.69376953 -26.63250732 97.23046875 C-27.05878064 100.44298796 -28.17154756 102.3561413 -30 105 C-29.505 105.598125 -29.01 106.19625 -28.5 106.8125 C-27 109 -27 109 -27 112 C-11.655 111.505 -11.655 111.505 4 111 C4.70245866 107.48770669 5.1244739 104.9441239 5.12025452 101.4884491 C5.12162918 100.61491791 5.12300385 99.74138672 5.12442017 98.84138489 C5.12082489 97.8962352 5.11722961 96.95108551 5.11352539 95.97729492 C5.11367142 94.97194702 5.11381744 93.96659912 5.1139679 92.93078613 C5.11327228 89.61399158 5.10549625 86.29725347 5.09765625 82.98046875 C5.09579083 80.67832978 5.09436751 78.37619041 5.09336853 76.0740509 C5.08955316 70.0192861 5.0797312 63.96454535 5.06866455 57.90979004 C5.05842939 51.72957688 5.0538664 45.54935982 5.04882812 39.36914062 C5.03810808 27.24608319 5.02104339 15.1230436 5 3 C3.35 2.34 1.7 1.68 0 1 C0 0.67 0 0.34 0 0 Z M-68 47.875 C-72.69095977 55.20462464 -73.83542737 63.51525656 -75 72 C-74.34 72.33 -73.68 72.66 -73 73 C-72.01 72.505 -72.01 72.505 -71 72 C-71.474375 72.61875 -71.94875 73.2375 -72.4375 73.875 C-75.34080507 79.68161013 -75.73553426 85.56349324 -73.75 91.75 C-71.81736457 96.72214389 -69.99884368 101.34888186 -66 105 C-65.34 105.99 -64.68 106.98 -64 108 C-62.68 108 -61.36 108 -60 108 C-60 108.66 -60 109.32 -60 110 C-59.01 110.33 -58.02 110.66 -57 111 C-56.505 111.99 -56.505 111.99 -56 113 C-53.55369039 113.54740075 -53.55369039 113.54740075 -50.6875 113.75 C-49.72199219 113.84796875 -48.75648438 113.9459375 -47.76171875 114.046875 C-44.88620307 113.99806851 -43.41819854 113.49342428 -41 112 C-41.99 111.505 -41.99 111.505 -43 111 C-43.04654352 102.56739 -43.08198026 94.13483457 -43.10362434 85.70212746 C-43.11401759 81.78558406 -43.12809428 77.86912919 -43.15087891 73.95263672 C-43.17276768 70.16601071 -43.18460207 66.37946933 -43.18975449 62.59278488 C-43.19342169 61.15525355 -43.20058197 59.71772633 -43.21146011 58.28023148 C-43.26927936 50.31576527 -43.02810589 42.75009239 -41 35 C-50.70738821 34.2897033 -61.53782739 40.8449395 -68 47.875 Z M-40 38 C-40 61.76 -40 85.52 -40 110 C-34.55114688 107.82045875 -31.66992005 106.23737026 -29 101 C-28.18875456 96.31289459 -28.30088224 91.71719114 -28.4140625 86.97265625 C-28.42526943 85.61504501 -28.43380254 84.25740931 -28.43978882 82.89976501 C-28.46257104 79.34650297 -28.5213963 75.7947399 -28.5880127 72.24206543 C-28.64966851 68.60884881 -28.67685304 64.97538716 -28.70703125 61.34179688 C-28.7711547 54.22725567 -28.87340064 47.11372629 -29 40 C-30.258125 39.67 -31.51625 39.34 -32.8125 39 C-33.52019531 38.814375 -34.22789062 38.62875 -34.95703125 38.4375 C-37.14070009 37.8952993 -37.14070009 37.8952993 -40 38 Z " fill="#100D11" transform="translate(590,34)"/>
<path d="M0 0 C4.01699935 2.46995662 7.03116256 5.42563916 9.5 9.4375 C10.75531969 15.87101339 10.43794924 20.51319871 7.27734375 26.23828125 C4.62902151 29.89086025 1.18158492 31.60613836 -3 33 C-8.92233702 33.60227156 -12.35028461 32.92991642 -17.234375 29.46875 C-20.77781299 26.52111132 -22.73497814 24.04097296 -23.33984375 19.3828125 C-23.52459839 13.92885554 -23.33353431 9.51640132 -20 5 C-13.72836725 -0.44134568 -8.17797953 -2.17435202 0 0 Z " fill="#221D21" transform="translate(350,30)"/>
<path d="M0 0 C3.46909068 4.21916433 4.90714902 7.52179247 5 13 C3.96181373 19.25097418 1.66777829 22.9991224 -3.28125 26.90625 C-7.2386142 29.42457267 -11.46364127 29.57412027 -16 29 C-20.38721209 27.61164174 -23.32392929 25.76502739 -26.375 22.3125 C-30.96565702 12.95462223 -30.96565702 12.95462223 -29.21484375 7.59765625 C-26.31677049 1.99719956 -22.70292976 -2.63576272 -16.625 -4.875 C-9.82778408 -5.19867695 -5.28731751 -4.44615336 0 0 Z " fill="#211D20" transform="translate(225,34)"/>
<path d="M0 0 C-1.6875 0.6875 -1.6875 0.6875 -4 1 C-5.68208635 0.02616054 -7.34738161 -0.97695052 -9 -2 C-10.98 -2.33 -12.96 -2.66 -15 -3 C-15.33 10.53 -15.66 24.06 -16 38 C-0.16 38.495 -0.16 38.495 16 39 C16 34.05 16 29.1 16 24 C16.33 24 16.66 24 17 24 C17.223293 26.06093408 17.42802887 28.1238839 17.625 30.1875 C17.74101562 31.33605469 17.85703125 32.48460937 17.9765625 33.66796875 C18 37 18 37 16 42 C1.48 42.33 -13.04 42.66 -28 43 C-28 52.57 -28 62.14 -28 72 C-15.85685473 71.28846846 -15.85685473 71.28846846 -5 67 C-4.67 66.34 -4.34 65.68 -4 65 C-3.2575 64.5875 -2.515 64.175 -1.75 63.75 C2.11020222 61.29350768 4.93153542 58.13692916 7 54 C8.65 54.33 10.3 54.66 12 55 C10.85423456 61.52651197 5.20494171 66.22474838 0.25 70.25 C-9.11603751 76.80443543 -18.74741922 78.12874905 -30 77 C-40.18975081 75.0759018 -48.67781143 70.83673483 -55.625 63.0625 C-56.07875 62.381875 -56.5325 61.70125 -57 61 C-54 61 -54 61 -52.125 62.8125 C-51.42375 63.534375 -50.7225 64.25625 -50 65 C-49.113125 65.515625 -48.22625 66.03125 -47.3125 66.5625 C-45 68 -45 68 -44 71 C-42.515 70.505 -42.515 70.505 -41 70 C-38.97481509 70.9479589 -36.97522846 71.95191959 -35 73 C-33.68 73.33 -32.36 73.66 -31 74 C-30.67 62.78 -30.34 51.56 -30 40 C-28.515 39.505 -28.515 39.505 -27 39 C-27.99 38.34 -28.98 37.68 -30 37 C-31.25282725 33.24151826 -31.12381835 29.74509081 -31.09765625 25.83203125 C-31.0962413 25.03721848 -31.09482635 24.2424057 -31.09336853 23.42350769 C-31.08777378 20.88646675 -31.07522228 18.34951425 -31.0625 15.8125 C-31.05748432 14.09179815 -31.05292153 12.37109492 -31.04882812 10.65039062 C-31.03780607 6.4335597 -31.02054506 2.21679484 -31 -2 C-34.961558 -3.32051933 -36.25328148 -2.25678816 -40 -0.5625 C-45.69754768 2 -45.69754768 2 -49 2 C-42.39047129 -4.38161393 -33.14195608 -6.61186568 -24.1875 -7.1015625 C-15.49909101 -6.82472594 -7.19132703 -4.96544009 0 0 Z M-29 0 C-29.26667539 2.83727325 -29.34791234 5.45383045 -29.29296875 8.2890625 C-29.28872391 9.10748627 -29.28447906 9.92591003 -29.28010559 10.76913452 C-29.26328679 13.38808836 -29.22562974 16.00627802 -29.1875 18.625 C-29.17245726 20.3984264 -29.15876814 22.17186484 -29.14648438 23.9453125 C-29.11337292 28.2971703 -29.06156952 32.64845551 -29 37 C-25.04 37 -21.08 37 -17 37 C-17 24.46 -17 11.92 -17 -1 C-25.34149382 -2.90353174 -25.34149382 -2.90353174 -29 0 Z " fill="#0E0C0F" transform="translate(494,74)"/>
<path d="M0 0 C9.02272211 6.67459566 14.0220483 16.18799473 16.21875 27.03515625 C18.31890625 41.33237379 15.57154788 54.92083695 7.19140625 66.8515625 C1.67244311 73.70229998 -4.73151051 76.98752128 -13.15625 79.22265625 C-19.34815411 79.61788417 -24.98623554 79.63165914 -31.09375 78.41015625 C-31.09375 87.65015625 -31.09375 96.89015625 -31.09375 106.41015625 C-28.45375 106.41015625 -25.81375 106.41015625 -23.09375 106.41015625 C-23.09375 107.73015625 -23.09375 109.05015625 -23.09375 110.41015625 C-38.27375 110.41015625 -53.45375 110.41015625 -69.09375 110.41015625 C-69.09375 110.08015625 -69.09375 109.75015625 -69.09375 109.41015625 C-55.89375 109.08015625 -42.69375 108.75015625 -29.09375 108.41015625 C-30.08375 108.08015625 -31.07375 107.75015625 -32.09375 107.41015625 C-32.26103213 103.29865738 -32.42162468 99.18695819 -32.57592773 95.07495117 C-32.62941026 93.67513944 -32.68474434 92.27539721 -32.74194336 90.87573242 C-32.82367949 88.86786665 -32.89828025 86.85971438 -32.97265625 84.8515625 C-33.0197876 83.64185791 -33.06691895 82.43215332 -33.11547852 81.18579102 C-33.09375 78.41015625 -33.09375 78.41015625 -32.09375 77.41015625 C-30.24087498 77.33789123 -28.38541122 77.32634405 -26.53125 77.34765625 C-25.51933594 77.35667969 -24.50742188 77.36570312 -23.46484375 77.375 C-22.68238281 77.38660156 -21.89992187 77.39820313 -21.09375 77.41015625 C-23.29894686 76.84712726 -25.48161756 76.33627672 -27.71875 75.91015625 C-30.09375 75.41015625 -30.09375 75.41015625 -32.09375 74.41015625 C-32.09375 54.94015625 -32.09375 35.47015625 -32.09375 15.41015625 C-31.76375 15.41015625 -31.43375 15.41015625 -31.09375 15.41015625 C-31.09375 34.55015625 -31.09375 53.69015625 -31.09375 73.41015625 C-27.46375 73.74015625 -23.83375 74.07015625 -20.09375 74.41015625 C-20.42375 51.31015625 -20.75375 28.21015625 -21.09375 4.41015625 C-26.70640981 9.28973571 -26.70640981 9.28973571 -32.09375 14.41015625 C-32.58875 12.92515625 -32.58875 12.92515625 -33.09375 11.41015625 C-32.43375 11.08015625 -31.77375 10.75015625 -31.09375 10.41015625 C-31.58875 5.95515625 -31.58875 5.95515625 -32.09375 1.41015625 C-31.43375 2.07015625 -30.77375 2.73015625 -30.09375 3.41015625 C-29.248125 2.62640625 -28.4025 1.84265625 -27.53125 1.03515625 C-19.7760291 -5.31330365 -8.52393163 -4.87331337 0 0 Z M-17.09375 -1.58984375 C-18.29167885 0.80601395 -18.20832381 2.26257225 -18.19140625 4.93579102 C-18.18810303 5.8733876 -18.1847998 6.81098419 -18.18139648 7.7769928 C-18.17309814 8.7916008 -18.1647998 9.8062088 -18.15625 10.8515625 C-18.15246338 11.88957504 -18.14867676 12.92758759 -18.14477539 13.99705505 C-18.13252456 17.32229684 -18.11388967 20.64745342 -18.09375 23.97265625 C-18.06728616 28.34895588 -18.04722944 32.72521347 -18.03125 37.1015625 C-18.02295166 38.11819473 -18.01465332 39.13482697 -18.00610352 40.18226624 C-18.00280029 41.11671066 -17.99949707 42.05115509 -17.99609375 43.01391602 C-17.99085693 43.84061295 -17.98562012 44.66730988 -17.98022461 45.51905823 C-18.09375 47.41015625 -18.09375 47.41015625 -19.09375 48.41015625 C-19.18044432 49.89887485 -19.20078494 51.39160125 -19.19140625 52.8828125 C-19.18818359 53.78193359 -19.18496094 54.68105469 -19.18164062 55.60742188 C-19.17326172 56.55294922 -19.16488281 57.49847656 -19.15625 58.47265625 C-19.15173828 59.42205078 -19.14722656 60.37144531 -19.14257812 61.34960938 C-19.1307511 63.7031869 -19.11427025 66.05664102 -19.09375 68.41015625 C-18.76375 68.41015625 -18.43375 68.41015625 -18.09375 68.41015625 C-17.784375 69.54453125 -17.475 70.67890625 -17.15625 71.84765625 C-16.46450469 75.19790724 -16.46450469 75.19790724 -15.09375 76.41015625 C-7.0362116 77.04212005 -2.51982271 73.99974469 3.390625 69.0078125 C5.04093581 67.26818074 5.85327674 65.54733502 6.90625 63.41015625 C7.89625 62.91515625 7.89625 62.91515625 8.90625 62.41015625 C10.01992203 60.08597114 10.9767356 57.80684535 11.90625 55.41015625 C12.18984375 54.79398438 12.4734375 54.1778125 12.765625 53.54296875 C14.91332249 48.33581541 15.19286623 43.4084526 15.21875 37.84765625 C15.22414795 37.13947754 15.2295459 36.43129883 15.23510742 35.70166016 C15.14848562 29.19824604 14.02163116 23.19586412 10.90625 17.41015625 C10.90625 16.75015625 10.90625 16.09015625 10.90625 15.41015625 C10.24625 15.41015625 9.58625 15.41015625 8.90625 15.41015625 C8.6175 14.66765625 8.32875 13.92515625 8.03125 13.16015625 C7.66 12.25265625 7.28875 11.34515625 6.90625 10.41015625 C6.65875 9.75015625 6.41125 9.09015625 6.15625 8.41015625 C2.33526948 2.29658742 -2.72290808 0.60749297 -9.41015625 -1.109375 C-12.03622081 -1.57954376 -14.43270878 -1.68127193 -17.09375 -1.58984375 Z " fill="#0F0D11" transform="translate(170.09375,70.58984375)"/>
<path d="M0 0 C11.12623511 0.13596214 11.12623511 0.13596214 15.4375 4.3125 C17.7926545 7.99242891 18.69825153 11.37414224 18.11328125 15.72265625 C16.66664271 20.73153768 14.52344851 23.95992687 10.4375 27.3125 C6.57210279 29.24519861 2.26964023 28.88199297 -1.76171875 27.62890625 C-5.46856661 25.97761173 -7.27164439 24.74878341 -9.5625 21.3125 C-10.5625 18.3125 -10.5625 18.3125 -10.5625 14.3125 C-9.9025 14.3125 -9.2425 14.3125 -8.5625 14.3125 C-8.665625 13.44625 -8.76875 12.58 -8.875 11.6875 C-8.44791057 7.07493413 -6.71207658 5.61955541 -3.5625 2.3125 C-4.8825 1.9825 -6.2025 1.6525 -7.5625 1.3125 C-5.66422956 -0.58577044 -2.53285826 0.0510332 0 0 Z " fill="#221D22" transform="translate(299.5625,69.6875)"/>
<path d="M0 0 C1.65 0.33 3.3 0.66 5 1 C5 11.56 5 22.12 5 33 C10.28 33 15.56 33 21 33 C21 34.65 21 36.3 21 38 C16.05 38.33 11.1 38.66 6 39 C6 59.79 6 80.58 6 102 C9.00811206 98.23985992 10.56021266 96.26687912 12.1875 92.0625 C12.52265625 91.19753906 12.8578125 90.33257812 13.203125 89.44140625 C14.12932056 86.86586553 14.12932056 86.86586553 14.4375 83.5 C14.623125 82.675 14.80875 81.85 15 81 C17.5625 79.625 17.5625 79.625 20 79 C21.54808746 84.62940894 20.19647493 87.88440038 18 93 C17.43022652 94.49725229 16.86742747 95.99718206 16.3125 97.5 C15.879375 98.655 15.44625 99.81 15 101 C14.34 101 13.68 101 13 101 C12.63261719 101.88945312 12.63261719 101.88945312 12.2578125 102.796875 C10.79047891 105.36698726 9.27707775 106.54529966 6.875 108.25 C5.78832031 109.03117187 5.78832031 109.03117187 4.6796875 109.828125 C4.12539063 110.21484375 3.57109375 110.6015625 3 111 C2.34 110.67 1.68 110.34 1 110 C2.32 108.68 3.64 107.36 5 106 C4.01 105.67 3.02 105.34 2 105 C2 83.55 2 62.1 2 40 C1.34 39.67 0.68 39.34 0 39 C1.65 38.01 3.3 37.02 5 36 C4.51213013 35.1790686 4.51213013 35.1790686 4.0144043 34.34155273 C2.8112009 31.56419442 2.75650351 29.55580486 2.76953125 26.53515625 C2.77146484 25.48779297 2.77339844 24.44042969 2.77539062 23.36132812 C2.78763672 22.27271484 2.79988281 21.18410156 2.8125 20.0625 C2.81314453 18.97775391 2.81378906 17.89300781 2.81445312 16.77539062 C2.84069773 12.03094871 2.94315707 7.64220234 4 3 C2.68 3 1.36 3 0 3 C0.309375 4.36125 0.309375 4.36125 0.625 5.75 C1.0127245 9.11027897 0.80411967 10.24075815 -1 13 C-1.66 13 -2.32 13 -3 13 C-2.01 8.71 -1.02 4.42 0 0 Z " fill="#110E12" transform="translate(409,37)"/>
<path d="M0 0 C0.33 0.66 0.66 1.32 1 2 C-0.22976562 2.09087891 -0.22976562 2.09087891 -1.484375 2.18359375 C-3.10085937 2.30927734 -3.10085937 2.30927734 -4.75 2.4375 C-6.35101563 2.55931641 -6.35101563 2.55931641 -7.984375 2.68359375 C-10.44771673 2.94205318 -12.61954866 3.36895582 -15 4 C-14.99777939 5.18270981 -14.99555878 6.36541962 -14.99327087 7.58396912 C-14.97296551 18.75071842 -14.95799226 29.91746396 -14.94818783 41.08422756 C-14.94297778 46.82463287 -14.9359143 52.56502322 -14.92456055 58.30541992 C-14.91366485 63.84915882 -14.90770902 69.39288337 -14.90512276 74.93663216 C-14.90328054 77.0476307 -14.89968319 79.15862849 -14.89426994 81.2696209 C-14.88697078 84.23502145 -14.88601279 87.20036333 -14.88647461 90.16577148 C-14.88287933 91.0310849 -14.87928406 91.89639832 -14.87557983 92.78793335 C-14.88476172 98.2658859 -15.31043631 103.56445869 -16 109 C-18.97 109 -21.94 109 -25 109 C-25 109.66 -25 110.32 -25 111 C-23.68 111.33 -22.36 111.66 -21 112 C-22.65 112 -24.3 112 -26 112 C-26 110.68 -26 109.36 -26 108 C-23.36 108 -20.72 108 -18 108 C-18 74.34 -18 40.68 -18 6 C-20.64 6 -23.28 6 -26 6 C-26 4.35 -26 2.7 -26 1 C-17.42 0.67 -8.84 0.34 0 0 Z " fill="#131114" transform="translate(121,69)"/>
<path d="M0 0 C5.01667077 1.28333438 7.62901484 3.0823686 11 7 C12.0209375 8.0828125 12.0209375 8.0828125 13.0625 9.1875 C14.42640768 13.27922305 13.2463437 15.8326762 11.5 19.67578125 C9.48076662 22.80454131 7.5278476 24.20681973 4.10546875 25.59375 C0.57823384 26.27432965 -1.71982128 25.36674113 -5 24 C-5.33 22.68 -5.66 21.36 -6 20 C-6.66 20 -7.32 20 -8 20 C-9.0750154 14.73242453 -9.19869398 10.97096031 -7 6 C-3.9375 4.25 -3.9375 4.25 -1 3 C-0.67 2.01 -0.34 1.02 0 0 Z " fill="#221D21" transform="translate(80,74)"/>
<path d="M0 0 C3.17680188 1.65349934 5.2123101 3.9616815 7.375 6.8125 C8.70393201 11.46376202 8.70742312 15.48409332 6.6875 19.8125 C5.22273699 21.71126687 3.70952818 23.32878057 2 25 C7.93371659 26.7261721 13.48226686 27.21805859 19.625 27.25 C20.34099365 27.25902344 21.0569873 27.26804688 21.79467773 27.27734375 C26.54805753 27.25106081 30.48566045 26.49293119 35 25 C32.525 22.03 32.525 22.03 30 19 C34.95696581 20.23924145 37.11658466 21.78577758 40 26 C41.32 25.34 42.64 24.68 44 24 C44 24.99 44 25.98 44 27 C42.845 27.61875 41.69 28.2375 40.5 28.875 C39.8503125 29.22304687 39.200625 29.57109375 38.53125 29.9296875 C32.36185548 32.53835123 26.4373073 33.36488829 19.8125 33.3125 C18.71047241 33.30621582 18.71047241 33.30621582 17.58618164 33.29980469 C6.00816896 33.06364689 -6.53782286 30.46217714 -15 22 C-17.47626167 18.72566605 -19.16636974 15.84855271 -18.7890625 11.65625 C-16.10659159 2.18870562 -9.65994867 -1.97589859 0 0 Z M-14.25 5.6875 C-16.57854742 8.76450909 -16.79207303 11.18800546 -17 15 C-16.67 15.99 -16.34 16.98 -16 18 C-15.34 18.33 -14.68 18.66 -14 19 C-13.566875 19.804375 -13.13375 20.60875 -12.6875 21.4375 C-10.70065922 24.45455451 -9.43107361 25.05645476 -6 26 C-5.01 26 -4.02 26 -3 26 C-3 25.01 -3 24.02 -3 23 C-1.35 22.67 0.3 22.34 2 22 C2 21.34 2 20.68 2 20 C2.9590625 19.6596875 2.9590625 19.6596875 3.9375 19.3125 C6.17413994 18.16155151 6.17413994 18.16155151 6.9375 15.8125 C7.04777865 10.84996091 4.69210612 7.03815918 2 3 C-4.1990584 1.1853444 -9.09518474 1.82138856 -14.25 5.6875 Z " fill="#0B090C" transform="translate(40,118)"/>
<path d="M0 0 C0.66 0 1.32 0 2 0 C1.51104248 1.21872803 1.02208496 2.43745605 0.51831055 3.69311523 C-1.49174412 9.75577929 -1.37774379 15.57766789 -1.29296875 21.91015625 C-1.28872391 23.11820419 -1.28447906 24.32625214 -1.28010559 25.57090759 C-1.26341094 29.40167212 -1.22577474 33.23189642 -1.1875 37.0625 C-1.17244131 39.67121632 -1.15875498 42.27994095 -1.14648438 44.88867188 C-1.11353742 51.25932042 -1.06181807 57.62956884 -1 64 C2.3 64.33 5.6 64.66 9 65 C8.67 66.65 8.34 68.3 8 70 C-25.99 70 -59.98 70 -95 70 C-95.495 67.525 -95.495 67.525 -96 65 C-92.535 64.505 -92.535 64.505 -89 64 C-88.67 64.66 -88.34 65.32 -88 66 C-90.97 66.495 -90.97 66.495 -94 67 C-93.01 67 -92.02 67 -91 67 C-88.43963777 67.03877506 -85.8793762 67.08014762 -83.3190918 67.12353516 C-75.33992112 67.25603251 -67.36063445 67.37837098 -59.38121319 67.49477577 C-54.55229442 67.5656369 -49.72349698 67.64034032 -44.89477539 67.72363281 C-40.22301915 67.80405694 -35.55120939 67.87430356 -30.87919044 67.93757248 C-29.10058759 67.96344878 -27.32203394 67.99297932 -25.54355431 68.02626419 C-23.05209979 68.07228842 -20.56078386 68.10526371 -18.0690918 68.13525391 C-17.33796677 68.1517952 -16.60684174 68.16833649 -15.8535614 68.18537903 C-11.50864343 68.22128665 -8.03684116 67.60385683 -4 66 C-4.00222061 65.26972595 -4.00444122 64.5394519 -4.00672913 63.78704834 C-4.02677548 56.90114281 -4.04199632 50.01524164 -4.05181217 43.12931442 C-4.05702825 39.58928939 -4.06410276 36.04928849 -4.07543945 32.50927734 C-4.08839423 28.43847422 -4.09323876 24.36769641 -4.09765625 20.296875 C-4.10281754 19.02696716 -4.10797882 17.75705933 -4.11329651 16.44866943 C-4.11337204 15.26774719 -4.11344757 14.08682495 -4.11352539 12.87011719 C-4.115746 11.83087097 -4.11796661 10.79162476 -4.12025452 9.72088623 C-4.01374985 7.31110502 -3.69407081 5.29963193 -3 3 C-2.34 3 -1.68 3 -1 3 C-0.67 2.01 -0.34 1.02 0 0 Z " fill="#121013" transform="translate(283,79)"/>
<path d="M0 0 C2.31 0.33 4.62 0.66 7 1 C7.00423194 1.54353024 7.00846388 2.08706049 7.01282406 2.64706135 C7.11608902 15.86696156 7.22478255 29.08680752 7.33933926 42.30661488 C7.39457309 48.69959077 7.4479939 55.09257124 7.49731445 61.4855957 C7.54495111 67.6517969 7.59729378 73.81794162 7.65294075 79.98407555 C7.67336745 82.34005012 7.69208 84.69604018 7.70907402 87.05204201 C7.73311094 90.34440348 7.76316667 93.63665786 7.79467773 96.92895508 C7.80331093 98.39954376 7.80331093 98.39954376 7.81211853 99.89984131 C7.82190735 100.79586563 7.83169617 101.69188995 7.84178162 102.61506653 C7.84823417 103.3939816 7.85468672 104.17289667 7.8613348 104.97541523 C7.92905842 107.20494952 7.92905842 107.20494952 9 110 C10.98 110 12.96 110 15 110 C14.67 111.65 14.34 113.3 14 115 C5.30085217 116.33604659 -3.30616491 115.89096784 -12.0625 115.5625 C-13.61130777 115.50917109 -15.16013596 115.4564318 -16.70898438 115.40429688 C-20.4729262 115.27633041 -24.23650151 115.14037916 -28 115 C-28.433125 114.0409375 -28.433125 114.0409375 -28.875 113.0625 C-29.82823451 110.84793921 -29.82823451 110.84793921 -32 110 C-31.505 109.01 -31.505 109.01 -31 108 C-29.68 108.33 -28.36 108.66 -27 109 C-27 109.99 -27 110.98 -27 112 C-11.655 111.505 -11.655 111.505 4 111 C4.70245866 107.48770669 5.1244739 104.9441239 5.12025452 101.4884491 C5.12162918 100.61491791 5.12300385 99.74138672 5.12442017 98.84138489 C5.12082489 97.8962352 5.11722961 96.95108551 5.11352539 95.97729492 C5.11367142 94.97194702 5.11381744 93.96659912 5.1139679 92.93078613 C5.11327228 89.61399158 5.10549625 86.29725347 5.09765625 82.98046875 C5.09579083 80.67832978 5.09436751 78.37619041 5.09336853 76.0740509 C5.08955316 70.0192861 5.0797312 63.96454535 5.06866455 57.90979004 C5.05842939 51.72957688 5.0538664 45.54935982 5.04882812 39.36914062 C5.03810808 27.24608319 5.02104339 15.1230436 5 3 C2.525 2.01 2.525 2.01 0 1 C0 0.67 0 0.34 0 0 Z " fill="#0F0C10" transform="translate(590,34)"/>
<path d="M0 0 C0.33 24.75 0.66 49.5 1 75 C3.31 75.33 5.62 75.66 8 76 C7.67 77.65 7.34 79.3 7 81 C-9.5 81 -26 81 -43 81 C-43.495 78.525 -43.495 78.525 -44 76 C-43.34 76 -42.68 76 -42 76 C-41.67 76.66 -41.34 77.32 -41 78 C-25.16 78.33 -9.32 78.66 7 79 C7 78.34 7 77.68 7 77 C4.36 77 1.72 77 -1 77 C-1.33 52.58 -1.66 28.16 -2 3 C-4.97 3 -7.94 3 -11 3 C-11.33 3.33 -11.66 3.66 -12 4 C-14.33297433 4.04092937 -16.66705225 4.04241723 -19 4 C-19 3.34 -19 2.68 -19 2 C-15 0 -15 0 0 0 Z " fill="#080708" transform="translate(361,68)"/>
<path d="M0 0 C2.97 0 5.94 0 9 0 C9 33.99 9 67.98 9 103 C8.34 103 7.68 103 7 103 C6.67 70 6.34 37 6 3 C3.03 3 0.06 3 -3 3 C-2.01 2.01 -1.02 1.02 0 0 Z " fill="#1C171D" transform="translate(587,36)"/>
<path d="M0 0 C0.66 0.66 1.32 1.32 2 2 C0.02 2.33 -1.96 2.66 -4 3 C-3.01 3 -2.02 3 -1 3 C1.58148212 3.01848446 4.162928 3.03850143 6.74438477 3.06005859 C7.53164948 3.06659958 8.31891418 3.07314056 9.1300354 3.07987976 C16.36211534 3.14125321 23.59408449 3.21257397 30.8260355 3.28752708 C35.68632183 3.33760982 40.54658477 3.38395398 45.40698242 3.421875 C50.10487478 3.45865391 54.80258303 3.50498361 59.50031853 3.55806351 C61.29330167 3.57663503 63.08632419 3.59173273 64.87936592 3.60334396 C67.3814408 3.62014104 69.8830897 3.64915623 72.38500977 3.68115234 C73.1305159 3.68331253 73.87602203 3.68547272 74.64411926 3.68769836 C79.77188523 3.77188523 79.77188523 3.77188523 82 6 C53.29 6 24.58 6 -5 6 C-5.33 4.35 -5.66 2.7 -6 1 C-3.125 0.375 -3.125 0.375 0 0 Z " fill="#050506" transform="translate(193,143)"/>
<path d="M0 0 C0 23.1 0 46.2 0 70 C-0.33 70 -0.66 70 -1 70 C-1 47.23 -1 24.46 -1 1 C-7.51344075 2.44306408 -7.51344075 2.44306408 -14 4 C-15.91616618 4.04379808 -17.83374484 4.03971513 -19.75 4 C-23.44221928 3.95937656 -26.97006791 4.03367283 -30.625 4.5625 C-34 5 -34 5 -36 4 C-36 4.99 -36 5.98 -36 7 C-38.64 7 -41.28 7 -44 7 C-44 5.35 -44 3.7 -44 2 C-43.22922119 1.97494385 -42.45844238 1.9498877 -41.66430664 1.92407227 C-38.13024164 1.80714506 -34.59638084 1.68486177 -31.0625 1.5625 C-29.85013672 1.52318359 -28.63777344 1.48386719 -27.38867188 1.44335938 C-21.63976408 1.24082333 -15.95438863 1.01116728 -10.25561523 0.19897461 C-6.84965958 -0.10147499 -3.41918175 0 0 0 Z " fill="#0D0B0D" transform="translate(231,68)"/>
<path d="M0 0 C4.95696581 1.23924145 7.11658466 2.78577758 10 7 C11.32 6.34 12.64 5.68 14 5 C14 5.99 14 6.98 14 8 C8.38352713 11.32828022 4.62814692 12.41678241 -1.8984375 12.04296875 C-4.05925221 11.83570782 -4.05925221 11.83570782 -6 13 C-12.98892009 13.43441185 -20.83645147 13.69812912 -27 10 C-27 9.67 -27 9.34 -27 9 C-25.91900024 8.970271 -25.91900024 8.970271 -24.81616211 8.93994141 C-21.52293328 8.8441634 -18.23029332 8.73469883 -14.9375 8.625 C-13.80376953 8.5940625 -12.67003906 8.563125 -11.50195312 8.53125 C-5.67092404 8.32724898 -0.5098614 7.96723644 5 6 C3.35 4.02 1.7 2.04 0 0 Z " fill="#131114" transform="translate(70,137)"/>
<path d="M0 0 C2.475 0.495 2.475 0.495 5 1 C3.77730504 8.12974076 -3.32406834 13.9795484 -9 18 C-12.3125 19.1875 -12.3125 19.1875 -16 20 C-16.80695313 20.18433594 -17.61390625 20.36867187 -18.4453125 20.55859375 C-20.62721915 21.05448163 -22.8116445 21.53354781 -25 22 C-25.33 21.01 -25.66 20.02 -26 19 C-25.01 19 -24.02 19 -23 19 C-22.67 18.34 -22.34 17.68 -22 17 C-19.45740679 15.86995857 -16.86443242 14.9507027 -14.25 14 C-11.84296517 13.21568639 -11.84296517 13.21568639 -11 11 C-10.2575 10.5875 -9.515 10.175 -8.75 9.75 C-4.88979778 7.29350768 -2.06846458 4.13692916 0 0 Z " fill="#111113" transform="translate(501,128)"/>
<path d="M0 0 C1.8392601 3.13575987 2.2284543 5.3359733 2.13525391 8.95214844 C2.10499619 10.42322052 2.10499619 10.42322052 2.0741272 11.92401123 C2.04193085 12.97518127 2.0097345 14.02635132 1.9765625 15.109375 C1.95153656 16.19132141 1.92651062 17.27326782 1.90072632 18.38800049 C1.81858152 21.8423216 1.72196937 25.29606634 1.625 28.75 C1.56675488 31.0924244 1.50945173 33.43487243 1.453125 35.77734375 C1.31301086 41.51854803 1.16101811 47.25934603 1 53 C1.66 53.33 2.32 53.66 3 54 C3.4140625 56.28515625 3.4140625 56.28515625 3.625 59.0625 C3.69976562 59.98160156 3.77453125 60.90070313 3.8515625 61.84765625 C3.92503906 62.91306641 3.92503906 62.91306641 4 64 C4.66 64 5.32 64 6 64 C6.185625 64.598125 6.37125 65.19625 6.5625 65.8125 C8.96377235 69.4666101 12.86124361 70.34527866 16.9140625 71.5859375 C20.13748124 72.22579216 23.29251572 71.96446205 26.5625 71.83984375 C29.19218647 72.01262764 30.74952195 72.67159282 33 74 C25.31660939 76.22602906 17.06273771 75.83405761 10 72 C4.39355631 68.33424835 1.8836572 64.29368798 0 58 C-0.51622522 53.46785693 -0.46759047 48.99008108 -0.390625 44.43359375 C-0.38496521 43.15895767 -0.37930542 41.88432159 -0.37347412 40.57106018 C-0.35497782 37.21203578 -0.31915909 33.85413662 -0.2746582 30.49542236 C-0.23345023 27.05629097 -0.21540916 23.61704246 -0.1953125 20.17773438 C-0.15136567 13.45151684 -0.08454307 6.72582325 0 0 Z " fill="#0C0A0D" transform="translate(377,75)"/>
<path d="M0 0 C4.01699935 2.46995662 7.03116256 5.42563916 9.5 9.4375 C10.77754154 15.98490039 10.45056038 20.24906603 7 26 C6.4375 24.0625 6.4375 24.0625 6 22 C6.33 21.67 6.66 21.34 7 21 C7.59019262 15.50666866 7.37450183 11.54259862 4 7 C3.7525 6.2575 3.505 5.515 3.25 4.75 C2.03609397 2.66650498 2.03609397 2.66650498 -1.0625 2.125 C-6.74244293 1.94468435 -11.36214208 2.14623929 -16.12890625 5.49609375 C-19.27737301 8.55551297 -20.83661289 10.78499403 -21.4296875 15.1953125 C-21.43670714 18.164619 -21.30994619 21.0481315 -21 24 C-23.57232706 21.42767294 -23.29786466 20.32102308 -23.3125 16.75 C-23.20259157 12.07278552 -22.8490504 8.86000377 -20 5 C-13.72836725 -0.44134568 -8.17797953 -2.17435202 0 0 Z " fill="#0E0B0F" transform="translate(350,30)"/>
<path d="M0 0 C2.0625 0.4375 2.0625 0.4375 4 1 C4 1.66 4 2.32 4 3 C2.43759968 3.02730408 0.8750573 3.04653226 -0.6875 3.0625 C-1.55761719 3.07410156 -2.42773438 3.08570313 -3.32421875 3.09765625 C-6 3 -6 3 -11 2 C-11 11.24 -11 20.48 -11 30 C-8.36 30 -5.72 30 -3 30 C-3 31.32 -3 32.64 -3 34 C-18.18 34 -33.36 34 -49 34 C-49 33.67 -49 33.34 -49 33 C-35.8 32.67 -22.6 32.34 -9 32 C-9.99 31.67 -10.98 31.34 -12 31 C-12.16728213 26.88850113 -12.32787468 22.77680194 -12.48217773 18.66479492 C-12.53566026 17.26498319 -12.59099434 15.86524096 -12.64819336 14.46557617 C-12.72992949 12.4577104 -12.80453025 10.44955813 -12.87890625 8.44140625 C-12.9260376 7.23170166 -12.97316895 6.02199707 -13.02172852 4.77563477 C-13 2 -13 2 -12 1 C-9.15189035 0.92789596 -6.31696073 1.00377401 -3.46875 1.0625 C-1.05541144 1.28507296 -1.05541144 1.28507296 0 0 Z " fill="#0B090C" transform="translate(150,147)"/>
<path d="M0 0 C0.66 0.33 1.32 0.66 2 1 C3.38817673 1.11726659 4.78148714 1.17681406 6.17431641 1.20532227 C7.03505768 1.22526749 7.89579895 1.24521271 8.78262329 1.26576233 C10.1779982 1.29083107 10.1779982 1.29083107 11.6015625 1.31640625 C13.02896255 1.3475779 13.02896255 1.3475779 14.48519897 1.37937927 C17.53172432 1.44488133 20.57833743 1.5037628 23.625 1.5625 C25.68750916 1.60568459 27.75000937 1.64929886 29.8125 1.69335938 C34.87490954 1.8005634 39.93740755 1.90182902 45 2 C45 2.33 45 2.66 45 3 C30.48 3.33 15.96 3.66 1 4 C1 13.57 1 23.14 1 33 C1.66 33.33 2.32 33.66 3 34 C1.68 34 0.36 34 -1 34 C-1.02465288 29.31860746 -1.04283739 24.63725241 -1.05493164 19.95581055 C-1.05997157 18.36205386 -1.0668035 16.76830181 -1.07543945 15.17456055 C-1.08751999 12.88849747 -1.09323155 10.60249533 -1.09765625 8.31640625 C-1.10281754 7.59973282 -1.10797882 6.88305939 -1.11329651 6.14466858 C-1.11349263 4.42936328 -1.06192007 2.71418734 -1 1 C-0.67 0.67 -0.34 0.34 0 0 Z " fill="#030203" transform="translate(465,113)"/>
<path d="M0 0 C0 0.99 0 1.98 0 3 C1.19238281 2.97679688 2.38476562 2.95359375 3.61328125 2.9296875 C5.17968124 2.91092822 6.746088 2.89272819 8.3125 2.875 C9.09818359 2.85824219 9.88386719 2.84148437 10.69335938 2.82421875 C11.45068359 2.81777344 12.20800781 2.81132813 12.98828125 2.8046875 C13.68477783 2.79421387 14.38127441 2.78374023 15.09887695 2.77294922 C17 3 17 3 20 5 C18.69804688 5.04898438 17.39609375 5.09796875 16.0546875 5.1484375 C14.32810529 5.22350629 12.60154378 5.29905233 10.875 5.375 C9.59109375 5.42140625 9.59109375 5.42140625 8.28125 5.46875 C3.5124128 5.68885018 -0.51576807 6.19160483 -5 8 C-2.36 9.98 0.28 11.96 3 14 C2.34 14.66 1.68 15.32 1 16 C1 15.34 1 14.68 1 14 C0.21625 13.690625 -0.5675 13.38125 -1.375 13.0625 C-4 12 -4 12 -6 11 C-6 10.34 -6 9.68 -6 9 C-8.94729537 7.84188612 -8.94729537 7.84188612 -12 8 C-13.33981486 7.6937566 -14.67511887 7.36548445 -16 7 C-9.25 3 -9.25 3 -7 3 C-6.67 2.34 -6.34 1.68 -6 1 C-2.9375 0.375 -2.9375 0.375 0 0 Z " fill="#0D0B0E" transform="translate(47,67)"/>
<path d="M0 0 C7.94875966 3.67697726 14.89670326 9.68006273 19.3125 17.25 C21.116414 24.46565601 20.46171458 31.41251782 17 38 C14.9375 41 14.9375 41 13 43 C12.34 43 11.68 43 11 43 C12.44950455 39.2089881 14.15172566 35.6125362 16 32 C16.66 32 17.32 32 18 32 C17.7233518 22.80144726 17.12942538 16.98378925 11.1875 9.8125 C9.26788477 8.22196167 7.55375402 7.16831738 5.375 6 C2.18643812 4.11048185 1.10122297 3.42602702 0 0 Z " fill="#0C0A0C" transform="translate(74,100)"/>
<path d="M0 0 C0 2.95269218 -0.45976055 4.63358701 -1.4375 7.375 C-3.32771553 12.87703582 -4.20879095 18.2354769 -5 24 C-4.01 24 -3.02 24 -2 24 C-2.4640625 25.0209375 -2.4640625 25.0209375 -2.9375 26.0625 C-4.13370649 29.36965912 -4.59005397 32.51545878 -5 36 C-5.99 35.67 -6.98 35.34 -8 35 C-8.57761726 22.50100439 -8.19492547 10.24365684 0 0 Z " fill="#171216" transform="translate(521,82)"/>
<path d="M0 0 C1.65 0.33 3.3 0.66 5 1 C5 11.56 5 22.12 5 33 C10.28 33 15.56 33 21 33 C21 34.65 21 36.3 21 38 C19.515 37.505 19.515 37.505 18 37 C18 36.34 18 35.68 18 35 C11.07 34.505 11.07 34.505 4 34 C3.16764106 30.67056423 2.87154875 28.33237925 2.8671875 24.97265625 C2.86525391 23.53696289 2.86525391 23.53696289 2.86328125 22.07226562 C2.86714844 21.07904297 2.87101562 20.08582031 2.875 19.0625 C2.87113281 18.07314453 2.86726563 17.08378906 2.86328125 16.06445312 C2.86457031 15.10603516 2.86585938 14.14761719 2.8671875 13.16015625 C2.86831543 12.29011963 2.86944336 11.42008301 2.87060547 10.52368164 C3.0035924 7.92993466 3.42862276 5.53034439 4 3 C2.68 3 1.36 3 0 3 C0.309375 4.36125 0.309375 4.36125 0.625 5.75 C1.0127245 9.11027897 0.80411967 10.24075815 -1 13 C-1.66 13 -2.32 13 -3 13 C-2.01 8.71 -1.02 4.42 0 0 Z " fill="#09070A" transform="translate(409,37)"/>
<path d="M0 0 C0.66 1.32 1.32 2.64 2 4 C1.195625 4.226875 0.39125 4.45375 -0.4375 4.6875 C-1.283125 5.120625 -2.12875 5.55375 -3 6 C-3.89386164 8.54775306 -3.89386164 8.54775306 -4 11 C-5.32 11.33 -6.64 11.66 -8 12 C-8 12.66 -8 13.32 -8 14 C-18.02512634 19.50399093 -25.36118581 22.12980785 -37 21 C-37 21.99 -37 22.98 -37 24 C-34.03 24 -31.06 24 -28 24 C-28.66 24.99 -29.32 25.98 -30 27 C-30 26.34 -30 25.68 -30 25 C-32.64 25 -35.28 25 -38 25 C-38 23.35 -38 21.7 -38 20 C-37.10539062 19.90203125 -36.21078125 19.8040625 -35.2890625 19.703125 C-27.62598802 18.75545268 -20.97063964 17.34172986 -14 14 C-13.27039063 13.67 -12.54078125 13.34 -11.7890625 13 C-9.82745703 12.1237 -9.82745703 12.1237 -9 10 C-8.01 9.67 -7.02 9.34 -6 9 C-5.29848848 7.6846659 -4.63474075 6.34882408 -4 5 C-3.01979625 3.9805881 -2.02196992 2.97753644 -1 2 C-0.67 1.34 -0.34 0.68 0 0 Z " fill="#09080A" transform="translate(405,50)"/>
<path d="M0 0 C0.33 0 0.66 0 1 0 C1 19.14 1 38.28 1 58 C4.63 58.33 8.26 58.66 12 59 C12.33 57.68 12.66 56.36 13 55 C13 56.65 13 58.3 13 60 C9.60102997 60.77690743 6.48806665 61.27537368 3 61 C2.01 60.34 1.02 59.68 0 59 C-0.36076355 56.5196228 -0.36076355 56.5196228 -0.34057617 53.35693359 C-0.34034958 52.17586029 -0.34012299 50.99478699 -0.33988953 49.77792358 C-0.32440567 48.49769318 -0.30892181 47.21746277 -0.29296875 45.8984375 C-0.28872391 44.59170074 -0.28447906 43.28496399 -0.28010559 41.93862915 C-0.26864632 38.46308214 -0.23917049 34.98791073 -0.20599365 31.51251221 C-0.17531569 27.9667265 -0.16160516 24.42088015 -0.14648438 20.875 C-0.11430135 13.91651229 -0.06309229 6.95827417 0 0 Z " fill="#0E0C0F" transform="translate(138,86)"/>
<path d="M0 0 C0.33 0 0.66 0 1 0 C1.66964286 7.76785714 1.66964286 7.76785714 -1.25 11.375 C-5.85667053 15.77227642 -9.21180862 16.42834358 -15.44921875 16.3359375 C-19.36619276 15.82007262 -21.78108868 14.23924266 -25 12 C-25 11.01 -25 10.02 -25 9 C-24.43152344 9.28875 -23.86304688 9.5775 -23.27734375 9.875 C-17.59774379 12.60575925 -13.14053795 14.06470976 -6.8125 12.4375 C-3.08073347 9.4778231 -0.7483662 4.67728874 0 0 Z " fill="#110E11" transform="translate(317,84)"/>
<path d="M0 0 C2.4375 3.0625 2.4375 3.0625 4 6 C3.67 6.99 3.34 7.98 3 9 C3 8.34 3 7.68 3 7 C2.34 7 1.68 7 1 7 C0.731875 6.071875 0.46375 5.14375 0.1875 4.1875 C-3.12361423 -0.63726645 -7.46835846 -0.9231118 -13 -2 C-13.94101563 -2.18949219 -14.88203125 -2.37898438 -15.8515625 -2.57421875 C-16.56054688 -2.71472656 -17.26953125 -2.85523438 -18 -3 C-18.33 -2.01 -18.66 -1.02 -19 0 C-20.31647119 0.69937532 -21.65022151 1.36729133 -23 2 C-23.33 2.66 -23.66 3.32 -24 4 C-24.66 4 -25.32 4 -26 4 C-24.5019913 0.18688695 -22.37351976 -1.72483551 -19 -4 C-12.06080823 -6.43809441 -5.44622768 -4.57978237 0 0 Z " fill="#0E0B0E" transform="translate(225,34)"/>
<path d="M0 0 C0.66 0 1.32 0 2 0 C1.5155542 1.22775146 1.0311084 2.45550293 0.53198242 3.72045898 C-1.42645035 9.62453557 -1.47626234 15.29762449 -1.51171875 21.47265625 C-1.52966995 22.6363121 -1.54762115 23.79996796 -1.56611633 24.99888611 C-1.61995617 28.68672142 -1.65403119 32.37442924 -1.6875 36.0625 C-1.72069622 38.57488743 -1.75518799 41.08725809 -1.79101562 43.59960938 C-1.87566752 49.73295853 -1.94412814 55.86632474 -2 62 C-2.33 62 -2.66 62 -3 62 C-3 42.53 -3 23.06 -3 3 C-2.34 3 -1.68 3 -1 3 C-0.67 2.01 -0.34 1.02 0 0 Z " fill="#0C090C" transform="translate(283,79)"/>
<path d="M0 0 C1.125 3.75 1.125 3.75 0 6 C-0.30791869 8.33077343 -0.50895274 10.66241896 -0.71875 13.00390625 C-1 15 -1 15 -2 16 C-2.12619896 17.91352846 -2.17580701 19.83235023 -2.1875 21.75 C-2.20167969 22.79671875 -2.21585937 23.8434375 -2.23046875 24.921875 C-1.99798414 28.02692365 -1.17982555 30.15248854 0 33 C-0.33 33.66 -0.66 34.32 -1 35 C-0.34 35.33 0.32 35.66 1 36 C-0.485 36.495 -0.485 36.495 -2 37 C-3.66240013 31.906406 -4.38489496 27.25229368 -4.375 21.875 C-4.37628906 21.141604 -4.37757813 20.40820801 -4.37890625 19.65258789 C-4.24458835 12.61845097 -2.55725734 6.56438825 0 0 Z " fill="#0F0D10" transform="translate(434,89)"/>
<path d="M0 0 C0.99 0.66 1.98 1.32 3 2 C3.29296875 5.2578125 3.29296875 5.2578125 3.1875 9.125 C3.16042969 10.40632813 3.13335937 11.68765625 3.10546875 13.0078125 C3.07066406 13.99523437 3.03585938 14.98265625 3 16 C2.34 16.33 1.68 16.66 1 17 C0.67 12.38 0.34 7.76 0 3 C-0.66 3 -1.32 3 -2 3 C-2.226875 3.804375 -2.45375 4.60875 -2.6875 5.4375 C-3.3371875 6.7059375 -3.3371875 6.7059375 -4 8 C-6.625 8.8125 -6.625 8.8125 -9 9 C-6.92940039 4.3809701 -4.6190299 2.07059961 0 0 Z " fill="#19171B" transform="translate(150,69)"/>
<path d="M0 0 C0.99 0 1.98 0 3 0 C3.33 1.65 3.66 3.3 4 5 C9.65999023 5.02467467 15.31994932 5.04284788 20.97998047 5.05493164 C22.90641831 5.05996787 24.83285231 5.06679712 26.75927734 5.07543945 C29.52442368 5.08753608 32.28951958 5.09323533 35.0546875 5.09765625 C35.9193161 5.10281754 36.7839447 5.10797882 37.67477417 5.11329651 C41.97251002 5.24383889 41.97251002 5.24383889 46 4 C45.67 4.99 45.34 5.98 45 7 C36.30085217 8.33604659 27.69383509 7.89096784 18.9375 7.5625 C17.38869223 7.50917109 15.83986404 7.4564318 14.29101562 7.40429688 C10.5270738 7.27633041 6.76349849 7.14037916 3 7 C2.566875 6.0409375 2.566875 6.0409375 2.125 5.0625 C1.17176549 2.84793921 1.17176549 2.84793921 -1 2 C-0.67 1.34 -0.34 0.68 0 0 Z " fill="#010001" transform="translate(559,142)"/>
<path d="M0 0 C-1.258125 0.33 -2.51625 0.66 -3.8125 1 C-9.13342392 2.74277097 -13.12662343 5.75612811 -17.51953125 9.16015625 C-19.63826971 10.73169297 -21.60417158 11.92215645 -24 13 C-23.1875 11.0625 -23.1875 11.0625 -22 9 C-21.01 8.67 -20.02 8.34 -19 8 C-19 7.34 -19 6.68 -19 6 C-5.89088652 -1.9200894 -5.89088652 -1.9200894 0 0 Z " fill="#0C0B0D" transform="translate(546,69)"/>
<path d="M0 0 C20.295 0.495 20.295 0.495 41 1 C41 1.33 41 1.66 41 2 C35.8040704 2.1678439 30.60798544 2.32837923 25.41162109 2.48217773 C23.64430686 2.53551165 21.87705145 2.5908341 20.10986328 2.64819336 C17.56816288 2.730345 15.02633597 2.80531788 12.484375 2.87890625 C11.69569031 2.90594131 10.90700562 2.93297638 10.09442139 2.96083069 C6.52818834 3.05761846 3.42833933 2.97167997 0 2 C0 1.34 0 0.68 0 0 Z " fill="#171518" transform="translate(96,178)"/>
<path d="M0 0 C0.66 0.33 1.32 0.66 2 1 C1.01 2.485 1.01 2.485 0 4 C-0.66 4 -1.32 4 -2 4 C-2.268125 4.928125 -2.53625 5.85625 -2.8125 6.8125 C-4.54079696 11.4516129 -4.54079696 11.4516129 -7 13 C-9.6875 12.6875 -9.6875 12.6875 -12 12 C-10.71729925 8.15189774 -9.42029173 8.05217504 -6 6 C-3.90222516 4.0795019 -1.96691199 2.05839627 0 0 Z " fill="#161519" transform="translate(502,131)"/>
<path d="M0 0 C1.65 0.33 3.3 0.66 5 1 C4.49477778 5.37859255 1.82172778 7.81651224 -1 11 C-1.33 10.34 -1.66 9.68 -2 9 C-0.68 7.35 0.64 5.7 2 4 C1.55269531 4.39832031 1.10539062 4.79664063 0.64453125 5.20703125 C-2.74779939 8.17984125 -6.01840224 10.8282194 -10 13 C-10.33 12.34 -10.66 11.68 -11 11 C-10.278125 10.62875 -9.55625 10.2575 -8.8125 9.875 C-4.97049033 7.31366022 -2.08982487 4.17964975 0 0 Z " fill="#09080B" transform="translate(501,128)"/>
<path d="M0 0 C6.27 0 12.54 0 19 0 C19 0.33 19 0.66 19 1 C14.545 1.495 14.545 1.495 10 2 C10 3.32 10 4.64 10 6 C9.67 6.99 9.34 7.98 9 9 C8.34 9 7.68 9 7 9 C7 7.02 7 5.04 7 3 C5.02 3 3.04 3 1 3 C0.67 2.01 0.34 1.02 0 0 Z " fill="#121114" transform="translate(318,71)"/>
<path d="M0 0 C2.54756717 1.13225208 4.31327626 2.27311263 6.4375 4.125 C9.34998472 6.25608638 10.49237586 6.36922359 14 6 C17 6 20 6 23 6 C20.20599348 8.79400652 18.22404266 8.977216 14.3125 9.375 C9.38577422 9.32035979 5.63776687 7.24495636 2 4 C0.7734375 1.828125 0.7734375 1.828125 0 0 Z " fill="#0E0B0E" transform="translate(329,54)"/>
<path d="M0 0 C3 0 3 0 4.60546875 1.4609375 C5.12753906 2.09257813 5.64960938 2.72421875 6.1875 3.375 C6.71730469 4.00148438 7.24710938 4.62796875 7.79296875 5.2734375 C9 7 9 7 9 9 C9.78375 9.309375 10.5675 9.61875 11.375 9.9375 C14 11 14 11 16 12 C15.67 12.99 15.34 13.98 15 15 C12.9375 15.6875 12.9375 15.6875 11 16 C11.33 15.01 11.66 14.02 12 13 C11.46890625 12.56429687 10.9378125 12.12859375 10.390625 11.6796875 C6.12916103 8.08699343 2.81865152 4.81519634 0 0 Z " fill="#0C0A0E" transform="translate(26,101)"/>
<path d="M0 0 C4.94970503 2.18264101 8.97024587 5.71866956 13.22265625 9.00390625 C15.88719147 11.12732843 15.88719147 11.12732843 19 12 C19.33 12.99 19.66 13.98 20 15 C17.625 14.75 17.625 14.75 15 14 C13.6875 11.9375 13.6875 11.9375 13 10 C12.01 10 11.02 10 10 10 C10 9.34 10 8.68 10 8 C9.278125 7.773125 8.55625 7.54625 7.8125 7.3125 C4.45316713 5.74481133 2.46196152 3.74332855 0 1 C0 0.67 0 0.34 0 0 Z " fill="#0B090B" transform="translate(50,82)"/>
<path d="M0 0 C-0.33 0.66 -0.66 1.32 -1 2 C-0.10836423 4.11683841 -0.10836423 4.11683841 1 6 C0.01 6.33 -0.98 6.66 -2 7 C-2.33 6.01 -2.66 5.02 -3 4 C-5.97 3.67 -8.94 3.34 -12 3 C-12 2.01 -12 1.02 -12 0 C-10.37585622 -0.19477739 -8.75063577 -0.38059458 -7.125 -0.5625 C-6.22007812 -0.66691406 -5.31515625 -0.77132812 -4.3828125 -0.87890625 C-2 -1 -2 -1 0 0 Z " fill="#17151A" transform="translate(380,71)"/>
<path d="M0 0 C-0.33 0.66 -0.66 1.32 -1 2 C-2.32 1.67 -3.64 1.34 -5 1 C-5 1.66 -5 2.32 -5 3 C-6.175625 3.0928125 -6.175625 3.0928125 -7.375 3.1875 C-11.65686385 4.1472281 -14.99987304 5.93932431 -18.828125 8.0390625 C-19.54484375 8.35617188 -20.2615625 8.67328125 -21 9 C-21.66 8.67 -22.32 8.34 -23 8 C-16.90311986 2.11335711 -8.38371044 -0.74521871 0 0 Z " fill="#0C0B0D" transform="translate(468,68)"/>
<path d="M0 0 C5.61 0 11.22 0 17 0 C16.67 0.66 16.34 1.32 16 2 C13.97511372 2.28926947 11.94755984 2.57272154 9.91015625 2.75390625 C7.91747967 2.90406878 7.91747967 2.90406878 6 4 C3.99199544 3.71887936 1.98985949 3.38932033 0 3 C0 2.01 0 1.02 0 0 Z " fill="#171518" transform="translate(239,71)"/>
<path d="M0 0 C3 1 3 1 5 3 C4.01 3 3.02 3 2 3 C1.67 4.32 1.34 5.64 1 7 C-1.31 7.33 -3.62 7.66 -6 8 C-4.47261162 4.94522323 -2.20642045 2.60244464 0 0 Z " fill="#161417" transform="translate(557,139)"/>
<path d="M0 0 C0.66 0 1.32 0 2 0 C2.3125 3.1875 2.3125 3.1875 2 7 C-0.45094228 9.98087575 -2.79527998 11.86351998 -6 14 C-5.71382813 13.44828125 -5.42765625 12.8965625 -5.1328125 12.328125 C-3.92260849 9.84094711 -2.8904694 7.32252247 -1.875 4.75 C-1.52179688 3.85796875 -1.16859375 2.9659375 -0.8046875 2.046875 C-0.53914063 1.37140625 -0.27359375 0.6959375 0 0 Z " fill="#131115" transform="translate(424,126)"/>
<path d="M0 0 C0 2.95269218 -0.45976055 4.63358701 -1.4375 7.375 C-2.54198295 10.56862288 -3.46030698 13.65390331 -4 17 C-4.99 17.33 -5.98 17.66 -7 18 C-6.02987071 10.93398364 -4.22263963 5.76986636 0 0 Z " fill="#0F0D0F" transform="translate(521,82)"/>
<path d="M0 0 C0.721875 0.598125 1.44375 1.19625 2.1875 1.8125 C4.91314203 4.0352811 4.91314203 4.0352811 7.8125 5.625 C8.534375 6.07875 9.25625 6.5325 10 7 C10 7.66 10 8.32 10 9 C10.9590625 9.1546875 10.9590625 9.1546875 11.9375 9.3125 C12.9584375 9.6528125 12.9584375 9.6528125 14 10 C14.33 10.99 14.66 11.98 15 13 C11.19866558 11.32076975 8.02917298 8.88537166 4.75 6.375 C4.19570313 5.95476562 3.64140625 5.53453125 3.0703125 5.1015625 C1.71133337 4.07061281 0.35536165 3.03570089 -1 2 C-0.67 1.34 -0.34 0.68 0 0 Z " fill="#0B0A0D" transform="translate(43,115)"/>
<path d="M0 0 C1.26328125 0.11085938 2.5265625 0.22171875 3.828125 0.3359375 C4.79234375 0.43132812 5.7565625 0.52671875 6.75 0.625 C4.75 2.625 4.75 2.625 2.83984375 2.78515625 C2.12957031 2.75292969 1.41929687 2.72070312 0.6875 2.6875 C-0.611875 2.666875 -1.91125 2.64625 -3.25 2.625 C-3.58 2.955 -3.91 3.285 -4.25 3.625 C-6.58297433 3.66592937 -8.91705225 3.66741723 -11.25 3.625 C-11.25 2.965 -11.25 2.305 -11.25 1.625 C-7.48564408 -0.86555871 -4.38382623 -0.40590984 0 0 Z " fill="#100D11" transform="translate(353.25,68.375)"/>
<path d="M0 0 C0.33 0.66 0.66 1.32 1 2 C4.02934491 2.65772428 4.02934491 2.65772428 7 3 C7.33 2.01 7.66 1.02 8 0 C8 0.99 8 1.98 8 3 C9.65 3.33 11.3 3.66 13 4 C12.34 4.66 11.68 5.32 11 6 C3.93591048 5.77212614 3.93591048 5.77212614 0.5 2.9375 C0.005 2.298125 -0.49 1.65875 -1 1 C-0.67 0.67 -0.34 0.34 0 0 Z " fill="#110F12" transform="translate(30,141)"/>
<path d="M0 0 C-0.33 0.99 -0.66 1.98 -1 3 C-1 2.34 -1 1.68 -1 1 C-1.495 1.33 -1.99 1.66 -2.5 2 C-5.52470398 3.20988159 -7.87644635 3.09394273 -11.09375 3.00390625 C-13.19701508 2.99959628 -15.00535789 3.3351193 -17 4 C-16.67 3.01 -16.34 2.02 -16 1 C-10.59255982 0.22750855 -5.46137814 -0.09752461 0 0 Z " fill="#0D0C0F" transform="translate(139,68)"/>
<path d="M0 0 C1.23800991 3.71402974 0.6155489 6.16991798 0 10 C0 10.99 0 11.98 0 13 C0.99 13.33 1.98 13.66 3 14 C4.1875 16.5625 4.1875 16.5625 5 19 C0.87312086 17.26374429 -0.56379722 15.27598655 -2.44921875 11.30859375 C-3.4371915 7.16751646 -1.76203927 3.73137728 0 0 Z " fill="#070608" transform="translate(24,123)"/>
<path d="M0 0 C0 3.2234945 -0.65162359 4.77254173 -1.9375 7.6875 C-3.81941205 12.21605867 -4.63880821 16.1239108 -5 21 C-5.33 21 -5.66 21 -6 21 C-6.48341667 13.62789572 -5.26678429 7.67663942 -2 1 C-1.34 0.67 -0.68 0.34 0 0 Z " fill="#080608" transform="translate(30,75)"/>
<path d="M0 0 C4.62 0 9.24 0 14 0 C13.67 0.66 13.34 1.32 13 2 C11.7934375 1.9690625 11.7934375 1.9690625 10.5625 1.9375 C8.06645115 1.70366379 8.06645115 1.70366379 7 3 C4.66702567 3.04092937 2.33294775 3.04241723 0 3 C0 2.01 0 1.02 0 0 Z " fill="#141315" transform="translate(96,71)"/>
<path d="M0 0 C3.91841827 1.30613942 6.32640809 2.83129848 9 6 C9 6.66 9 7.32 9 8 C9.66 8 10.32 8 11 8 C11 8.99 11 9.98 11 11 C10.01 10.67 9.02 10.34 8 10 C7.71125 9.195625 7.4225 8.39125 7.125 7.5625 C6.23958333 4.76041667 6.23958333 4.76041667 3.4375 3.875 C2.633125 3.58625 1.82875 3.2975 1 3 C0.67 2.01 0.34 1.02 0 0 Z " fill="#0C0A0D" transform="translate(494,75)"/>
<path d="M0 0 C2 3 2 3 1.6796875 5.12109375 C-1.09234152 13.10076951 -1.09234152 13.10076951 -5 16 C-5.66 16 -6.32 16 -7 16 C-5.84826645 13.53199953 -4.95216435 11.95216435 -3 10 C-2.67 9.01 -2.34 8.02 -2 7 C-1.34 7 -0.68 7 0 7 C0 4.69 0 2.38 0 0 Z " fill="#0D0A0D" transform="translate(228,44)"/>
<path d="M0 0 C1.33808088 4.01424265 1.19932094 7.81426024 1 12 C0.01 13.485 0.01 13.485 -1 15 C-3.43326039 7.12253829 -3.43326039 7.12253829 -1.625 2.4375 C-1.08875 1.633125 -0.5525 0.82875 0 0 Z " fill="#0F0C0F" transform="translate(198,38)"/>
<path d="M0 0 C4.08276326 0.40158327 8.05208447 0.84852464 12 2 C11.67 2.66 11.34 3.32 11 4 C7.04 4 3.08 4 -1 4 C-1 1 -1 1 0 0 Z " fill="#181619" transform="translate(138,145)"/>
<path d="M0 0 C0.99 0.33 1.98 0.66 3 1 C3 1.66 3 2.32 3 3 C3.5775 3.28875 4.155 3.5775 4.75 3.875 C6.83333333 4.91666667 8.91666667 5.95833333 11 7 C11 7.66 11 8.32 11 9 C6.16592748 8.58565093 4.10462326 6.62206046 1 3 C0.67 2.01 0.34 1.02 0 0 Z " fill="#0E0C0F" transform="translate(198,53)"/>
<path d="M0 0 C0.66 0.33 1.32 0.66 2 1 C1.34 2.32 0.68 3.64 0 5 C-0.66 5 -1.32 5 -2 5 C-2.061875 5.598125 -2.12375 6.19625 -2.1875 6.8125 C-3.3236757 9.87143458 -5.17330142 10.55041099 -8 12 C-6.49087042 7.01987239 -3.44338151 3.75740058 0 0 Z " fill="#0A090C" transform="translate(443,77)"/>
<path d="M0 0 C2.72647685 2.35468455 3.98756342 4.5408417 5 8 C4.625 10.3125 4.625 10.3125 4 12 C2 11 2 11 0.875 7.6875 C0 4 0 4 0 0 Z " fill="#0F0C0F" transform="translate(505,86)"/>
<path d="M0 0 C5.66153846 1.47692308 5.66153846 1.47692308 7.375 4.125 C7.684375 5.053125 7.684375 5.053125 8 6 C5.6875 7.5625 5.6875 7.5625 3 9 C2.01 8.67 1.02 8.34 0 8 C1.65 7.34 3.3 6.68 5 6 C3.35 4.02 1.7 2.04 0 0 Z " fill="#0A070A" transform="translate(70,137)"/>
<path d="M0 0 C7.65217391 2.43478261 7.65217391 2.43478261 10 4 C10.75 6.125 10.75 6.125 11 8 C6.99698968 6.23867546 3.3971023 3.73867517 0 1 C0 0.67 0 0.34 0 0 Z " fill="#0D0B0D" transform="translate(59,129)"/>
<path d="M0 0 C0.66 0 1.32 0 2 0 C1.34 3.3 0.68 6.6 0 10 C-1.98 10.33 -3.96 10.66 -6 11 C-5.04867187 10.64808594 -5.04867187 10.64808594 -4.078125 10.2890625 C-1.81749261 9.17709092 -1.81749261 9.17709092 -1.171875 6.8359375 C-0.96304688 5.61777344 -0.96304688 5.61777344 -0.75 4.375 C-0.60046875 3.55773437 -0.4509375 2.74046875 -0.296875 1.8984375 C-0.19890625 1.27195312 -0.1009375 0.64546875 0 0 Z " fill="#121013" transform="translate(92,87)"/>
<path d="M0 0 C3.77300358 1.0197307 4.80206144 1.65872662 6.8125 5.125 C7.204375 6.07375 7.59625 7.0225 8 8 C4.20645982 6.50968064 2.3521464 4.27620391 0 1 C0 0.67 0 0.34 0 0 Z " fill="#0B090B" transform="translate(437,134)"/>
<path d="M0 0 C4.62 0 9.24 0 14 0 C14 0.33 14 0.66 14 1 C10.37 1.33 6.74 1.66 3 2 C2.67 2.99 2.34 3.98 2 5 C1.34 5 0.68 5 0 5 C0 3.35 0 1.7 0 0 Z " fill="#040407" transform="translate(553,37)"/>
<path d="M0 0 C0.66 0.33 1.32 0.66 2 1 C0.35 4.3 -1.3 7.6 -3 11 C-3.66 11 -4.32 11 -5 11 C-3.55049545 7.2089881 -1.84827434 3.6125362 0 0 Z " fill="#131113" transform="translate(90,132)"/>
<path d="M0 0 C2.31 0.33 4.62 0.66 7 1 C7.33 1.99 7.66 2.98 8 4 C3.545 3.01 3.545 3.01 -1 2 C-0.67 1.34 -0.34 0.68 0 0 Z " fill="#141115" transform="translate(214,30)"/>
<path d="M0 0 C4.21878192 -0.19622241 7.17010894 0.19769832 11 2 C11 2.33 11 2.66 11 3 C3.57142857 3.28571429 3.57142857 3.28571429 0 1 C0 0.67 0 0.34 0 0 Z " fill="#191719" transform="translate(43,146)"/>
<path d="M0 0 C0.66 0.66 1.32 1.32 2 2 C-0.8125 4.0625 -0.8125 4.0625 -4 6 C-4.99 5.67 -5.98 5.34 -7 5 C-6.360625 4.896875 -5.72125 4.79375 -5.0625 4.6875 C-4.381875 4.460625 -3.70125 4.23375 -3 4 C-2.67 3.01 -2.34 2.02 -2 1 C-1.34 0.67 -0.68 0.34 0 0 Z " fill="#0B0A0B" transform="translate(83,142)"/>
<path d="M0 0 C0.66 0.33 1.32 0.66 2 1 C1.65120368 4.25543229 0.97866739 5.01873107 -1.5625 7.25 C-2.7690625 8.11625 -2.7690625 8.11625 -4 9 C-3.71125 8.443125 -3.4225 7.88625 -3.125 7.3125 C-1.9586747 4.91505355 -0.9660119 2.48403061 0 0 Z " fill="#1C1A1E" transform="translate(422,131)"/>
<path d="M0 0 C0.99 0.495 0.99 0.495 2 1 C2.59355614 3.64860427 2.74209269 6.29197322 3 9 C2.01 8.67 1.02 8.34 0 8 C0 5.36 0 2.72 0 0 Z " fill="#151316" transform="translate(378,128)"/>
<path d="M0 0 C0.99 0.33 1.98 0.66 3 1 C3.33 3.31 3.66 5.62 4 8 C1.10067643 5.60490662 0.49831724 3.68754757 0 0 Z " fill="#0B090B" transform="translate(433,126)"/>
<path d="" fill="#000000" transform="translate(0,0)"/>
<path d="M0 0 C2 1 2 1 2 1 Z " fill="#000000" transform="translate(73,142)"/>
<path d="" fill="#000000" transform="translate(0,0)"/>
<path d="M0 0 C2 1 2 1 2 1 Z " fill="#000000" transform="translate(242,76)"/>
<path d="M0 0 C2 1 2 1 2 1 Z " fill="#000000" transform="translate(100,76)"/>
<path d="M0 0 C2 1 2 1 2 1 Z " fill="#000000" transform="translate(337,68)"/>
<path d="M0 0 C2 1 2 1 2 1 Z " fill="#000000" transform="translate(350,67)"/>
<path d="M0 0 C2 1 2 1 2 1 Z " fill="#000000" transform="translate(557,66)"/>
<path d="" fill="#000000" transform="translate(0,0)"/>
<path d="" fill="#000000" transform="translate(0,0)"/>
<path d="" fill="#000000" transform="translate(0,0)"/>
<path d="" fill="#000000" transform="translate(0,0)"/>
<path d="" fill="#000000" transform="translate(0,0)"/>
<path d="" fill="#000000" transform="translate(0,0)"/>
<path d="" fill="#000000" transform="translate(0,0)"/>
<path d="" fill="#000000" transform="translate(0,0)"/>
<path d="" fill="#000000" transform="translate(0,0)"/>
<path d="" fill="#000000" transform="translate(0,0)"/>
<path d="" fill="#000000" transform="translate(0,0)"/>
<path d="" fill="#000000" transform="translate(0,0)"/>
<path d="" fill="#000000" transform="translate(0,0)"/>
<path d="" fill="#000000" transform="translate(0,0)"/>
<path d="" fill="#000000" transform="translate(0,0)"/>
<path d="" fill="#000000" transform="translate(0,0)"/>
<path d="" fill="#000000" transform="translate(0,0)"/>
<path d="" fill="#000000" transform="translate(0,0)"/>
<path d="" fill="#000000" transform="translate(0,0)"/>
<path d="" fill="#000000" transform="translate(0,0)"/>
<path d="" fill="#000000" transform="translate(0,0)"/>
<path d="" fill="#000000" transform="translate(0,0)"/>
<path d="" fill="#000000" transform="translate(0,0)"/>
<path d="" fill="#000000" transform="translate(0,0)"/>
<path d="" fill="#000000" transform="translate(0,0)"/>
<path d="" fill="#000000" transform="translate(0,0)"/>
<path d="" fill="#000000" transform="translate(0,0)"/>
<path d="" fill="#000000" transform="translate(0,0)"/>
<path d="" fill="#000000" transform="translate(0,0)"/>
<path d="" fill="#000000" transform="translate(0,0)"/>
<path d="" fill="#000000" transform="translate(0,0)"/>
<path d="" fill="#000000" transform="translate(0,0)"/>
<path d="" fill="#000000" transform="translate(0,0)"/>
<path d="" fill="#000000" transform="translate(0,0)"/>
<path d="" fill="#000000" transform="translate(0,0)"/>
<path d="" fill="#000000" transform="translate(0,0)"/>
<path d="" fill="#000000" transform="translate(0,0)"/>
<path d="" fill="#000000" transform="translate(0,0)"/>
<path d="" fill="#000000" transform="translate(0,0)"/>
<path d="" fill="#000000" transform="translate(0,0)"/>
<path d="" fill="#000000" transform="translate(0,0)"/>
<path d="" fill="#000000" transform="translate(0,0)"/>
<path d="" fill="#000000" transform="translate(0,0)"/>
<path d="" fill="#000000" transform="translate(0,0)"/>
<path d="" fill="#000000" transform="translate(0,0)"/>
<path d="" fill="#000000" transform="translate(0,0)"/>
<path d="" fill="#000000" transform="translate(0,0)"/>
<path d="" fill="#000000" transform="translate(0,0)"/>
<path d="" fill="#000000" transform="translate(0,0)"/>
<path d="" fill="#000000" transform="translate(0,0)"/>
<path d="" fill="#000000" transform="translate(0,0)"/>
<path d="" fill="#000000" transform="translate(0,0)"/>
<path d="" fill="#000000" transform="translate(0,0)"/>
<path d="" fill="#000000" transform="translate(0,0)"/>
<path d="" fill="#000000" transform="translate(0,0)"/>
<path d="" fill="#000000" transform="translate(0,0)"/>
<path d="" fill="#000000" transform="translate(0,0)"/>
<path d="" fill="#000000" transform="translate(0,0)"/>
<path d="" fill="#000000" transform="translate(0,0)"/>
<path d="" fill="#000000" transform="translate(0,0)"/>
<path d="" fill="#000000" transform="translate(0,0)"/>
</svg>
