<?xml version="1.0" encoding="UTF-8"?>
<svg version="1.1" xmlns="http://www.w3.org/2000/svg" width="372" height="103">
<path d="M0 0 C35.93478261 0 35.93478261 0 41.9375 5.875 C45.37767949 11.08739317 46.55405238 14.68380285 46 21 C44.39265334 25.17910132 42.81927559 27.62941515 39 30 C39.9075 30.556875 40.815 31.11375 41.75 31.6875 C45.83777047 34.59610591 48.40501434 37.21504302 50 42 C50.92990976 50.58260975 49.04204469 56.08879969 43.8125 62.8125 C31.66867656 72.25769601 13.58119461 68 0 68 C0 45.56 0 23.12 0 0 Z M14 13 C14 16.96 14 20.92 14 25 C16.8153125 25.0928125 16.8153125 25.0928125 19.6875 25.1875 C21.27111328 25.23970703 21.27111328 25.23970703 22.88671875 25.29296875 C26.4052765 24.96186231 28.23154621 24.17123707 31 22 C31.51712074 18.89727555 31.6534406 17.01200728 29.91796875 14.32421875 C26.95903235 12.2812871 24.34827703 12.71518504 20.8125 12.8125 C18.90404297 12.85310547 18.90404297 12.85310547 16.95703125 12.89453125 C15.98121094 12.92933594 15.00539062 12.96414062 14 13 Z M14 37 C14 42.94 14 48.88 14 55 C17.3103125 55.061875 17.3103125 55.061875 20.6875 55.125 C21.92886719 55.14820312 23.17023438 55.17140625 24.44921875 55.1953125 C27.86370861 55.00749678 30.01567557 54.62390266 33 53 C35.46751239 49.29873141 35.30721156 47.37776468 35 43 C34.60739458 40.63045713 34.60739458 40.63045713 33 39 C26.83398209 36.31912265 20.63734839 36.8508461 14 37 Z " fill="#0F0F0F" transform="translate(159,16)"/>
<path d="M0 0 C14.85 0 29.7 0 45 0 C45 4.29 45 8.58 45 13 C35.1 13 25.2 13 15 13 C15 19.93 15 26.86 15 34 C23.58 34 32.16 34 41 34 C41 37.96 41 41.92 41 46 C32.42 46 23.84 46 15 46 C15 48.97 15 51.94 15 55 C25.23 55 35.46 55 46 55 C46 59.29 46 63.58 46 68 C30.82 68 15.64 68 0 68 C0 45.56 0 23.12 0 0 Z " fill="#0F0F0F" transform="translate(313,16)"/>
<path d="M0 0 C0.99 0 1.98 0 3 0 C10.56817025 16.50186029 18.13600487 33.00440144 25.59048462 49.55801392 C26.15279135 50.80574531 26.71623833 52.0529635 27.28085327 53.2996521 C28.0642238 55.03031372 28.84277639 56.76315373 29.62109375 58.49609375 C30.0586499 59.46732178 30.49620605 60.4385498 30.94702148 61.43920898 C32 64 32 64 33 68 C28.05 68 23.1 68 18 68 C15 62 15 62 15 60 C6.09 60 -2.82 60 -12 60 C-12.66 62.31 -13.32 64.62 -14 67 C-15 68 -15 68 -18.16015625 68.09765625 C-19.44792969 68.08605469 -20.73570313 68.07445313 -22.0625 68.0625 C-23.99802734 68.04896484 -23.99802734 68.04896484 -25.97265625 68.03515625 C-26.97167969 68.02355469 -27.97070312 68.01195313 -29 68 C-26.9882054 61.56309041 -24.55325451 55.42869461 -21.796875 49.27734375 C-21.3959967 48.37359512 -20.99511841 47.4698465 -20.58209229 46.53871155 C-19.30860291 43.66990005 -18.02948805 40.80364037 -16.75 37.9375 C-15.90716141 36.04249142 -15.06471049 34.14731037 -14.22265625 32.25195312 C-12.98630553 29.46925891 -11.74966741 26.68669749 -10.51135254 23.90487671 C-6.97216884 15.9519672 -3.475909 7.98073848 0 0 Z M1 27 C-1.64 33.93 -4.28 40.86 -7 48 C-1.72 48 3.56 48 9 48 C8.5875 46.7625 8.175 45.525 7.75 44.25 C5.83333333 38.5 3.91666667 32.75 2 27 C1.67 27 1.34 27 1 27 Z " fill="#0F0F0F" transform="translate(101,16)"/>
<path d="M0 0 C17.16 0 34.32 0 52 0 C52 4.29 52 8.58 52 13 C45.73 13 39.46 13 33 13 C33 31.15 33 49.3 33 68 C28.38 68 23.76 68 19 68 C19 49.85 19 31.7 19 13 C12.73 13 6.46 13 0 13 C0 8.71 0 4.42 0 0 Z " fill="#0F0F0F" transform="translate(9,16)"/>
<path d="M0 0 C4.95 0 9.9 0 15 0 C15 18.15 15 36.3 15 55 C24.9 55 34.8 55 45 55 C45 59.29 45 63.58 45 68 C30.15 68 15.3 68 0 68 C0 45.56 0 23.12 0 0 Z " fill="#0F0F0F" transform="translate(238,16)"/>
<path d="M0 0 C0.5534764 2.07553648 1 3.84365964 1 6 C0.34 6 -0.32 6 -1 6 C-0.690625 6.928125 -0.690625 6.928125 -0.375 7.875 C-0.25125 8.57625 -0.1275 9.2775 0 10 C-0.66 10.66 -1.32 11.32 -2 12 C-2.90717566 13.5229555 -3.77927327 15.06708235 -4.625 16.625 C-5.07101563 17.44226563 -5.51703125 18.25953125 -5.9765625 19.1015625 C-6.31429687 19.72804688 -6.65203125 20.35453125 -7 21 C-8.17189558 17.48431326 -7.83725505 17.0008148 -6.34765625 13.76953125 C-5.98349609 12.96708984 -5.61933594 12.16464844 -5.24414062 11.33789062 C-4.65922852 10.08782227 -4.65922852 10.08782227 -4.0625 8.8125 C-3.67642578 7.96751953 -3.29035156 7.12253906 -2.89257812 6.25195312 C-1.93699299 4.16382265 -0.97256217 2.08026396 0 0 Z " fill="#070707" transform="translate(96,27)"/>
</svg>
