<?xml version="1.0" encoding="UTF-8"?>
<svg version="1.1" xmlns="http://www.w3.org/2000/svg" width="1104" height="238">
<path d="M0 0 C9.37164182 8.72259231 14.37498888 19.69344148 17.375 31.96484375 C17.60058594 32.84914062 17.82617188 33.7334375 18.05859375 34.64453125 C20.23237033 44.98870945 20.12664398 56.43803821 19.375 66.96484375 C17.50812423 68.83171952 14.83218552 68.08490873 12.34867859 68.08926392 C11.48265518 68.08566864 10.61663177 68.08207336 9.72436523 68.07836914 C8.3635231 68.07858818 8.3635231 68.07858818 6.97518921 68.07881165 C3.96130015 68.07811216 0.94747207 68.07031809 -2.06640625 68.0625 C-4.15005967 68.06063595 -6.23371354 68.05921199 -8.31736755 68.05821228 C-13.81323446 68.05438609 -19.30907513 68.04455495 -24.80493164 68.0335083 C-30.40836227 68.02329635 -36.01179713 68.01871512 -41.61523438 68.01367188 C-52.61850114 68.00293277 -63.62174839 67.98585514 -74.625 67.96484375 C-74.02227799 70.49654087 -73.41180381 73.02595246 -72.796875 75.5546875 C-72.62913574 76.26282593 -72.46139648 76.97096436 -72.28857422 77.70056152 C-69.75750069 88.03577843 -65.74035412 96.97187612 -56.625 102.96484375 C-42.4932871 111.33821382 -24.12738921 110.09977134 -8.625 106.96484375 C-5.10285249 105.99142324 -1.63738162 104.92751761 1.828125 103.76953125 C4.375 102.96484375 4.375 102.96484375 6.375 102.96484375 C6.87900451 105.88086984 7.37834666 108.79756467 7.875 111.71484375 C8.01808594 112.53984375 8.16117188 113.36484375 8.30859375 114.21484375 C8.44394531 115.0140625 8.57929687 115.81328125 8.71875 116.63671875 C8.90727539 117.7364502 8.90727539 117.7364502 9.09960938 118.85839844 C9.375 120.96484375 9.375 120.96484375 9.375 124.96484375 C7.12878786 125.76881585 4.8788557 126.55780415 2.625 127.33984375 C2.01011719 127.5615625 1.39523437 127.78328125 0.76171875 128.01171875 C-9.60612841 131.57239353 -20.10430987 132.33085664 -31 132.27734375 C-32.1866626 132.2724292 -33.3733252 132.26751465 -34.59594727 132.26245117 C-42.9810185 132.15020508 -50.61246325 131.61423676 -58.625 128.96484375 C-59.63949219 128.63613281 -60.65398437 128.30742187 -61.69921875 127.96875 C-77.17688825 122.24141775 -88.32796245 111.08384423 -95.30859375 96.3046875 C-99.12328859 86.62645579 -101.25939892 76.36063101 -101.625 65.96484375 C-101.66496094 65.12179688 -101.70492188 64.27875 -101.74609375 63.41015625 C-102.29856878 41.50614616 -96.4032129 20.40802031 -81.06640625 4.21484375 C-59.39635238 -15.7562779 -23.48415543 -18.20720979 0 0 Z M-67.25390625 24.9765625 C-71.58077798 31.34416776 -73.625 38.31302738 -73.625 45.96484375 C-51.845 45.96484375 -30.065 45.96484375 -7.625 45.96484375 C-7.625 34.23262281 -10.29633849 25.91574776 -18.25390625 17.17578125 C-24.12871622 11.64173752 -30.5421122 9.84648285 -38.5 9.52734375 C-50.90991153 9.93680784 -59.52330243 15.42917408 -67.25390625 24.9765625 Z " fill="#2B2A29" transform="translate(547.625,50.03515625)"/>
<path d="M0 0 C10.45600365 9.67809529 15.27645013 24.45082048 15.87442207 38.42608452 C15.9074345 40.7806788 15.90893434 43.13323288 15.89868164 45.48803711 C15.89882767 46.37663422 15.89897369 47.26523132 15.89912415 48.18075562 C15.89843143 51.09709169 15.89066922 54.01336268 15.8828125 56.9296875 C15.88094604 58.95992498 15.87952321 60.99016291 15.87852478 63.020401 C15.87471756 68.34849301 15.86490267 73.67655749 15.8538208 79.00463867 C15.84356802 84.44775012 15.83901889 89.89086604 15.83398438 95.33398438 C15.82327873 106.00261622 15.80622395 116.67122769 15.78515625 127.33984375 C12.50035016 127.81754436 9.21506211 128.29185151 5.9296875 128.765625 C5.01449341 128.89876099 4.09929932 129.03189697 3.15637207 129.16906738 C-56.95117951 137.81639745 -56.95117951 137.81639745 -80.33203125 121.8984375 C-87.72558404 116.07561802 -91.16899108 108.35030127 -93.21484375 99.33984375 C-93.6221106 95.84757973 -93.69410581 92.41586048 -93.65234375 88.90234375 C-93.64259521 87.98219482 -93.63284668 87.0620459 -93.62280273 86.11401367 C-93.33142062 74.9535847 -90.55726477 67.65530895 -82.6953125 59.5625 C-68.60195645 46.93396521 -48.69668745 44.32381518 -30.41210938 45.16552734 C-23.61534343 45.70473744 -16.89978993 47.0399931 -10.21484375 48.33984375 C-10.61445661 45.33669255 -11.03392142 42.3385301 -11.46484375 39.33984375 C-11.62919922 38.08107422 -11.62919922 38.08107422 -11.796875 36.796875 C-13.03393459 28.39789149 -15.58237428 21.91569582 -22.35546875 16.58984375 C-34.57666195 8.37391555 -50.53674613 10.94977617 -64.21484375 13.33984375 C-67.50769053 14.10745727 -70.76499023 14.93595163 -74.01953125 15.8515625 C-74.74398437 16.01269531 -75.4684375 16.17382812 -76.21484375 16.33984375 C-78.11174781 14.44293969 -77.91532679 11.26237049 -78.27734375 8.71484375 C-78.45394531 7.50570312 -78.63054687 6.2965625 -78.8125 5.05078125 C-79.20330991 1.44622386 -79.28468121 -2.0379198 -79.21484375 -5.66015625 C-54.81896418 -14.6956672 -21.7753736 -16.32192906 0 0 Z M-63.96484375 75.71484375 C-67.23729055 79.53269835 -68.06017579 82.70036334 -68.52734375 87.65234375 C-67.96762944 94.25697256 -66.20924698 100.73973551 -61.21484375 105.33984375 C-54.44839211 109.02269105 -48.73271635 110.46588108 -41.03515625 110.47265625 C-40.34477264 110.47361298 -39.65438904 110.4745697 -38.94308472 110.47555542 C-37.48565581 110.47623436 -36.02822384 110.47440007 -34.57080078 110.47021484 C-32.354422 110.46487885 -30.13824737 110.47016107 -27.921875 110.4765625 C-26.50130164 110.47590135 -25.08072841 110.47461942 -23.66015625 110.47265625 C-22.37641113 110.47152832 -21.09266602 110.47040039 -19.77001953 110.46923828 C-15.78657509 110.40044574 -15.78657509 110.40044574 -10.21484375 109.33984375 C-10.21484375 96.13984375 -10.21484375 82.93984375 -10.21484375 69.33984375 C-18.22403218 67.15551963 -24.14743947 65.84286966 -32.15234375 65.96484375 C-33.58803711 65.97789551 -33.58803711 65.97789551 -35.05273438 65.99121094 C-46.55578674 66.22939362 -55.12218827 68.07800493 -63.96484375 75.71484375 Z " fill="#2B2A29" transform="translate(189.21484375,49.66015625)"/>
<path d="M0 0 C0.8664917 0.11762695 1.7329834 0.23525391 2.62573242 0.35644531 C8.71624024 1.26011235 14.46329603 2.77428211 20.3125 4.6875 C19.23623883 12.09538271 18.04114339 19.40250286 16.3125 26.6875 C15.095625 26.419375 13.87875 26.15125 12.625 25.875 C11.79355469 25.69582031 10.96210938 25.51664063 10.10546875 25.33203125 C8.22159751 24.89729173 6.34833933 24.41412111 4.48828125 23.88671875 C-7.78718626 20.57029923 -21.57700788 19.57539083 -33.55859375 24.421875 C-36.68068815 26.2779458 -39.05503669 28.42257338 -40.6875 31.6875 C-41.19321563 36.76123719 -41.28186791 41.25561368 -39.3125 46 C-32.28638741 53.19340099 -22.57370626 56.55719631 -13.375 60.125 C4.99394593 67.43588759 4.99394593 67.43588759 13.3125 72.6875 C13.93382812 73.07808594 14.55515625 73.46867187 15.1953125 73.87109375 C21.82583742 78.68572114 25.54026467 86.93193805 27.3125 94.6875 C28.61367582 106.98767768 27.76257089 118.41267742 19.9375 128.4375 C9.22581462 139.48578178 -5.87469155 142.53273654 -20.6640625 142.9296875 C-35.21443403 143.12334652 -49.10677139 143.04968096 -62.9375 138.0625 C-63.59878906 137.83304688 -64.26007813 137.60359375 -64.94140625 137.3671875 C-66.52644698 136.81586899 -68.10747354 136.2530286 -69.6875 135.6875 C-68.94153037 128.2278037 -67.32003871 120.99798782 -65.6875 113.6875 C-61.07192678 114.24275693 -56.94061529 115.13286898 -52.5625 116.6875 C-44.36378332 119.58367005 -37.09281425 119.90047192 -28.4375 119.9375 C-26.65279297 119.9684375 -26.65279297 119.9684375 -24.83203125 120 C-16.54589345 120.03662381 -10.02223712 119.08543968 -2.75 115.0625 C0.25628068 111.60072225 1.17042797 108.24875997 1.3125 103.6875 C0.63626644 100.74868045 -0.39947791 98.45436227 -1.6875 95.6875 C-2.0175 94.6975 -2.3475 93.7075 -2.6875 92.6875 C-4.40350948 91.62663495 -4.40350948 91.62663495 -6.6875 90.6875 C-7.70457031 90.1615625 -8.72164063 89.635625 -9.76953125 89.09375 C-17.88445609 84.93171095 -26.10324043 81.18555683 -34.5 77.625 C-48.02058984 71.83563351 -59.19351572 66.37146803 -65.92578125 52.6796875 C-69.55332644 43.19226161 -68.36397072 32.16326676 -65.140625 22.765625 C-61.23785562 14.49846837 -53.90195731 7.64582611 -45.6875 3.6875 C-30.39971422 -1.77744411 -15.9609009 -2.21276446 0 0 Z " fill="#2B2A29" transform="translate(298.6875,39.3125)"/>
<path d="M0 0 C15.34749655 -0.41736085 30.56364693 2.37418282 42.09765625 13.1640625 C51.64372653 23.69765729 55.08090422 37.59996054 55.02368164 51.45239258 C55.02382767 52.37971191 55.02397369 53.30703125 55.02412415 54.26245117 C55.02342894 57.31952271 55.01565489 60.37653289 55.0078125 63.43359375 C55.00594693 65.55637071 55.00452368 67.67914811 55.00352478 69.80192566 C54.99971058 75.38322137 54.98988964 80.96449096 54.9788208 86.54577637 C54.96858311 92.24340461 54.96402211 97.94103708 54.95898438 103.63867188 C54.9482664 114.81381354 54.93120312 125.98893585 54.91015625 137.1640625 C51.75994846 137.8088326 48.60859868 138.44784922 45.45703125 139.0859375 C44.57644043 139.26624512 43.69584961 139.44655273 42.78857422 139.63232422 C18.33567639 144.56797825 -11.00779853 148.0517273 -33.08984375 134.1640625 C-40.40010919 128.83508396 -45.24944272 119.96465497 -47.08984375 111.1640625 C-48.20042364 97.31474837 -48.18177648 84.91188178 -38.96484375 73.8515625 C-27.99878796 62.5259639 -13.42399649 58.32624053 2.03125 57.86328125 C4.13667329 57.8489053 6.24219387 57.84507617 8.34765625 57.8515625 C9.38986328 57.83544922 10.43207031 57.81933594 11.50585938 57.80273438 C19.0242501 57.79807325 25.70868797 59.03575201 32.91015625 61.1640625 C33.96771567 42.42763454 33.96771567 42.42763454 26.84765625 25.6640625 C20.28564359 19.27266574 12.58788624 17.67491336 3.64599609 17.609375 C2.55754395 17.62742187 1.4690918 17.64546875 0.34765625 17.6640625 C-1.35076416 17.67566406 -1.35076416 17.67566406 -3.08349609 17.6875 C-12.49397556 17.87985047 -21.12650746 19.36770132 -30.08984375 22.1640625 C-31.47514196 16.70945081 -32.32953805 11.79687849 -32.08984375 6.1640625 C-21.87603472 1.27919731 -11.17340515 0.59327815 0 0 Z M-23.08984375 83.125 C-28.49736133 89.91039466 -29.90232143 96.62659861 -29.08984375 105.1640625 C-27.67914553 112.44279115 -24.41271994 118.06938603 -18.34375 122.4140625 C-3.41035213 130.85872824 17.22412335 126.90695504 32.91015625 125.1640625 C32.91015625 109.3240625 32.91015625 93.4840625 32.91015625 77.1640625 C15.81922022 72.03678169 -8.93422414 69.24585734 -23.08984375 83.125 Z " fill="#2B2A29" transform="translate(637.08984375,38.8359375)"/>
<path d="M0 0 C0 13.86 0 27.72 0 42 C18.15 42 36.3 42 55 42 C55 49.26 55 56.52 55 64 C36.85 64 18.7 64 0 64 C0.08912569 71.65308246 0.18012186 79.30581251 0.28729248 86.95861053 C0.33674485 90.52420941 0.38322066 94.08978391 0.421875 97.65551758 C-0.45812325 125.17694897 -0.45812325 125.17694897 7 151 C7.33 151.99 7.66 152.98 8 154 C13.94157395 157.74099101 20.22727091 158.38663851 27.0625 158.375 C28.31353516 158.37584595 28.31353516 158.37584595 29.58984375 158.37670898 C36.96576378 158.24692116 43.11919452 156.71095026 50 154 C50.99 153.67 51.98 153.34 53 153 C55.55004884 160.19113772 58 167.31306416 58 175 C40.42080884 183.14847214 18.54610648 185.2211623 0 179 C-9.16476036 174.94781257 -15.9696547 168.32541874 -20.16015625 159.20703125 C-23.22993532 151.13993741 -25.1282406 142.75632552 -25.12025452 134.11538696 C-25.12162918 132.96281403 -25.12300385 131.81024109 -25.12442017 130.6227417 C-25.12082489 129.37261292 -25.11722961 128.12248413 -25.11352539 126.83447266 C-25.11324307 125.49370323 -25.11340214 124.15293365 -25.1139679 122.81216431 C-25.1142541 119.18452249 -25.10838593 115.55691392 -25.10139394 111.9292798 C-25.09513098 108.13363089 -25.09455427 104.33798116 -25.09336853 100.54232788 C-25.09026388 93.3601622 -25.08206218 86.17801179 -25.07201904 78.99585283 C-25.06083098 70.81691132 -25.05534067 62.63796907 -25.05032361 54.45902181 C-25.03987884 37.63933894 -25.02229619 20.81967142 -25 4 C-20.65397889 2.73755837 -16.40369341 1.61642341 -11.9375 0.875 C-10.95652344 0.70742187 -9.97554687 0.53984375 -8.96484375 0.3671875 C-6 -0 -6 -0 0 0 Z " fill="#2B2A29" transform="translate(25,0)"/>
<path d="M0 0 C0 13.86 0 27.72 0 42 C16.5 42 33 42 50 42 C50 49.26 50 56.52 50 64 C33.5 64 17 64 0 64 C0.09092777 77.82144388 0.09092777 77.82144388 0.20898438 91.64257812 C0.26318944 97.28456069 0.31430397 102.92644643 0.34643555 108.56860352 C0.37255861 113.12048815 0.41302398 117.67204533 0.46318626 122.22372627 C0.47979432 123.95509309 0.49134617 125.68651646 0.49761391 127.41795158 C-0.0082227 141.99963947 -0.0082227 141.99963947 6.375 154.4375 C12.09086808 157.83980243 16.76654818 158.41761105 23.3125 158.4375 C24.1880957 158.44136719 25.06369141 158.44523438 25.96582031 158.44921875 C34.57464938 158.29944572 42.03688442 156.11406754 50 153 C50.83714909 156.29070841 51.66906896 159.58271647 52.5 162.875 C52.73847656 163.81214844 52.97695313 164.74929687 53.22265625 165.71484375 C53.44824219 166.61074219 53.67382812 167.50664062 53.90625 168.4296875 C54.11572266 169.25710449 54.32519531 170.08452148 54.54101562 170.93701172 C55 173 55 173 55 175 C52.14827038 175.98678898 49.29395658 176.96456818 46.4375 177.9375 C45.63763672 178.21529297 44.83777344 178.49308594 44.01367188 178.77929688 C28.79961047 183.93344829 9.04023237 184.45891891 -5.765625 177.74609375 C-16.60412817 171.79140713 -21.48977743 163.69107188 -25 152 C-25.80129962 147.91080731 -26.12393913 144.05122028 -26.12025452 139.88760376 C-26.12162918 138.6845459 -26.12300385 137.48148804 -26.12442017 136.24197388 C-26.12082489 134.93574066 -26.11722961 133.62950745 -26.11352539 132.28369141 C-26.11324309 130.88380943 -26.11340209 129.4839273 -26.1139679 128.08404541 C-26.11425419 124.29525229 -26.10838456 120.50649099 -26.10139394 116.71770525 C-26.09513248 112.75389296 -26.09455439 108.7900799 -26.09336853 104.82626343 C-26.09026344 97.32535436 -26.08206115 89.8244599 -26.07201904 82.32355726 C-26.06083236 73.7818656 -26.05534101 65.24017324 -26.05032361 56.69847608 C-26.03987784 39.13230894 -26.02229434 21.56615602 -26 4 C-21.67547774 2.74463765 -17.44278725 1.61940318 -13 0.875 C-11.5459375 0.62363281 -11.5459375 0.62363281 -10.0625 0.3671875 C-7 -0 -7 -0 0 0 Z " fill="#2B2A29" transform="translate(380,0)"/>
<path d="M0 0 C9.642238 8.87157585 13.03927206 20.85772712 13.88949203 33.63145065 C14.13873972 40.22961571 14.07167248 46.82839639 14.01953125 53.4296875 C14.01392293 55.5381693 14.00965869 57.64665507 14.00666809 59.75514221 C13.99531652 65.25419263 13.96593479 70.7529982 13.93255615 76.25195312 C13.90164424 81.88342987 13.888118 87.5149469 13.87304688 93.14648438 C13.84105414 104.15896063 13.78997769 115.17125668 13.7265625 126.18359375 C11.84346082 126.66650676 9.95950027 127.14607126 8.07519531 127.62426758 C7.02616028 127.89169266 5.97712524 128.15911774 4.89630127 128.43464661 C-18.41575978 133.94282971 -47.87303224 136.69631392 -69.58203125 124.90234375 C-78.63206587 119.12293122 -83.26672057 111.57834563 -86.0546875 101.3046875 C-88.50616507 89.19245291 -87.6229354 76.95479019 -81.2734375 66.18359375 C-73.32894959 55.38853587 -60.66605586 49.79632812 -47.7265625 47.6171875 C-33.32924062 45.96763492 -18.2214192 45.99171374 -4.2734375 50.18359375 C-4.61491838 29.49813514 -4.61491838 29.49813514 -15.0859375 12.37109375 C-22.74616527 7.11407469 -29.64861269 6.66681988 -38.7109375 6.74609375 C-40.42289307 6.75092773 -40.42289307 6.75092773 -42.16943359 6.75585938 C-51.63379487 6.9104666 -60.26074406 8.37183424 -69.2734375 11.18359375 C-70.66088131 5.814299 -71.68266815 0.69744101 -72.2734375 -4.81640625 C-49.64092838 -12.79979132 -19.9089961 -15.90667214 0 0 Z M-62.015625 71.62890625 C-67.41037239 77.47055579 -68.87399324 84.66012747 -68.6171875 92.375 C-67.85172385 98.62918596 -65.81598731 104.14173107 -61.2109375 108.55859375 C-47.83930687 118.70953055 -29.07071018 116.98039996 -13.3359375 115.24609375 C-12.54856201 115.15932373 -11.76118652 115.07255371 -10.94995117 114.9831543 C-7.30478986 114.83300606 -7.30478986 114.83300606 -4.2734375 113.18359375 C-4.18039732 111.71005027 -4.15597485 110.23208784 -4.15991211 108.75561523 C-4.15998764 107.81471542 -4.16006317 106.87381561 -4.16014099 105.90440369 C-4.16530228 104.88149734 -4.17046356 103.858591 -4.17578125 102.8046875 C-4.1771962 101.76288834 -4.17861115 100.72108917 -4.18006897 99.64772034 C-4.1856867 96.30548281 -4.1982422 92.96331118 -4.2109375 89.62109375 C-4.21595022 87.36132909 -4.22051352 85.10156338 -4.22460938 82.84179688 C-4.23566189 77.28903984 -4.25241726 71.7363215 -4.2734375 66.18359375 C-6.0176928 65.69235768 -7.76312324 65.20529308 -9.5090332 64.7199707 C-10.48089066 64.44828568 -11.45274811 64.17660065 -12.45405579 63.89668274 C-28.2287912 59.9068753 -49.16618908 60.9690603 -62.015625 71.62890625 Z " fill="#2B2A29" transform="translate(970.2734375,49.81640625)"/>
<path d="M0 0 C1.6168484 3.23369679 0.00851816 6.30628257 -0.9375 9.625 C-1.13279297 10.33140625 -1.32808594 11.0378125 -1.52929688 11.765625 C-2.01314492 13.51219844 -2.50575123 15.25634124 -3 17 C-6.75021047 16.34302882 -10.17057817 15.28783431 -13.75 14 C-18.90469512 12.26288663 -23.57503722 11.21438856 -29 11 C-29.87398437 10.96003906 -30.74796875 10.92007813 -31.6484375 10.87890625 C-40.94696277 10.65751279 -50.1165763 11.68369579 -58 17 C-62.89524165 22.14627969 -63.30624233 26.42666633 -63.20703125 33.28125 C-62.80983428 38.49727065 -60.74483647 41.50745101 -56.95703125 44.89453125 C-52.90703378 48.29728077 -48.59258635 50.32268615 -43.75 52.375 C-42.44977905 52.9462561 -42.44977905 52.9462561 -41.12329102 53.52905273 C-36.72831264 55.44830069 -32.3069979 57.29035592 -27.85546875 59.07421875 C-14.3889878 64.49386582 -1.42117387 70.65765227 5.375 84.25 C8.67681976 93.29532137 8.67681976 105.70467863 5.375 114.75 C0.67922277 124.14155446 -6.52669905 129.61149648 -16.32421875 133.2265625 C-38.76399595 140.33974159 -63.30036207 138.72414015 -85 130 C-84.38490238 127.35149716 -83.75850592 124.70660095 -83.125 122.0625 C-82.95097656 121.30775391 -82.77695312 120.55300781 -82.59765625 119.77539062 C-82.12755935 117.83406455 -81.5695703 115.91450456 -81 114 C-79 113 -79 113 -76.12890625 113.92578125 C-74.95199219 114.38339844 -73.77507813 114.84101563 -72.5625 115.3125 C-56.56630351 121.22865053 -37.89868294 122.92402879 -21.85546875 116.0859375 C-17.43532514 113.79676839 -14.1696991 110.82677281 -12.25 106.1875 C-11.48452722 99.48961322 -11.6710839 93.95225068 -15 88 C-19.77858627 82.65265715 -25.83649205 79.9087761 -32.3125 77.125 C-33.27510742 76.69791748 -34.23771484 76.27083496 -35.22949219 75.83081055 C-39.83416509 73.79225976 -44.45877426 71.80190943 -49.08984375 69.82421875 C-61.60092591 64.44983038 -74.90665739 58.47712174 -80.875 45.3125 C-84.50769616 34.61622797 -83.69628262 24.31663163 -79 14 C-72.0251916 3.67273787 -62.05535737 -2.39448728 -50 -5 C-33.79457249 -7.97293814 -15.21106728 -6.30102463 0 0 Z " fill="#2B2A29" transform="translate(1097,45)"/>
<path d="M0 0 C0 13.86 0 27.72 0 42 C17.82 42 35.64 42 54 42 C54 47.94 54 53.88 54 60 C36.18 60 18.36 60 0 60 C0.09126335 72.76188074 0.09126335 72.76188074 0.20898438 85.5234375 C0.2629618 90.74118252 0.31408127 95.95882805 0.34643555 101.17675781 C0.37276842 105.39152235 0.41337265 109.60594557 0.46318626 113.82049561 C0.47965522 115.41489358 0.491292 117.0093503 0.49761391 118.6038208 C0.58432535 139.44573151 0.58432535 139.44573151 9 158 C9 158.66 9 159.32 9 160 C9.721875 160.28875 10.44375 160.5775 11.1875 160.875 C14 162 14 162 16.0546875 163.04296875 C20.34251031 164.43622683 24.45309682 164.42511215 28.9375 164.4375 C30.33234619 164.44221313 30.33234619 164.44221313 31.75537109 164.44702148 C40.00887723 164.30516212 46.46720146 162.42910978 54 159 C54.99 158.67 55.98 158.34 57 158 C57.67184618 160.10251861 58.33730968 162.20707763 59 164.3125 C59.37125 165.48425781 59.7425 166.65601563 60.125 167.86328125 C61 171 61 171 61 174 C45.38865211 182.06055309 26.12670294 185.33304807 9 180 C-0.16069685 176.93101233 -6.68294156 172.00104282 -11.3125 163.4375 C-16.37343228 152.12093177 -17.44493502 140.73705019 -17.34057617 128.46728516 C-17.33972716 127.07607542 -17.34021038 125.68486436 -17.34190369 124.2936554 C-17.34275438 120.56514263 -17.32528137 116.83692728 -17.30418181 113.10848284 C-17.28525809 109.19411309 -17.28365234 105.27973437 -17.28010559 101.36532593 C-17.27083074 93.97441498 -17.24627967 86.58363928 -17.21605712 79.19278753 C-17.18236994 70.76942585 -17.16599133 62.34605727 -17.15097082 53.92264485 C-17.11972529 36.61501872 -17.06705491 19.30752372 -17 2 C-15.29301718 1.65981837 -13.58432867 1.3281911 -11.875 1 C-10.92367187 0.814375 -9.97234375 0.62875 -8.9921875 0.4375 C-6 0 -6 0 0 0 Z " fill="#2B2A29" transform="translate(746,0)"/>
<path d="M0 0 C0.00331015 0.75445624 0.00662029 1.50891249 0.01003075 2.28623104 C0.09134194 20.66558711 0.18346091 39.04486013 0.28752708 57.42410183 C0.33759411 66.31225816 0.38403761 75.20040554 0.421875 84.08862305 C0.45487319 91.83790703 0.49474741 99.58712033 0.54279006 107.33632618 C0.56797739 111.43735847 0.58978137 115.53834433 0.60334396 119.63943291 C0.6162351 123.50457712 0.63836451 127.36956151 0.66738319 131.23461723 C0.67640413 132.64825709 0.68213629 134.06192264 0.68421364 135.47558975 C0.57137217 148.09013034 0.57137217 148.09013034 4.5625 159.875 C9.10148061 163.83206002 15.1415319 165.05508579 21 166 C20.85737588 167.5627962 20.71074489 169.12522696 20.5625 170.6875 C20.48128906 171.55761719 20.40007813 172.42773438 20.31640625 173.32421875 C20.0091178 175.92289271 19.54837616 178.44244733 19 181 C8.69999944 181.52870725 -0.05403521 180.42041874 -8.24609375 173.734375 C-13.80843413 168.23397605 -16.65774845 161.54268015 -17.24609566 153.73359013 C-17.24425207 152.60439372 -17.24240849 151.47519732 -17.24050903 150.31178284 C-17.24325836 149.00638046 -17.24600769 147.70097809 -17.24884033 146.35601807 C-17.24176382 144.92687895 -17.23449423 143.49774077 -17.22705078 142.06860352 C-17.2264861 140.55034899 -17.22680434 139.03209393 -17.22793579 137.51383972 C-17.22850808 133.40689895 -17.21677388 129.30007573 -17.20278788 125.1931622 C-17.19025983 120.89570291 -17.18910838 116.59824073 -17.18673706 112.30076599 C-17.18052838 104.16946712 -17.16412586 96.03822222 -17.14403808 87.90694708 C-17.12166001 78.6469927 -17.11068085 69.38703571 -17.10064721 60.12706101 C-17.07975909 41.08467678 -17.04459503 22.04234273 -17 3 C-11.22407526 1.02381434 -6.10996958 -0.06182094 0 0 Z " fill="#2B2A29" transform="translate(846,0)"/>
<path d="M0 0 C119.46 0 238.92 0 362 0 C362 2.64 362 5.28 362 8 C242.54 8 123.08 8 0 8 C0 5.36 0 2.72 0 0 Z " fill="#221F1F" transform="translate(445,209)"/>
<path d="M0 0 C69.96 0 139.92 0 212 0 C212 2.31 212 4.62 212 7 C142.04 7 72.08 7 0 7 C0 4.69 0 2.38 0 0 Z " fill="#221F1F" transform="translate(520,231)"/>
</svg>
