<?xml version="1.0" encoding="UTF-8"?>
<svg version="1.1" xmlns="http://www.w3.org/2000/svg" width="1024" height="357">
<path d="M0 0 C4.07287665 -0.49624946 5.60948079 -0.28915915 8.96484375 2.1953125 C9.96950164 3.15770054 10.95997959 4.13505956 11.9375 5.125 C12.99164219 6.13988962 14.04632622 7.15421676 15.1015625 8.16796875 C15.60204102 8.6582959 16.10251953 9.14862305 16.61816406 9.65380859 C20.43014114 13.36745552 24.18708415 16.64939607 28.875 19.1875 C32 21 32 21 33 24 C33.99 24.33 34.98 24.66 36 25 C36 25.66 36 26.32 36 27 C36.66 27 37.32 27 38 27 C39.515625 28.57421875 39.515625 28.57421875 41.25 30.6875 C43.44913502 33.28522825 45.58824176 35.6272478 48.25 37.75 C51 40 51 40 52.4375 42.0625 C54.31109657 44.38575975 56.45264177 45.35715126 59.05078125 46.74609375 C62.09626256 48.70521098 64.39473055 51.31175395 66.890625 53.9140625 C70.31432981 57.29972614 74.16099645 60.1064227 78 63 C81.50711255 65.73554779 84.39852107 68.43987465 87.1875 71.875 C91.3490302 76.79063298 96.50304073 79.76134566 102 83 C103.485 83.99 103.485 83.99 105 85 C105 85.66 105 86.32 105 87 C106.485 87.495 106.485 87.495 108 88 C108 88.66 108 89.32 108 90 C109.485 90.495 109.485 90.495 111 91 C112.35827971 92.64639965 113.69254251 94.31295807 115 96 C115.66 96.33 116.32 96.66 117 97 C117 97.66 117 98.32 117 99 C120.91063224 100.47047336 120.91063224 100.47047336 125 101 C124.99777939 99.92116043 124.99555878 98.84232086 124.99327087 97.73078918 C124.97299872 87.56349217 124.95800819 77.39619925 124.94818783 67.2288866 C124.94296937 62.00178497 124.93589051 56.77469966 124.92456055 51.54760742 C124.91369487 46.50314359 124.90771534 41.45869545 124.90512276 36.41422081 C124.90327516 34.48970988 124.89966729 32.56519982 124.89426994 30.64069557 C124.88701073 27.94509652 124.88601113 25.24956233 124.88647461 22.55395508 C124.88287933 21.75841721 124.87928406 20.96287933 124.87557983 20.14323425 C124.8827246 16.30280408 125.06383961 12.73278851 126 9 C126.66 9 127.32 9 128 9 C128.4021875 8.1028125 128.4021875 8.1028125 128.8125 7.1875 C130.04078007 4.92487881 131.0104406 3.62197858 133 2 C135.17626953 1.50146484 135.17626953 1.50146484 137.7578125 1.3359375 C138.7365332 1.27245117 139.71525391 1.20896484 140.72363281 1.14355469 C146.77595554 0.87837095 152.8169841 0.69272172 158.875 0.625 C160.16664063 0.58761719 161.45828125 0.55023438 162.7890625 0.51171875 C172.1249139 0.42455831 172.1249139 0.42455831 176.296875 3.16796875 C180.99694992 10.9834603 180.10246819 20.31268873 179.46289062 29.10302734 C178.11105891 48.65289958 178.84778518 68.43461745 179.73193359 87.99926758 C179.78043457 89.13904053 179.82893555 90.27881348 179.87890625 91.453125 C179.9260376 92.45504883 179.97316895 93.45697266 180.02172852 94.48925781 C180 97 180 97 179 100 C178.71231264 105.16144961 178.84386335 110.31026072 179.5 115.4375 C180.3034161 121.78448718 181.0399828 128.8800516 179 135 C178.90712229 136.68545724 178.87002796 138.374493 178.875 140.0625 C178.87242187 140.94035156 178.86984375 141.81820312 178.8671875 142.72265625 C178.85166576 145.03198266 178.85166576 145.03198266 180 147 C180.09499503 148.49756871 180.12987198 149.99942932 180.125 151.5 C180.12757813 152.2940625 180.13015625 153.088125 180.1328125 153.90625 C180 156 180 156 179 158 C178.94847043 159.54243737 178.96267807 161.08731092 179.01000977 162.62988281 C179.04983727 164.07213226 179.04983727 164.07213226 179.09046936 165.54351807 C179.12377853 166.58618835 179.15708771 167.62885864 179.19140625 168.703125 C179.24965424 170.90233569 179.30758698 173.10155474 179.36523438 175.30078125 C179.46218273 178.77472297 179.56245405 182.24849771 179.66870117 185.72216797 C179.76901105 189.06980177 179.85602773 192.41758172 179.94140625 195.765625 C179.97673965 196.80019836 180.01207306 197.83477173 180.04847717 198.9006958 C180.17187781 204.0377952 180.09966724 208.19288056 178 213 C174.62537285 212.45276317 172.91765 211.9451 170 210 C170 209.01 170 208.02 170 207 C169.01 207 168.02 207 167 207 C165.3125 205.6875 165.3125 205.6875 164 204 C164 203.01 164 202.02 164 201 C163.01 201 162.02 201 161 201 C161 200.34 161 199.68 161 199 C159.9171875 198.6596875 159.9171875 198.6596875 158.8125 198.3125 C155.43417673 196.73594914 153.56203262 194.69013425 151 192 C150.071875 191.278125 149.14375 190.55625 148.1875 189.8125 C147.465625 189.214375 146.74375 188.61625 146 188 C146 187.34 146 186.68 146 186 C145.38125 185.7525 144.7625 185.505 144.125 185.25 C141.59641373 183.76259631 141.28160996 182.56321991 140 180 C139.43410156 179.7215625 138.86820313 179.443125 138.28515625 179.15625 C135.30561601 177.64865357 132.99457246 175.64307025 130.4375 173.5 C127.67088289 171.18760361 125.00123452 169.00082301 122 167 C122 166.34 122 165.68 122 165 C121.01 164.67 120.02 164.34 119 164 C119 163.34 119 162.68 119 162 C118.34 162 117.68 162 117 162 C115.65080468 160.34614767 114.31866272 158.678298 113 157 C111.515 156.01 111.515 156.01 110 155 C110 154.34 110 153.68 110 153 C109.01 153 108.02 153 107 153 C105.31002677 151.35697047 103.64783606 149.68528688 102 148 C100.74525572 147.08176718 99.47396498 146.18573684 98.1875 145.3125 C97.135625 144.549375 96.08375 143.78625 95 143 C95 142.34 95 141.68 95 141 C94.48308594 140.77957031 93.96617187 140.55914062 93.43359375 140.33203125 C90.02498692 138.4663251 87.10093048 136.09839373 84.0625 133.6875 C83.15081055 132.9769043 83.15081055 132.9769043 82.22070312 132.25195312 C78.56763416 129.37126983 75.26003726 126.32939975 72 123 C71.236875 122.443125 70.47375 121.88625 69.6875 121.3125 C68.8521875 120.6628125 68.8521875 120.6628125 68 120 C68 119.34 68 118.68 68 118 C67.42765625 117.731875 66.8553125 117.46375 66.265625 117.1875 C63.92115366 115.95867364 61.87595062 114.57477824 59.75 113 C59.04359375 112.484375 58.3371875 111.96875 57.609375 111.4375 C57.07828125 110.963125 56.5471875 110.48875 56 110 C56 109.34 56 108.68 56 108 C55.34 108 54.68 108 54 108 C54.01665459 109.8061805 54.01665459 109.8061805 54.03364563 111.64884949 C54.13497874 122.9933562 54.20994501 134.33777117 54.25906086 145.68262768 C54.28516077 151.51525412 54.32056691 157.34751538 54.37719727 163.17993164 C54.43150164 168.80797734 54.46141756 174.43567166 54.47438622 180.06395912 C54.48362882 182.21181076 54.50167751 184.35964304 54.52865028 186.5073452 C54.56491891 189.5146791 54.56994616 192.52055896 54.56762695 195.52807617 C54.59459152 196.86164406 54.59459152 196.86164406 54.62210083 198.22215271 C54.58578489 202.57080688 54.40340074 204.45162013 51.75520325 208.05155945 C48.9268203 210.05175164 47.74288502 210.62964836 44.34912109 210.64697266 C43.45824799 210.66273346 42.56737488 210.67849426 41.64950562 210.69473267 C40.70040314 210.68461151 39.75130066 210.67449036 38.7734375 210.6640625 C37.29648911 210.67123795 37.29648911 210.67123795 35.78970337 210.67855835 C33.71362709 210.68195383 31.63749708 210.67277613 29.56152344 210.65185547 C26.37835207 210.62502825 23.19868857 210.65164515 20.015625 210.68359375 C17.99738804 210.68029071 15.97915326 210.67388667 13.9609375 210.6640625 C13.00778656 210.67418365 12.05463562 210.68430481 11.07260132 210.69473267 C8.61279528 210.65090508 6.39401337 210.56630569 4 210 C0.75284862 206.36198427 0.2970759 202.28948493 -0.1875 197.5625 C-0.26718018 196.83893311 -0.34686035 196.11536621 -0.42895508 195.36987305 C-1.57012547 183.70689099 -1.93655534 171.56967677 0 160 C-0.10660103 157.9959007 -0.27613787 155.99440806 -0.5 154 C-1.24186771 145.67776613 -0.63616941 137.57110704 0.51367188 129.30908203 C1.04376836 125.0818426 1.14486417 120.92415599 1.1328125 116.66796875 C1.13376923 115.90954178 1.13472595 115.15111481 1.13571167 114.3697052 C1.13638682 112.78235795 1.1345794 111.19500783 1.13037109 109.60766602 C1.12497566 107.17653273 1.13035774 104.74558104 1.13671875 102.31445312 C1.13605858 100.76562459 1.13477869 99.21679617 1.1328125 97.66796875 C1.13483673 96.94296677 1.13686096 96.21796478 1.13894653 95.47099304 C1.12447164 92.37283305 0.98758733 89.96276199 0 87 C-0.07309992 84.38759173 -0.09188108 81.80277468 -0.0625 79.19140625 C-0.05871338 78.42827621 -0.05492676 77.66514618 -0.05102539 76.87889099 C-0.03468442 73.61605283 -0.00656104 70.35334013 0.02050781 67.09057617 C0.0385991 64.70752543 0.05069001 62.32449507 0.0625 59.94140625 C0.07079834 59.20588028 0.07909668 58.47035431 0.08764648 57.71253967 C0.10392426 54.30867403 -0.00539833 51.26302522 -1 48 C-1.33093274 41.97507745 -1.01840719 35.95668694 -0.58935547 29.94433594 C-0.04711522 22.33205001 -0.05549984 14.96769379 -0.68139648 7.35668945 C-1.09286971 2.18573943 -1.09286971 2.18573943 0 0 Z " fill="#000100" transform="translate(791,36)"/>
<path d="M0 0 C5.35106713 -0.11096683 10.60941747 0.02461936 15.94140625 0.50219727 C25.16956478 1.18130984 34.38276931 1.09641984 43.63122559 1.04459953 C46.87687635 1.02699456 50.12247655 1.01684476 53.36816406 1.00868225 C62.5851721 0.9844016 71.80211068 0.94847825 81.01904297 0.90405273 C86.68264322 0.87726752 92.34620544 0.8602316 98.00985718 0.84918404 C100.15963155 0.84298693 102.30939854 0.83299753 104.45913696 0.81910515 C107.45718251 0.79987804 110.45502608 0.79299236 113.453125 0.78881836 C114.77636024 0.77567596 114.77636024 0.77567596 116.12632751 0.76226807 C120.79129708 0.76967828 124.66936151 1.04169793 129 3 C132.83852081 7.37307992 133.54518083 10.83325264 133.75 16.5625 C133.77674805 17.25851318 133.80349609 17.95452637 133.83105469 18.67163086 C133.88103444 20.09459339 133.92178199 21.51791127 133.953125 22.94140625 C133.99675455 24.85747054 134.0751126 26.77265728 134.15625 28.6875 C134.32810144 34.87415199 134.31792421 39.66762181 131 45 C122.95757795 50.40495339 107.17567254 48.09661751 97.875 48.125 C96.79645752 48.12967285 95.71791504 48.1343457 94.60668945 48.13916016 C89.60415588 48.12896451 84.92686537 47.94018585 80 47 C70.06245412 46.44504614 60.62584454 47.55937523 51 50 C51.06889805 53.93327952 51.15687179 57.86562514 51.26245117 61.7980957 C51.31201319 63.7929063 51.34651133 65.78807257 51.38085938 67.78320312 C51.41630859 69.03681641 51.45175781 70.29042969 51.48828125 71.58203125 C51.51446533 72.73936768 51.54064941 73.8967041 51.56762695 75.08911133 C51.78733103 77.95352344 51.78733103 77.95352344 53.20483398 79.85766602 C62.59775556 85.83474748 83.62530466 81.98793203 94.38183594 81.82861328 C97.42646569 81.7860745 100.47077824 81.76279852 103.515625 81.7421875 C104.43458557 81.72356659 105.35354614 81.70494568 106.300354 81.6857605 C112.3919173 81.66180326 117.35299294 82.7160606 123 85 C122.75660889 85.91918213 122.75660889 85.91918213 122.50830078 86.85693359 C121.95710057 89.18086992 121.86702154 91.2394399 121.875 93.625 C121.87242187 94.40101563 121.86984375 95.17703125 121.8671875 95.9765625 C121.87326631 98.06959248 121.87326631 98.06959248 123 100 C123.3427381 103.05417728 123.37059069 106.11659334 123.4375 109.1875 C123.48326172 110.02603516 123.52902344 110.86457031 123.57617188 111.72851562 C123.65971137 116.38130211 123.2445616 119.34352943 120.30859375 123.0546875 C117.54533585 125.83911667 115.64006565 126.88572981 111.625 126.9375 C110.57699219 126.96457031 109.52898437 126.99164063 108.44921875 127.01953125 C106.74185547 127.00986328 106.74185547 127.00986328 105 127 C103.78957031 127.02449219 102.57914062 127.04898438 101.33203125 127.07421875 C94.00375778 127.16977297 86.75048226 126.89313523 79.4375 126.4375 C71.30753186 125.94545127 63.06761728 125.66314699 55 127 C54.67 127.66 54.34 128.32 54 129 C53.34 129 52.68 129 52 129 C51.92558011 133.18087152 51.87127182 137.3613873 51.83520508 141.54272461 C51.8201624 142.96369141 51.79972296 144.38461213 51.77368164 145.80541992 C51.73709653 147.85346886 51.72022903 149.9009015 51.70703125 151.94921875 C51.68346558 153.79519653 51.68346558 153.79519653 51.65942383 155.6784668 C52.0392195 159.38249552 52.50951426 161.22316298 55 164 C58.04255881 164.84973728 58.04255881 164.84973728 61.59765625 164.83984375 C62.25645279 164.86497543 62.91524933 164.89010712 63.5940094 164.91600037 C71.54317368 165.16024859 79.49426229 164.86757456 87.4375 164.5625 C119.44482012 163.40747002 119.44482012 163.40747002 129 165 C130.155 165.185625 131.31 165.37125 132.5 165.5625 C133.7375 165.7790625 133.7375 165.7790625 135 166 C135 166.66 135 167.32 135 168 C135.99 168.33 136.98 168.66 138 169 C138.16882299 173.1440111 138.32924147 177.28824064 138.48217773 181.43286133 C138.53525651 182.84017494 138.59055488 184.24740678 138.64819336 185.65454102 C138.73106765 187.68748341 138.80571996 189.7205947 138.87890625 191.75390625 C138.9260376 192.97408447 138.97316895 194.1942627 139.02172852 195.45141602 C138.99963828 199.05907395 138.59215864 202.44505435 138 206 C137.01 206.33 136.02 206.66 135 207 C135 207.66 135 208.32 135 209 C132.68337869 210.15831066 131.41740952 210.10206095 128.84375 210.0625 C127.99498291 210.05420166 127.14621582 210.04590332 126.27172852 210.03735352 C125.35705811 210.02502686 124.4423877 210.0127002 123.5 210 C115.82184052 209.93623992 108.21936473 210.08094694 100.56640625 210.73242188 C96.18675661 211.053197 91.99345202 210.87279224 87.61645508 210.49780273 C80.24076426 209.94955033 72.95959623 209.97600743 65.5703125 210.15625 C63.56066577 210.19595265 61.55101888 210.23564889 59.54136467 210.27497101 C56.069126 210.34464986 52.59707589 210.42269942 49.125 210.5 C44.95034145 210.59242742 40.77567843 210.68306621 36.60079956 210.76501465 C34.01631498 210.81629765 31.43192628 210.87275771 28.84768677 210.93518066 C22.76605417 211.05585356 17.0118525 210.92514023 11 210 C9.60300054 210.02548424 8.20540401 210.07761205 6.8125 210.1875 C3 210 3 210 0.1875 208.6875 C-6.41567728 200.57502505 -5.59150149 188.91902499 -5 179 C-4.67 178.01 -4.34 177.02 -4 176 C-3.64849832 172.42601163 -3.53339666 168.83721842 -3.375 165.25 C-3.3234375 164.27289063 -3.271875 163.29578125 -3.21875 162.2890625 C-2.97646809 157.00161601 -3.1533571 152.21424519 -4 147 C-3.74170301 145.06277261 -3.48125574 143.12565327 -3.18994141 141.19311523 C-2.97912747 138.75900013 -3.17865923 136.58658292 -3.4609375 134.16015625 C-4.15267297 127.16710656 -4.14648435 120.20930032 -4.125 113.1875 C-4.12886719 111.90423828 -4.13273437 110.62097656 -4.13671875 109.29882812 C-4.13542969 108.05939453 -4.13414063 106.81996094 -4.1328125 105.54296875 C-4.13168457 104.42946045 -4.13055664 103.31595215 -4.12939453 102.16870117 C-4.001389 99.03401469 -3.58437311 96.07941995 -3 93 C-3.66 93 -4.32 93 -5 93 C-5 92.01 -5 91.02 -5 90 C-4.34 90 -3.68 90 -3 90 C-2.81843467 84.73460549 -3.12682648 79.96610278 -4.03125 74.7734375 C-5.29210075 66.20927378 -4.9945862 57.87489779 -4.625 49.25 C-4.50796988 46.21371855 -4.39807749 43.17720341 -4.2890625 40.140625 C-4.24656876 39.02205612 -4.24656876 39.02205612 -4.20321655 37.88088989 C-3.97858496 31.56698282 -3.96243468 25.26125789 -4.04507446 18.94415283 C-4.10531935 11.99271179 -3.25182764 6.20306618 0 0 Z " fill="#010101" transform="translate(54,36)"/>
<path d="M0 0 C0.85021288 0.04695731 1.70042576 0.09391462 2.57640266 0.14229488 C4.01317706 0.21472487 4.01317706 0.21472487 5.4789772 0.28861809 C6.5243408 0.34449876 7.5697044 0.40037943 8.64674568 0.45795345 C19.96170158 0.9952715 31.23500423 1.13251703 42.56072044 1.06676197 C45.73156123 1.04892185 48.9023489 1.03893877 52.07322884 1.03084469 C61.06653509 1.00674633 70.0597668 0.97044364 79.05299568 0.92621517 C84.6049307 0.89944179 90.15682716 0.88240419 95.70881462 0.87134647 C97.80834981 0.8651581 99.90787751 0.85517979 102.00737572 0.84126759 C104.92530252 0.82205095 107.84302195 0.81515748 110.76100349 0.8109808 C111.61809914 0.8022192 112.47519478 0.7934576 113.35826302 0.7844305 C117.96813899 0.79196298 121.76976319 1.11033741 126.05739021 3.02216244 C132.5197651 10.00851366 131.25562809 20.84746356 131.30739021 29.83466244 C131.33832771 31.2065472 131.33832771 31.2065472 131.36989021 32.60614681 C131.41970242 41.16761984 131.41970242 41.16761984 128.05739021 45.02216244 C120.47831075 50.48848966 104.26196161 48.11886782 95.30739021 48.14716244 C93.73586189 48.15417171 93.73586189 48.15417171 92.13258553 48.16132259 C91.14355232 48.15922787 90.15451912 48.15713314 89.13551521 48.15497494 C87.81148689 48.15328304 87.81148689 48.15328304 86.46071053 48.15155697 C84.17795303 48.02865353 82.25895767 47.60008794 80.05739021 47.02216244 C77.37769947 46.90010025 74.73682837 46.83200016 72.05739021 46.83466244 C70.92986336 46.83478329 70.92986336 46.83478329 69.77955818 46.83490658 C62.37312397 46.90983855 55.11206328 47.67060475 48.05739021 50.02216244 C48.1015477 53.95560437 48.17138005 57.88767189 48.26490974 61.82025814 C48.3069767 63.81505375 48.32876885 65.81024325 48.35035896 67.80536556 C48.38258553 69.05897884 48.41481209 70.31259212 48.44801521 71.60419369 C48.46896248 72.76153011 48.48990974 73.91886654 48.51149178 75.11127377 C48.79490582 78.08577493 48.79490582 78.08577493 50.83107185 79.87543392 C53.113928 81.05128383 54.74607268 81.5241652 57.28785896 81.78778744 C58.09158943 81.87286556 58.8953199 81.95794369 59.72340584 82.04559994 C60.55549568 82.12036556 61.38758553 82.19513119 62.24489021 82.27216244 C63.05764412 82.36239681 63.87039803 82.45263119 64.70778084 82.54559994 C69.44973287 83.013382 73.74915911 82.91459372 78.46095467 82.288764 C84.30270073 81.6889345 90.19068341 81.79516913 96.05739021 81.77216244 C98.02965584 81.74122494 98.02965584 81.74122494 100.04176521 81.70966244 C107.40014492 81.68011071 113.24520185 82.18375062 120.05739021 85.02216244 C119.89512947 85.64018734 119.73286873 86.25821224 119.56569099 86.89496517 C118.51793567 91.27973564 118.63173277 95.74519011 120.05739021 100.02216244 C120.38289274 103.09977931 120.42684205 106.17949074 120.49489021 109.27216244 C120.54065193 110.10618587 120.58641365 110.94020931 120.63356209 111.79950619 C120.71719225 116.43188968 120.29152786 119.37554692 117.37379646 123.07294369 C114.57428756 125.89845422 112.62441281 126.90825344 108.55739021 126.95966244 C107.51582771 126.98673275 106.47426521 127.01380306 105.40114021 127.04169369 C104.29770271 127.03524837 103.19426521 127.02880306 102.05739021 127.02216244 C100.91270271 127.04665462 99.76801521 127.07114681 98.58864021 127.09638119 C91.95419054 127.1917881 85.44913722 126.85847153 78.84645271 126.24872494 C70.03389352 125.53285878 60.79590344 125.73386981 52.05739021 127.02216244 C51.72739021 127.68216244 51.39739021 128.34216244 51.05739021 129.02216244 C50.39739021 129.02216244 49.73739021 129.02216244 49.05739021 129.02216244 C48.98297032 133.20303396 48.92866203 137.38354974 48.89259529 141.56488705 C48.87755261 142.98585385 48.85711317 144.40677456 48.83107185 145.82758236 C48.79448674 147.87563129 48.77761924 149.92306394 48.76442146 151.97138119 C48.74085579 153.81735897 48.74085579 153.81735897 48.71681404 155.70062923 C49.09694353 159.40791362 49.55945461 161.24667843 52.05739021 164.02216244 C55.15778251 164.87091789 55.15778251 164.87091789 58.76051521 164.86200619 C59.42271065 164.88713787 60.08490608 164.91226955 60.76716805 164.9381628 C67.43994159 165.14406592 74.11274954 164.95205078 80.7806263 164.66953182 C84.26933488 164.52344448 87.75911055 164.40779375 91.24879646 164.28778744 C91.92952721 164.26380383 92.61025795 164.23982021 93.3116169 164.21510983 C127.07982664 163.03730149 127.07982664 163.03730149 133.35817146 167.74872494 C136.65771969 172.1632929 135.93545277 177.69402641 136.05739021 183.02216244 C136.07785408 183.77062435 136.09831795 184.51908627 136.11940193 185.29022884 C136.17881734 187.68010306 136.21653161 190.06922793 136.24489021 192.45966244 C136.26470955 193.59492367 136.26470955 193.59492367 136.28492928 194.75311947 C136.29082934 199.18898108 136.04890948 202.96137691 134.05739021 207.02216244 C129.81228445 210.89460625 125.21336743 210.33304279 119.80739021 210.14716244 C111.98265721 209.99809953 104.33377053 210.23566422 96.53785896 210.90106869 C92.7165367 211.11007491 88.99824789 210.82152318 85.1853199 210.51996517 C77.61672405 209.97229576 70.11683107 209.99257692 62.53004646 210.17841244 C60.52257188 210.21811489 58.51509715 210.25781094 56.50761509 210.29713345 C53.04492084 210.36673029 49.58241921 210.44484774 46.11989021 210.52216244 C41.95195149 210.61462524 37.78400676 210.70522736 33.61584663 210.78717709 C31.03692583 210.83844254 28.45810127 210.89489775 25.87942696 210.9573431 C19.80622591 211.0781805 14.06097681 210.94541502 8.05739021 210.02216244 C6.66039075 210.04764667 5.26279422 210.09977449 3.86989021 210.20966244 C0.05739021 210.02216244 0.05739021 210.02216244 -2.81760979 208.45966244 C-7.75225946 202.79932899 -7.22626582 195.63831358 -7.13010979 188.52216244 C-7.12438957 187.52837582 -7.11866936 186.5345892 -7.1127758 185.51068783 C-7.03368263 177.18498779 -6.69608839 168.87279085 -6.21092033 160.56122494 C-5.95624648 155.83772178 -6.05580292 151.69360963 -6.94260979 147.02216244 C-6.78635979 144.81903744 -6.78635979 144.81903744 -6.44260979 142.77216244 C-6.00830843 139.55797928 -5.98943318 136.74651683 -6.40354729 133.53388119 C-7.078688 127.37918931 -7.08922697 121.27077876 -7.06760979 115.08466244 C-7.07147697 113.98186947 -7.07534416 112.8790765 -7.07932854 111.74286556 C-7.07207236 105.5932555 -6.79022575 99.56216598 -6.16966057 93.44476986 C-5.8787088 90.34034579 -5.8098365 87.26425009 -5.81760979 84.14716244 C-5.8137426 82.57321712 -5.8137426 82.57321712 -5.80979729 80.96747494 C-5.84744344 78.1344075 -5.84744344 78.1344075 -6.44260979 75.87982845 C-7.11494379 72.03721641 -7.0853096 68.24175202 -7.07542229 64.35419369 C-7.07637901 63.51933941 -7.07733574 62.68448513 -7.07832146 61.82433224 C-7.07900046 60.06011536 -7.07716567 58.29589596 -7.07298088 56.53168392 C-7.0676625 53.86113365 -7.07291785 51.19075415 -7.07932854 48.52020931 C-7.08149692 40.96503801 -7.04342968 33.53852846 -6.11643791 26.0297308 C-5.83471256 22.7760404 -6.25276654 19.630544 -6.63010979 16.39716244 C-7.165079 9.87185893 -6.61148345 6.41756488 -2.94260979 1.02216244 C-1.94260979 0.02216244 -1.94260979 0.02216244 0 0 Z " fill="#000000" transform="translate(616.9426097869873,35.977837562561035)"/>
<path d="M0 0 C0.99 0 1.98 0 3 0 C3.79831456 1.37115097 4.5883061 2.74714884 5.375 4.125 C5.81585938 4.89070313 6.25671875 5.65640625 6.7109375 6.4453125 C8 9 8 9 8.9296875 11.83984375 C10.19249428 15.56834991 11.93476296 18.9583314 13.75 22.4375 C17.15825003 29.08541327 20.03455348 35.80771593 22.67578125 42.79296875 C23.89996049 45.75772143 25.29636347 48.29188167 27 51 C27.92517032 52.68285291 28.84151791 54.3705797 29.75 56.0625 C31.90901211 60.0446779 34.13744402 63.97265782 36.4375 67.875 C37.62710177 69.91544276 38.81456825 71.95713177 40 74 C40.60199219 75.02996094 41.20398438 76.05992188 41.82421875 77.12109375 C45.67702839 83.94917504 48.28280525 90.6235742 50.62109375 98.09375 C52.74347926 104.45286109 55.97607037 110.326134 59.08496094 116.24609375 C60.30395685 118.582611 61.46446425 120.94650455 62.625 123.3125 C64.3430173 126.76588831 66.1798254 130.13372148 68.0625 133.5 C70.47004423 137.85709804 72.41361679 142.24029798 74.140625 146.90625 C75.01893821 149.24206306 75.01893821 149.24206306 77 152 C77 152.99 77 153.98 77 155 C77.66 155 78.32 155 79 155 C79.391875 155.804375 79.78375 156.60875 80.1875 157.4375 C81.5565472 160.12838588 82.98635106 162.70591421 84.5 165.3125 C86.9738849 169.70719583 88.59506386 174.16839036 90 179 C90.66 179 91.32 179 92 179 C94.60584399 182.73881964 96.21185373 186.8276587 98 191 C98.556875 191.763125 99.11375 192.52625 99.6875 193.3125 C102.11430014 198.2816622 101.61871375 203.83450187 100.125 209.0625 C99 211 99 211 97 212 C95.66945763 212.13177726 94.33311305 212.2077012 92.99682617 212.25292969 C92.17224411 212.28255798 91.34766205 212.31218628 90.49809265 212.3427124 C89.60540176 212.36883606 88.71271088 212.39495972 87.79296875 212.421875 C86.87542313 212.44977112 85.9578775 212.47766724 85.01252747 212.50640869 C83.06824418 212.56285599 81.12387682 212.61646736 79.17944336 212.66748047 C76.20947488 212.74939392 73.24074848 212.85298496 70.27148438 212.95703125 C68.38284923 213.00916082 66.49417751 213.05998457 64.60546875 213.109375 C63.27554146 213.16070587 63.27554146 213.16070587 61.91874695 213.21307373 C57.10189342 213.31136796 53.88936224 213.19888904 50 210 C48.6875 207.8125 48.6875 207.8125 48 206 C47.34 206 46.68 206 46 206 C42.61443082 199.43199579 39.44155411 192.99940518 37.15234375 185.9609375 C35.5351762 183.2090117 34.02076706 182.96925072 31 182 C28.67941761 181.6988294 26.34680111 181.48433597 24.01171875 181.33203125 C23.34968948 181.28809738 22.68766022 181.24416351 22.00556946 181.19889832 C20.60984708 181.10841876 19.21384984 181.0220936 17.81762695 180.93969727 C15.70364367 180.81346399 13.59128367 180.67041106 11.47851562 180.52539062 C4.83667048 180.09544943 -1.42369347 179.89363314 -8 181 C-9.60268782 181.08048949 -11.20780272 181.13078269 -12.8125 181.125 C-13.54082031 181.12757813 -14.26914062 181.13015625 -15.01953125 181.1328125 C-17 181 -17 181 -20 180 C-25.64249611 179.56596184 -29.06727109 180.48527546 -34 183 C-36.60168493 185.60168493 -37.14851727 188.01184327 -38.3125 191.5 C-44.27584703 208.76677226 -44.27584703 208.76677226 -50 212 C-52.95457032 212.42677371 -55.87912444 212.37250047 -58.859375 212.328125 C-59.72258362 212.32625183 -60.58579224 212.32437866 -61.47515869 212.32244873 C-63.30086124 212.3157328 -65.12654951 212.30182737 -66.95214844 212.28125 C-69.72604993 212.25026751 -72.49938054 212.24029194 -75.2734375 212.234375 C-77.05209015 212.22519656 -78.8307371 212.21481814 -80.609375 212.203125 C-81.43048767 212.19887512 -82.25160034 212.19462524 -83.09759521 212.19024658 C-96.45920616 212.02719589 -96.45920616 212.02719589 -101 209 C-100.5179569 204.30007982 -99.06132267 200.62203291 -97.08984375 196.3984375 C-96.03851443 194.08475936 -95.1394563 191.75478975 -94.25 189.375 C-92.29785922 184.43008308 -89.81798718 179.82457473 -87.27880859 175.16601562 C-82.83314645 166.94796739 -78.93408482 158.47139598 -75 150 C-74.40107095 148.71613217 -73.80211487 147.43227695 -73.203125 146.1484375 C-70.21186648 139.7153288 -70.21186648 139.7153288 -67.4375 133.1875 C-65.66594593 129.25927141 -63.67431338 125.39805496 -61 122 C-60.34 122 -59.68 122 -59 122 C-58.87496094 121.41863281 -58.74992187 120.83726562 -58.62109375 120.23828125 C-57.81749396 117.34228955 -56.46216472 114.92452429 -55.03515625 112.29296875 C-53.8739743 109.87869374 -53.8739743 109.87869374 -53.08203125 106.6640625 C-51.96232514 102.87242233 -50.45625605 99.6860787 -48.625 96.1875 C-46.49745211 92.06927684 -44.51236639 87.96670515 -42.875 83.625 C-41.42868823 79.85360474 -39.64035969 76.69399417 -37.421875 73.33203125 C-35.214263 69.71130497 -33.40019686 65.89662704 -31.53173828 62.09423828 C-29.49755196 57.96401918 -27.35416243 53.95499288 -25 50 C-24.34 50 -23.68 50 -23 50 C-22.85949219 49.4225 -22.71898437 48.845 -22.57421875 48.25 C-20.71639441 40.97036177 -17.85638957 34.53596944 -14.4140625 27.86328125 C-13.23034883 25.46642457 -12.25168133 23.14425459 -11.375 20.625 C-9.98419159 16.95832329 -8.19795751 14.22825009 -6 11 C-4.99515117 8.66875071 -3.99477753 6.33556463 -3 4 C-1.5 1.5625 -1.5 1.5625 0 0 Z M0 101 C-0.35191406 101.90878906 -0.70382812 102.81757813 -1.06640625 103.75390625 C-3.72880052 110.55374341 -6.52112123 117.23070143 -9.6875 123.8125 C-12.37200565 129.40703887 -14.51005583 134.96927359 -16 141 C-14.11771631 143.31652492 -14.11771631 143.31652492 -11.01904297 143.22705078 C-9.14949951 143.21134033 -9.14949951 143.21134033 -7.2421875 143.1953125 C-6.57913605 143.1924826 -5.91608459 143.18965271 -5.23294067 143.18673706 C-3.11344417 143.17553435 -0.99436896 143.15043051 1.125 143.125 C2.56119182 143.11497028 3.99739025 143.10584441 5.43359375 143.09765625 C8.95586628 143.075595 12.47789203 143.04106494 16 143 C16.89308018 139.79722969 17.01033584 138.15503855 15.875 135 C15.59140625 134.20980469 15.3078125 133.41960937 15.015625 132.60546875 C13.53048417 128.79551131 11.93282002 125.03601655 10.33203125 121.2734375 C8.4116258 116.55408334 6.76283016 111.75328551 5.11328125 106.93359375 C4.07687263 103.87329589 4.07687263 103.87329589 2 101 C1.34 101 0.68 101 0 101 Z " fill="#010101" transform="translate(313,34)"/>
<path d="M0 0 C0.74702682 -0.00095673 1.49405365 -0.00191345 2.26371765 -0.00289917 C3.83784062 -0.00357669 5.41196645 -0.00175237 6.98608398 0.00244141 C9.36904333 0.00777295 11.75181225 0.00249358 14.13476562 -0.00390625 C26.84661045 -0.007571 26.84661045 -0.007571 32.4921875 0.703125 C36.02708428 1.38572811 36.02708428 1.38572811 39.07421875 0.1328125 C43.80071255 -0.20198081 48.49627439 0.1414601 53.19921875 0.6328125 C58.97636447 1.2186639 64.69455562 1.16906209 70.49609375 1.0703125 C74.07421875 1.1328125 74.07421875 1.1328125 77.65234375 1.6953125 C80.93013038 2.28841158 80.93013038 2.28841158 83.58544922 1.68164062 C91.75864427 0.39589238 100.19247562 0.74498744 108.44970703 0.67285156 C110.77934271 0.64619744 113.1088593 0.60522133 115.43798828 0.54980469 C118.81460752 0.4705346 122.18899213 0.43752744 125.56640625 0.4140625 C126.5999826 0.38107056 127.63355896 0.34807861 128.69845581 0.31408691 C135.37597257 0.33245716 138.81891801 1.66485734 143.63113403 6.3338623 C146.7948299 10.2777273 146.44691018 15.11372133 146.69921875 19.9453125 C146.76677368 21.20952026 146.76677368 21.20952026 146.83569336 22.49926758 C147.1675301 29.78656788 146.84399368 36.8732428 146.07421875 44.1328125 C145.08421875 44.4628125 144.09421875 44.7928125 143.07421875 45.1328125 C143.07421875 45.7928125 143.07421875 46.4528125 143.07421875 47.1328125 C136.88217487 50.22883444 127.03522549 48.04887938 120.3515625 47.25390625 C117.90850433 46.98463116 117.90850433 46.98463116 115.07421875 48.1328125 C111.75778135 48.15812882 108.45695548 48.10666532 105.14257812 48.00585938 C100.70280537 47.93525494 97.17997679 48.42889147 93.07421875 50.1328125 C89.64042451 53.56660674 91.0476569 63.01185244 91.046875 67.58203125 C91.05493709 70.53055652 91.07384483 73.47820836 91.11108398 76.42651367 C91.11954346 77.34795166 91.12800293 78.26938965 91.13671875 79.21875 C91.14832031 80.0442334 91.15992188 80.8697168 91.171875 81.72021484 C91.06810609 84.28382574 90.60428158 86.62617465 90.07421875 89.1328125 C89.98439433 91.21462552 89.94408638 93.29906886 89.94921875 95.3828125 C89.94664062 96.43984375 89.9440625 97.496875 89.94140625 98.5859375 C89.78593337 101.06763501 89.78593337 101.06763501 91.07421875 102.1328125 C91.20153832 103.53204395 91.26244432 104.93741573 91.29541016 106.34204102 C91.31858307 107.23709854 91.34175598 108.13215607 91.3656311 109.05433655 C91.38548065 110.03027267 91.4053302 111.0062088 91.42578125 112.01171875 C91.46051041 113.51266335 91.46051041 113.51266335 91.49594116 115.04393005 C91.54368599 117.16993955 91.58890683 119.29600695 91.63183594 121.42211914 C91.69843615 124.65729666 91.77639412 127.89205944 91.85546875 131.12695312 C91.90043302 133.19269336 91.94472482 135.25844835 91.98828125 137.32421875 C92.01217926 138.28598526 92.03607727 139.24775177 92.06069946 140.23866272 C92.1604915 145.66422147 91.83657206 150.76235138 91.07421875 156.1328125 C91.01581421 157.53539746 90.9852713 158.94019872 91.01171875 160.34375 C91.02332031 161.37435547 91.02332031 161.37435547 91.03515625 162.42578125 C91.05449219 163.45638672 91.05449219 163.45638672 91.07421875 164.5078125 C91.2077564 171.86573719 91.2077564 171.86573719 90.07421875 174.1328125 C89.76895655 178.78557226 89.76895655 178.78557226 91.07421875 183.1328125 C91.26236918 187.93064858 90.76345101 192.39434069 90.07421875 197.1328125 C90.15671875 198.1434375 90.23921875 199.1540625 90.32421875 200.1953125 C89.95705924 204.5094367 88.07259904 206.0630422 85.07421875 209.1328125 C82.83404674 210.25289851 81.5573514 210.28722579 79.07104492 210.34155273 C78.24646286 210.36084335 77.4218808 210.38013397 76.5723114 210.40000916 C72.79947273 210.45774572 69.02682465 210.50702395 65.25366211 210.5378418 C63.26422783 210.55943256 61.27488882 210.59354822 59.28588867 210.64038086 C56.41672378 210.70732725 53.54952286 210.73483043 50.6796875 210.75390625 C49.79306931 210.78173691 48.90645111 210.80956757 47.9929657 210.83824158 C43.50087182 210.82329822 41.63184202 210.570695 38.00219727 207.72045898 C35.14296071 203.49810662 35.46607066 199.03638866 35.62109375 194.109375 C35.63085739 193.13873108 35.64062103 192.16808716 35.65068054 191.16802979 C35.68618949 188.03053524 35.75533879 184.89473442 35.82421875 181.7578125 C35.86788706 178.53988778 35.90245455 175.32195915 35.93577576 172.10391235 C35.9576735 169.99595267 35.98219919 167.88801858 36.00941467 165.78012085 C36.09922894 158.1658967 35.94372681 150.61204906 35.51171875 143.0078125 C35.12894057 136.09159595 35.07883303 129.51535658 35.91796875 122.62109375 C36.18267664 120.14032885 36.18267664 120.14032885 35.59228516 117.77954102 C35.08929566 115.20983834 34.94504968 112.91025465 34.94140625 110.296875 C34.94011719 109.39710938 34.93882812 108.49734375 34.9375 107.5703125 C34.94136719 106.6421875 34.94523437 105.7140625 34.94921875 104.7578125 C34.94341797 103.37722656 34.94341797 103.37722656 34.9375 101.96875 C34.94297428 98.13675435 35.02309117 94.48511348 35.57421875 90.6875 C36.28083355 85.66391042 36.22149574 80.69923743 36.19921875 75.6328125 C36.19728516 74.57578125 36.19535156 73.51875 36.19335938 72.4296875 C36.14871871 64.29516586 35.8013264 56.23486922 35.07421875 48.1328125 C34.07793457 48.14066772 34.07793457 48.14066772 33.06152344 48.14868164 C9.85182597 48.30767974 9.85182597 48.30767974 1.1484375 47.25390625 C-1.12341046 46.99258856 -1.12341046 46.99258856 -3.92578125 48.1328125 C-5.61123849 48.22569021 -7.30027425 48.26278454 -8.98828125 48.2578125 C-10.30505859 48.26167969 -10.30505859 48.26167969 -11.6484375 48.265625 C-13.92578125 48.1328125 -13.92578125 48.1328125 -15.92578125 47.1328125 C-15.92578125 46.4728125 -15.92578125 45.8128125 -15.92578125 45.1328125 C-16.58578125 45.1328125 -17.24578125 45.1328125 -17.92578125 45.1328125 C-19.07153338 42.84130823 -19.12327615 41.35227914 -19.2421875 38.80078125 C-19.28432373 37.92550781 -19.32645996 37.05023438 -19.36987305 36.1484375 C-19.40894775 35.21515625 -19.44802246 34.281875 -19.48828125 33.3203125 C-19.52928955 32.37285156 -19.57029785 31.42539063 -19.61254883 30.44921875 C-20.47820077 9.40115172 -20.47820077 9.40115172 -17.92578125 4.1328125 C-13.13553105 -0.6574377 -6.36603278 -0.01824273 0 0 Z " fill="#000000" transform="translate(431.92578125,35.8671875)"/>
<path d="M0 0 C3.20434439 5.24347264 3.63741773 9.78787023 2.3125 15.75 C0.01597122 20.57271044 -2.9746477 22.40858682 -7.9375 24.375 C-14.35573378 25.08813709 -17.71051187 24.16712864 -22.9375 20.375 C-26.37204021 16.36803642 -27.22195171 11.55735461 -26.9375 6.375 C-25.61994481 2.16705813 -23.43586305 -0.21330878 -20.0625 -3 C-12.3438037 -7.01372208 -6.3409977 -5.66642348 0 0 Z M-16.9375 4.375 C-17.69969109 7.74134398 -18.19918445 10.38059908 -17.3125 13.75 C-15.99765004 15.55918842 -15.99765004 15.55918842 -13.625 16.3125 C-10.05020613 16.39563474 -8.5789006 15.78999483 -5.9375 13.375 C-5.38863486 8.98407888 -5.46083918 7.08999122 -7.9375 3.375 C-12.58895592 2.99475225 -12.58895592 2.99475225 -16.9375 4.375 Z " fill="#090909" transform="translate(220.9375,290.625)"/>
<path d="M0 0 C4.05531117 2.88550987 6.82749192 5.07546608 8 10 C8.3220595 14.50883297 8.25409932 18.02849168 6 22 C1.37631092 26.25866099 -2.38616906 28.58989165 -8.8359375 28.45703125 C-14.12307114 27.34043443 -18.09743511 23.35384734 -21 19 C-22.34288973 12.80204742 -22.05220611 9.55937541 -19 4 C-14.47888402 -1.47932265 -6.20654018 -3.38538555 0 0 Z M-12 8.5625 C-13.39537637 11.96372991 -12.74768043 14.4655107 -12 18 C-8.56888638 19.51607346 -6.77438477 20.23568232 -3.125 19.125 C-0.71983202 16.71983202 -0.65135092 16.18944363 -0.5625 12.9375 C-0.58516344 8.99837319 -0.58516344 8.99837319 -3 7 C-7.84306239 6.4110159 -7.84306239 6.4110159 -12 8.5625 Z " fill="#090909" transform="translate(381,287)"/>
<path d="M0 0 C0 0.66 0 1.32 0 2 C0.66 2 1.32 2 2 2 C4.6378266 6.58981828 4.63711965 10.82340288 4 16 C2.69169945 19.99923692 0.72266401 22.49085036 -2.75 24.9375 C-8.11906436 26.69277104 -12.65501281 26.95475828 -17.75 24.5 C-21.74088324 21.91551497 -23.58503571 18.4625797 -25 14 C-25.59276702 9.70243911 -25.34688161 7.68042161 -23.375 3.8125 C-20.10276404 -0.06251626 -16.9669242 -2.30064917 -12.1875 -4 C-7.55508114 -4 -4.059296 -2.10181326 0 0 Z M-14 5 C-16.32749345 8.49124017 -16.50299316 9.89222251 -16 14 C-14.45714369 16.54331238 -14.45714369 16.54331238 -12 18 C-9.13788059 17.93019221 -7.57004712 17.37347914 -5.1875 15.8125 C-3.41739165 13.11075568 -3.60584197 11.15326426 -4 8 C-4.93597315 5.98048938 -4.93597315 5.98048938 -7 5 C-10.54213985 4.49992206 -10.54213985 4.49992206 -14 5 Z " fill="#0A0A0A" transform="translate(186,289)"/>
<path d="M0 0 C16.64705882 0 16.64705882 0 22.375 5.125 C24.58735319 9.03916333 25.21345623 12.51741907 25 17 C23.65505602 20.63134875 22.14428873 23.67089724 19 26 C13 28 13 28 0 28 C0 18.76 0 9.52 0 0 Z M8 8 C8 11.96 8 15.92 8 20 C12.34184202 19.81535634 12.34184202 19.81535634 16 18 C16.4384576 13.31877614 16.4384576 13.31877614 14.8125 9.0625 C12.6312462 7.57856708 12.6312462 7.57856708 8 8 Z " fill="#090909" transform="translate(229,286)"/>
<path d="M0 0 C2.4375 0.8125 2.4375 0.8125 5 2 C5.33 2.99 5.66 3.98 6 5 C6.99 5.33 7.98 5.66 9 6 C9 6.66 9 7.32 9 8 C9.61875 8.309375 10.2375 8.61875 10.875 8.9375 C12.25 9.625 13.625 10.3125 15 11 C15.09087891 9.93458984 15.09087891 9.93458984 15.18359375 8.84765625 C15.26738281 7.92855469 15.35117187 7.00945312 15.4375 6.0625 C15.51871094 5.14597656 15.59992187 4.22945313 15.68359375 3.28515625 C16 1 16 1 17 0 C20 -0.125 20 -0.125 23 0 C24 1 24 1 24.11352539 3.68383789 C24.10828857 4.85164795 24.10305176 6.01945801 24.09765625 7.22265625 C24.09443359 8.48271484 24.09121094 9.74277344 24.08789062 11.04101562 C24.07953403 12.38151109 24.07106907 13.72200588 24.0625 15.0625 C24.0574866 16.40689942 24.05292342 17.7513006 24.04882812 19.09570312 C24.03699488 22.39717941 24.02050971 25.69856803 24 29 C20.16124536 27.2100189 17.31849839 24.75020716 14.25 21.875 C13.74339844 21.40707031 13.23679687 20.93914062 12.71484375 20.45703125 C11.47280859 19.30873459 10.23588506 18.15491328 9 17 C8.67 20.63 8.34 24.26 8 28 C5.36 28 2.72 28 0 28 C-0.19581346 23.52115561 -0.3802636 19.04191574 -0.5625 14.5625 C-0.61857422 13.28310547 -0.67464844 12.00371094 -0.73242188 10.68554688 C-0.78076172 9.47060547 -0.82910156 8.25566406 -0.87890625 7.00390625 C-0.9260376 5.87799072 -0.97316895 4.7520752 -1.02172852 3.59204102 C-1 1 -1 1 0 0 Z " fill="#030303" transform="translate(617,286)"/>
<path d="M0 0 C4.84911211 0.04036122 8.25197677 0.36489139 12.3125 3.25 C14.31075961 6.24738941 14.58800398 6.88347508 14.5625 10.25 C14.56765625 10.930625 14.5728125 11.61125 14.578125 12.3125 C14.3125 14.25 14.3125 14.25 12.3125 17.25 C11.6525 17.25 10.9925 17.25 10.3125 17.25 C10.993125 18.3225 11.67375 19.395 12.375 20.5 C14.34721002 23.91157733 14.34721002 23.91157733 14.0625 26.6875 C13.815 27.203125 13.5675 27.71875 13.3125 28.25 C11.0025 28.25 8.6925 28.25 6.3125 28.25 C4.9925 25.61 3.6725 22.97 2.3125 20.25 C2.0959375 21.9515625 2.0959375 21.9515625 1.875 23.6875 C1.3125 27.25 1.3125 27.25 0.3125 28.25 C-2.6875 28.375 -2.6875 28.375 -5.6875 28.25 C-7.46199594 26.47550406 -6.81780072 23.89982739 -6.8203125 21.5 C-6.82160156 20.3346875 -6.82289063 19.169375 -6.82421875 17.96875 C-6.82035156 16.7415625 -6.81648438 15.514375 -6.8125 14.25 C-6.81636719 13.0228125 -6.82023437 11.795625 -6.82421875 10.53125 C-6.82292969 9.3659375 -6.82164062 8.200625 -6.8203125 7 C-6.81918457 5.92234375 -6.81805664 4.8446875 -6.81689453 3.734375 C-6.57641222 -0.88288533 -4.07308372 0.06011932 0 0 Z M1.3125 8.25 C1.3125 9.57 1.3125 10.89 1.3125 12.25 C2.9625 11.92 4.6125 11.59 6.3125 11.25 C6.3125 10.26 6.3125 9.27 6.3125 8.25 C4.6625 8.25 3.0125 8.25 1.3125 8.25 Z " fill="#070707" transform="translate(400.6875,285.75)"/>
<path d="M0 0 C3.59896342 0.77638549 5.48221072 1.97211732 8.25 4.4375 C8.95640625 5.05496094 9.6628125 5.67242187 10.390625 6.30859375 C12 8 12 8 12 10 C16.31395419 7.53488332 20.22702173 4.83864413 23.6875 1.25 C25 0 25 0 27 0 C27 8.91 27 17.82 27 27 C24.69 27 22.38 27 20 27 C19.67 23.37 19.34 19.74 19 16 C18.34 16 17.68 16 17 16 C16.67 16.99 16.34 17.98 16 19 C12.62537285 18.45276317 10.91765 17.9451 8 16 C8.01160156 16.71027344 8.02320313 17.42054688 8.03515625 18.15234375 C8.04869141 19.53099609 8.04869141 19.53099609 8.0625 20.9375 C8.07410156 21.85402344 8.08570313 22.77054687 8.09765625 23.71484375 C8 26 8 26 7 27 C4 27.125 4 27.125 1 27 C0 26 0 26 -0.11352539 23.49975586 C-0.10828857 22.41573486 -0.10305176 21.33171387 -0.09765625 20.21484375 C-0.09443359 19.04501953 -0.09121094 17.87519531 -0.08789062 16.66992188 C-0.07951172 15.43822266 -0.07113281 14.20652344 -0.0625 12.9375 C-0.05798828 11.70193359 -0.05347656 10.46636719 -0.04882812 9.19335938 C-0.03699608 6.12885883 -0.02051173 3.06445279 0 0 Z " fill="#040404" transform="translate(456,287)"/>
<path d="M0 0 C3 0.125 3 0.125 4 1.125 C4.07205511 2.81108966 4.08386068 4.50000659 4.0625 6.1875 C4.05347656 7.10660156 4.04445313 8.02570313 4.03515625 8.97265625 C4.02355469 9.68292969 4.01195312 10.39320313 4 11.125 C6.64 11.125 9.28 11.125 12 11.125 C12 7.825 12 4.525 12 1.125 C15.465 0.63 15.465 0.63 19 0.125 C20.73052187 3.84887044 21.20493549 6.55665465 20.9765625 10.64453125 C20.925 11.66611328 20.8734375 12.68769531 20.8203125 13.74023438 C20.75585938 14.79533203 20.69140625 15.85042969 20.625 16.9375 C20.56828125 18.01193359 20.5115625 19.08636719 20.453125 20.19335938 C20.31207992 22.83795466 20.16071024 25.48153894 20 28.125 C17.66705225 28.16741723 15.33297433 28.16592937 13 28.125 C12 27.125 12 27.125 11.90234375 24.83984375 C11.91394531 23.92332031 11.92554688 23.00679688 11.9375 22.0625 C11.94652344 21.14339844 11.95554687 20.22429687 11.96484375 19.27734375 C11.97644531 18.56707031 11.98804688 17.85679687 12 17.125 C9.36 17.125 6.72 17.125 4 17.125 C4 20.755 4 24.385 4 28.125 C1.66705225 28.16741723 -0.66702567 28.16592937 -3 28.125 C-4.77449594 26.35050406 -4.13030072 23.77482739 -4.1328125 21.375 C-4.13410156 20.2096875 -4.13539063 19.044375 -4.13671875 17.84375 C-4.13285156 16.6165625 -4.12898438 15.389375 -4.125 14.125 C-4.12886719 12.8978125 -4.13273437 11.670625 -4.13671875 10.40625 C-4.13542969 9.2409375 -4.13414062 8.075625 -4.1328125 6.875 C-4.13168457 5.79734375 -4.13055664 4.7196875 -4.12939453 3.609375 C-3.93972678 -0.03224581 -3.70414701 0.15433946 0 0 Z " fill="#040404" transform="translate(272,285.875)"/>
<path d="M0 0 C1 1 1 1 1.09765625 3.28515625 C1.08605469 4.20167969 1.07445313 5.11820312 1.0625 6.0625 C1.05347656 6.98160156 1.04445313 7.90070313 1.03515625 8.84765625 C1.02355469 9.55792969 1.01195313 10.26820313 1 11 C3.64 11 6.28 11 9 11 C9 7.7 9 4.4 9 1 C11.3260857 0.61936779 13.66055264 0.28730055 16 0 C17.77449594 1.77449594 17.13030072 4.35017261 17.1328125 6.75 C17.13474609 8.49796875 17.13474609 8.49796875 17.13671875 10.28125 C17.13285156 11.5084375 17.12898438 12.735625 17.125 14 C17.13080078 15.84078125 17.13080078 15.84078125 17.13671875 17.71875 C17.13542969 18.8840625 17.13414063 20.049375 17.1328125 21.25 C17.13168457 22.32765625 17.13055664 23.4053125 17.12939453 24.515625 C17 27 17 27 16 28 C13 28.125 13 28.125 10 28 C9 27 9 27 8.90234375 24.71484375 C8.91394531 23.79832031 8.92554687 22.88179688 8.9375 21.9375 C8.94652344 21.01839844 8.95554687 20.09929687 8.96484375 19.15234375 C8.97644531 18.44207031 8.98804687 17.73179687 9 17 C6.36 17 3.72 17 1 17 C1.01160156 17.71027344 1.02320312 18.42054688 1.03515625 19.15234375 C1.04869141 20.53099609 1.04869141 20.53099609 1.0625 21.9375 C1.07410156 22.85402344 1.08570312 23.77054687 1.09765625 24.71484375 C1 27 1 27 0 28 C-3 28.125 -3 28.125 -6 28 C-7 27 -7 27 -7.11352539 24.49975586 C-7.10828857 23.41573486 -7.10305176 22.33171387 -7.09765625 21.21484375 C-7.09443359 20.04501953 -7.09121094 18.87519531 -7.08789062 17.66992188 C-7.07951172 16.43822266 -7.07113281 15.20652344 -7.0625 13.9375 C-7.05798828 12.70193359 -7.05347656 11.46636719 -7.04882812 10.19335938 C-7.03699608 7.12885883 -7.02051173 4.06445279 -7 1 C-4.51588385 -0.24205807 -2.74800896 -0.14092354 0 0 Z " fill="#040404" transform="translate(83,286)"/>
<path d="M0 0 C1.29550781 -0.02126953 1.29550781 -0.02126953 2.6171875 -0.04296875 C5.2491288 0.19890748 6.86480544 0.85766459 9.125 2.1875 C9.125 4.1675 9.125 6.1475 9.125 8.1875 C7.75214844 8.24357422 7.75214844 8.24357422 6.3515625 8.30078125 C5.16304687 8.36652344 3.97453125 8.43226563 2.75 8.5 C1.56664062 8.55800781 0.38328125 8.61601562 -0.8359375 8.67578125 C-1.83882812 8.84464844 -2.84171875 9.01351563 -3.875 9.1875 C-6.05020782 12.45031174 -6.15744319 13.4215908 -5.875 17.1875 C-5.545 18.1775 -5.215 19.1675 -4.875 20.1875 C-2.565 20.5175 -0.255 20.8475 2.125 21.1875 C2.125 18.8775 2.125 16.5675 2.125 14.1875 C4.45794775 14.14508277 6.79202567 14.14657063 9.125 14.1875 C10.125 15.1875 10.125 15.1875 10.22265625 17.69140625 C10.21105469 18.70074219 10.19945312 19.71007812 10.1875 20.75 C10.17847656 21.76191406 10.16945313 22.77382813 10.16015625 23.81640625 C10.14855469 24.59886719 10.13695312 25.38132812 10.125 26.1875 C5.50874158 28.95725505 1.45792494 30.11406997 -3.875 29.1875 C-7.52752704 27.83417325 -10.23453021 25.95606375 -12.75 22.9375 C-14.91735213 17.63952813 -15.37232342 13.84524472 -13.75 8.4375 C-10.41327409 2.65384176 -6.56349471 0.04869061 0 0 Z " fill="#050505" transform="translate(531.875,285.8125)"/>
<path d="M0 0 C1.58206057 0.00667536 3.16410534 0.0186375 4.74609375 0.03515625 C5.55240234 0.03966797 6.35871094 0.04417969 7.18945312 0.04882812 C9.18753131 0.06065107 11.18557158 0.07858711 13.18359375 0.09765625 C13.51359375 2.07765625 13.84359375 4.05765625 14.18359375 6.09765625 C11.4243519 7.90177592 10.29387272 8.11038075 6.93359375 7.72265625 C6.02609375 7.51640625 5.11859375 7.31015625 4.18359375 7.09765625 C4.18359375 8.41765625 4.18359375 9.73765625 4.18359375 11.09765625 C6.82359375 11.09765625 9.46359375 11.09765625 12.18359375 11.09765625 C12.18359375 13.07765625 12.18359375 15.05765625 12.18359375 17.09765625 C8.22359375 17.59265625 8.22359375 17.59265625 4.18359375 18.09765625 C4.18359375 18.75765625 4.18359375 19.41765625 4.18359375 20.09765625 C7.48359375 20.42765625 10.78359375 20.75765625 14.18359375 21.09765625 C14.22613731 23.09720371 14.22440158 25.09807261 14.18359375 27.09765625 C12.29806845 28.98318155 9.60590544 28.23012314 7.1015625 28.234375 C6.30363281 28.23050781 5.50570312 28.22664063 4.68359375 28.22265625 C3.88566406 28.22652344 3.08773437 28.23039062 2.265625 28.234375 C-3.68979858 28.22426392 -3.68979858 28.22426392 -4.81640625 27.09765625 C-4.91612411 25.18307343 -4.94721214 23.26483308 -4.94921875 21.34765625 C-4.95050781 20.18234375 -4.95179688 19.01703125 -4.953125 17.81640625 C-4.94925781 16.58921875 -4.94539062 15.36203125 -4.94140625 14.09765625 C-4.94527344 12.87046875 -4.94914063 11.64328125 -4.953125 10.37890625 C-4.95183594 9.21359375 -4.95054687 8.04828125 -4.94921875 6.84765625 C-4.94809082 5.77 -4.94696289 4.69234375 -4.94580078 3.58203125 C-4.73523626 -0.46080751 -4.25457388 0.10886832 0 0 Z " fill="#040404" transform="translate(651.81640625,285.90234375)"/>
<path d="M0 0 C5.61 0 11.22 0 17 0 C17.66 1.98 18.32 3.96 19 6 C15.5980513 8.09350689 12.94727588 8.17942163 9 8 C8.67 8.99 8.34 9.98 8 11 C10.64 11 13.28 11 16 11 C16 12.98 16 14.96 16 17 C13.36 17 10.72 17 8 17 C8 18.32 8 19.64 8 21 C11.63 21 15.26 21 19 21 C19.04254356 22.99954746 19.04080783 25.00041636 19 27 C18 28 18 28 16.23413086 28.11352539 C15.48526611 28.10828857 14.73640137 28.10305176 13.96484375 28.09765625 C12.87224243 28.09390991 12.87224243 28.09390991 11.75756836 28.09008789 C10.8269458 28.08098389 9.89632324 28.07187988 8.9375 28.0625 C4.5134375 28.0315625 4.5134375 28.0315625 0 28 C0 18.76 0 9.52 0 0 Z " fill="#040404" transform="translate(107,286)"/>
<path d="M0 0 C0.83265381 0.00523682 1.66530762 0.01047363 2.52319336 0.01586914 C3.42231445 0.0190918 4.32143555 0.02231445 5.24780273 0.02563477 C6.66609375 0.03820312 6.66609375 0.03820312 8.11303711 0.05102539 C9.06243164 0.05553711 10.01182617 0.06004883 10.98999023 0.06469727 C13.34356776 0.07652429 15.69702188 0.09300514 18.05053711 0.11352539 C19.05053711 3.11352539 19.05053711 3.11352539 18.27319336 5.15649414 C17.69891602 6.21803711 17.69891602 6.21803711 17.11303711 7.30102539 C16.73276367 8.01645508 16.35249023 8.73188477 15.96069336 9.46899414 C15.6603418 10.01168945 15.35999023 10.55438477 15.05053711 11.11352539 C14.39053711 11.11352539 13.73053711 11.11352539 13.05053711 11.11352539 C12.94741211 11.83540039 12.84428711 12.55727539 12.73803711 13.30102539 C11.99066779 16.35844532 10.77008522 18.49682174 9.05053711 21.11352539 C9.68862305 21.10192383 10.32670898 21.09032227 10.98413086 21.07836914 C12.22356445 21.06483398 12.22356445 21.06483398 13.48803711 21.05102539 C14.31174805 21.03942383 15.13545898 21.02782227 15.98413086 21.01586914 C18.05053711 21.11352539 18.05053711 21.11352539 19.05053711 22.11352539 C19.17553711 24.61352539 19.17553711 24.61352539 19.05053711 27.11352539 C18.05053711 28.11352539 18.05053711 28.11352539 16.00927734 28.22705078 C15.134729 28.22181396 14.26018066 28.21657715 13.35913086 28.21118164 C12.41489258 28.20795898 11.4706543 28.20473633 10.49780273 28.20141602 C9.00796875 28.18884766 9.00796875 28.18884766 7.48803711 28.17602539 C6.49094727 28.17151367 5.49385742 28.16700195 4.46655273 28.16235352 C1.99448862 28.15052546 -0.47745807 28.13404388 -2.94946289 28.11352539 C-3.27946289 27.45352539 -3.60946289 26.79352539 -3.94946289 26.11352539 C-3.14501953 24.32592773 -3.14501953 24.32592773 -1.85961914 22.19946289 C-1.17802734 21.05864258 -1.17802734 21.05864258 -0.48266602 19.89477539 C0.00266602 19.10071289 0.48799805 18.30665039 0.98803711 17.48852539 C1.46950195 16.68672852 1.9509668 15.88493164 2.44702148 15.05883789 C3.64110476 13.07263997 4.84248912 11.09124997 6.05053711 9.11352539 C5.48463867 8.98075195 4.91874023 8.84797852 4.33569336 8.71118164 C3.6022168 8.53458008 2.86874023 8.35797852 2.11303711 8.17602539 C1.01668945 7.91499023 1.01668945 7.91499023 -0.10180664 7.64868164 C-1.94946289 7.11352539 -1.94946289 7.11352539 -2.94946289 6.11352539 C-3.07446289 3.61352539 -3.07446289 3.61352539 -2.94946289 1.11352539 C-1.94946289 0.11352539 -1.94946289 0.11352539 0 0 Z " fill="#050505" transform="translate(577.949462890625,285.886474609375)"/>
<path d="M0 0 C0.85722656 -0.00515625 1.71445312 -0.0103125 2.59765625 -0.015625 C4.9375 0.25 4.9375 0.25 7.9375 2.25 C8.125 4.875 8.125 4.875 7.9375 7.25 C4.784132 7.95074844 2.21025026 8.25 -1.0625 8.25 C-1.3925 8.91 -1.7225 9.57 -2.0625 10.25 C-0.45375 10.62125 -0.45375 10.62125 1.1875 11 C5.00228629 12.27159543 6.57316239 13.06723784 8.9375 16.25 C9.875 18.6875 9.875 18.6875 9.9375 21.25 C8.30224253 24.86477966 6.50818164 27.46465918 2.9375 29.25 C-1.29785277 29.67276661 -5.01383945 29.59955352 -9.0625 28.25 C-10.41689668 25.54120665 -10.12751451 23.24066732 -10.0625 20.25 C-6.7625 20.25 -3.4625 20.25 -0.0625 20.25 C-1.93029347 18.11144755 -1.93029347 18.11144755 -4.5 17.3125 C-7.18275839 16.20013676 -8.4225193 15.62797202 -10.0625 13.25 C-10.86692399 9.84666774 -11.38108949 7.32161918 -10.375 3.9375 C-7.62254692 0.39863176 -4.29565217 -0.02591645 0 0 Z " fill="#040404" transform="translate(323.0625,285.75)"/>
<path d="M0 0 C0.99 0 1.98 0 3 0 C3.44730469 1.0621875 3.89460937 2.124375 4.35546875 3.21875 C8.11667331 12.27499957 8.11667331 12.27499957 13 20.75 C15 24 15 24 14.625 26.203125 C14.315625 27.09257812 14.315625 27.09257812 14 28 C10.625 28.1875 10.625 28.1875 7 28 C6.34 27.01 5.68 26.02 5 25 C3.03638136 24.42251197 3.03638136 24.42251197 0.875 24.3125 C-0.40375 24.209375 -1.6825 24.10625 -3 24 C-3.33 25.32 -3.66 26.64 -4 28 C-6.64 28 -9.28 28 -12 28 C-11.3805773 23.17601112 -9.3418579 19.37596408 -7.125 15.125 C-4.55613945 10.14724458 -2.14843159 5.17515283 0 0 Z M1 14 C0.67 15.32 0.34 16.64 0 18 C0.66 18 1.32 18 2 18 C1.67 16.68 1.34 15.36 1 14 Z " fill="#070707" transform="translate(557,286)"/>
<path d="M0 0 C0.66 0 1.32 0 2 0 C2.25692627 0.54938232 2.51385254 1.09876465 2.77856445 1.66479492 C3.95378039 4.17366801 5.13310075 6.6805909 6.3125 9.1875 C6.71662109 10.05181641 7.12074219 10.91613281 7.53710938 11.80664062 C9.16883703 15.26908711 10.75938917 18.61575657 12.79296875 21.86328125 C14 24 14 24 14 28 C10.625 28.1875 10.625 28.1875 7 28 C6.34 27.01 5.68 26.02 5 25 C3.03638136 24.42251197 3.03638136 24.42251197 0.875 24.3125 C-0.40375 24.209375 -1.6825 24.10625 -3 24 C-3.66 25.32 -4.32 26.64 -5 28 C-7.31 28 -9.62 28 -12 28 C-12.73684885 23.28416734 -10.79905593 20.7923339 -8.296875 17.0390625 C-6.47746448 14.17842307 -5.28602845 11.1311997 -4 8 C-2.70207695 5.31415194 -1.35278731 2.65892679 0 0 Z M0 16 C0 16.66 0 17.32 0 18 C0.66 17.67 1.32 17.34 2 17 C1.34 16.67 0.68 16.34 0 16 Z " fill="#080808" transform="translate(500,286)"/>
<path d="M0 0 C1.9375 1.875 1.9375 1.875 3 4 C3 4.99 3 5.98 3 7 C3.99 7 4.98 7 6 7 C6.268125 6.05125 6.53625 5.1025 6.8125 4.125 C8 1 8 1 11 -1 C13.33199388 -1.07905064 15.66832622 -1.08798769 18 -1 C17.45185113 3.24815377 16.00273677 5.6888655 13.5 9.125 C10.17131286 14.12482395 9.18850379 17.92259474 9.0703125 23.8828125 C9 26 9 26 8 27 C5 27.125 5 27.125 2 27 C0.4828316 25.4828316 0.81277448 23.98676983 0.6875 21.875 C0.22147759 16.99729878 -1.44220846 14.12547023 -4 10 C-4 9.01 -4 8.02 -4 7 C-4.66 7 -5.32 7 -6 7 C-6.99 4.69 -7.98 2.38 -9 0 C-5.8168485 -1.59157575 -3.38676935 -0.77242108 0 0 Z " fill="#040404" transform="translate(426,287)"/>
<path d="M0 0 C0.69802734 0.00386719 1.39605469 0.00773437 2.11523438 0.01171875 C2.80939453 0.00785156 3.50355469 0.00398438 4.21875 0 C9.42445449 0.01007881 9.42445449 0.01007881 11.67773438 1.13671875 C11.67773438 3.11671875 11.67773438 5.09671875 11.67773438 7.13671875 C8.27210585 7.91514813 5.17007682 8.23649996 1.67773438 8.13671875 C1.67773438 9.12671875 1.67773438 10.11671875 1.67773438 11.13671875 C4.31773437 11.13671875 6.95773438 11.13671875 9.67773438 11.13671875 C9.72027794 13.13626621 9.7185422 15.13713511 9.67773438 17.13671875 C8.67773438 18.13671875 8.67773438 18.13671875 5.11523438 18.19921875 C3.98085937 18.17859375 2.84648437 18.15796875 1.67773438 18.13671875 C1.67773438 21.10671875 1.67773438 24.07671875 1.67773438 27.13671875 C-0.30226562 27.79671875 -2.28226563 28.45671875 -4.32226562 29.13671875 C-6.32226562 27.13671875 -6.32226562 27.13671875 -6.56518555 24.53881836 C-6.56107666 23.46639893 -6.55696777 22.39397949 -6.55273438 21.2890625 C-6.55080078 20.12697266 -6.54886719 18.96488281 -6.546875 17.76757812 C-6.53462891 16.54876953 -6.52238281 15.32996094 -6.50976562 14.07421875 C-6.50912109 12.85154297 -6.50847656 11.62886719 -6.5078125 10.36914062 C-6.45605817 0.01252388 -6.45605817 0.01252388 0 0 Z " fill="#030303" transform="translate(146.322265625,285.86328125)"/>
<path d="M0 0 C0.88042969 -0.01224609 1.76085938 -0.02449219 2.66796875 -0.03710938 C3.50972656 -0.03904297 4.35148437 -0.04097656 5.21875 -0.04296875 C5.99154297 -0.04707764 6.76433594 -0.05118652 7.56054688 -0.05541992 C9.5 0.1875 9.5 0.1875 11.5 2.1875 C11.625 4.8125 11.625 4.8125 11.5 7.1875 C9.00935112 7.87457555 7.12113708 8.1875 4.5 8.1875 C4.50785522 9.04299438 4.50785522 9.04299438 4.51586914 9.91577148 C4.53658221 12.48550323 4.5496419 15.05521747 4.5625 17.625 C4.57087891 18.52283203 4.57925781 19.42066406 4.58789062 20.34570312 C4.59272461 21.62670898 4.59272461 21.62670898 4.59765625 22.93359375 C4.60551147 24.11973267 4.60551147 24.11973267 4.61352539 25.32983398 C4.5 27.1875 4.5 27.1875 3.5 28.1875 C0 28.3125 0 28.3125 -3.5 28.1875 C-4.5 27.1875 -4.5 27.1875 -4.61352539 25.32983398 C-4.60567017 24.14369507 -4.60567017 24.14369507 -4.59765625 22.93359375 C-4.59443359 22.07958984 -4.59121094 21.22558594 -4.58789062 20.34570312 C-4.57951172 19.44787109 -4.57113281 18.55003906 -4.5625 17.625 C-4.55798828 16.72330078 -4.55347656 15.82160156 -4.54882812 14.89257812 C-4.53700225 12.65748686 -4.5205222 10.42252563 -4.5 8.1875 C-6.81 7.8575 -9.12 7.5275 -11.5 7.1875 C-11.5 5.2075 -11.5 3.2275 -11.5 1.1875 C-7.9639604 -0.5805198 -3.89428745 0.00285087 0 0 Z " fill="#060606" transform="translate(60.5,285.8125)"/>
<path d="M0 0 C0.89460938 -0.00128906 1.78921875 -0.00257813 2.7109375 -0.00390625 C3.65195312 -0.00003906 4.59296875 0.00382812 5.5625 0.0078125 C6.97402344 0.00201172 6.97402344 0.00201172 8.4140625 -0.00390625 C9.75597656 -0.00197266 9.75597656 -0.00197266 11.125 0 C11.95128906 0.00112793 12.77757812 0.00225586 13.62890625 0.00341797 C15.5625 0.1328125 15.5625 0.1328125 16.5625 1.1328125 C16.60330783 3.13239614 16.60504356 5.13326504 16.5625 7.1328125 C14.5825 7.7928125 12.6025 8.4528125 10.5625 9.1328125 C10.57410156 9.84566406 10.58570313 10.55851562 10.59765625 11.29296875 C10.6484624 16.68567849 10.59959023 21.83212912 9.5625 27.1328125 C9.2325 27.4628125 8.9025 27.7928125 8.5625 28.1328125 C6.2525 28.1328125 3.9425 28.1328125 1.5625 28.1328125 C1.5625 21.5328125 1.5625 14.9328125 1.5625 8.1328125 C-0.4175 8.1328125 -2.3975 8.1328125 -4.4375 8.1328125 C-5.4375 7.1328125 -5.4375 7.1328125 -5.5625 4.1328125 C-5.36973908 -0.49344964 -4.20272615 0.00573695 0 0 Z " fill="#040404" transform="translate(340.4375,285.8671875)"/>
<path d="M0 0 C3.0625 0.1875 3.0625 0.1875 5.0625 2.1875 C5.30541992 4.69360352 5.30541992 4.69360352 5.29296875 7.81640625 C5.29103516 8.93337891 5.28910156 10.05035156 5.28710938 11.20117188 C5.27486328 12.37228516 5.26261719 13.54339844 5.25 14.75 C5.24935547 15.92498047 5.24871094 17.09996094 5.24804688 18.31054688 C5.20262141 27.04737859 5.20262141 27.04737859 4.0625 28.1875 C0.5625 28.3125 0.5625 28.3125 -2.9375 28.1875 C-4.71199594 26.41300406 -4.06780072 23.83732739 -4.0703125 21.4375 C-4.07160156 20.2721875 -4.07289063 19.106875 -4.07421875 17.90625 C-4.07035156 16.6790625 -4.06648437 15.451875 -4.0625 14.1875 C-4.06636719 12.9603125 -4.07023438 11.733125 -4.07421875 10.46875 C-4.07292969 9.3034375 -4.07164062 8.138125 -4.0703125 6.9375 C-4.06918457 5.85984375 -4.06805664 4.7821875 -4.06689453 3.671875 C-3.87912618 0.06672274 -3.65400165 0.23323415 0 0 Z " fill="#050505" transform="translate(605.9375,285.8125)"/>
<path d="M0 0 C2.33944736 0.28730055 4.6739143 0.61936779 7 1 C7.02886537 5.31248609 7.04675255 9.62494762 7.0625 13.9375 C7.07087891 15.16919922 7.07925781 16.40089844 7.08789062 17.66992188 C7.09111328 18.83974609 7.09433594 20.00957031 7.09765625 21.21484375 C7.10289307 22.29886475 7.10812988 23.38288574 7.11352539 24.49975586 C7 27 7 27 6 28 C3 28.125 3 28.125 0 28 C-1.77449594 26.22550406 -1.13030072 23.64982739 -1.1328125 21.25 C-1.13410156 20.0846875 -1.13539063 18.919375 -1.13671875 17.71875 C-1.13285156 16.4915625 -1.12898438 15.264375 -1.125 14 C-1.12886719 12.7728125 -1.13273437 11.545625 -1.13671875 10.28125 C-1.13542969 9.1159375 -1.13414062 7.950625 -1.1328125 6.75 C-1.13168457 5.67234375 -1.13055664 4.5946875 -1.12939453 3.484375 C-1 1 -1 1 0 0 Z " fill="#030303" transform="translate(300,286)"/>
<path d="M0 0 C0.66 0 1.32 0 2 0 C2 0.66 2 1.32 2 2 C1.34 2 0.68 2 0 2 C0 1.34 0 0.68 0 0 Z " fill="#789374" transform="translate(193,243)"/>
<path d="M0 0 C0.66 0 1.32 0 2 0 C2 0.66 2 1.32 2 2 C1.34 2 0.68 2 0 2 C0 1.34 0 0.68 0 0 Z " fill="#E5EE89" transform="translate(108,86)"/>
<path d="M0 0 C0.66 0 1.32 0 2 0 C2 0.66 2 1.32 2 2 C1.34 2 0.68 2 0 2 C0 1.34 0 0.68 0 0 Z " fill="#E7E7CA" transform="translate(117,32)"/>
<path d="M0 0 C0.66 0 1.32 0 2 0 C2 0.66 2 1.32 2 2 C1.34 2 0.68 2 0 2 C0 1.34 0 0.68 0 0 Z " fill="#E7EAD9" transform="translate(101,13)"/>
<path d="M0 0 C0.66 0 1.32 0 2 0 C2 0.66 2 1.32 2 2 C1.34 2 0.68 2 0 2 C0 1.34 0 0.68 0 0 Z " fill="#E5E9CB" transform="translate(95,7)"/>
<path d="M0 0 C2 1 2 1 2 1 Z " fill="#F4F5D1" transform="translate(104,17)"/>
<path d="" fill="#E4E8CD" transform="translate(0,0)"/>
</svg>
