<?xml version="1.0" encoding="UTF-8"?>
<svg version="1.1" xmlns="http://www.w3.org/2000/svg" width="1212" height="307">
<path d="M0 0 C1.30453125 -0.03738281 2.6090625 -0.07476562 3.953125 -0.11328125 C6.90343461 0.45451279 7.62860522 1.14155008 9.39648438 3.63110352 C11.02224817 6.80535007 12.41532732 10.00550408 13.75 13.3125 C14.16926758 14.31772705 14.58853516 15.3229541 15.02050781 16.35864258 C16.30572737 19.51580126 17.53304363 22.69093426 18.75 25.875 C19.70463989 28.33766997 20.66037719 30.79989329 21.6171875 33.26171875 C21.86628876 33.90429626 22.11539001 34.54687378 22.37203979 35.20892334 C25.4829468 43.22436025 28.67911485 51.20565769 31.875 59.1875 C32.17174622 59.92967773 32.46849243 60.67185547 32.77423096 61.43652344 C36.87146331 71.68310767 41.00565985 81.91349551 45.26220703 92.09521484 C45.59591309 92.90039551 45.92961914 93.70557617 46.2734375 94.53515625 C46.56138184 95.22359619 46.84932617 95.91203613 47.14599609 96.62133789 C47.75 98.3125 47.75 98.3125 47.75 100.3125 C49.07 100.3125 50.39 100.3125 51.75 100.3125 C53.52925688 96.08119031 55.30736368 91.84939974 57.08447266 87.6171875 C57.68735799 86.1818381 58.29054048 84.74661346 58.89404297 83.31152344 C62.24691009 75.33803844 65.5668065 67.3555531 68.75 59.3125 C69.79490331 56.69243877 70.84047586 54.07265105 71.88671875 51.453125 C72.17027725 50.74267532 72.45383575 50.03222565 72.74598694 49.30024719 C75.19670719 43.16102831 77.65573894 37.02515596 80.11698914 30.89015198 C81.94479375 26.33140918 83.75826777 21.76733898 85.5625 17.19921875 C86.3538152 15.21600556 87.14545187 13.23292059 87.9375 11.25 C88.28707764 10.3537793 88.63665527 9.45755859 88.99682617 8.53417969 C89.48372925 7.3242334 89.48372925 7.3242334 89.98046875 6.08984375 C90.38881958 5.05718384 90.38881958 5.05718384 90.80541992 4.00366211 C91.75 2.3125 91.75 2.3125 94.75 0.3125 C97.7109375 0.046875 97.7109375 0.046875 101.125 0.0625 C102.80722656 0.05476562 102.80722656 0.05476562 104.5234375 0.046875 C107.80483295 0.31701409 109.83394413 0.81953275 112.75 2.3125 C114.1628418 4.27563477 114.1628418 4.27563477 115.26171875 6.69140625 C115.67470215 7.59004395 116.08768555 8.48868164 116.51318359 9.41455078 C118.61094921 14.32976551 120.61897993 19.27181327 122.5625 24.25 C125.58782079 31.9102746 128.64889581 39.54695696 131.875 47.125 C134.8997034 54.24203801 137.80967828 61.3983121 140.66479492 68.58496094 C143.67740954 76.160637 146.76412351 83.70507846 149.86889648 91.2434082 C150.23055908 92.12343506 150.59222168 93.00346191 150.96484375 93.91015625 C151.28573975 94.68883057 151.60663574 95.46750488 151.93725586 96.26977539 C152.59759497 97.92945016 153.18514886 99.61794658 153.75 101.3125 C157.7182507 98.89909509 158.86125836 96.36248605 160.51953125 92.08984375 C160.76117508 91.47719666 161.00281891 90.86454956 161.25178528 90.2333374 C162.03358395 88.24319032 162.79806682 86.2468739 163.5625 84.25 C164.10160206 82.86846683 164.64180985 81.48736464 165.18310547 80.10668945 C166.71894268 76.18044922 168.23525713 72.24692449 169.75 68.3125 C170.41177508 66.60899189 171.07435362 64.90579533 171.73828125 63.203125 C172.55180364 61.11565817 173.36424554 59.027837 174.17163086 56.93798828 C177.01560182 49.58244908 179.95472567 42.26501253 182.90527344 34.95166016 C185.08069925 29.54623236 187.20862778 24.12948685 189.25 18.671875 C189.64977051 17.61379639 190.04954102 16.55571777 190.46142578 15.46557617 C191.22152321 13.44667701 191.97041393 11.42351327 192.70654297 9.39575195 C193.04830566 8.49300537 193.39006836 7.59025879 193.7421875 6.66015625 C194.18087158 5.46918335 194.18087158 5.46918335 194.62841797 4.25415039 C196.02303254 1.83983396 197.15127141 1.24385396 199.75 0.3125 C202.9140625 0.08203125 202.9140625 0.08203125 206.375 0.125 C207.52226562 0.13144531 208.66953125 0.13789063 209.8515625 0.14453125 C212.75 0.3125 212.75 0.3125 214.75 1.3125 C214.20671219 6.49159454 212.94592679 10.82490256 210.859375 15.60546875 C210.21986813 17.11471808 209.58125626 18.62434683 208.94335938 20.13427734 C208.41730103 21.37078033 208.41730103 21.37078033 207.88061523 22.63226318 C205.7555764 27.66988089 203.70336895 32.73741645 201.640625 37.80078125 C200.71764055 40.06177977 199.79462564 42.32276586 198.87158203 44.58374023 C197.91426453 46.93077646 196.95707284 49.277864 196 51.625 C195.50900818 52.82891388 195.01801636 54.03282776 194.512146 55.27322388 C189.22732318 68.23749088 183.94704515 81.20078034 178.875 94.25 C174.77672564 104.7854075 170.55977246 115.27045513 166.28875732 125.73684692 C165.55968581 127.5247753 164.83232504 129.31340232 164.10675049 131.10275269 C163.09579741 133.59405709 162.07817775 136.08253009 161.05859375 138.5703125 C160.75391678 139.32402634 160.44923981 140.07774017 160.1353302 140.85429382 C157.97891732 146.08358268 157.97891732 146.08358268 155.75 148.3125 C153.796875 148.30078125 153.796875 148.30078125 151.75 147.3125 C150.328125 144.85546875 150.328125 144.85546875 149 141.5 C148.7532251 140.88979004 148.5064502 140.27958008 148.25219727 139.65087891 C147.70498501 138.29166886 147.16510917 136.92948962 146.63134766 135.56494141 C145.68877117 133.15601878 144.72697048 130.75539132 143.76171875 128.35546875 C142.42490738 125.02941439 141.09778193 121.69977033 139.77734375 118.3671875 C138.39799087 114.90282446 136.97678579 111.45917302 135.5300293 108.02246094 C132.64009375 101.09666575 129.88065306 94.12210105 127.12755966 87.14115524 C125.59130086 83.24969014 124.04705847 79.36139171 122.50390625 75.47265625 C120.55222719 70.55429399 118.60314503 65.63496243 116.66455078 60.71142578 C115.08493667 56.70023269 113.49616155 52.69278108 111.90103531 48.6877327 C111.29722766 47.16680263 110.69680571 45.6445239 110.0998497 44.12089157 C109.26913366 42.00197813 108.42680141 39.88804846 107.58154297 37.77490234 C107.10586884 36.57199554 106.6301947 35.36908875 106.1401062 34.12973022 C104.91974536 31.06404155 104.91974536 31.06404155 101.75 29.3125 C99.25572801 33.19823529 97.47171698 37.2089216 95.8125 41.5 C95.32430232 42.7435224 94.83601933 43.9870113 94.34765625 45.23046875 C94.09443604 45.87927002 93.84121582 46.52807129 93.58032227 47.1965332 C92.32029728 50.40754072 91.03520201 53.6084221 89.75219727 56.81030273 C88.8308042 59.11075525 87.91272981 61.41249252 86.99609375 63.71484375 C82.65723013 74.60039983 78.25407913 85.45874858 73.82250977 96.30688477 C71.38452449 102.28035016 68.96573623 108.26025663 66.58886719 114.25830078 C64.99197753 118.28288338 63.37336314 122.29853581 61.75 126.3125 C61.18104004 127.72692383 61.18104004 127.72692383 60.60058594 129.16992188 C59.41534739 132.09883792 58.21033108 135.01887589 57 137.9375 C56.63503418 138.8454834 56.27006836 139.7534668 55.89404297 140.68896484 C55.54229004 141.52637207 55.19053711 142.3637793 54.828125 143.2265625 C54.52293945 143.9685791 54.21775391 144.7105957 53.90332031 145.47509766 C52.49710163 147.71540286 51.17388314 148.34737682 48.75 149.3125 C47.82510491 147.54595038 46.91063809 145.77394102 46 144 C45.48953125 143.01386719 44.9790625 142.02773438 44.453125 141.01171875 C42.61440897 137.21372402 41.25317457 133.26709035 39.83935547 129.2956543 C37.94006433 124.0945251 35.79895235 118.99279981 33.6875 113.875 C29.89705911 104.63496855 26.18621181 95.36934542 22.5625 86.0625 C18.39777894 75.38505897 14.09555335 64.76897195 9.73471069 54.17025757 C8.69489976 51.64298519 7.65645795 49.11515442 6.6184082 46.5871582 C3.84195932 39.8272225 1.06469652 33.06773542 -1.73472595 26.317276 C-2.91457284 23.46483058 -4.08133752 20.60704212 -5.25 17.75 C-5.66515869 16.75846924 -6.08031738 15.76693848 -6.50805664 14.74536133 C-8.39098416 10.11068443 -9.79363872 6.41760732 -9.25 1.3125 C-6.18395705 -0.22052147 -3.40839068 0.01002468 0 0 Z " fill="#000000" transform="translate(20.25,144.6875)"/>
<path d="M0 0 C9.27618969 -0.06994813 18.55228661 -0.12303632 27.82868385 -0.15543652 C32.13751257 -0.1709981 36.44615897 -0.19205927 40.75488281 -0.22631836 C44.92408376 -0.25925526 49.09311094 -0.2769242 53.2624321 -0.28463173 C54.84180812 -0.29011438 56.42117617 -0.30081769 58.00047684 -0.31719017 C71.01900525 -0.44660966 83.60142182 0.43142884 95.3125 6.75 C95.98273193 7.09925537 96.65296387 7.44851074 97.34350586 7.80834961 C102.69474294 10.67094065 107.4857048 13.92865235 112 18 C112.58652344 18.495 113.17304687 18.99 113.77734375 19.5 C126.49592511 31.03612822 134.27492371 49.17134673 135.10498047 66.14697266 C135.41599038 75.53329042 135.50782396 84.88195796 133 94 C132.76667969 94.86238281 132.53335937 95.72476563 132.29296875 96.61328125 C126.69851194 114.26519749 113.2354799 129.23640571 97.33203125 138.3515625 C80.05971526 146.89660042 63.02455435 148.17918988 44.04296875 148.09765625 C42.77399246 148.0962413 41.50501617 148.09482635 40.19758606 148.09336853 C36.87194787 148.08876507 33.54638244 148.07982806 30.22076416 148.06866455 C26.80798969 148.05831753 23.39520761 148.05384285 19.98242188 148.04882812 C13.32159503 148.03787667 6.6608017 148.0211979 0 148 C-0.92686672 145.21939983 -1.12556592 143.56764857 -1.12698364 140.69873047 C-1.12980347 139.81963013 -1.13262329 138.94052979 -1.13552856 138.03479004 C-1.13350433 137.0719812 -1.1314801 136.10917236 -1.12939453 135.1171875 C-1.13114685 134.1000769 -1.13289917 133.08296631 -1.13470459 132.03503418 C-1.13912711 128.64833904 -1.13617676 125.26169575 -1.1328125 121.875 C-1.13348708 119.49690745 -1.13445839 117.11881497 -1.13571167 114.74072266 C-1.13719051 109.72688142 -1.13503421 104.71305793 -1.13037109 99.69921875 C-1.12477132 93.38026974 -1.12797527 87.06136377 -1.13382339 80.74241638 C-1.15483349 53.81240282 -1.04710311 26.91229334 0 0 Z M19 18 C18.69952147 20.0335831 18.69952147 20.0335831 18.75276184 22.40307617 C18.74856735 23.32849213 18.74437286 24.25390808 18.74005127 25.20736694 C18.74567078 26.22561554 18.75129028 27.24386414 18.75708008 28.29296875 C18.75518173 29.36294098 18.75328339 30.43291321 18.75132751 31.53530884 C18.74761086 35.08611283 18.75833666 38.63671406 18.76953125 42.1875 C18.77072266 44.64607723 18.7711763 47.10465492 18.7709198 49.56323242 C18.77248621 54.72154582 18.78078788 59.87978996 18.79418945 65.03808594 C18.81117949 71.66297777 18.81500388 78.2877934 18.81424427 84.91270447 C18.81451571 89.9911777 18.81999265 95.06963415 18.82724571 100.14810181 C18.8304366 102.59143954 18.83240076 105.03477919 18.83313942 107.4781189 C18.83529853 110.88778957 18.84403352 114.29737811 18.85473633 117.70703125 C18.85428314 118.72527985 18.85382996 119.74352844 18.85336304 120.79263306 C18.85762802 121.71804901 18.86189301 122.64346497 18.86628723 123.59692383 C18.86796308 124.40366043 18.86963892 125.21039703 18.87136555 126.0415802 C18.87813936 128.07930361 18.87813936 128.07930361 20 130 C24.5237126 131.39326821 29.25059809 131.15196248 33.9375 131.125 C35.24074219 131.11883667 35.24074219 131.11883667 36.5703125 131.11254883 C60.63215572 130.91303461 82.23347495 130.6984408 100.3671875 112.80078125 C103.82872656 109.11840216 106.5925416 105.43648688 109 101 C109.37511719 100.34128906 109.75023437 99.68257813 110.13671875 99.00390625 C117.11128648 85.28812063 117.34889784 68.82095874 113.375 54.25 C111.19664299 47.82542533 107.98533434 42.46008361 104 37 C103.30777344 36.01386719 103.30777344 36.01386719 102.6015625 35.0078125 C95.7051302 26.03846413 82.96248574 19.37471737 72 17 C62.01149138 15.78273145 51.9399897 15.81373673 41.89379883 15.81469727 C39.27865216 15.81247119 36.66390273 15.79413057 34.04882812 15.77539062 C32.38281393 15.77246294 30.71679775 15.77047397 29.05078125 15.76953125 C28.27068192 15.76234573 27.49058258 15.75516022 26.68684387 15.74775696 C22.37945638 15.60427917 22.37945638 15.60427917 19 18 Z " fill="#000000" transform="translate(1070,146)"/>
<path d="M0 0 C15.92220421 0 15.92220421 0 22.45703125 6.41015625 C23.62298828 7.72306641 23.62298828 7.72306641 24.8125 9.0625 C25.67875 10.03703125 26.545 11.0115625 27.4375 12.015625 C29.78048311 14.74434313 32.05781978 17.51072826 34.3125 20.3125 C38.38813044 25.36916714 42.7536296 30.08348303 47.20239258 34.80786133 C51.22329242 39.10108601 54.94989767 43.56237209 58.625 48.15625 C61.4646455 51.55635185 64.46389371 54.775851 67.5 58 C72.12620527 62.91306055 76.47270878 67.95121959 80.69140625 73.22265625 C83.35279565 76.42442929 86.15463665 79.46233425 89 82.5 C92.66827604 86.4168167 96.19654131 90.37763186 99.5625 94.5625 C102.88889391 98.69160688 106.3190474 102.69381085 109.875 106.625 C110.5721814 107.40725952 110.5721814 107.40725952 111.28344727 108.20532227 C113.50915128 110.63962237 114.81367332 111.93789111 118 113 C118.72955234 109.71602715 119.1308226 106.6604833 119.15821838 103.29862976 C119.1680072 102.3830278 119.17779602 101.46742584 119.18788147 100.52407837 C119.19363693 99.53217499 119.1993924 98.54027161 119.20532227 97.51831055 C119.21522186 96.46419479 119.22512146 95.41007904 119.23532104 94.32402039 C119.2668711 90.84494257 119.29166788 87.36585111 119.31640625 83.88671875 C119.33698138 81.47247465 119.357978 79.05823411 119.37937927 76.64399719 C119.43454219 70.29335412 119.483977 63.94267884 119.53222656 57.59197998 C119.58248376 51.110119 119.63814781 44.62830471 119.69335938 38.14648438 C119.80087028 25.43102948 119.90233097 12.71553403 120 0 C125.28 0 130.56 0 136 0 C136 48.84 136 97.68 136 148 C121 148 121 148 117.15625 145.65625 C115.77148438 144.14111328 115.77148438 144.14111328 114.5 142.5 C113.77006836 141.67024658 113.77006836 141.67024658 113.02539062 140.82373047 C111.64561521 139.24362051 110.32268799 137.62784189 109 136 C107.83643731 134.7055365 106.67026036 133.41341165 105.5 132.125 C104.32856974 130.75405607 103.16264928 129.37839863 102 128 C100.06594064 125.72622271 98.12718468 123.45647928 96.1875 121.1875 C95.67018311 120.58139893 95.15286621 119.97529785 94.61987305 119.35083008 C91.41518114 115.60927354 88.14795038 111.93889309 84.8125 108.3125 C80.78606164 103.92644354 77.01890278 99.38258372 73.28125 94.75 C70.13805742 90.96094593 66.79841405 87.36730648 63.46484375 83.74609375 C61.07292703 81.08124834 58.80745116 78.35168175 56.5625 75.5625 C53.34056899 71.56776014 49.99344505 67.75445651 46.5 64 C43.00655495 60.24554349 39.65943101 56.43223986 36.4375 52.4375 C33.27308545 48.52182157 30.04299814 44.68943875 26.6875 40.9375 C25.88699219 40.03902344 25.08648438 39.14054687 24.26171875 38.21484375 C22.17249381 36.1689188 20.60355036 35.20687367 18 34 C16.95653779 45.26242426 16.81276797 56.48185999 16.73963928 67.7840519 C16.71835171 71.04937567 16.69136395 74.31461055 16.66296387 77.57987976 C16.59367201 85.67145241 16.53347232 93.76308683 16.47393799 101.85473633 C16.4230963 108.73128194 16.36837638 115.6077736 16.30812073 122.48424339 C16.28151072 125.70670873 16.2607358 128.92917922 16.2401123 132.15168762 C16.22352418 134.10804495 16.20665368 136.06439991 16.18945312 138.02075195 C16.18526871 138.92088516 16.18108429 139.82101837 16.17677307 140.74842834 C16.11387155 146.88612845 16.11387155 146.88612845 15 148 C10.05 148 5.1 148 0 148 C0 99.16 0 50.32 0 0 Z " fill="#000000" transform="translate(872,146)"/>
<path d="M0 0 C-1.52079073 3.50827915 -3.5995673 5.95271646 -6.1875 8.75 C-8.89292489 11.69942682 -11.58177506 14.64970332 -14.1875 17.6875 C-18.7789353 22.95914793 -23.59675704 28.02349324 -28.375 33.125 C-33.12570202 38.19778351 -37.83871836 43.30494228 -42.54443359 48.41943359 C-44.04456462 50.04839171 -45.54757134 51.67466437 -47.05078125 53.30078125 C-48.03395295 54.36709643 -49.01702948 55.43349936 -50 56.5 C-51.299375 57.90765625 -51.299375 57.90765625 -52.625 59.34375 C-53.40875 60.2203125 -54.1925 61.096875 -55 62 C-55.78375 62.8353125 -56.5675 63.670625 -57.375 64.53125 C-59.21689302 66.8235571 -59.21689302 66.8235571 -58.95922852 69.27001953 C-57.62150314 73.07720843 -55.11354272 75.4008578 -52.27734375 78.1484375 C-51.69843887 78.72405426 -51.119534 79.29967102 -50.52308655 79.89273071 C-48.67039222 81.72970408 -46.80402617 83.55209439 -44.9375 85.375 C-43.70812165 86.59287975 -42.47959675 87.81162164 -41.25195312 89.03125 C-40.05284372 90.21691533 -38.85299606 91.40183459 -37.65234375 92.5859375 C-37.10617905 93.12471527 -36.56001434 93.66349304 -35.99729919 94.21859741 C-33.13323389 97.01417192 -30.21279243 99.70374079 -27.17993164 102.31567383 C-22.40394585 106.45972592 -17.94140458 110.89659705 -13.46875 115.36328125 C-12.15396667 116.67307198 -12.15396667 116.67307198 -10.81262207 118.00932312 C-8.9759882 119.84092492 -7.1406794 121.6738563 -5.30664062 123.50805664 C-3.4238422 125.38938106 -1.53917552 127.2685168 0.34960938 129.14379883 C3.08183172 131.85782211 5.80739532 134.57836307 8.53125 137.30078125 C9.38110474 138.14345047 10.23095947 138.98611969 11.10656738 139.85432434 C11.88157593 140.63240952 12.65658447 141.41049469 13.45507812 142.2121582 C14.14154419 142.89719925 14.82801025 143.5822403 15.53527832 144.28804016 C17 146 17 146 17 148 C13.29193404 148.11674705 9.5843446 148.18743274 5.875 148.25 C4.82828125 148.28351563 3.7815625 148.31703125 2.703125 148.3515625 C-4.64626671 148.44459277 -8.32099595 147.35806965 -13.8359375 142.32421875 C-14.34382812 141.78410156 -14.85171875 141.24398437 -15.375 140.6875 C-17.58763734 138.38605267 -19.83912975 136.25143621 -22.2890625 134.20703125 C-29.93570148 127.56708524 -36.89842257 120.15340768 -44.01855469 112.9609375 C-53.4045323 103.4212394 -53.4045323 103.4212394 -63.32666016 94.45068359 C-66.27101203 91.89811008 -68.96691268 89.09920123 -71.6875 86.3125 C-78.015342 79.45193092 -78.015342 79.45193092 -86 75 C-86.01030746 75.89980087 -86.02061493 76.79960175 -86.03123474 77.72666931 C-86.12903341 86.18820786 -86.2315222 94.6496736 -86.33933926 103.11109066 C-86.39460785 107.46164806 -86.44803399 111.81221212 -86.49731445 116.1628418 C-86.54490014 120.3579621 -86.59724058 124.55299812 -86.65294075 128.74801826 C-86.67339066 130.35204545 -86.69209929 131.95609577 -86.70907402 133.5601635 C-86.73305997 135.79922769 -86.76312194 138.03813116 -86.79467773 140.27709961 C-86.81022202 141.55395126 -86.8257663 142.83080292 -86.84178162 144.14634705 C-87 147 -87 147 -88 148 C-90.6773138 148.09981214 -93.32304175 148.13879875 -96 148.125 C-96.75023437 148.12886719 -97.50046875 148.13273438 -98.2734375 148.13671875 C-103.87338947 148.12661053 -103.87338947 148.12661053 -105 147 C-105.0965683 145.10171764 -105.12187216 143.19979337 -105.12025452 141.29905701 C-105.12162918 140.0608017 -105.12300385 138.82254639 -105.12442017 137.54676819 C-105.12088056 136.16195655 -105.11724574 134.77714515 -105.11352539 133.39233398 C-105.11324352 131.94392906 -105.11340124 130.49552399 -105.1139679 129.04711914 C-105.11425589 125.10307686 -105.1083588 121.15906473 -105.10139394 117.21502948 C-105.09516078 113.09770531 -105.09455663 108.98038052 -105.09336853 104.86305237 C-105.0902551 97.06094138 -105.08204156 89.25884433 -105.07201904 81.45673949 C-105.06085826 72.57659696 -105.05534754 63.69645378 -105.05032361 54.81630599 C-105.03985896 36.54419586 -105.02205887 18.27209956 -105 0 C-99.06 0 -93.12 0 -87 0 C-86.97494385 1.72033447 -86.9498877 3.44066895 -86.92407227 5.21313477 C-86.83994966 10.91684904 -86.75169386 16.62048949 -86.66066074 22.32409763 C-86.60565332 25.77991818 -86.55227073 29.23574745 -86.50268555 32.69165039 C-86.44551965 36.67081823 -86.38113523 40.64985398 -86.31640625 44.62890625 C-86.29969376 45.86145645 -86.28298126 47.09400665 -86.26576233 48.36390686 C-86.16895464 53.99744964 -86.00034965 59.45001741 -85 65 C-80.14907902 62.52003478 -76.97800853 59.0398988 -73.375 55.0625 C-72.76035889 54.39371826 -72.14571777 53.72493652 -71.51245117 53.03588867 C-69.66963269 51.0287333 -67.83460179 49.01466362 -66 47 C-65.00984817 45.92120123 -64.01902211 44.84302069 -63.02734375 43.765625 C-60.34508721 40.84965277 -57.67182828 37.92553304 -55 35 C-51.84886633 31.54964889 -48.69440538 28.1024912 -45.53027344 24.6640625 C-44.44642061 23.48545036 -43.36386731 22.30564255 -42.28222656 21.125 C-18.97363959 -4.28879737 -18.97363959 -4.28879737 0 0 Z " fill="#000000" transform="translate(669,146)"/>
<path d="M0 0 C27.06 0 54.12 0 82 0 C82 4.95 82 9.9 82 15 C79.28934326 15.08302368 79.28934326 15.08302368 76.52392578 15.16772461 C70.56067098 15.35146417 64.5975648 15.53950195 58.63453865 15.73049068 C55.0183123 15.84615592 51.40204841 15.96008189 47.78564453 16.07006836 C44.29718356 16.17622714 40.80889302 16.28690838 37.3206749 16.40075874 C35.33872931 16.46425374 33.35663454 16.52303496 31.37454224 16.58177185 C29.57290115 16.64172081 29.57290115 16.64172081 27.73486328 16.70288086 C26.67341095 16.73619003 25.61195862 16.76949921 24.51834106 16.80381775 C22.00499722 16.84066968 22.00499722 16.84066968 20 18 C19.67 32.85 19.34 47.7 19 63 C22.74472656 62.98839844 26.48945313 62.97679687 30.34765625 62.96484375 C33.9849438 62.95703916 37.62223041 62.95097037 41.25952148 62.94506836 C43.78231221 62.94004772 46.30510004 62.9332299 48.82788086 62.92456055 C52.45947994 62.91239558 56.09104047 62.9067489 59.72265625 62.90234375 C60.84583755 62.89718246 61.96901886 62.89202118 63.12623596 62.88670349 C68.51623502 62.88631963 73.70360036 62.94571624 79 64 C80 65 80 65 80.1328125 67.90625 C80.12894531 69.68515625 80.12894531 69.68515625 80.125 71.5 C80.12886719 73.27890625 80.12886719 73.27890625 80.1328125 75.09375 C80 78 80 78 79 79 C72.22441488 79.95758285 65.52653035 80.18820111 58.69140625 80.28125 C56.54231759 80.31900386 54.39322905 80.35676447 52.24414062 80.39453125 C48.88421457 80.44837701 45.524267 80.50058782 42.16430664 80.55224609 C38.90242733 80.6038304 35.64068274 80.66108058 32.37890625 80.71875 C30.86182823 80.73911316 30.86182823 80.73911316 29.31410217 80.7598877 C28.38230637 80.77660522 27.45051056 80.79332275 26.49047852 80.81054688 C25.66935074 80.82307495 24.84822296 80.83560303 24.00221252 80.84851074 C21.92770947 80.87845414 21.92770947 80.87845414 20 82 C20 97.51 20 113.02 20 129 C23.72026533 129.74405307 26.62513911 130.13847364 30.33764648 130.18945312 C31.89968056 130.21452942 31.89968056 130.21452942 33.49327087 130.2401123 C35.1652932 130.26047546 35.1652932 130.26047546 36.87109375 130.28125 C38.02617935 130.29965942 39.18126495 130.31806885 40.37135315 130.33703613 C44.06001774 130.39570326 47.74872811 130.44855001 51.4375 130.5 C56.29045961 130.56778496 61.14327708 130.6414712 65.99609375 130.71875 C67.10875107 130.73232544 68.22140839 130.74590088 69.36778259 130.7598877 C70.4122908 130.77660522 71.45679901 130.79332275 72.53295898 130.81054688 C73.4460936 130.82307495 74.35922821 130.83560303 75.30003357 130.84851074 C78.22071943 131.01238409 81.11452204 131.51908701 84 132 C84 137.28 84 142.56 84 148 C73.06503161 148.02255062 62.13007854 148.04091485 51.1950922 148.05181217 C46.11808982 148.0570411 41.04110411 148.06413892 35.96411133 148.07543945 C31.06879448 148.08626799 26.17349371 148.09227676 21.27816582 148.09487724 C19.40617049 148.09673155 17.53417609 148.10035228 15.66218758 148.10573006 C13.04959301 148.11294004 10.43706573 148.11399096 7.82446289 148.11352539 C6.65166275 148.1189183 6.65166275 148.1189183 5.45516968 148.12442017 C0.11405216 148.11405216 0.11405216 148.11405216 -1 147 C-1.09834626 145.32550203 -1.12632004 143.64683528 -1.12698364 141.9694519 C-1.12980347 140.8790863 -1.13262329 139.7887207 -1.13552856 138.66531372 C-1.13350433 137.45817719 -1.1314801 136.25104065 -1.12939453 135.00732422 C-1.13114685 133.74380127 -1.13289917 132.48027832 -1.13470459 131.1784668 C-1.1392826 127.69828134 -1.13748617 124.21812537 -1.1343255 120.73793936 C-1.13179613 117.08807895 -1.13414177 113.4382211 -1.13571167 109.7883606 C-1.1375349 103.64291939 -1.13512641 97.49749017 -1.13037109 91.35205078 C-1.12496201 84.28082298 -1.12666588 77.20962416 -1.1321975 70.1383971 C-1.13676493 64.05326463 -1.13736054 57.9681408 -1.13475883 51.88300717 C-1.13321152 48.25574911 -1.13295866 44.62850456 -1.13629532 41.00124741 C-1.13977296 36.93554788 -1.13492566 32.86989648 -1.12939453 28.80419922 C-1.13141876 27.62540192 -1.13344299 26.44660461 -1.13552856 25.23208618 C-1.11434189 16.74303952 -0.56781673 8.51725093 0 0 Z " fill="#000000" transform="translate(281,146)"/>
<path d="M0 0 C10.93496471 -0.02312297 21.86992366 -0.04091485 32.8049078 -0.05181217 C37.88191018 -0.0570411 42.95889589 -0.06413892 48.03588867 -0.07543945 C52.93120552 -0.08626799 57.82650629 -0.09227676 62.72183418 -0.09487724 C64.59382951 -0.09673155 66.46582391 -0.10035228 68.33781242 -0.10573006 C70.95040699 -0.11294004 73.56293427 -0.11399096 76.17553711 -0.11352539 C76.95740387 -0.11712067 77.73927063 -0.12071594 78.54483032 -0.12442017 C83.88594784 -0.11405216 83.88594784 -0.11405216 85 1 C84.90968426 3.35694954 84.75311872 5.71153582 84.5625 8.0625 C84.46066406 9.35285156 84.35882813 10.64320313 84.25390625 11.97265625 C84.12822266 13.47119141 84.12822266 13.47119141 84 15 C82.86034286 15.03425331 82.86034286 15.03425331 81.69766235 15.06919861 C74.5460867 15.28497228 67.39466917 15.5052087 60.24338722 15.73049068 C56.56662561 15.84615878 52.88982704 15.96008542 49.21289062 16.07006836 C45.66607706 16.17622265 42.11943134 16.28690412 38.5728569 16.40075874 C37.21809269 16.44344746 35.8632756 16.48448998 34.50841141 16.5238781 C32.61436297 16.57921947 30.72050285 16.64089712 28.82666016 16.70288086 C27.74744293 16.73619003 26.66822571 16.76949921 25.55630493 16.80381775 C23.01060666 16.83742112 23.01060666 16.83742112 21 18 C20.82558171 21.58299703 20.6620932 25.16642595 20.5 28.75 C20.45230469 29.72710937 20.40460938 30.70421875 20.35546875 31.7109375 C19.9081669 41.80717935 19.95456805 51.89643813 20 62 C21.85794189 62.03758423 21.85794189 62.03758423 23.75341797 62.07592773 C28.43903412 62.17155782 33.12455419 62.27136934 37.81005859 62.37231445 C39.82110312 62.41508559 41.8321707 62.45678827 43.84326172 62.49731445 C56.58172111 62.7548819 69.28410213 63.19022841 82 64 C82 68.95 82 73.9 82 79 C80.78119141 79.02505615 79.56238281 79.0501123 78.30664062 79.07592773 C73.7067938 79.17138102 69.10705072 79.27124221 64.50732422 79.37231445 C62.53111223 79.41515003 60.55487526 79.45685112 58.57861328 79.49731445 C39.283494 78.46759631 39.283494 78.46759631 21 82 C20.67530935 84.40761183 20.48191129 86.70494262 20.375 89.125 C20.33777832 89.84421631 20.30055664 90.56343262 20.26220703 91.30444336 C19.91857601 98.53890561 19.83474541 105.7588444 20 113 C20.01256836 113.68642578 20.02513672 114.37285156 20.03808594 115.08007812 C20.08494629 117.15914767 20.16235392 119.23478697 20.25 121.3125 C20.31960938 123.16294922 20.31960938 123.16294922 20.390625 125.05078125 C20.65717939 128.04408901 20.65717939 128.04408901 22.66546631 129.16439819 C25.53607509 130.19187785 27.91143017 130.28039618 30.96191406 130.31884766 C32.76332855 130.34865219 32.76332855 130.34865219 34.60113525 130.37905884 C35.89291687 130.39061005 37.18469849 130.40216125 38.515625 130.4140625 C39.85513495 130.43277987 41.19463318 130.45235371 42.53411865 130.4727478 C46.05213503 130.52401524 49.57018962 130.56366952 53.08837891 130.60089111 C56.68141082 130.64096474 60.27428454 130.69204171 63.8671875 130.7421875 C70.91134849 130.83888286 77.95560025 130.92229048 85 131 C85 136.61 85 142.22 85 148 C74.19541543 148.02255075 63.39084637 148.04091493 52.58624363 148.05181217 C47.5697753 148.05704107 42.55332385 148.06413883 37.53686523 148.07543945 C32.69990306 148.0862681 27.86295716 148.09227679 23.02598381 148.09487724 C21.17631715 148.09673153 19.32665143 148.10035222 17.47699165 148.10573006 C14.89552986 148.1129402 12.31413618 148.11399095 9.73266602 148.11352539 C8.96014999 148.11712067 8.18763397 148.12071594 7.39170837 148.12442017 C2.11405216 148.11405216 2.11405216 148.11405216 1 147 C-0.24672809 139.79837188 -0.13414915 132.62287608 -0.11352539 125.33203125 C-0.1132429 123.96141054 -0.11340246 122.59078969 -0.1139679 121.22016907 C-0.11425346 117.52033414 -0.10839583 113.82053199 -0.10139394 110.12070465 C-0.09512013 106.24632435 -0.09455342 102.37194319 -0.09336853 98.49755859 C-0.09026705 91.17025418 -0.08206968 83.84296478 -0.07201904 76.51566696 C-0.06082107 68.16981401 -0.05533818 59.82396033 -0.05032361 51.47810173 C-0.03988603 34.31872582 -0.0223096 17.1593645 0 0 Z " fill="#000000" transform="translate(421,146)"/>
<path d="M0 0 C27.06 0 54.12 0 82 0 C82 4.95 82 9.9 82 15 C69.04917577 16.10555817 56.11559364 16.32782256 43.125 16.5625 C40.87629567 16.60578796 38.62759765 16.64940515 36.37890625 16.69335938 C30.91933779 16.79936767 25.4597055 16.90131552 20 17 C19.31102945 22.00239144 18.87224403 26.81984824 18.8671875 31.87890625 C18.86589844 33.12994141 18.86460937 34.38097656 18.86328125 35.66992188 C18.86908203 37.59674805 18.86908203 37.59674805 18.875 39.5625 C18.87113281 40.85091797 18.86726562 42.13933594 18.86328125 43.46679688 C18.86457031 44.71654297 18.86585938 45.96628906 18.8671875 47.25390625 C18.86831543 48.38127197 18.86944336 49.5086377 18.87060547 50.67016602 C18.74370887 56.76438103 18.74370887 56.76438103 21 62 C22.66093521 62.11252958 24.32655298 62.1567751 25.99121094 62.17358398 C27.05611755 62.18707382 28.12102417 62.20056366 29.21820068 62.21446228 C30.37853821 62.22490067 31.53887573 62.23533905 32.734375 62.24609375 C35.16927434 62.27903889 37.60417008 62.31225042 40.0390625 62.34570312 C43.89483095 62.39310206 47.75058551 62.43750597 51.60644531 62.47680664 C55.31591435 62.51652717 59.02507544 62.56808266 62.734375 62.62109375 C64.4627359 62.63371498 64.4627359 62.63371498 66.22601318 62.64659119 C67.30352844 62.66323318 68.3810437 62.67987518 69.49121094 62.69702148 C70.43639587 62.70732895 71.38158081 62.71763641 72.35540771 62.72825623 C75 63 75 63 80 65 C80 69.62 80 74.24 80 79 C73.58095645 80.12804955 67.22942236 80.21958814 60.72265625 80.31640625 C59.5561705 80.33718735 58.38968475 80.35796844 57.18785095 80.37937927 C53.47945776 80.44450911 49.77099668 80.50358917 46.0625 80.5625 C43.54100874 80.60572001 41.01952423 80.6493354 38.49804688 80.69335938 C32.33210201 80.80015284 26.16609033 80.9019857 20 81 C19.31094162 91.44371449 18.81848682 101.84155695 18.8125 112.3125 C18.79413086 114.07883789 18.79413086 114.07883789 18.77539062 115.88085938 C18.77345703 117.00943359 18.77152344 118.13800781 18.76953125 119.30078125 C18.76336792 120.80378784 18.76336792 120.80378784 18.75708008 122.3371582 C19.00745708 125.08174309 19.50419498 126.70187266 21 129 C23.68897467 130.34448733 25.81591649 130.16195764 28.82666016 130.20532227 C30.04777496 130.22526749 31.26888977 130.24521271 32.52700806 130.26576233 C33.86435823 130.28274656 35.20170975 130.29962537 36.5390625 130.31640625 C37.90384553 130.33697603 39.26862218 130.35797251 40.63339233 130.37937927 C44.22707973 130.43459759 47.8208246 130.48400787 51.41461182 130.53222656 C55.08114746 130.58244337 58.74759956 130.63812849 62.4140625 130.69335938 C69.60930426 130.800938 76.80461546 130.90238357 84 131 C85.35550385 133.7110077 85.16917207 135.91339169 85.1875 138.9375 C85.20167969 139.99839844 85.21585938 141.05929687 85.23046875 142.15234375 C85 145 85 145 83 148 C80.37905244 148.30236672 77.99298763 148.4095118 75.36914062 148.38818359 C74.58202194 148.39344055 73.79490326 148.39869751 72.9839325 148.40411377 C70.37450486 148.4173492 67.76568415 148.40856342 65.15625 148.3984375 C63.3478585 148.40045722 61.5394678 148.40336781 59.7310791 148.40713501 C55.93799091 148.41156316 52.14511441 148.4051116 48.35205078 148.39111328 C43.48249716 148.37402106 38.61343952 148.38385963 33.74390411 148.40183067 C30.00877118 148.41265531 26.27375643 148.40922827 22.53862 148.4014473 C20.74281252 148.39944163 18.94699442 148.40191736 17.15119934 148.40888596 C14.64412893 148.41647888 12.13786918 148.40492725 9.63085938 148.38818359 C8.8837822 148.39425629 8.13670502 148.40032898 7.36698914 148.40658569 C5.30212402 148.38095093 5.30212402 148.38095093 2 148 C-0.31376838 144.52934744 -0.24758316 143.22685752 -0.24050903 139.13447571 C-0.24325836 137.91029938 -0.24600769 136.68612305 -0.24884033 135.42485046 C-0.24176208 134.06619165 -0.23449246 132.70753382 -0.22705078 131.34887695 C-0.22648671 129.91988127 -0.22680315 128.490885 -0.22793579 127.06188965 C-0.22851046 123.17990908 -0.21673773 119.29805169 -0.20278788 115.41609979 C-0.19029951 111.36018511 -0.18911151 107.30426773 -0.18673706 103.24833679 C-0.18051671 95.56668611 -0.16409841 87.88509224 -0.14403808 80.20346659 C-0.11752014 69.82411645 -0.10671092 59.4447508 -0.09503365 49.06537533 C-0.0762182 32.71020765 -0.03637624 16.35515987 0 0 Z " fill="#000000" transform="translate(733,146)"/>
<path d="M0 0 C2.64 0 5.28 0 8 0 C12.89100006 8.97058997 16.39545079 18.4640456 20 28 C20.32798584 27.18732666 20.65597168 26.37465332 20.99389648 25.53735352 C22.20882606 22.53050512 23.42602057 19.52458685 24.64477539 16.51928711 C25.17238314 15.21692306 25.69907915 13.91418927 26.22485352 12.61108398 C26.97954912 10.74106066 27.73776804 8.87246046 28.49609375 7.00390625 C28.95169678 5.87799072 29.4072998 4.7520752 29.87670898 3.59204102 C31 1 31 1 32 0 C34.64 0 37.28 0 40 0 C43.63 8.91 47.26 17.82 51 27 C54.12154492 20.75691017 56.94036327 14.93800983 59.25 8.4375 C61.88297872 1.11702128 61.88297872 1.11702128 63 0 C65.67058851 -0.14115161 68.32432238 -0.04247107 71 0 C69.00743866 5.33613965 67.00588001 10.66885333 65 16 C64.66838867 16.88236328 64.33677734 17.76472656 63.99511719 18.67382812 C62.95806011 21.42952086 61.91697844 24.18366478 60.875 26.9375 C60.55080078 27.80012451 60.22660156 28.66274902 59.89257812 29.55151367 C57.7789225 35.12344002 55.47899669 40.58077887 53 46 C51.68 46 50.36 46 49 46 C44.63161976 34.68001466 40.31515674 23.34035414 36 12 C32.43550166 19.62503328 29.21469784 27.33491859 26.1875 35.1875 C25.78080078 36.23486328 25.37410156 37.28222656 24.95507812 38.36132812 C23.96723516 40.90647647 22.9822538 43.45269062 22 46 C20.68 46 19.36 46 18 46 C17.66790527 45.16452637 17.33581055 44.32905273 16.99365234 43.46826172 C15.73145342 40.295471 14.46757217 37.12336037 13.20263672 33.95166016 C12.66097151 32.59254386 12.11993109 31.23317836 11.57958984 29.87353516 C8.2188366 21.41845577 4.75824315 13.02588177 1.08837891 4.69970703 C0 2 0 2 0 0 Z " fill="#000000" transform="translate(397,9)"/>
<path d="M0 0 C5.00004663 3.73421204 7.19212513 9.16231289 9.10546875 14.90234375 C10.09667671 22.61960575 8.50771678 28.50308596 4.10546875 34.90234375 C0.28412698 39.11539482 -3.95994177 42.47980349 -9.79052734 43.10595703 C-11.9748609 43.20702245 -14.14547316 43.22434226 -16.33203125 43.21484375 C-17.07001953 43.23095703 -17.80800781 43.24707031 -18.56835938 43.26367188 C-25.68562432 43.26999833 -30.65113073 40.7317916 -35.89453125 35.90234375 C-40.03516364 30.266483 -41.06204427 26.53937198 -41.14453125 19.58984375 C-41.1703125 18.29433594 -41.19609375 16.99882812 -41.22265625 15.6640625 C-40.6996544 9.66821988 -37.99128895 5.2266991 -33.89453125 0.90234375 C-22.82708331 -6.89885736 -11.59649452 -6.71879373 0 0 Z M-31.70703125 10.96484375 C-33.57360553 15.58215908 -33.53037338 19.99624368 -32.89453125 24.90234375 C-30.59609874 29.86695798 -26.95064773 33.71817578 -21.89453125 35.90234375 C-16.61207595 36.7853123 -12.36570031 36.61068441 -7.51953125 34.27734375 C-2.69585087 29.9130615 0.78058613 26.56528574 1.16015625 19.91015625 C1.03868094 15.45027714 0.38632719 12.28533961 -2.70703125 8.9453125 C-7.71855166 4.42204683 -10.94553121 2.63547263 -17.90625 2.75 C-23.80512065 3.20197634 -27.91943382 6.65481909 -31.70703125 10.96484375 Z " fill="#000000" transform="translate(712.89453125,12.09765625)"/>
<path d="M0 0 C20 0 20 0 26 4 C28.74458815 7.99428534 28.5607482 12.32151878 28 17 C26.625 19.875 26.625 19.875 25 22 C24.34 22.99 23.68 23.98 23 25 C24.08861328 26.27617188 24.08861328 26.27617188 25.19921875 27.578125 C27.92271206 30.84823831 30.3947794 34.25013823 32.8125 37.75 C33.42254883 38.61431641 33.42254883 38.61431641 34.04492188 39.49609375 C37 43.75736607 37 43.75736607 37 46 C33.37036241 46.95476897 30.59706333 47.16892016 27 46 C24.68785188 43.23203889 22.93446049 40.57164749 21.22094727 37.41943359 C18.71966895 32.82725699 16.30502322 30.03718261 12 27 C10.68 26.67 9.36 26.34 8 26 C8 32.6 8 39.2 8 46 C5.36 46 2.72 46 0 46 C0 30.82 0 15.64 0 0 Z M8 6 C8 10.29 8 14.58 8 19 C13.59667067 19.5248398 13.59667067 19.5248398 18.5 17.3125 C20.13157161 15.08988624 20.13157161 15.08988624 20.5625 12.5 C20.17090817 9.81488663 20.17090817 9.81488663 17.9375 7.6875 C14.37764693 5.64247802 12.04146606 5.68302227 8 6 Z " fill="#000000" transform="translate(621,9)"/>
<path d="M0 0 C1.4540625 0.0309375 1.4540625 0.0309375 2.9375 0.0625 C3.43378906 1.26003906 3.93007813 2.45757812 4.44140625 3.69140625 C8.70860424 13.93691162 13.1830761 24.03435832 17.9375 34.0625 C18.92235072 36.16401226 19.90208765 38.2679342 20.875 40.375 C21.27589844 41.23738281 21.67679688 42.09976563 22.08984375 42.98828125 C22.9375 45.0625 22.9375 45.0625 22.9375 47.0625 C19.9675 47.0625 16.9975 47.0625 13.9375 47.0625 C13.29059078 45.4587669 12.64501236 43.85449694 12 42.25 C11.64035156 41.35667969 11.28070313 40.46335938 10.91015625 39.54296875 C10.20136514 37.7354091 9.5514753 35.90442591 8.9375 34.0625 C2.6675 34.0625 -3.6025 34.0625 -10.0625 34.0625 C-10.743125 36.4446875 -10.743125 36.4446875 -11.4375 38.875 C-12.36787823 42.1313238 -13.15860151 44.20665227 -15.0625 47.0625 C-17.0078125 47.35546875 -17.0078125 47.35546875 -19.1875 47.25 C-20.46625 47.188125 -21.745 47.12625 -23.0625 47.0625 C-21.11639182 40.94809337 -18.89766055 35.02350955 -16.375 29.125 C-15.86151001 27.91577881 -15.86151001 27.91577881 -15.33764648 26.68212891 C-12.80791367 20.74926884 -10.23157767 14.83697278 -7.625 8.9375 C-7.11223511 7.77359741 -7.11223511 7.77359741 -6.58911133 6.58618164 C-3.69006592 0.07530747 -3.69006592 0.07530747 0 0 Z M-1.0625 13.0625 C-2.7125 17.3525 -4.3625 21.6425 -6.0625 26.0625 C-0.41746446 27.1592298 -0.41746446 27.1592298 4.9375 25.0625 C3.2875 21.1025 1.6375 17.1425 -0.0625 13.0625 C-0.3925 13.0625 -0.7225 13.0625 -1.0625 13.0625 Z " fill="#000000" transform="translate(498.0625,7.9375)"/>
<path d="M0 0 C8.91 0 17.82 0 27 0 C27 1.98 27 3.96 27 6 C17.595 6.495 17.595 6.495 8 7 C8 10.96 8 14.92 8 19 C9.28777344 18.98839844 10.57554687 18.97679688 11.90234375 18.96484375 C13.58072772 18.9554673 15.25911326 18.94636695 16.9375 18.9375 C18.21270508 18.92493164 18.21270508 18.92493164 19.51367188 18.91210938 C20.32255859 18.90888672 21.13144531 18.90566406 21.96484375 18.90234375 C22.7137085 18.89710693 23.46257324 18.89187012 24.23413086 18.88647461 C26 19 26 19 27 20 C27 21.98 27 23.96 27 26 C20.73 26 14.46 26 8 26 C8 30.29 8 34.58 8 39 C14.6 39 21.2 39 28 39 C28 41.31 28 43.62 28 46 C18.76 46 9.52 46 0 46 C0 30.82 0 15.64 0 0 Z " fill="#000000" transform="translate(787,9)"/>
<path d="M0 0 C0 2.97 0 5.94 0 9 C-4.75 7.125 -4.75 7.125 -7 6 C-11.65275976 5.6947378 -11.65275976 5.6947378 -16 7 C-16.30295931 9.37134428 -16.30295931 9.37134428 -16 12 C-14.48925395 13.75686228 -14.48925395 13.75686228 -12.375 15.0625 C-11.64539063 15.56910156 -10.91578125 16.07570313 -10.1640625 16.59765625 C-8.37533407 17.7567781 -6.56527386 18.88290839 -4.75 20 C-0.95186193 22.76228224 1.54583239 25.41865961 2.3828125 30.17578125 C2.65546239 35.58333749 1.59922057 38.78377019 -2 43 C-7.10102591 46.40068394 -13.04854799 45.52492761 -19 45 C-22.24288764 44.16258188 -22.76582327 43.69415429 -25 41 C-25.46448476 37.93334495 -25.35464331 35.07357533 -25 32 C-22.77304254 33.05608292 -21.10005235 33.90365329 -19.3125 35.625 C-15.76084148 37.73679696 -12.04418493 37.42656717 -8 37 C-6.67254834 35.88741409 -6.67254834 35.88741409 -6.75 33.0625 C-6.8325 32.051875 -6.915 31.04125 -7 30 C-7.99 29.34 -8.98 28.68 -10 28 C-10 27.34 -10 26.68 -10 26 C-11.2684375 25.690625 -11.2684375 25.690625 -12.5625 25.375 C-17.95019437 23.21992225 -21.79243342 19.81134987 -25 15 C-25.74418819 10.4569907 -25.3686254 6.82940715 -23.5 2.625 C-16.80463443 -4.40513385 -8.45659931 -3.96403092 0 0 Z " fill="#000000" transform="translate(765,10)"/>
<path d="M0 0 C12.87 0 25.74 0 39 0 C39 1.98 39 3.96 39 6 C33.72 6 28.44 6 23 6 C23 19.2 23 32.4 23 46 C20.69 46 18.38 46 16 46 C16 32.8 16 19.6 16 6 C10.72 6 5.44 6 0 6 C0 4.02 0 2.04 0 0 Z " fill="#000000" transform="translate(564,9)"/>
<path d="M0 0 C2.64 0 5.28 0 8 0 C8 15.18 8 30.36 8 46 C5.36 46 2.72 46 0 46 C0 30.82 0 15.64 0 0 Z " fill="#000000" transform="translate(538,9)"/>
<path d="M0 0 C2.875 0.6875 2.875 0.6875 3.875 1.6875 C4.13793056 5.71910191 4.16904844 7.24642734 1.875 10.6875 C2.865 10.0275 3.855 9.3675 4.875 8.6875 C5.865 8.6875 6.855 8.6875 7.875 8.6875 C7.66875 9.63625 7.4625 10.585 7.25 11.5625 C7.12625 12.59375 7.0025 13.625 6.875 14.6875 C7.535 15.3475 8.195 16.0075 8.875 16.6875 C8.875 17.6775 8.875 18.6675 8.875 19.6875 C7.92625 19.501875 6.9775 19.31625 6 19.125 C2.97631207 18.40063368 2.97631207 18.40063368 0.875 19.6875 C-4.41423988 20.13764808 -4.41423988 20.13764808 -7 18.5 C-8.52612198 16.04124792 -8.47295673 14.54074516 -8.125 11.6875 C-7.63 10.7284375 -7.63 10.7284375 -7.125 9.75 C-5.89008984 7.60070007 -5.89008984 7.60070007 -6.1875 4.5625 C-6.166875 3.61375 -6.14625 2.665 -6.125 1.6875 C-3.125 -0.3125 -3.125 -0.3125 0 0 Z M-2.125 3.6875 C-1.795 4.6775 -1.465 5.6675 -1.125 6.6875 C-0.795 5.6975 -0.465 4.7075 -0.125 3.6875 C-0.785 3.6875 -1.445 3.6875 -2.125 3.6875 Z M-3.125 12.6875 C-3.125 13.6775 -3.125 14.6675 -3.125 15.6875 C-2.135 15.6875 -1.145 15.6875 -0.125 15.6875 C-0.455 14.6975 -0.785 13.7075 -1.125 12.6875 C-1.785 12.6875 -2.445 12.6875 -3.125 12.6875 Z " fill="#000000" transform="translate(497.125,78.3125)"/>
<path d="M0 0 C4.55118301 1.13779575 5.96189605 2.53993717 9 6 C9 6.66 9 7.32 9 8 C9.66 8 10.32 8 11 8 C11.99 9.485 11.99 9.485 13 11 C13.33 7.37 13.66 3.74 14 0 C15.32 0 16.64 0 18 0 C18 6.6 18 13.2 18 20 C16.68 20 15.36 20 14 20 C11.67578125 17.59375 11.67578125 17.59375 9.3125 14.5 C7.88946747 12.65541447 6.45571416 10.81890451 5 9 C4.67 9 4.34 9 4 9 C3.67 12.63 3.34 16.26 3 20 C2.01 20 1.02 20 0 20 C0 13.4 0 6.8 0 0 Z " fill="#000000" transform="translate(630,78)"/>
<path d="M0 0 C8 0 8 0 10.5 1.125 C12.62732389 3.78415486 12.27676873 5.67877525 12 9 C11.74275212 12.0571662 11.74275212 12.0571662 13.5 14.5 C15 17 15 17 15 20 C12.75 19.875 12.75 19.875 10 19 C7.8125 16 7.8125 16 6 13 C5.34 12.67 4.68 12.34 4 12 C4 14.64 4 17.28 4 20 C2.68 20 1.36 20 0 20 C0 13.4 0 6.8 0 0 Z M4 4 C4 5.32 4 6.64 4 8 C5.32 7.67 6.64 7.34 8 7 C7.67 6.01 7.34 5.02 7 4 C6.01 4 5.02 4 4 4 Z " fill="#000000" transform="translate(578,78)"/>
<path d="M0 0 C8.52380952 0 8.52380952 0 11 2 C12.08835706 4.95411203 12.25203613 6.37831087 11.0625 9.3125 C10.711875 9.869375 10.36125 10.42625 10 11 C10.3609375 11.48210937 10.721875 11.96421875 11.09375 12.4609375 C11.5578125 13.09257813 12.021875 13.72421875 12.5 14.375 C12.9640625 15.00148438 13.428125 15.62796875 13.90625 16.2734375 C15 18 15 18 15 20 C12.75 19.875 12.75 19.875 10 19 C8.61061923 17.03852126 7.2739589 15.03833424 6 13 C5.01 12.67 4.02 12.34 3 12 C3 14.64 3 17.28 3 20 C2.01 20 1.02 20 0 20 C0 13.4 0 6.8 0 0 Z M3 4 C3 5.32 3 6.64 3 8 C4.32 7.67 5.64 7.34 7 7 C7 6.01 7 5.02 7 4 C5.68 4 4.36 4 3 4 Z " fill="#000000" transform="translate(686,78)"/>
<path d="M0 0 C0.99 0 1.98 0 3 0 C4.33934716 2.95564708 5.67044247 5.9149378 7 8.875 C7.3815625 9.71675781 7.763125 10.55851562 8.15625 11.42578125 C8.5171875 12.23144531 8.878125 13.03710938 9.25 13.8671875 C9.58515625 14.61081543 9.9203125 15.35444336 10.265625 16.12060547 C11 18 11 18 11 20 C9.35 19.67 7.7 19.34 6 19 C5.67 17.35 5.34 15.7 5 14 C2.69 14.33 0.38 14.66 -2 15 C-2.99 17.475 -2.99 17.475 -4 20 C-5.32 20 -6.64 20 -8 20 C-7.3316356 15.62221316 -5.77089558 11.77628147 -4 7.75 C-3.72671875 7.11320312 -3.4534375 6.47640625 -3.171875 5.8203125 C-1.14074248 1.14074248 -1.14074248 1.14074248 0 0 Z M0 8 C0 8.99 0 9.98 0 11 C0.99 10.67 1.98 10.34 3 10 C2.67 9.34 2.34 8.68 2 8 C1.34 8 0.68 8 0 8 Z " fill="#000000" transform="translate(556,78)"/>
<path d="M0 0 C3.63 0 7.26 0 11 0 C10.67 1.32 10.34 2.64 10 4 C8.02 4 6.04 4 4 4 C4 5.32 4 6.64 4 8 C6.31 8 8.62 8 11 8 C11 9.32 11 10.64 11 12 C8.69 12 6.38 12 4 12 C4 13.32 4 14.64 4 16 C6.31 16 8.62 16 11 16 C11 17.32 11 18.64 11 20 C7.37 20 3.74 20 0 20 C0 13.4 0 6.8 0 0 Z " fill="#000000" transform="translate(662,78)"/>
<path d="M0 0 C10 0 10 0 13 2 C13.4375 5.4375 13.4375 5.4375 13 9 C11.3125 10.9375 11.3125 10.9375 9 12 C6.25 12.1875 6.25 12.1875 4 12 C4 14.64 4 17.28 4 20 C2.68 20 1.36 20 0 20 C0 13.4 0 6.8 0 0 Z M4 4 C4 5.32 4 6.64 4 8 C5.65 7.67 7.3 7.34 9 7 C8.67 6.01 8.34 5.02 8 4 C6.68 4 5.36 4 4 4 Z " fill="#000000" transform="translate(527,78)"/>
<path d="M0 0 C1.670625 0.061875 1.670625 0.061875 3.375 0.125 C3.705 1.775 4.035 3.425 4.375 5.125 C2.065 4.795 -0.245 4.465 -2.625 4.125 C-2.625 4.785 -2.625 5.445 -2.625 6.125 C-0.15 7.115 -0.15 7.115 2.375 8.125 C2.375 8.785 2.375 9.445 2.375 10.125 C3.365 10.455 4.355 10.785 5.375 11.125 C5.735 16.525 5.735 16.525 4.25 19 C1.55782457 20.61530526 -0.54653205 20.38699727 -3.625 20.125 C-4.285 19.795 -4.945 19.465 -5.625 19.125 C-5.625 17.475 -5.625 15.825 -5.625 14.125 C-3.315 14.785 -1.005 15.445 1.375 16.125 C0.64670256 12.82878292 0.64670256 12.82878292 -2.6875 11.375 C-5.625 9.125 -5.625 9.125 -6.125 5.5 C-5.42469653 0.77295154 -4.80334337 0.16563253 0 0 Z " fill="#000000" transform="translate(717.625,77.875)"/>
<path d="M0 0 C5.61 0 11.22 0 17 0 C16.67 1.32 16.34 2.64 16 4 C14.35 4 12.7 4 11 4 C11 8.95 11 13.9 11 19 C9.68 19.33 8.36 19.66 7 20 C7 14.72 7 9.44 7 4 C5.02 4 3.04 4 1 4 C0.67 2.68 0.34 1.36 0 0 Z " fill="#000000" transform="translate(601,78)"/>
</svg>
