<?xml version="1.0" encoding="UTF-8"?>
<svg version="1.1" xmlns="http://www.w3.org/2000/svg" width="521" height="97">
<path d="M0 0 C7.67863156 6.42527143 11.5921173 12.66675223 13.83203125 22.4296875 C14.06599609 23.43515625 14.06599609 23.43515625 14.3046875 24.4609375 C15.83194162 33.02760429 13.65215174 42.24784609 8.83203125 49.4296875 C1.7986346 59.24228503 -8.70140523 66.22150261 -20.7734375 68.21484375 C-33.44273495 69.35156701 -45.21977682 68.54928578 -55.359375 60.1171875 C-63.75163197 52.28683111 -68.15159524 45.17658324 -68.74047852 33.55517578 C-68.9820963 22.04517868 -66.36309862 13.71745394 -58.48046875 5.0546875 C-42.94516769 -9.07098322 -17.54366978 -12.70730676 0 0 Z M-45.80859375 6.22265625 C-49.69194421 12.52752122 -50.67126559 18.48513151 -50.54296875 25.8046875 C-50.53281738 26.64249756 -50.52266602 27.48030762 -50.51220703 28.34350586 C-50.2534697 38.66191062 -47.54124877 47.16433998 -41.16796875 55.4296875 C-35.18069622 61.02007644 -30.19731922 62.8736023 -22.0234375 62.765625 C-16.63993367 62.13227161 -13.00563833 59.71271068 -9.63671875 55.52734375 C-3.16540804 45.72631794 -2.60959057 34.27470493 -4.85546875 22.96875 C-7.96357563 12.89330353 -13.17593238 4.39814058 -22.48046875 -0.8828125 C-31.82783239 -3.27399855 -39.46778062 -1.09777688 -45.80859375 6.22265625 Z " fill="#020551" transform="translate(413.16796875,28.5703125)"/>
<path d="M0 0 C6.79132305 5.93990349 12.31991904 12.12632695 13.53515625 21.3515625 C13.61378906 22.55683594 13.69242187 23.76210938 13.7734375 25.00390625 C13.85980469 26.21175781 13.94617188 27.41960938 14.03515625 28.6640625 C14.07753202 31.39892976 13.93720343 33.37480746 13.0859375 35.94140625 C12.0959375 35.94140625 11.1059375 35.94140625 10.0859375 35.94140625 C9.80621094 35.28914063 9.52648437 34.636875 9.23828125 33.96484375 C4.52990475 23.70028018 -1.71284708 19.41781371 -11.9140625 14.94140625 C-19.71501191 12.34108978 -31.73369582 12.41484417 -39.2890625 15.69140625 C-41.23727429 16.76066007 -41.23727429 16.76066007 -42.9140625 17.94140625 C-43.8628125 18.56015625 -44.8115625 19.17890625 -45.7890625 19.81640625 C-49.88018239 23.90752614 -51.12266995 27.62243841 -51.4140625 33.31640625 C-51.19659392 39.99450403 -48.9448556 44.10168489 -44.1171875 48.625 C-33.9162502 56.80615171 -22.79351812 58.99569797 -9.9140625 57.94140625 C-3.56245017 56.54681311 1.92808307 54.95051804 7.0859375 50.94140625 C7.7459375 50.94140625 8.4059375 50.94140625 9.0859375 50.94140625 C9.7459375 49.62140625 10.4059375 48.30140625 11.0859375 46.94140625 C12.5709375 47.43640625 12.5709375 47.43640625 14.0859375 47.94140625 C12.14251502 58.43588767 6.91153281 66.84136243 -1.9140625 72.94140625 C-10.4162863 78.06774707 -19.82200337 78.98504145 -29.421875 76.74609375 C-34.99537356 74.94650017 -40.05602468 72.18009813 -44.9140625 68.94140625 C-44.9140625 68.28140625 -44.9140625 67.62140625 -44.9140625 66.94140625 C-45.51089844 66.70292969 -46.10773438 66.46445313 -46.72265625 66.21875 C-52.25426324 62.99444432 -54.96920039 55.51111457 -56.7890625 49.62890625 C-60.10761866 35.62380913 -57.35208311 22.12192502 -49.9140625 9.94140625 C-44.73483702 2.51034361 -37.6292657 -2.91568686 -28.8515625 -5.43359375 C-18.64187572 -7.05417895 -8.70601714 -6.15022926 0 0 Z " fill="#010556" transform="translate(238.9140625,13.05859375)"/>
<path d="M0 0 C1.99121094 0.80517578 1.99121094 0.80517578 3.05273438 2.48144531 C3.31602539 3.20960449 3.57931641 3.93776367 3.85058594 4.68798828 C4.15722168 5.51314941 4.46385742 6.33831055 4.77978516 7.18847656 C5.09705566 8.0932373 5.41432617 8.99799805 5.74121094 9.93017578 C6.08555176 10.87231934 6.42989258 11.81446289 6.78466797 12.78515625 C7.87377571 15.78503147 8.93674139 18.79296304 9.99121094 21.80517578 C10.47895996 23.19736328 10.47895996 23.19736328 10.9765625 24.61767578 C12.27085392 28.32543227 13.55960339 32.03492205 14.83203125 35.75024414 C17.98119865 44.91110721 21.37955947 53.97582415 24.84228516 63.02246094 C25.45740967 64.65320557 25.45740967 64.65320557 26.08496094 66.31689453 C26.45298828 67.28071045 26.82101563 68.24452637 27.20019531 69.23754883 C27.99121094 71.80517578 27.99121094 71.80517578 27.99121094 75.80517578 C24.41819865 77.07480928 22.96273707 76.79446375 19.34667969 75.43408203 C17.95038877 74.75951688 16.56138909 74.06972109 15.17871094 73.36767578 C14.42734863 73.00005127 13.67598633 72.63242676 12.90185547 72.25366211 C10.5908508 71.11851251 8.29020592 69.96442537 5.99121094 68.80517578 C4.70364743 68.16155255 3.41589768 67.5183017 2.12792969 66.87548828 C0.2312585 65.92715269 -1.6645186 64.97718625 -3.55810547 64.02270508 C-17.55798569 56.98193907 -31.75292514 50.31020552 -46.00878906 43.80517578 C-45.65034912 44.68931152 -45.29190918 45.57344727 -44.92260742 46.484375 C-41.27183081 55.52715713 -37.74603694 64.61062019 -34.37426758 73.76123047 C-33.83160524 75.22702925 -33.28360845 76.69086248 -32.73071289 78.15283203 C-31.91682254 80.30611673 -31.11932036 82.46484863 -30.32519531 84.62548828 C-30.076371 85.27446075 -29.82754669 85.92343323 -29.57118225 86.59207153 C-28.20260802 90.38201259 -27.79152113 92.93259527 -29.00878906 96.80517578 C-30.32878906 96.80517578 -31.64878906 96.80517578 -33.00878906 96.80517578 C-33.4411084 95.6136792 -33.87342773 94.42218262 -34.31884766 93.19458008 C-35.97092528 88.64209225 -37.62425372 84.09005938 -39.27783203 79.53811646 C-40.01322631 77.51308331 -40.74825429 75.48791711 -41.48291016 73.46261597 C-46.82442316 58.73064169 -46.82442316 58.73064169 -52.29785156 44.04736328 C-52.53611664 43.41492203 -52.77438171 42.78248077 -53.01986694 42.13087463 C-54.09129661 39.28809885 -55.17043421 36.44878788 -56.26416016 33.61450195 C-56.6336377 32.63715088 -57.00311523 31.6597998 -57.38378906 30.65283203 C-57.70089844 29.8279126 -58.01800781 29.00299316 -58.34472656 28.15307617 C-59.06575682 25.60375705 -59.13065526 23.44141105 -59.00878906 20.80517578 C-55.52236017 19.59192678 -54.11925128 19.76087904 -50.63354492 21.15869141 C-49.34399497 21.8294991 -48.06188317 22.5147314 -46.78613281 23.21142578 C-45.35295746 23.96123557 -43.91917972 24.70989486 -42.48486328 25.45751953 C-41.74645203 25.8472998 -41.00804077 26.23708008 -40.24725342 26.63867188 C-36.66272133 28.50663581 -33.02639896 30.26448712 -29.38769531 32.02392578 C-27.92215588 32.7360735 -26.45666135 33.44831365 -24.99121094 34.16064453 C-24.26216553 34.51433105 -23.53312012 34.86801758 -22.78198242 35.23242188 C-20.57497052 36.30338933 -18.36898956 37.37645901 -16.16308594 38.44970703 C-6.14911398 43.31554868 3.90706364 48.08659186 13.99121094 52.80517578 C9.37448726 39.24677394 4.71761628 25.72302695 -0.53222656 12.39428711 C-2.03326082 8.54982513 -3.40855199 4.9151324 -4.00878906 0.80517578 C-2.00878906 -0.19482422 -2.00878906 -0.19482422 0 0 Z " fill="#020553" transform="translate(147.0087890625,0.19482421875)"/>
<path d="M0 0 C0.99 5.61 1.98 11.22 3 17 C-3.6 21.29 -10.2 25.58 -17 30 C-16.52353062 38.48115492 -15.45104677 46.42206627 -13.62109375 54.6875 C-13.08089032 57.56858494 -12.87295308 60.08344465 -13 63 C-12.35675781 63.03738281 -11.71351562 63.07476562 -11.05078125 63.11328125 C-5.61343425 63.5088657 -0.28813663 64.1953645 5.0625 65.25 C6.14660156 65.46140625 7.23070313 65.6728125 8.34765625 65.890625 C11 67 11 67 12.37109375 69.609375 C12.57863281 70.39828125 12.78617187 71.1871875 13 72 C9.95669414 73.52165293 7.15380349 72.46714493 3.93359375 71.84765625 C3.20353622 71.71247086 2.4734787 71.57728546 1.72129822 71.43800354 C-0.70793043 70.9861535 -3.13518499 70.52451114 -5.5625 70.0625 C-7.25236803 69.74553953 -8.94231066 69.42897655 -10.63232422 69.11279297 C-27.09535439 66.02164304 -43.53936067 62.82697686 -59.9765625 59.6015625 C-60.73219986 59.4539296 -61.48783722 59.30629669 -62.26637268 59.15419006 C-64.17916522 58.77741141 -66.08973318 58.38938169 -68 58 C-68.8048584 57.84321777 -69.6097168 57.68643555 -70.43896484 57.52490234 C-72 57 -72 57 -73 55 C-73.55199627 49.86617558 -73.55199627 49.86617558 -73 47 C-70.69335937 44.75976562 -70.69335937 44.75976562 -67.34375 42.90625 C-66.04715072 42.15111938 -64.75303732 41.39171028 -63.4609375 40.62890625 C-62.74711914 40.21592285 -62.03330078 39.80293945 -61.29785156 39.37744141 C-56.98815913 36.79400699 -52.86832649 33.92449214 -48.71875 31.09375 C-46.8688085 29.84197648 -45.01854312 28.59068148 -43.16796875 27.33984375 C-41.27851883 26.06008332 -39.38919657 24.7801344 -37.5 23.5 C-16.26180562 9.10883306 -16.26180562 9.10883306 -7.78125 3.59375 C-6.69908203 2.88927734 -5.61691406 2.18480469 -4.50195312 1.45898438 C-2 0 -2 0 0 0 Z M-31.125 38.375 C-31.83333984 38.819646 -32.54167969 39.26429199 -33.27148438 39.72241211 C-38.38412957 42.94725043 -43.4590525 46.22674076 -48.5 49.5625 C-49.15242676 49.99159668 -49.80485352 50.42069336 -50.47705078 50.86279297 C-52.00339692 51.88104554 -53.50476989 52.93658204 -55 54 C-55 54.33 -55 54.66 -55 55 C-50.51682802 55.85916038 -46.03277733 56.71351856 -41.54785156 57.56347656 C-40.02286197 57.85317922 -38.49811896 58.14418311 -36.97363281 58.43652344 C-34.7799358 58.8569582 -32.58538905 59.27267623 -30.390625 59.6875 C-29.7113092 59.81874268 -29.03199341 59.94998535 -28.33209229 60.08520508 C-25.12732146 60.68638311 -22.28071212 61 -19 61 C-19.64285324 54.76494772 -20.50005935 48.6138894 -21.5625 42.4375 C-21.70107422 41.61958984 -21.83964844 40.80167969 -21.98242188 39.95898438 C-22.3193499 37.97227085 -22.65934584 35.98607801 -23 34 C-25.62881694 34 -28.87329014 36.95829052 -31.125 38.375 Z " fill="#020551" transform="translate(73,16)"/>
<path d="M0 0 C0.50377768 2.26999825 1.00290019 4.54103003 1.5 6.8125 C1.7784375 8.07707031 2.056875 9.34164063 2.34375 10.64453125 C3 14 3 14 3 17 C1.1640625 18.42285156 1.1640625 18.42285156 -1.375 19.890625 C-2.27734375 20.43589844 -3.1796875 20.98117188 -4.109375 21.54296875 C-6.02965192 22.67697012 -7.95675797 23.79948938 -9.890625 24.91015625 C-12.45240616 26.47284276 -14.77497216 27.98587664 -17 30 C-18.00288498 33.30689283 -18.00288498 33.30689283 -17 37 C-16.79503906 38.26191162 -16.79503906 38.26191162 -16.5859375 39.54931641 C-16.1109286 42.44113439 -15.56408575 45.31180612 -15 48.1875 C-14.62177135 50.13869983 -14.24664518 52.09050427 -13.875 54.04296875 C-13.62363281 55.32723755 -13.62363281 55.32723755 -13.3671875 56.63745117 C-13 59 -13 59 -13 63 C-12.45214844 63.03738281 -11.90429688 63.07476562 -11.33984375 63.11328125 C-3.42194508 63.76988748 4.24122873 65.35514049 12 67 C12 68.98 12 70.96 12 73 C-16.05013464 67.9178062 -44.0338959 62.5249372 -72 57 C-72.66 54.03 -73.32 51.06 -74 48 C-66.61262579 43.07299053 -59.22387878 38.14806217 -51.83102417 33.22927856 C-48.47193089 30.99412061 -45.11350112 28.75796676 -41.75512695 26.52172852 C-40.03469501 25.37646427 -38.31398906 24.23161153 -36.59301758 23.0871582 C-22.0973033 13.54814942 -22.0973033 13.54814942 -7.96972656 3.47998047 C-3.28739666 0 -3.28739666 0 0 0 Z M-31.6875 38.375 C-33.03627813 39.28802668 -34.38524225 40.20077866 -35.734375 41.11328125 C-36.43240234 41.58717285 -37.13042969 42.06106445 -37.84960938 42.54931641 C-39.99955415 43.99969922 -42.16117229 45.43064332 -44.328125 46.85546875 C-45.01688721 47.30937988 -45.70564941 47.76329102 -46.4152832 48.23095703 C-47.75092459 49.11041956 -49.08797796 49.98774188 -50.42651367 50.86279297 C-51.96839761 51.8827162 -53.48700919 52.9376873 -55 54 C-55 54.33 -55 54.66 -55 55 C-50.51682802 55.85916038 -46.03277733 56.71351856 -41.54785156 57.56347656 C-40.02286197 57.85317922 -38.49811896 58.14418311 -36.97363281 58.43652344 C-34.7799358 58.8569582 -32.58538905 59.27267623 -30.390625 59.6875 C-29.7113092 59.81874268 -29.03199341 59.94998535 -28.33209229 60.08520508 C-25.12732146 60.68638311 -22.28071212 61 -19 61 C-19.72356337 51.88310149 -21.34292907 42.98361723 -23 34 C-26.4068339 34 -28.9515864 36.50291398 -31.6875 38.375 Z " fill="#020551" transform="translate(509,7)"/>
<path d="M0 0 C1.65 0 3.3 0 5 0 C4.42128908 7.82660622 3.33870899 15.4684724 1.9375 23.1875 C1.75123047 24.23486328 1.56496094 25.28222656 1.37304688 26.36132812 C0.91947338 28.90831773 0.46174232 31.45448099 0 34 C0.67119873 34.03738281 1.34239746 34.07476562 2.03393555 34.11328125 C11.10804853 34.7333697 19.89311797 36.30769102 28.8125 38 C31.01343869 38.41253982 33.21468433 38.823372 35.41618347 39.23291016 C37.40017708 39.60275092 39.38334455 39.97701551 41.36645508 40.3515625 C44.89752088 40.98171172 48.44919678 41.4927424 52 42 C54.97 26.16 54.97 26.16 58 10 C60.97 10.495 60.97 10.495 64 11 C57.07 50.105 57.07 50.105 50 90 C48.35 90 46.7 90 45 90 C43.53632727 87.07265453 44.3846439 85.08990744 44.99609375 81.8984375 C45.22490234 80.68671875 45.45371094 79.475 45.68945312 78.2265625 C45.93630859 76.95554687 46.18316406 75.68453125 46.4375 74.375 C46.68048828 73.09625 46.92347656 71.8175 47.17382812 70.5 C47.77666351 67.33215915 48.38563809 64.16562215 49 61 C48.21165771 60.86948242 47.42331543 60.73896484 46.61108398 60.60449219 C29.72810256 57.80678998 12.85428437 54.96673653 -4 52 C-4.08217773 52.93489258 -4.08217773 52.93489258 -4.16601562 53.88867188 C-4.68766662 59.49111875 -5.4274235 64.97782396 -6.5 70.5 C-6.63019531 71.20125 -6.76039063 71.9025 -6.89453125 72.625 C-7.86733307 77.73466615 -7.86733307 77.73466615 -9 80 C-10.65 79.67 -12.3 79.34 -14 79 C-12.34814756 66.47009493 -10.34026239 54.04923897 -7.98657227 41.63183594 C-6.8074018 35.39661258 -5.66733921 29.15781155 -4.6015625 22.90234375 C-4.48765167 22.23417633 -4.37374084 21.56600891 -4.25637817 20.87759399 C-3.70319104 17.62429494 -3.15527639 14.37017297 -2.61181641 11.11523438 C-2.31670166 9.37016602 -2.31670166 9.37016602 -2.015625 7.58984375 C-1.84321289 6.55722412 -1.67080078 5.52460449 -1.49316406 4.46069336 C-1 2 -1 2 0 0 Z " fill="#020552" transform="translate(276,4)"/>
<path d="M0 0 C2.00878906 0.13232422 2.00878906 0.13232422 4 1 C5.06152344 2.67626953 5.06152344 2.67626953 5.859375 4.8828125 C6.16625244 5.70861816 6.47312988 6.53442383 6.78930664 7.38525391 C7.10633545 8.28937012 7.42336426 9.19348633 7.75 10.125 C8.09216553 11.06134277 8.43433105 11.99768555 8.78686523 12.96240234 C9.87795385 15.96819318 10.94269708 18.98217056 12 22 C12.34111816 22.97066406 12.68223633 23.94132812 13.03369141 24.94140625 C14.3830551 28.79191886 15.72553501 32.64462482 17.05175781 36.50317383 C19.55816651 43.79279099 22.18982563 51.0293272 24.91821289 58.23876953 C27 63.79060918 27 63.79060918 27 66 C26.34 66 25.68 66 25 66 C24.84144531 65.30132812 24.68289062 64.60265625 24.51953125 63.8828125 C24.28621094 62.97273438 24.05289063 62.06265625 23.8125 61.125 C23.59207031 60.22007813 23.37164062 59.31515625 23.14453125 58.3828125 C22.57798828 57.20332031 22.57798828 57.20332031 22 56 C21.20722656 55.72671875 20.41445312 55.4534375 19.59765625 55.171875 C17 54 17 54 15.2265625 50.5703125 C14.67317039 49.09572705 14.14063236 47.61320978 13.625 46.125 C13.33318848 45.3299707 13.04137695 44.53494141 12.74072266 43.71582031 C11.80623548 41.15085551 10.90091722 38.57693059 10 36 C9.39090502 34.28375476 8.78153146 32.56760836 8.171875 30.8515625 C6.70002862 26.68589957 5.25290908 22.51205039 3.81103516 18.3359375 C2.58319408 14.79951865 1.32551985 11.2739813 0.0625 7.75 C-0.33839844 6.63109375 -0.73929688 5.5121875 -1.15234375 4.359375 C-1.43207031 3.58078125 -1.71179688 2.8021875 -2 2 C-1.34 1.34 -0.68 0.68 0 0 Z " fill="#030347" transform="translate(145,0)"/>
<path d="M0 0 C2.97 0.495 2.97 0.495 6 1 C2.7 19.81 -0.6 38.62 -4 58 C-4.33 58 -4.66 58 -5 58 C-5 52.06 -5 46.12 -5 40 C-4.34 40 -3.68 40 -3 40 C-3.0309375 38.7934375 -3.0309375 38.7934375 -3.0625 37.5625 C-3 35 -3 35 -2 34 C-1.95936168 32.33382885 -1.957279 30.66611905 -2 29 C-2.33 29.66 -2.66 30.32 -3 31 C-3.66 31 -4.32 31 -5 31 C-4.51739376 20.47918394 -2.17218433 10.27221291 0 0 Z " fill="#030448" transform="translate(334,14)"/>
<path d="M0 0 C0.99 5.61 1.98 11.22 3 17 C1.56785156 17.86882813 0.13570312 18.73765625 -1.33984375 19.6328125 C-3.20635792 20.79586656 -5.0722093 21.95998476 -6.9375 23.125 C-7.88302734 23.69476563 -8.82855469 24.26453125 -9.80273438 24.8515625 C-11.15141602 25.70234375 -11.15141602 25.70234375 -12.52734375 26.5703125 C-13.35999756 27.08352051 -14.19265137 27.59672852 -15.05053711 28.12548828 C-17.61518062 30.59152872 -17.72505524 32.52589185 -18 36 C-18.66 36 -19.32 36 -20 36 C-20.4532054 32.10243355 -20.40526042 30.51578599 -17.9375 27.375 C-14.15409617 24.31607776 -10.30408809 21.98746633 -5.8125 20.0625 C-2.93797023 18.37743082 -1.62335116 16.93451941 0 14 C-0.26290484 10.8661743 -1.03696028 7.98672452 -2 5 C-3.98 5.33 -5.96 5.66 -8 6 C-8.33 7.32 -8.66 8.64 -9 10 C-9.61875 10.12375 -10.2375 10.2475 -10.875 10.375 C-13.19120832 10.87197356 -13.19120832 10.87197356 -15 13 C-17.28057156 13.77437318 -19.58107324 14.39684766 -21.90625 15.0234375 C-24.50117546 16.23375721 -25.00599183 17.37452191 -26 20 C-26.66 19.67 -27.32 19.34 -28 19 C-28 19.66 -28 20.32 -28 21 C-28.66 21 -29.32 21 -30 21 C-30.33 21.66 -30.66 22.32 -31 23 C-32.32 22.67 -33.64 22.34 -35 22 C-30.34082832 18.86099787 -25.67769615 15.72800598 -21.01074219 12.60058594 C-19.42271583 11.53518471 -17.83579657 10.4681314 -16.25 9.39941406 C-13.97422698 7.86611199 -11.69457627 6.33873914 -9.4140625 4.8125 C-8.70255035 4.33127686 -7.99103821 3.85005371 -7.25796509 3.35424805 C-2.22774341 0 -2.22774341 0 0 0 Z " fill="#030342" transform="translate(73,16)"/>
<path d="M0 0 C0.6171875 1.8359375 0.6171875 1.8359375 1 4 C-0.875 6.625 -0.875 6.625 -3 9 C-3.33 9.66 -3.66 10.32 -4 11 C-4.66 11 -5.32 11 -6 11 C-6.28875 11.763125 -6.5775 12.52625 -6.875 13.3125 C-8 16 -8 16 -10 19 C-10 20.32 -10 21.64 -10 23 C-9.34 22.01 -8.68 21.02 -8 20 C-7.34 20 -6.68 20 -6 20 C-6.309375 20.763125 -6.61875 21.52625 -6.9375 22.3125 C-8.33802581 27.17314841 -8.65979734 31.96858173 -9 37 C-9.33 37 -9.66 37 -10 37 C-10.33 34.36 -10.66 31.72 -11 29 C-11.66 29.33 -12.32 29.66 -13 30 C-12.77652035 38.3804869 -12.50481313 45.41782717 -8.7421875 53.046875 C-8 55 -8 55 -9 58 C-14.99943096 46.8010622 -16.93975291 35.85704861 -13.8125 23.3125 C-10.9318628 14.09446095 -6.71776008 6.93071501 0 0 Z " fill="#030342" transform="translate(196,15)"/>
<path d="M0 0 C0.99 0.33 1.98 0.66 3 1 C1.70949166 7.96874506 -1.14810336 13.08891333 -5 19 C-5.66 18.34 -6.32 17.68 -7 17 C-6.34 14.69 -5.68 12.38 -5 10 C-3.68 10 -2.36 10 -1 10 C-1 9.2575 -1 8.515 -1 7.75 C-1 1 -1 1 0 0 Z M-4 4 C-3.34 4.33 -2.68 4.66 -2 5 C-3.98 5.99 -3.98 5.99 -6 7 C-6 7.99 -6 8.98 -6 10 C-15.54376709 14.21934966 -25.80854342 13.28927715 -36 13 C-36.33 12.34 -36.66 11.68 -37 11 C-35.49373047 11.06960937 -35.49373047 11.06960937 -33.95703125 11.140625 C-23.39833081 11.47658365 -12.51846658 11.07844009 -4 4 Z " fill="#05063F" transform="translate(250,60)"/>
<path d="M0 0 C0.66 0 1.32 0 2 0 C2 2.64 2 5.28 2 8 C2.99 6.68 3.98 5.36 5 4 C4.33644956 10.74609618 3.28134207 17.34448534 2 24 C0.35 24 -1.3 24 -3 24 C-4.34215465 21.3156907 -3.7789514 19.92538009 -3.22265625 16.9921875 C-3.03896484 16.00605469 -2.85527344 15.01992187 -2.66601562 14.00390625 C-2.36727539 12.45509766 -2.36727539 12.45509766 -2.0625 10.875 C-1.86720703 9.83472656 -1.67191406 8.79445313 -1.47070312 7.72265625 C-0.98634101 5.14726742 -0.49586612 2.57319434 0 0 Z " fill="#040547" transform="translate(324,70)"/>
<path d="M0 0 C6.77102044 6.77102044 6.95499328 14.76237171 7 24 C6.515625 26.42578125 6.515625 26.42578125 6 28 C5.01 28 4.02 28 3 28 C2.68546875 27.33613281 2.3709375 26.67226563 2.046875 25.98828125 C-0.25301049 21.24303558 -2.44142868 16.95396814 -6 13 C-4.68 13.33 -3.36 13.66 -2 14 C-2 14.66 -2 15.32 -2 16 C-0.68 15.34 0.64 14.68 2 14 C2.99 14.66 3.98 15.32 5 16 C5 14.35 5 12.7 5 11 C4.34 11 3.68 11 3 11 C2.01 7.37 1.02 3.74 0 0 Z " fill="#030444" transform="translate(246,21)"/>
<path d="M0 0 C0.50377768 2.26999825 1.00290019 4.54103003 1.5 6.8125 C1.7784375 8.07707031 2.056875 9.34164063 2.34375 10.64453125 C3 14 3 14 3 17 C1.03125 18.60546875 1.03125 18.60546875 -1.5 20.1875 C-2.3353125 20.71730469 -3.170625 21.24710938 -4.03125 21.79296875 C-4.6809375 22.19128906 -5.330625 22.58960937 -6 23 C-6.66 22.67 -7.32 22.34 -8 22 C-7.4946875 21.6596875 -6.989375 21.319375 -6.46875 20.96875 C-2.4967221 18.12389945 -2.4967221 18.12389945 -0.5 13.85546875 C-0.45145063 11.42534431 -0.45145063 11.42534431 -1 8 C-1.33 7.67 -1.66 7.34 -2 7 C-2.66 8.32 -3.32 9.64 -4 11 C-4.33 11 -4.66 11 -5 11 C-5 9.02 -5 7.04 -5 5 C-5.99 4.67 -6.98 4.34 -8 4 C-3.375 0 -3.375 0 0 0 Z " fill="#030445" transform="translate(509,7)"/>
<path d="M0 0 C2.35482691 0.9571232 4.67466114 1.97148474 7 3 C3.42355152 4.2380014 0.66305234 3.74926071 -3 3 C-3 4.32 -3 5.64 -3 7 C-2.01 7.33 -1.02 7.66 0 8 C1.1875 11.0625 1.1875 11.0625 2 14 C1.34 14 0.68 14 0 14 C0.66 15.65 1.32 17.3 2 19 C2.66 19 3.32 19 4 19 C4 19.66 4 20.32 4 21 C3.34 21 2.68 21 2 21 C1.67 21.99 1.34 22.98 1 24 C-0.18012751 20.94251918 -1.34166167 17.87829508 -2.5 14.8125 C-2.83386719 13.94818359 -3.16773437 13.08386719 -3.51171875 12.19335938 C-3.82753906 11.35224609 -4.14335938 10.51113281 -4.46875 9.64453125 C-4.76201172 8.87471924 -5.05527344 8.10490723 -5.35742188 7.31176758 C-6.060867 4.78102218 -6.11322191 2.61421293 -6 0 C-3.39109439 -1.3044528 -2.75956619 -0.89499444 0 0 Z " fill="#020444" transform="translate(94,21)"/>
<path d="M0 0 C1.05010254 0.04141113 2.10020508 0.08282227 3.18212891 0.12548828 C8.73500912 0.46527948 12.82294822 1.0796818 17.6875 4 C18.3475 4 19.0075 4 19.6875 4 C20.1825 5.98 20.1825 5.98 20.6875 8 C20.0275 7.731875 19.3675 7.46375 18.6875 7.1875 C17.6975 6.795625 16.7075 6.40375 15.6875 6 C14.50027344 5.48953125 13.31304687 4.9790625 12.08984375 4.453125 C7.44909765 2.72437551 3.16646751 2.50184549 -1.75 2.5625 C-2.5867627 2.56789795 -3.42352539 2.5732959 -4.28564453 2.57885742 C-10.36659587 2.72912903 -15.14919348 3.62631729 -20.3125 7 C-21.323125 7.5775 -22.33375 8.155 -23.375 8.75 C-24.3340625 9.36875 -24.3340625 9.36875 -25.3125 10 C-24.03157465 5.99542285 -22.9244394 4.11063447 -19.1875 2.125 C-12.87906194 -0.55334887 -6.76982999 -0.26932967 0 0 Z " fill="#040541" transform="translate(216.3125,24)"/>
<path d="M0 0 C3.66304366 -0.18784839 6.83751649 0.12942347 10.375 1 C17.37303879 2.65280313 23.93508899 2.009273 31 1 C27.21028911 4.78971089 21.36074296 4.99346959 16.17578125 5.0078125 C10.28500787 4.59701938 5.40873444 3.34718664 0 1 C0 0.67 0 0.34 0 0 Z " fill="#050640" transform="translate(202,86)"/>
<path d="M0 0 C0.33 0.99 0.66 1.98 1 3 C1.66 3 2.32 3 3 3 C3.33 2.34 3.66 1.68 4 1 C4.34495895 6.86430216 2.19833414 11.66118853 0 17 C-0.66 17 -1.32 17 -2 17 C-2.25706972 11.08739655 -1.2982126 5.76081841 0 0 Z " fill="#01024C" transform="translate(266,65)"/>
<path d="M0 0 C0.66 0 1.32 0 2 0 C3.49821059 3.37097383 4 5.20442119 4 9 C1.75 9.6875 1.75 9.6875 -1 10 C-3.3125 8.5625 -3.3125 8.5625 -5 7 C-3.35 6.01 -1.7 5.02 0 4 C-0.33 3.34 -0.66 2.68 -1 2 C-0.67 1.34 -0.34 0.68 0 0 Z " fill="#030447" transform="translate(171,67)"/>
<path d="M0 0 C0.33 1.32 0.66 2.64 1 4 C-0.051875 4.433125 -1.10375 4.86625 -2.1875 5.3125 C-6.35584137 7.11093761 -9.95535836 8.86039094 -13.0625 12.25 C-13.701875 12.8275 -14.34125 13.405 -15 14 C-17.12109375 13.609375 -17.12109375 13.609375 -19 13 C-16.3960739 11.20798351 -13.79181733 9.41644786 -11.1875 7.625 C-10.44951172 7.11710937 -9.71152344 6.60921875 -8.95117188 6.0859375 C-8.23896484 5.59609375 -7.52675781 5.10625 -6.79296875 4.6015625 C-6.1383667 4.15119629 -5.48376465 3.70083008 -4.80932617 3.23681641 C-3.2140547 2.14632319 -1.60783176 1.07188784 0 0 Z " fill="#020340" transform="translate(499,12)"/>
<path d="M0 0 C-5.61 3.63 -11.22 7.26 -17 11 C-17.33 10.01 -17.66 9.02 -18 8 C-13.25 5 -13.25 5 -11 5 C-11 4.34 -11 3.68 -11 3 C-9.73581754 2.30034557 -8.46334598 1.61565237 -7.1875 0.9375 C-6.47980469 0.55464844 -5.77210938 0.17179687 -5.04296875 -0.22265625 C-3 -1 -3 -1 0 0 Z " fill="#03033D" transform="translate(483,43)"/>
<path d="M0 0 C7.10390815 0.69306421 11.87672535 3.44877017 16.4375 8.75 C17.30233588 9.8248352 18.16049733 10.90526392 19 12 C18.01 12.495 18.01 12.495 17 13 C16 12 15 11 14 10 C13.1646875 9.2265625 13.1646875 9.2265625 12.3125 8.4375 C11 7 11 7 11 5 C7.37 4.01 3.74 3.02 0 2 C0 1.34 0 0.68 0 0 Z " fill="#030442" transform="translate(227,9)"/>
<path d="M0 0 C0.43828125 0.36351562 0.8765625 0.72703125 1.328125 1.1015625 C7.11517029 5.6888545 13.33331434 8.86665774 20 12 C20 12.33 20 12.66 20 13 C14.49504774 13.59219941 11.49191716 11.77563035 7.25 8.5625 C6.10990339 7.72974487 4.96930059 6.89768218 3.828125 6.06640625 C2.89484375 5.38449219 1.9615625 4.70257813 1 4 C0.34 3.67 -0.32 3.34 -1 3 C-0.67 2.01 -0.34 1.02 0 0 Z " fill="#040540" transform="translate(190,58)"/>
<path d="M0 0 C7.72422049 0.66257422 15.34800303 1.76464626 23 3 C21 5 21 5 19.08203125 5.265625 C14.0035053 5.23066097 9.81221591 4.63820116 5 3 C5 2.34 5 1.68 5 1 C3.35 1 1.7 1 0 1 C0 0.67 0 0.34 0 0 Z " fill="#070744" transform="translate(304,43)"/>
<path d="M0 0 C0.66 0.33 1.32 0.66 2 1 C-0.52788007 3.79872437 -2.20411134 5.45773019 -6 6 C-6 6.66 -6 7.32 -6 8 C-9.2491277 10.3208055 -12.05879291 11.43697042 -16 12 C-12.8980055 8.65707389 -9.56424638 6.23755199 -5.75 3.75 C-4.67234375 3.04359375 -3.5946875 2.3371875 -2.484375 1.609375 C-1.66453125 1.07828125 -0.8446875 0.5471875 0 0 Z " fill="#02023F" transform="translate(27,45)"/>
<path d="M0 0 C4.8288023 1.44864069 9.78694365 3.17453739 14 6 C14.33 6.99 14.66 7.98 15 9 C10.93037598 7.76964855 7.61674849 6.21023519 4 4 C3.34 4 2.68 4 2 4 C1.67 4.66 1.34 5.32 1 6 C0.34 5.01 -0.32 4.02 -1 3 C-0.67 2.01 -0.34 1.02 0 0 Z " fill="#030544" transform="translate(147,47)"/>
<path d="M0 0 C0.99 0 1.98 0 3 0 C3 0.66 3 1.32 3 2 C3.66 2 4.32 2 5 2 C8.89785009 8.08409811 10.65532373 12.76179827 11 20 C9.85192426 17.7148349 8.71882067 15.42354321 7.59765625 13.125 C7.09105469 12.09375 6.58445312 11.0625 6.0625 10 C5.55847656 8.96875 5.05445313 7.9375 4.53515625 6.875 C3.19395923 4.36324172 1.78115652 2.21182422 0 0 Z " fill="#03033E" transform="translate(397,32)"/>
<path d="M0 0 C0.33 0.66 0.66 1.32 1 2 C0.52949219 2.49628906 0.05898438 2.99257813 -0.42578125 3.50390625 C-4.37606528 7.81405053 -7.04612353 11.48317233 -9 17 C-9.66 17 -10.32 17 -11 17 C-9.27482021 10.09928082 -5.04663688 4.86586183 0 0 Z " fill="#04053C" transform="translate(357,32)"/>
<path d="M0 0 C2.97 0.495 2.97 0.495 6 1 C5.67 2.65 5.34 4.3 5 6 C3.68 4.68 2.36 3.36 1 2 C1.061875 3.093125 1.12375 4.18625 1.1875 5.3125 C1 9 1 9 -2 12 C-1.34 8.04 -0.68 4.08 0 0 Z " fill="#040339" transform="translate(334,14)"/>
<path d="M0 0 C6.02509722 -0.77244836 10.1557389 1.72435678 15 5 C16.02909639 5.97003125 17.04038756 6.96118146 18 8 C14.03202953 7.20840993 10.43590716 5.5519573 6.75 3.9375 C6.1003125 3.65583984 5.450625 3.37417969 4.78125 3.08398438 C3.18630914 2.3920615 1.59299066 1.696401 0 1 C0 0.67 0 0.34 0 0 Z " fill="#040440" transform="translate(111,48)"/>
<path d="M0 0 C0.33 0 0.66 0 1 0 C1.74737188 5.97897503 -0.6768102 9.32379721 -4 14 C-4.66 13.34 -5.32 12.68 -6 12 C-5.34 9.69 -4.68 7.38 -4 5 C-2.68 5 -1.36 5 0 5 C0 3.35 0 1.7 0 0 Z " fill="#020245" transform="translate(249,65)"/>
<path d="M0 0 C0.99 0.99 1.98 1.98 3 3 C1.68 3.33 0.36 3.66 -1 4 C-1.66 3.01 -2.32 2.02 -3 1 C-2.01 0.67 -1.02 0.34 0 0 Z M-4 2 C-3.01 3.32 -2.02 4.64 -1 6 C-4.63 5.67 -8.26 5.34 -12 5 C-12 4.67 -12 4.34 -12 4 C-9.36 3.34 -6.72 2.68 -4 2 Z " fill="#06084B" transform="translate(313,56)"/>
<path d="M0 0 C1.32 0.33 2.64 0.66 4 1 C5.125 6.625 5.125 6.625 4 10 C3.34 10 2.68 10 2 10 C1.34 6.7 0.68 3.4 0 0 Z " fill="#070652" transform="translate(145,0)"/>
<path d="M0 0 C0.33 0.66 0.66 1.32 1 2 C0.34 2 -0.32 2 -1 2 C-1 2.66 -1 3.32 -1 4 C-2.390625 5.32421875 -2.390625 5.32421875 -4.25 6.6875 C-4.85328125 7.14511719 -5.4565625 7.60273437 -6.078125 8.07421875 C-8 9 -8 9 -12 8 C-8.04 5.36 -4.08 2.72 0 0 Z " fill="#040440" transform="translate(477,27)"/>
<path d="M0 0 C2.475 0.99 2.475 0.99 5 2 C5 2.99 5 3.98 5 5 C5.99 5 6.98 5 8 5 C8 5.66 8 6.32 8 7 C8.66 7 9.32 7 10 7 C10.33 7.99 10.66 8.98 11 10 C8.525 9.01 8.525 9.01 6 8 C6 7.34 6 6.68 6 6 C5.38125 5.7525 4.7625 5.505 4.125 5.25 C1.64931313 3.79371361 1.04874998 2.62187494 0 0 Z " fill="#030543" transform="translate(188,74)"/>
<path d="M0 0 C0.99 0.33 1.98 0.66 3 1 C0 3 0 3 -2 3 C-2.33 3.99 -2.66 4.98 -3 6 C-5.9375 7.75 -5.9375 7.75 -9 9 C-9.66 8.67 -10.32 8.34 -11 8 C-9.23871656 6.63343543 -7.46563912 5.28205915 -5.6875 3.9375 C-4.70136719 3.18339844 -3.71523438 2.42929687 -2.69921875 1.65234375 C-1.80847656 1.10707031 -0.91773438 0.56179687 0 0 Z " fill="#020344" transform="translate(463,36)"/>
<path d="M0 0 C0.33 0 0.66 0 1 0 C0.4618629 5.69051363 -0.1400133 11.34865884 -1 17 C-1.33 17 -1.66 17 -2 17 C-2.05398987 14.72942623 -2.09278742 12.45848712 -2.125 10.1875 C-2.14820313 8.92292969 -2.17140625 7.65835937 -2.1953125 6.35546875 C-2 3 -2 3 0 0 Z " fill="#02033E" transform="translate(337,21)"/>
<path d="M0 0 C1.485 0.99 1.485 0.99 3 2 C3 2.99 3 3.98 3 5 C2.34 5 1.68 5 1 5 C1.33 6.65 1.66 8.3 2 10 C1.01 10 0.02 10 -1 10 C-0.67 6.7 -0.34 3.4 0 0 Z " fill="#040555" transform="translate(489,45)"/>
<path d="M0 0 C1.65 0 3.3 0 5 0 C4.67 3.63 4.34 7.26 4 11 C3.34 10.67 2.68 10.34 2 10 C2.33 7.36 2.66 4.72 3 2 C2.01 2 1.02 2 0 2 C0 1.34 0 0.68 0 0 Z " fill="#03033D" transform="translate(276,4)"/>
<path d="M0 0 C-1.12073862 0.83905565 -2.24674547 1.67107831 -3.375 2.5 C-4.00148438 2.9640625 -4.62796875 3.428125 -5.2734375 3.90625 C-7 5 -7 5 -9 5 C-8.875 3.125 -8.875 3.125 -8 1 C-2.71910112 -1.35955056 -2.71910112 -1.35955056 0 0 Z " fill="#030241" transform="translate(501,31)"/>
<path d="M0 0 C0.33 0 0.66 0 1 0 C1 2.31 1 4.62 1 7 C1.99 7 2.98 7 4 7 C4.33 6.34 4.66 5.68 5 5 C5 6.32 5 7.64 5 9 C3.35 9 1.7 9 0 9 C-1.53445094 5.93109813 -0.54984289 3.29905734 0 0 Z " fill="#06093E" transform="translate(321,85)"/>
<path d="M0 0 C4.455 0.99 4.455 0.99 9 2 C7.68 2.99 6.36 3.98 5 5 C4.01 4.34 3.02 3.68 2 3 C2 2.34 2 1.68 2 1 C1.34 0.67 0.68 0.34 0 0 Z " fill="#040453" transform="translate(26,73)"/>
<path d="M0 0 C0.66 0 1.32 0 2 0 C1.67 3.96 1.34 7.92 1 12 C0.67 12 0.34 12 0 12 C-0.19401633 10.18818595 -0.38004375 8.37551468 -0.5625 6.5625 C-0.66691406 5.55316406 -0.77132813 4.54382812 -0.87890625 3.50390625 C-0.91886719 2.67761719 -0.95882813 1.85132813 -1 1 C-0.67 0.67 -0.34 0.34 0 0 Z " fill="#010230" transform="translate(362,43)"/>
<path d="M0 0 C0.66 0.33 1.32 0.66 2 1 C0.875 2.9375 0.875 2.9375 -1 5 C-4.1875 5.75 -4.1875 5.75 -7 6 C-4.74259377 3.66475218 -2.7194239 1.81294927 0 0 Z " fill="#02033E" transform="translate(36,39)"/>
<path d="M0 0 C-2.97 1.65 -5.94 3.3 -9 5 C-7.27964048 -0.16107856 -5.26612131 -1.31653033 0 0 Z " fill="#03043D" transform="translate(27,65)"/>
<path d="M0 0 C2.51083114 1.25541557 2.87125446 2.50063488 4 5 C4.66 5 5.32 5 6 5 C6 5.66 6 6.32 6 7 C5.34 7 4.68 7 4 7 C3.67 7.99 3.34 8.98 3 10 C2.01 6.7 1.02 3.4 0 0 Z " fill="#02043F" transform="translate(92,35)"/>
</svg>
