<?xml version="1.0" encoding="UTF-8"?>
<svg version="1.1" xmlns="http://www.w3.org/2000/svg" width="1212" height="307">
<path d="M0 0 C1.35404497 -0.02763357 2.70826555 -0.04667422 4.0625 -0.0625 C4.81660156 -0.07410156 5.57070313 -0.08570313 6.34765625 -0.09765625 C7.22292969 -0.06542969 8.09820312 -0.03320312 9 0 C10.77503906 0.061875 10.77503906 0.061875 12.5859375 0.125 C16 1 16 1 18.00390625 3.59765625 C18.51824219 4.74105469 19.03257813 5.88445312 19.5625 7.0625 C20.33787109 8.71958984 20.33787109 8.71958984 21.12890625 10.41015625 C23.03698519 14.94311991 24.71728951 19.56287134 26.42852783 24.17259216 C29.68869972 32.91444117 33.1741091 41.56627529 36.64868164 50.22460938 C37.80225869 53.0994773 38.95310953 55.97542443 40.10351562 58.8515625 C43.233166 66.66673467 46.36616841 74.47954562 49.57958984 82.26074219 C49.99738205 83.27385468 50.41517426 84.28696716 50.84562683 85.33078003 C51.64966619 87.27702321 52.45676781 89.22200481 53.26728821 91.16555786 C53.62598495 92.03373138 53.9846817 92.90190491 54.35424805 93.79638672 C54.83211006 94.94480545 54.83211006 94.94480545 55.31962585 96.11642456 C56 98 56 98 56 100 C57.32 100 58.64 100 60 100 C61.77925688 95.76869031 63.55736368 91.53689974 65.33447266 87.3046875 C65.93735799 85.8693381 66.54054048 84.43411346 67.14404297 82.99902344 C70.4970057 75.02531107 73.82098519 67.04507498 77 59 C77.5488096 57.62603445 78.09828087 56.25233299 78.6484375 54.87890625 C79.06270996 53.8425 79.06270996 53.8425 79.48535156 52.78515625 C80.10837087 51.2286338 80.73284209 49.67269207 81.35839844 48.1171875 C83.45483664 42.89586971 85.52491051 37.66511944 87.56887817 32.42308044 C88.81023008 29.24412406 90.0601257 26.06855803 91.31085205 22.89328003 C91.93468216 21.30354101 92.55478953 19.71233589 93.17108154 18.11965942 C94.04715573 15.8571229 94.93626157 13.60010082 95.828125 11.34375 C96.21845413 10.3214756 96.21845413 10.3214756 96.6166687 9.27854919 C98.16426721 5.40679646 99.69310029 2.59071995 103 0 C106.27734375 -0.49609375 106.27734375 -0.49609375 109.9375 -0.4375 C111.74541016 -0.43556641 111.74541016 -0.43556641 113.58984375 -0.43359375 C117.35932954 0.04568795 118.98942155 0.72035455 122 3 C123.64990234 5.91650391 123.64990234 5.91650391 125.0859375 9.4765625 C125.34840775 10.11418518 125.61087799 10.75180786 125.88130188 11.40875244 C126.72777504 13.47500228 127.5514169 15.5495336 128.375 17.625 C128.95659522 19.05676012 129.53969063 20.48791174 130.12426758 21.91845703 C131.26351674 24.71254808 132.39448105 27.50972922 133.51708984 30.31054688 C134.95150145 33.87933651 136.41614578 37.43361904 137.8984375 40.98266602 C141.4123225 49.40968415 144.76774348 57.90199341 148.14892578 66.3828125 C151.45664222 74.67044467 154.82032122 82.93409927 158.22021484 91.18432617 C158.57164551 92.03873291 158.92307617 92.89313965 159.28515625 93.7734375 C159.59332275 94.52028809 159.90148926 95.26713867 160.21899414 96.03662109 C160.86868786 97.66989302 161.44415118 99.33245354 162 101 C165.9682507 98.58659509 167.11125836 96.04998605 168.76953125 91.77734375 C169.13172508 90.85905289 169.13172508 90.85905289 169.50123596 89.92221069 C170.28320774 87.93160292 171.04785073 85.93481818 171.8125 83.9375 C172.35452676 82.54864061 172.8976652 81.16021458 173.44189453 79.7722168 C174.97499939 75.85337075 176.48871612 71.92731094 178 68 C178.61509279 66.41375492 179.23080798 64.82775075 179.84765625 63.2421875 C180.61114213 61.2791428 181.37372457 59.31580731 182.1315918 57.35058594 C185.97245519 47.42027047 189.97043597 37.55093773 193.93896484 27.67114258 C194.37705978 26.57889626 194.37705978 26.57889626 194.82400513 25.46458435 C195.40062594 24.02743507 195.97830803 22.59071111 196.55709839 21.1544342 C197.89579542 17.81962306 199.20392723 14.47961471 200.43652344 11.10400391 C200.86739258 9.93144043 201.29826172 8.75887695 201.7421875 7.55078125 C202.29302002 6.00837769 202.29302002 6.00837769 202.85498047 4.43481445 C204 2 204 2 207 0 C209.60245498 -0.14221065 212.09117684 -0.18802932 214.6875 -0.125 C215.7403418 -0.11146484 215.7403418 -0.11146484 216.81445312 -0.09765625 C218.54311525 -0.07413704 220.27160145 -0.03826713 222 0 C223.86736646 5.19727662 221.79516996 8.87314465 219.73828125 13.65625 C219.37777176 14.52471558 219.01726227 15.39318115 218.64582825 16.28796387 C217.85682424 18.1884691 217.06272233 20.08686386 216.26422119 21.98339844 C214.52372936 26.13644571 212.8302886 30.30811214 211.13494873 34.47975159 C209.7718824 37.833126 208.40350922 41.18429039 207.03369141 44.53491211 C196.93626767 69.17889056 196.93626767 69.17889056 187.125 93.9375 C183.02684866 104.47295325 178.80977135 114.95795784 174.53875732 125.42434692 C173.80968581 127.2122753 173.08232504 129.00090232 172.35675049 130.79025269 C171.34579741 133.28155709 170.32817775 135.77003009 169.30859375 138.2578125 C169.00391678 139.01152634 168.69923981 139.76524017 168.3853302 140.54179382 C166.22891732 145.77108268 166.22891732 145.77108268 164 148 C162.046875 147.98828125 162.046875 147.98828125 160 147 C158.578125 144.54296875 158.578125 144.54296875 157.25 141.1875 C157.0032251 140.57729004 156.7564502 139.96708008 156.50219727 139.33837891 C155.95498501 137.97916886 155.41510917 136.61698962 154.88134766 135.25244141 C153.93877117 132.84351878 152.97697048 130.44289132 152.01171875 128.04296875 C150.67490738 124.71691439 149.34778193 121.38727033 148.02734375 118.0546875 C146.64835227 114.59052036 145.22591462 111.14796265 143.77783203 107.7121582 C140.88526921 100.78029117 138.14469421 93.7925036 135.40812492 86.79808998 C133.56298314 82.09022 131.70240571 77.38842085 129.84435177 72.68563557 C128.21844818 68.5679201 126.59839573 64.44807124 124.98999023 60.32348633 C123.42209711 56.30370492 121.83927443 52.29010631 120.24591255 48.28035545 C119.64358053 46.75664148 119.04676332 45.23073551 118.45557976 43.70266151 C117.63297194 41.5787794 116.7915095 39.46335132 115.94506836 37.34887695 C115.47161484 36.14374954 114.99816132 34.93862213 114.51036072 33.69697571 C113.28429891 30.85235517 113.28429891 30.85235517 110.81593323 30.10319519 C109.91704628 30.05211357 109.91704628 30.05211357 109 30 C106.48338328 35.94349907 104.01990617 41.89496233 101.75 47.9375 C99.58946343 53.6114325 97.22616806 59.17951776 94.8125 64.75 C89.62692002 76.73517853 84.8091092 88.8599561 80 101 C75.62697092 112.0264102 71.20235006 123.03078734 66.6875 134 C66.26662109 135.03390869 65.84574219 136.06781738 65.41210938 137.13305664 C65.01185547 138.09977295 64.61160156 139.06648926 64.19921875 140.0625 C63.84690186 140.91972656 63.49458496 141.77695312 63.1315918 142.66015625 C61.98558851 145.0297993 60.64776115 146.95454412 59 149 C56 148 56 148 54.5703125 145.296875 C54.09335938 144.12640625 53.61640625 142.9559375 53.125 141.75 C52.65320313 140.61046875 52.18140625 139.4709375 51.6953125 138.296875 C50.32451756 134.86038291 49.00474842 131.40505478 47.68359375 127.94921875 C45.12735625 121.28405906 42.45447622 114.66898904 39.75415039 108.0612793 C38.32112364 104.55389812 36.89273451 101.04463093 35.46484375 97.53515625 C35.02813858 96.46184555 35.02813858 96.46184555 34.58261108 95.36685181 C31.6924958 88.25618358 28.84327444 81.12951776 26 74 C22.36232699 64.87867066 18.69533529 55.77022393 14.98852539 46.67675781 C13.08270992 42.00136735 11.18717401 37.32182683 9.29273987 32.64181519 C7.58348156 28.42400051 5.84988967 24.21675887 4.109375 20.01171875 C3.25971866 17.92476321 2.41071589 15.83754141 1.5625 13.75 C1.16651611 12.80970947 0.77053223 11.86941895 0.36254883 10.90063477 C0.01732178 10.04139404 -0.32790527 9.18215332 -0.68359375 8.296875 C-1.14076782 7.18844238 -1.14076782 7.18844238 -1.60717773 6.05761719 C-2.11324769 3.40680453 -1.40215945 2.24320209 0 0 Z " fill="#0DD044" transform="translate(12,145)"/>
<path d="M0 0 C1.47001465 0.01885254 1.47001465 0.01885254 2.96972656 0.03808594 C24.57312829 0.42626587 43.69554427 5.50704247 59.34765625 21.1484375 C73.39906095 36.25524963 80.17293086 53.76579565 80.1875 74.25 C80.19974609 75.14074219 80.21199219 76.03148437 80.22460938 76.94921875 C80.26693667 96.39155593 72.21488271 113.13893138 58.75 126.875 C39.87876452 145.34612887 16.96025422 149.17306725 -8.3828125 149.1328125 C-9.7323305 149.13348777 -11.08184838 149.13445966 -12.43136597 149.13571167 C-15.23322734 149.13717308 -18.03505648 149.13508137 -20.83691406 149.13037109 C-24.43382327 149.12461916 -28.03065875 149.12799668 -31.62756538 149.13394356 C-34.40183069 149.13754454 -37.17607826 149.13641369 -39.95034409 149.13381577 C-41.92304279 149.1328237 -43.89574218 149.13586211 -45.86843872 149.13894653 C-47.05412445 149.13579437 -48.23981018 149.13264221 -49.46142578 149.12939453 C-50.50968536 149.12859894 -51.55794495 149.12780334 -52.63796997 149.12698364 C-55 149 -55 149 -56 148 C-56.09873281 146.11669453 -56.12632187 144.22964162 -56.12698364 142.34375 C-56.12980347 141.115354 -56.13262329 139.88695801 -56.13552856 138.62133789 C-56.13358397 137.24755845 -56.13153578 135.87377915 -56.12939453 134.5 C-56.13074853 133.06306921 -56.13252846 131.62613877 -56.13470459 130.18920898 C-56.13927906 126.27609411 -56.13748931 122.36300549 -56.1343255 118.44989014 C-56.13180197 114.3637281 -56.13413942 110.27756837 -56.13571167 106.19140625 C-56.13753339 99.32812088 -56.13512701 92.46484625 -56.13037109 85.6015625 C-56.12492847 77.65527994 -56.12669112 69.70902303 -56.1321975 61.76274109 C-56.13672857 54.95256836 -56.13737921 48.14240337 -56.13475883 41.33222961 C-56.13319602 37.25940531 -56.13300239 33.18659307 -56.13629532 29.11376953 C-56.13917395 25.28564243 -56.13719849 21.45754855 -56.13140106 17.62942505 C-56.13007342 16.22046972 -56.13046765 14.81151162 -56.13266373 13.40255737 C-56.13537504 11.48712257 -56.13138058 9.57168168 -56.12698364 7.65625 C-56.12660662 6.58181641 -56.12622959 5.50738281 -56.12584114 4.40039062 C-56 2 -56 2 -55 1 C-53.58574094 0.84086274 -52.1638908 0.74850194 -50.7421875 0.68359375 C-49.82203857 0.64153809 -48.90188965 0.59948242 -47.95385742 0.55615234 C-46.429823 0.49741943 -46.429823 0.49741943 -44.875 0.4375 C-43.81837158 0.3957666 -42.76174316 0.3540332 -41.6730957 0.31103516 C-27.7838988 -0.18052905 -13.89476928 -0.18297959 0 0 Z M-34 17 C-36.10483535 20.15725302 -36.24969485 20.88470253 -36.24723816 24.48536682 C-36.25143265 25.40374329 -36.25562714 26.32211975 -36.25994873 27.26832581 C-36.25432922 28.27362839 -36.24870972 29.27893097 -36.24291992 30.31469727 C-36.24481827 31.37506195 -36.24671661 32.43542664 -36.24867249 33.52792358 C-36.25238405 37.04082581 -36.24167106 40.55352233 -36.23046875 44.06640625 C-36.22927712 46.50113399 -36.22882375 48.93586219 -36.2290802 51.37059021 C-36.22751471 56.47584913 -36.2192195 61.581038 -36.20581055 66.6862793 C-36.18881166 73.2427614 -36.18499643 79.79916651 -36.18575573 86.35566807 C-36.18548431 91.38352702 -36.18000783 96.41136901 -36.17275429 101.43922234 C-36.1695638 103.85744028 -36.16759933 106.27566015 -36.16686058 108.69388008 C-36.16470155 112.06751939 -36.15596701 115.44107568 -36.14526367 118.81469727 C-36.14571686 119.82202408 -36.14617004 120.82935089 -36.14663696 121.86720276 C-36.14237198 122.7827594 -36.13810699 123.69831604 -36.13371277 124.64161682 C-36.13203692 125.43968026 -36.13036108 126.2377437 -36.12863445 127.05999088 C-36.12026057 129.08202693 -36.12026057 129.08202693 -35 131 C-28.68701076 131.0768255 -22.37414452 131.12892088 -16.06079102 131.16479492 C-13.91849259 131.17976927 -11.77622421 131.20015595 -9.6340332 131.22631836 C10.91625588 131.47079346 28.25235013 130.00990395 43.90454102 115.24462891 C55.83082267 103.47163112 60.82058102 88.54641684 61 72 C60.03719346 58.33731673 56.34493302 47.80831142 48 37 C47.2575 35.948125 46.515 34.89625 45.75 33.8125 C30.68128317 18.40131233 11.26681921 17.08667947 -8.9296875 16.796875 C-11.1610076 16.77747169 -13.39213905 16.76563129 -15.62353516 16.75976562 C-17.92253448 16.74979382 -20.22073008 16.7184929 -22.51953125 16.6875 C-23.98957815 16.68099086 -25.45963125 16.67573227 -26.9296875 16.671875 C-28.24179199 16.6625293 -29.55389648 16.65318359 -30.90576172 16.64355469 C-31.92686035 16.76118164 -32.94795898 16.87880859 -34 17 Z " fill="#0DD044" transform="translate(1125,145)"/>
<path d="M0 0 C15.92220421 0 15.92220421 0 22.45703125 6.41015625 C23.62298828 7.72306641 23.62298828 7.72306641 24.8125 9.0625 C25.67875 10.03703125 26.545 11.0115625 27.4375 12.015625 C29.78048311 14.74434313 32.05781978 17.51072826 34.3125 20.3125 C38.38813044 25.36916714 42.7536296 30.08348303 47.20239258 34.80786133 C51.22329242 39.10108601 54.94989767 43.56237209 58.625 48.15625 C61.4646455 51.55635185 64.46389371 54.775851 67.5 58 C72.12620527 62.91306055 76.47270878 67.95121959 80.69140625 73.22265625 C83.35279565 76.42442929 86.15463665 79.46233425 89 82.5 C92.66827604 86.4168167 96.19654131 90.37763186 99.5625 94.5625 C102.88889391 98.69160688 106.3190474 102.69381085 109.875 106.625 C110.5721814 107.40725952 110.5721814 107.40725952 111.28344727 108.20532227 C113.50915128 110.63962237 114.81367332 111.93789111 118 113 C118.8017859 106.11975907 119.16234071 99.33375967 119.20532227 92.40966797 C119.21522186 91.40358994 119.22512146 90.3975119 119.23532104 89.36094666 C119.26663497 86.07138331 119.29157303 82.78180559 119.31640625 79.4921875 C119.33700185 77.19719083 119.35799897 74.90219774 119.37937927 72.60720825 C119.43433095 66.59365752 119.48385788 60.58007409 119.53222656 54.56646729 C119.58263915 48.41928225 119.63822166 42.27214415 119.69335938 36.125 C119.80061142 24.08337352 119.90212833 12.04170612 120 0 C125.28 0 130.56 0 136 0 C136 48.84 136 97.68 136 148 C125 149 125 149 120 147 C117.3515625 144.6796875 117.3515625 144.6796875 114.625 141.875 C114.14023193 141.37782471 113.65546387 140.88064941 113.15600586 140.3684082 C109.2841206 136.36872944 105.59387302 132.24862722 102 128 C100.06537513 125.72670676 98.12695432 123.45667369 96.1875 121.1875 C95.67026367 120.58147949 95.15302734 119.97545898 94.62011719 119.35107422 C91.4153096 115.60946636 88.14802813 111.93897762 84.8125 108.3125 C80.78606164 103.92644354 77.01890278 99.38258372 73.28125 94.75 C70.13805742 90.96094593 66.79841405 87.36730648 63.46484375 83.74609375 C61.07292703 81.08124834 58.80745116 78.35168175 56.5625 75.5625 C53.34056899 71.56776014 49.99344505 67.75445651 46.5 64 C43.00655495 60.24554349 39.65943101 56.43223986 36.4375 52.4375 C33.27851145 48.53555364 30.06949901 44.7031946 26.75 40.9375 C25.56664062 39.58978516 25.56664062 39.58978516 24.359375 38.21484375 C21.93319631 35.93728859 20.08004092 35.12800585 17 34 C17.00096145 34.58206018 17.00192289 35.16412037 17.00291348 35.76381874 C17.02330034 50.14326567 16.96358384 64.51977341 16.81640625 78.8984375 C16.80662184 79.86902729 16.79683743 80.83961708 16.78675652 81.83961868 C16.73517146 86.93720307 16.68205839 92.03476884 16.62768555 97.13232422 C16.57195103 102.39015329 16.52205021 107.64802239 16.47328281 112.90592003 C16.43449671 116.97209316 16.39138542 121.03821199 16.34705925 125.10432816 C16.32666928 127.04608117 16.30795069 128.98785247 16.29092598 130.92963791 C16.26699435 133.61641325 16.23694709 136.30305189 16.20532227 138.98974609 C16.1995668 139.79158325 16.19381134 140.59342041 16.18788147 141.41955566 C16.11411782 146.88588218 16.11411782 146.88588218 15 148 C10.05 148 5.1 148 0 148 C0 99.16 0 50.32 0 0 Z " fill="#0DCF44" transform="translate(872,146)"/>
<path d="M0 0 C1.21945312 0.00644531 2.43890625 0.01289063 3.6953125 0.01953125 C6.875 0.1875 6.875 0.1875 9.875 1.1875 C8.35420927 4.69577915 6.2754327 7.14021646 3.6875 9.9375 C0.98207511 12.88692682 -1.70677506 15.83720332 -4.3125 18.875 C-8.9039353 24.14664793 -13.72175704 29.21099324 -18.5 34.3125 C-23.25070202 39.38528351 -27.96371836 44.49244228 -32.66943359 49.60693359 C-34.16956462 51.23589171 -35.67257134 52.86216437 -37.17578125 54.48828125 C-38.15895295 55.55459643 -39.14202948 56.62099936 -40.125 57.6875 C-41.424375 59.09515625 -41.424375 59.09515625 -42.75 60.53125 C-43.53375 61.4078125 -44.3175 62.284375 -45.125 63.1875 C-45.90875 64.0228125 -46.6925 64.858125 -47.5 65.71875 C-49.34189302 68.0110571 -49.34189302 68.0110571 -49.08422852 70.45751953 C-47.74650314 74.26470843 -45.23854272 76.5883578 -42.40234375 79.3359375 C-41.82343887 79.91155426 -41.244534 80.48717102 -40.64808655 81.08023071 C-38.79539222 82.91720408 -36.92902617 84.73959439 -35.0625 86.5625 C-33.83312165 87.78037975 -32.60459675 88.99912164 -31.37695312 90.21875 C-30.17784372 91.40441533 -28.97799606 92.58933459 -27.77734375 93.7734375 C-27.23117905 94.31221527 -26.68501434 94.85099304 -26.12229919 95.40609741 C-23.25823389 98.20167192 -20.33779243 100.89124079 -17.30493164 103.50317383 C-12.52894585 107.64722592 -8.06640458 112.08409705 -3.59375 116.55078125 C-2.27896667 117.86057198 -2.27896667 117.86057198 -0.93762207 119.19682312 C0.8990118 121.02842492 2.7343206 122.8613563 4.56835938 124.69555664 C6.4511578 126.57688106 8.33582448 128.4560168 10.22460938 130.33129883 C12.95683172 133.04532211 15.68239532 135.76586307 18.40625 138.48828125 C19.25610474 139.33095047 20.10595947 140.17361969 20.98156738 141.04182434 C21.75657593 141.81990952 22.53158447 142.59799469 23.33007812 143.3996582 C24.01654419 144.08469925 24.70301025 144.7697403 25.41027832 145.47554016 C26.875 147.1875 26.875 147.1875 26.875 149.1875 C19.07854603 151.00814085 9.20020546 151.78636642 1.73046875 148.42578125 C-1.47967455 146.28343298 -4.04923237 143.56198643 -6.65625 140.734375 C-8.54935116 138.78136557 -10.40186615 137.07582484 -12.46875 135.328125 C-20.108294 128.72451171 -27.04417248 121.31994696 -34.14355469 114.1484375 C-43.5295323 104.6087394 -43.5295323 104.6087394 -53.45166016 95.63818359 C-56.39601203 93.08561008 -59.09191268 90.28670123 -61.8125 87.5 C-68.140342 80.63943092 -68.140342 80.63943092 -76.125 76.1875 C-76.12277939 76.89778854 -76.12055878 77.60807709 -76.11827087 78.33988953 C-76.09808949 85.09054571 -76.08293595 91.84119728 -76.07318783 98.59187603 C-76.06800749 102.06101982 -76.06099995 105.53013833 -76.04956055 108.99926758 C-76.03644214 113.00342019 -76.03173177 117.00754697 -76.02734375 121.01171875 C-76.02218246 122.23517502 -76.01702118 123.45863129 -76.01170349 124.71916199 C-76.01119997 132.58709653 -76.4057226 140.3526214 -77.125 148.1875 C-80.24960411 149.48341282 -82.72327264 150.46493329 -86.125 150.4375 C-86.764375 150.44265625 -87.40375 150.4478125 -88.0625 150.453125 C-90.125 150.1875 -90.125 150.1875 -95.125 148.1875 C-95.125 99.6775 -95.125 51.1675 -95.125 1.1875 C-89.185 1.1875 -83.245 1.1875 -77.125 1.1875 C-77.09994385 2.73018555 -77.0748877 4.27287109 -77.04907227 5.86230469 C-76.95429471 11.63239644 -76.85425102 17.40238735 -76.75268555 23.17236328 C-76.70960089 25.66094591 -76.66790949 28.14955309 -76.62768555 30.63818359 C-76.5693357 34.2328224 -76.50583411 37.82734059 -76.44140625 41.421875 C-76.42469376 42.51924988 -76.40798126 43.61662476 -76.39076233 44.74725342 C-76.25566933 51.92815729 -75.807118 59.03796891 -75.125 66.1875 C-72.00263019 64.35646004 -69.40787732 62.71167258 -66.9609375 60.03515625 C-66.40188721 59.42969971 -65.84283691 58.82424316 -65.2668457 58.20043945 C-64.68378662 57.55679443 -64.10072754 56.91314941 -63.5 56.25 C-62.88535889 55.58121826 -62.27071777 54.91243652 -61.63745117 54.22338867 C-59.79463269 52.2162333 -57.95960179 50.20216362 -56.125 48.1875 C-55.13484817 47.10870123 -54.14402211 46.03052069 -53.15234375 44.953125 C-50.47008721 42.03715277 -47.79682828 39.11303304 -45.125 36.1875 C-41.97386633 32.73714889 -38.81940538 29.2899912 -35.65527344 25.8515625 C-34.57142061 24.67295036 -33.48886731 23.49314255 -32.40722656 22.3125 C-11.81647974 -0.13798437 -11.81647974 -0.13798437 0 0 Z " fill="#0DCE44" transform="translate(659.125,144.8125)"/>
<path d="M0 0 C1.53817383 0.05897461 1.53817383 0.05897461 3.10742188 0.11914062 C4.07873047 0.16103516 5.05003906 0.20292969 6.05078125 0.24609375 C7.35462769 0.30108032 7.35462769 0.30108032 8.68481445 0.35717773 C10.6875 0.5625 10.6875 0.5625 11.6875 1.5625 C11.85157956 6.40284716 11.64098275 10.79508627 10.6875 15.5625 C3.4924778 16.40614529 -3.62650537 16.74620121 -10.8671875 16.84375 C-13.04947919 16.88150927 -15.23177085 16.91926972 -17.4140625 16.95703125 C-20.81769078 17.0108143 -24.22133996 17.06301433 -27.625 17.11474609 C-30.93497065 17.16646439 -34.24481446 17.22367001 -37.5546875 17.28125 C-38.574487 17.29482544 -39.5942865 17.30840088 -40.64498901 17.3223877 C-41.59342682 17.33910522 -42.54186462 17.35582275 -43.51904297 17.37304688 C-44.35047821 17.38557495 -45.18191345 17.39810303 -46.0385437 17.41101074 C-48.62967249 17.51605546 -48.62967249 17.51605546 -52.3125 18.5625 C-52.3125 32.7525 -52.3125 46.9425 -52.3125 61.5625 C-48.84395023 62.42963744 -46.25995821 62.7070082 -42.73364258 62.75195312 C-41.05719414 62.77702942 -41.05719414 62.77702942 -39.34687805 62.8026123 C-38.14572861 62.81618774 -36.94457916 62.82976318 -35.70703125 62.84375 C-33.85461067 62.87136414 -33.85461067 62.87136414 -31.96476746 62.89953613 C-27.34574373 62.96831468 -22.72663051 63.02889249 -18.10748291 63.08856201 C-13.57807743 63.14746392 -9.04881281 63.21357446 -4.51953125 63.28125 C-3.31230911 63.29482544 -2.10508698 63.30840088 -0.86128235 63.3223877 C0.80098137 63.34746399 0.80098137 63.34746399 2.49682617 63.37304688 C3.967649 63.39183899 3.967649 63.39183899 5.46818542 63.41101074 C7.6875 63.5625 7.6875 63.5625 8.6875 64.5625 C8.76063567 67.09299402 8.77997527 69.59554837 8.75 72.125 C8.74548828 72.83591797 8.74097656 73.54683594 8.73632812 74.27929688 C8.72450864 76.04040013 8.70657263 77.80146036 8.6875 79.5625 C7.60755013 79.59675331 7.60755013 79.59675331 6.50578308 79.63169861 C-0.27757659 79.84764695 -7.06078432 80.06789851 -13.84384632 80.29299068 C-17.33112856 80.4085621 -20.81844867 80.52246599 -24.3059082 80.63256836 C-28.31478866 80.75920546 -32.32339898 80.89307822 -36.33203125 81.02734375 C-38.21182426 81.08522316 -38.21182426 81.08522316 -40.1295929 81.14427185 C-41.29056992 81.18423782 -42.45154694 81.2242038 -43.64770508 81.26538086 C-44.67140701 81.29869003 -45.69510895 81.33199921 -46.74983215 81.36631775 C-49.43162971 81.46727009 -49.43162971 81.46727009 -52.3125 82.5625 C-52.3125 97.7425 -52.3125 112.9225 -52.3125 128.5625 C-47.8857705 130.3331918 -45.8735934 130.82295704 -41.32885742 130.88134766 C-39.55758736 130.91115219 -39.55758736 130.91115219 -37.75053406 130.94155884 C-36.48578751 130.95311005 -35.22104095 130.96466125 -33.91796875 130.9765625 C-32.61547684 130.99592865 -31.31298492 131.0152948 -29.97102356 131.0352478 C-26.5204265 131.08644518 -23.06979056 131.12613676 -19.61901855 131.16339111 C-16.09292074 131.20350888 -12.56698292 131.25456562 -9.04101562 131.3046875 C-2.13162102 131.40129982 4.77786777 131.48473937 11.6875 131.5625 C11.6875 137.1725 11.6875 142.7825 11.6875 148.5625 C-15.7025 148.5625 -43.0925 148.5625 -71.3125 148.5625 C-73.10902092 144.07119769 -73.56109641 142.13815494 -73.55300903 137.53239441 C-73.55575836 136.32229706 -73.55850769 135.11219971 -73.56134033 133.86543274 C-73.55414978 132.54625351 -73.54695923 131.22707428 -73.53955078 129.86791992 C-73.53898636 128.45833342 -73.53930384 127.04874632 -73.54043579 125.63916016 C-73.54100909 121.81927844 -73.52925852 117.99952259 -73.51528788 114.1796701 C-73.50277669 110.18516031 -73.50160971 106.19064757 -73.49923706 102.19612122 C-73.49302344 94.63495091 -73.4766142 87.07383852 -73.45653808 79.5126937 C-73.43417543 70.90331802 -73.42318473 62.29393956 -73.41314721 53.68454206 C-73.39224787 35.97716189 -73.35707417 18.2698356 -73.3125 0.5625 C-66.87537266 0.41790553 -60.43819409 0.27577529 -54.00097656 0.13525391 C-51.81704514 0.08730139 -49.63312545 0.03881155 -47.44921875 -0.01025391 C-31.6174575 -0.36545368 -15.82748592 -0.70088669 0 0 Z " fill="#0DD044" transform="translate(494.3125,145.4375)"/>
<path d="M0 0 C0.76316528 0.00359528 1.52633057 0.00719055 2.31262207 0.01089478 C3.51253029 0.01067574 3.51253029 0.01067574 4.73667908 0.01045227 C7.39344958 0.01115161 10.05015086 0.01894498 12.70690918 0.02676392 C14.54393984 0.02862802 16.38097099 0.03005196 18.21800232 0.03105164 C23.06284955 0.03487742 27.90766701 0.04470821 32.75250244 0.05575562 C37.69237871 0.06596845 42.63225978 0.07054898 47.57214355 0.07559204 C57.27202646 0.08633042 66.97188722 0.10340756 76.67175293 0.12442017 C76.67175293 5.07442017 76.67175293 10.02442017 76.67175293 15.12442017 C69.53825184 15.92632016 62.51081612 16.30686135 55.33581543 16.40567017 C53.19909664 16.44342861 51.0623779 16.48118908 48.92565918 16.51895142 C45.59445968 16.57273615 42.2632389 16.62494056 38.93200684 16.67666626 C35.69153337 16.72838856 32.45118928 16.78559152 29.21081543 16.84317017 C28.21288971 16.85674561 27.21496399 16.87032104 26.1867981 16.88430786 C24.79417252 16.90938416 24.79417252 16.90938416 23.37341309 16.93496704 C22.55974274 16.94749512 21.74607239 16.96002319 20.90774536 16.97293091 C18.34850772 17.08027882 18.34850772 17.08027882 14.67175293 18.12442017 C14.34175293 32.64442017 14.01175293 47.16442017 13.67175293 62.12442017 C17.57245605 62.17340454 21.47315918 62.22238892 25.49206543 62.27285767 C29.27498165 62.32688602 33.05783517 62.38418634 36.84069824 62.44180298 C39.46727822 62.48005729 42.09390994 62.51491632 44.72058105 62.54629517 C48.49876384 62.59202204 52.27659143 62.65000524 56.05456543 62.71035767 C57.22665558 62.72190887 58.39874573 62.73346008 59.60635376 62.74536133 C60.70704193 62.76523102 61.8077301 62.78510071 62.94177246 62.80557251 C63.90551788 62.81889618 64.86926331 62.83221985 65.86221313 62.84594727 C68.67175293 63.12442017 68.67175293 63.12442017 74.67175293 65.12442017 C74.67175293 69.41442017 74.67175293 73.70442017 74.67175293 78.12442017 C70.83649561 80.04204883 69.47914019 80.38187576 65.40002441 80.42739868 C63.82335243 80.45236168 63.82335243 80.45236168 62.21482849 80.47782898 C61.08557449 80.48624313 59.9563205 80.49465729 58.79284668 80.50332642 C57.62923111 80.52032089 56.46561554 80.53731537 55.26673889 80.55482483 C51.54763211 80.60797386 47.82853637 80.64826017 44.10925293 80.68692017 C40.38645601 80.73084202 36.66374577 80.77754248 32.9410553 80.82972717 C30.62401324 80.86168852 28.30689468 80.88857725 25.98973083 80.90995789 C24.41778709 80.93019264 24.41778709 80.93019264 22.81408691 80.95083618 C21.89127426 80.96034805 20.96846161 80.96985992 20.01768494 80.97966003 C17.51733716 81.03300416 17.51733716 81.03300416 14.67175293 82.12442017 C14.67175293 97.63442017 14.67175293 113.14442017 14.67175293 129.12442017 C19.51374933 129.72966972 23.82098456 130.25109548 28.61291504 130.31387329 C29.71022446 130.33059082 30.80753387 130.34730835 31.93809509 130.36453247 C33.09672562 130.37810791 34.25535614 130.39168335 35.44909668 130.40567017 C37.92500814 130.44343045 40.4009196 130.48119087 42.87683105 130.51895142 C46.7636151 130.57279388 50.65041832 130.62496771 54.53723145 130.67666626 C58.2995898 130.72818923 62.0618288 130.78547146 65.82409668 130.84317017 C67.58329689 130.86353333 67.58329689 130.86353333 69.3780365 130.88430786 C70.45328079 130.90102539 71.52852509 130.91774292 72.63635254 130.93496704 C73.58707138 130.94749512 74.53779022 130.96002319 75.51731873 130.97293091 C77.67175293 131.12442017 77.67175293 131.12442017 78.67175293 132.12442017 C78.74494914 134.8209687 78.7641783 137.49133475 78.73425293 140.18692017 C78.72974121 140.94553345 78.72522949 141.70414673 78.72058105 142.48574829 C78.70875973 144.36533888 78.69082371 146.24488915 78.67175293 148.12442017 C67.73678821 148.14754314 56.80182927 148.16533502 45.86684513 148.17623234 C40.78984275 148.18146127 35.71285704 148.18855909 30.63586426 148.19985962 C25.74054741 148.21068815 20.84524664 148.21669693 15.94991875 148.21929741 C14.07792342 148.22115172 12.20592902 148.22477245 10.33394051 148.23015022 C7.72134593 148.23736021 5.10881866 148.23841113 2.49621582 148.23794556 C1.32341568 148.24333847 1.32341568 148.24333847 0.12692261 148.24884033 C-5.21419491 148.23847233 -5.21419491 148.23847233 -6.32824707 147.12442017 C-6.42697988 145.2411147 -6.45456894 143.35406179 -6.45523071 141.46817017 C-6.45805054 140.23977417 -6.46087036 139.01137817 -6.46377563 137.74575806 C-6.46183104 136.37197861 -6.45978285 134.99819932 -6.4576416 133.62442017 C-6.4589956 132.18748938 -6.46077553 130.75055893 -6.46295166 129.31362915 C-6.46752613 125.40051428 -6.46573638 121.48742566 -6.46257257 117.5743103 C-6.46004904 113.48814826 -6.46238649 109.40198854 -6.46395874 105.31582642 C-6.46578046 98.45254104 -6.46337408 91.58926641 -6.45861816 84.72598267 C-6.45317554 76.7797001 -6.45493819 68.8334432 -6.46044457 60.88716125 C-6.46497564 54.07698852 -6.46562628 47.26682353 -6.4630059 40.45664978 C-6.46144309 36.38382547 -6.46124946 32.31101324 -6.46454239 28.2381897 C-6.46742102 24.41006259 -6.46544556 20.58196871 -6.45964813 16.75384521 C-6.45832049 15.34488989 -6.45871472 13.93593178 -6.4609108 12.52697754 C-6.46362211 10.61154273 -6.45962765 8.69610185 -6.45523071 6.78067017 C-6.45485369 5.70623657 -6.45447666 4.63180298 -6.45408821 3.52481079 C-6.21948201 -0.95024822 -3.92152033 0.00779763 0 0 Z " fill="#0DD044" transform="translate(286.3282470703125,145.87557983398438)"/>
<path d="M0 0 C10.67419698 -0.02312328 21.34838806 -0.04091501 32.02260494 -0.05181217 C36.97853922 -0.05704103 41.93445642 -0.06413874 46.89038086 -0.07543945 C51.66898836 -0.08626822 56.44757938 -0.09227681 61.2261982 -0.09487724 C63.05353619 -0.09673151 64.88087324 -0.10035216 66.70820427 -0.10573006 C69.25853329 -0.11294036 71.80879337 -0.11399095 74.35913086 -0.11352539 C75.12229614 -0.11712067 75.88546143 -0.12071594 76.67175293 -0.12442017 C81.88594784 -0.11405216 81.88594784 -0.11405216 83 1 C83.07258946 3.18639453 83.08373783 5.37500389 83.0625 7.5625 C83.05347656 8.76003906 83.04445313 9.95757812 83.03515625 11.19140625 C83.02355469 12.11824219 83.01195312 13.04507813 83 14 C78.90032329 15.5275152 75.45521225 16.26059717 71.08642578 16.31884766 C69.94569611 16.33871735 68.80496643 16.35858704 67.62966919 16.37905884 C66.41383148 16.39061005 65.19799377 16.40216125 63.9453125 16.4140625 C62.68862762 16.43342865 61.43194275 16.4527948 60.13717651 16.4727478 C56.81312312 16.52227724 53.48917663 16.56359898 50.16497803 16.60089111 C46.76613569 16.64105934 43.36745796 16.69209287 39.96875 16.7421875 C33.31260618 16.83809915 26.65639014 16.9231863 20 17 C19.83409236 18.88776406 19.67068492 20.77574794 19.50830078 22.66381836 C19.41702911 23.71516464 19.32575745 24.76651093 19.23171997 25.84971619 C18.89523082 30.42436003 18.84999719 34.97750239 18.875 39.5625 C18.87838379 40.46709961 18.88176758 41.37169922 18.88525391 42.30371094 C18.76139596 51.72084974 18.76139596 51.72084974 20 61 C22.52246103 62.26123051 24.29711481 62.14509784 27.12060547 62.17358398 C28.18866425 62.18707382 29.25672302 62.20056366 30.35714722 62.21446228 C31.51546051 62.22490067 32.6737738 62.23533905 33.8671875 62.24609375 C36.30338904 62.27902993 38.73958687 62.31224161 41.17578125 62.34570312 C45.02943379 62.39315463 48.88307101 62.43758215 52.73681641 62.47680664 C56.44710098 62.51646978 60.15707384 62.56802834 63.8671875 62.62109375 C65.59858475 62.63371498 65.59858475 62.63371498 67.36495972 62.64659119 C68.43932281 62.66323318 69.51368591 62.67987518 70.62060547 62.69702148 C72.03718948 62.71248268 72.03718948 62.71248268 73.48239136 62.72825623 C76.16964993 63.01831155 77.79419627 63.43633042 80 65 C81.0858946 70.01182121 81.13426408 73.9588263 80 79 C76.41314645 79.8131322 73.05828999 80.14618844 69.38354492 80.20532227 C67.73239937 80.2352401 67.73239937 80.2352401 66.04789734 80.26576233 C64.28202019 80.29083107 64.28202019 80.29083107 62.48046875 80.31640625 C61.26676102 80.33718735 60.05305328 80.35796844 58.80256653 80.37937927 C54.93093449 80.44468916 51.05923545 80.50367363 47.1875 80.5625 C44.56053998 80.60570285 41.93358671 80.64931771 39.30664062 80.69335938 C32.87116429 80.80035158 26.43562151 80.90215236 20 81 C19.83606682 85.31636254 19.67375396 89.63278458 19.51171875 93.94921875 C19.44253235 95.77012024 19.44253235 95.77012024 19.37194824 97.62780762 C17.93126313 113.63327103 17.93126313 113.63327103 21 129 C24.17544529 130.05848176 26.51067486 130.15634114 29.84838867 130.20532227 C31.0494072 130.22526749 32.25042572 130.24521271 33.48783875 130.26576233 C34.78478165 130.28247482 36.08172455 130.29918732 37.41796875 130.31640625 C38.7589023 130.33698293 40.09982946 130.35797959 41.44075012 130.37937927 C44.96701889 130.43452627 48.49334548 130.48396794 52.01971436 130.53222656 C55.61931493 130.5824955 59.21883173 130.63815339 62.81835938 130.69335938 C69.87883352 130.80085071 76.93938282 130.90231565 84 131 C85.4241906 133.84838121 85.16995508 136.32787908 85.1875 139.5 C85.20167969 140.6653125 85.21585938 141.830625 85.23046875 143.03125 C85 146 85 146 83 148 C70.59729924 149.99997423 57.45100647 149.15281974 44.93847656 149.13037109 C41.37560797 149.12500092 37.81286482 149.13034949 34.25 149.13671875 C31.94531223 149.13605802 29.64062453 149.13477696 27.3359375 149.1328125 C26.29077972 149.13483673 25.24562195 149.13686096 24.16879272 149.13894653 C3.07321908 149.07321908 3.07321908 149.07321908 0 146 C-0.24609566 143.47376823 -0.24609566 143.47376823 -0.24050903 140.21676636 C-0.24325836 138.98555054 -0.24600769 137.75433472 -0.24884033 136.48580933 C-0.24176159 135.11407374 -0.23449196 133.74233913 -0.22705078 132.37060547 C-0.22648688 130.93190519 -0.22680281 129.49320434 -0.22793579 128.05450439 C-0.22851113 124.14147438 -0.21672761 120.22856624 -0.20278788 116.31556463 C-0.19031063 112.22894752 -0.1891124 108.14232781 -0.18673706 104.05569458 C-0.18051343 96.3138037 -0.16409071 88.5719691 -0.14403808 80.83010304 C-0.12170651 72.01765666 -0.11069256 63.20520763 -0.10064721 54.39274001 C-0.07972521 36.26179473 -0.04453213 18.13090188 0 0 Z " fill="#0DD044" transform="translate(733,146)"/>
<path d="M0 0 C2.75 -0.375 2.75 -0.375 6 0 C9.92593599 4.83618324 11.9982896 10.42895915 14.25 16.1875 C14.79527344 17.54004883 14.79527344 17.54004883 15.3515625 18.91992188 C18 25.60573308 18 25.60573308 18 29 C18.66 29 19.32 29 20 29 C20.13535156 28.47535156 20.27070313 27.95070313 20.41015625 27.41015625 C22.06948121 21.4385736 24.22111321 15.7304429 26.5625 10 C27.01991577 8.86896851 27.01991577 8.86896851 27.48657227 7.71508789 C29.75353621 2.24646379 29.75353621 2.24646379 32 0 C35.125 -0.125 35.125 -0.125 38 0 C41.13280495 6.03982215 43.76534575 12.16873288 46.25 18.5 C46.61351562 19.4178125 46.97703125 20.335625 47.3515625 21.28125 C48.23757333 23.51959315 49.12031257 25.75916593 50 28 C53.01604045 21.32472041 55.82912193 14.58702902 58.53125 7.77929688 C60.78142622 2.21857378 60.78142622 2.21857378 63 0 C66.125 -0.125 66.125 -0.125 69 0 C70 2 70 2 69.21484375 4.52758789 C68.79332031 5.58196045 68.37179687 6.63633301 67.9375 7.72265625 C67.2412854 9.47968872 67.2412854 9.47968872 66.53100586 11.2722168 C66.02104425 12.53579541 65.51070205 13.79922047 65 15.0625 C64.48982116 16.33809982 63.98013768 17.61389788 63.47094727 18.88989258 C62.45826352 21.4230257 61.44055963 23.95405157 60.41845703 26.48339844 C59.19412699 29.51872544 57.98265266 32.55865149 56.77734375 35.6015625 C56.16493482 37.13055801 55.55173354 38.65923656 54.9375 40.1875 C54.66357422 40.88045166 54.38964844 41.57340332 54.10742188 42.28735352 C52.23110588 46.88444706 52.23110588 46.88444706 50 48 C46.86882688 46.43441344 46.40451096 43.32150883 45.25 40.19140625 C44.9912207 39.50948715 44.73244141 38.82756805 44.46582031 38.12498474 C43.63718066 35.93995057 42.81777162 33.7516228 42 31.5625 C41.18167415 29.37717618 40.36128496 27.19274399 39.53417969 25.01072693 C39.01913241 23.65160222 38.50919768 22.29052692 38.00488281 20.92738342 C36.93770259 18.10798067 36.15772659 16.15772659 34 14 C33.65219482 14.92337158 33.30438965 15.84674316 32.94604492 16.7980957 C31.65147862 20.22847445 30.34627309 23.65472234 29.0378418 27.07983398 C28.47341311 28.56180365 27.911862 30.04487266 27.35327148 31.52905273 C26.54908185 33.66426557 25.73456976 35.79528926 24.91796875 37.92578125 C24.67096725 38.58838455 24.42396576 39.25098785 24.16947937 39.93367004 C22.89842817 43.21911886 21.78323098 45.76547344 19 48 C15.73203052 45.33854452 14.71568328 42.19740309 13.2578125 38.3125 C12.88243851 37.32588379 12.88243851 37.32588379 12.4994812 36.31933594 C11.7003273 34.21569407 10.91201943 32.1082084 10.125 30 C9.09073309 27.24816866 8.05087103 24.49850994 7.0078125 21.75 C6.75670715 21.08371582 6.50560181 20.41743164 6.24688721 19.73095703 C4.34340641 14.73803859 2.16930011 9.91928853 -0.21923828 5.13671875 C-1 3 -1 3 0 0 Z " fill="#0DCE44" transform="translate(398,8)"/>
<path d="M0 0 C5.00004663 3.73421204 7.19212513 9.16231289 9.10546875 14.90234375 C10.09667671 22.61960575 8.50771678 28.50308596 4.10546875 34.90234375 C-1.83784543 41.45488147 -8.06741781 43.34177642 -16.7578125 43.9296875 C-22.86523926 43.87644717 -28.39837518 42.35281182 -33.26953125 38.58984375 C-39.15757797 32.56160545 -41.04576508 27.91089333 -41.14453125 19.58984375 C-41.1703125 18.29433594 -41.19609375 16.99882812 -41.22265625 15.6640625 C-40.6996544 9.66821988 -37.99128895 5.2266991 -33.89453125 0.90234375 C-22.82708331 -6.89885736 -11.59649452 -6.71879373 0 0 Z M-30.89453125 10.90234375 C-33.59106519 15.39656699 -33.54908474 19.79521035 -32.89453125 24.90234375 C-30.68210686 29.32719253 -27.94653509 32.09711032 -23.89453125 34.90234375 C-18.34484559 36.75223897 -12.86193286 36.86748416 -7.58203125 34.27734375 C-3.5237166 30.69092616 -0.43564872 27.85036666 1.04296875 22.52734375 C1.13036626 17.45828813 1.00929321 13.11939383 -2.4140625 9.1328125 C-6.51420671 5.46144154 -10.22562325 3.19244245 -15.76953125 2.58984375 C-22.31541916 3.24443254 -26.67245841 5.95648699 -30.89453125 10.90234375 Z " fill="#0DCA42" transform="translate(712.89453125,12.09765625)"/>
<path d="M0 0 C6.45815564 0.10173965 10.25024016 1.03709307 15.17456055 5.31347656 C18.13157796 8.83915117 18.06909558 11.53508892 18.02612305 15.99707031 C17.72209514 19.02162378 16.6301309 20.8571538 14.79956055 23.25097656 C14.13956055 24.24097656 13.47956055 25.23097656 12.79956055 26.25097656 C13.88817383 27.52714844 13.88817383 27.52714844 14.9987793 28.82910156 C17.72227261 32.09921487 20.19433995 35.50111479 22.61206055 39.00097656 C23.22210937 39.86529297 23.22210937 39.86529297 23.84448242 40.74707031 C26.79956055 45.00834263 26.79956055 45.00834263 26.79956055 47.25097656 C23.16772015 48.20632498 20.39826107 48.42218091 16.79956055 47.25097656 C13.97394216 43.92312307 11.90906981 40.50980993 9.80737305 36.70410156 C6.32141062 30.70878875 4.58718039 29.51351651 -2.20043945 27.25097656 C-2.20043945 33.85097656 -2.20043945 40.45097656 -2.20043945 47.25097656 C-4.84043945 47.25097656 -7.48043945 47.25097656 -10.20043945 47.25097656 C-10.22570948 40.7181887 -10.24327237 34.18541335 -10.25537109 27.65258789 C-10.26041262 25.42829925 -10.26724568 23.20401393 -10.27587891 20.97973633 C-10.28795244 17.79019348 -10.29366941 14.60069427 -10.2980957 11.41113281 C-10.30325699 10.41010025 -10.30841827 9.40906769 -10.31373596 8.37770081 C-10.31381149 7.45682175 -10.31388702 6.53594269 -10.31396484 5.5871582 C-10.31618546 4.77219376 -10.31840607 3.95722931 -10.32069397 3.11756897 C-10.00689072 -1.75328973 -3.7120055 0.00174662 0 0 Z M-2.20043945 7.25097656 C-2.20043945 11.54097656 -2.20043945 15.83097656 -2.20043945 20.25097656 C3.39623121 20.77581636 3.39623121 20.77581636 8.29956055 18.56347656 C10.09224652 15.79975235 10.37962267 14.48275125 9.79956055 11.25097656 C8.1517833 9.10260876 7.20282214 8.34221537 4.5378418 7.73925781 C3.73733398 7.68125 2.93682617 7.62324219 2.11206055 7.56347656 C-0.02262695 7.40878906 -0.02262695 7.40878906 -2.20043945 7.25097656 Z " fill="#0DCC43" transform="translate(631.200439453125,7.7490234375)"/>
<path d="M0 0 C1.98 0 3.96 0 6 0 C6.35715088 0.83023682 6.71430176 1.66047363 7.08227539 2.51586914 C8.74001162 6.36575922 10.4004013 10.21449172 12.0625 14.0625 C12.50727188 15.0926825 12.50727188 15.0926825 12.96102905 16.14367676 C16.80032079 25.02823432 20.703396 33.86753848 24.92578125 42.578125 C26 45 26 45 26 47 C23.03 47 20.06 47 17 47 C16.35309078 45.3962669 15.70751236 43.79199694 15.0625 42.1875 C14.70285156 41.29417969 14.34320313 40.40085938 13.97265625 39.48046875 C13.26386514 37.6729091 12.6139753 35.84192591 12 34 C5.73 34 -0.54 34 -7 34 C-7.680625 36.3821875 -7.680625 36.3821875 -8.375 38.8125 C-9.30537823 42.0688238 -10.09610151 44.14415227 -12 47 C-13.9453125 47.29296875 -13.9453125 47.29296875 -16.125 47.1875 C-17.40375 47.125625 -18.6825 47.06375 -20 47 C-17.88363167 40.3585621 -15.45188582 33.88780954 -12.8125 27.4375 C-12.42392822 26.48601074 -12.03535645 25.53452148 -11.63500977 24.55419922 C-8.15610157 16.15605704 -4.22875112 8.04269286 0 0 Z M2 13 C0.35 17.29 -1.3 21.58 -3 26 C0.63 26 4.26 26 8 26 C6.35 21.71 4.7 17.42 3 13 C2.67 13 2.34 13 2 13 Z " fill="#0DCD43" transform="translate(495,8)"/>
<path d="M0 0 C1.12019531 -0.00128906 2.24039063 -0.00257813 3.39453125 -0.00390625 C4.57402344 -0.00003906 5.75351562 0.00382813 6.96875 0.0078125 C8.73798828 0.00201172 8.73798828 0.00201172 10.54296875 -0.00390625 C12.22326172 -0.00197266 12.22326172 -0.00197266 13.9375 0 C14.97326172 0.00112793 16.00902344 0.00225586 17.07617188 0.00341797 C19.46875 0.1328125 19.46875 0.1328125 20.46875 1.1328125 C20.59375 4.1328125 20.59375 4.1328125 20.46875 7.1328125 C19.46875 8.1328125 19.46875 8.1328125 17.70288086 8.24633789 C16.95401611 8.24110107 16.20515137 8.23586426 15.43359375 8.23046875 C14.62470703 8.22724609 13.81582031 8.22402344 12.98242188 8.22070312 C12.13228516 8.21232422 11.28214844 8.20394531 10.40625 8.1953125 C9.55224609 8.19080078 8.69824219 8.18628906 7.81835938 8.18164062 C5.70179337 8.16981623 3.58526315 8.15188019 1.46875 8.1328125 C1.46875 12.0928125 1.46875 16.0528125 1.46875 20.1328125 C2.75652344 20.12121094 4.04429687 20.10960938 5.37109375 20.09765625 C7.04947772 20.0882798 8.72786326 20.07917945 10.40625 20.0703125 C11.68145508 20.05774414 11.68145508 20.05774414 12.98242188 20.04492188 C13.79130859 20.04169922 14.60019531 20.03847656 15.43359375 20.03515625 C16.1824585 20.02991943 16.93132324 20.02468262 17.70288086 20.01928711 C19.46875 20.1328125 19.46875 20.1328125 20.46875 21.1328125 C20.46875 23.1128125 20.46875 25.0928125 20.46875 27.1328125 C14.19875 27.1328125 7.92875 27.1328125 1.46875 27.1328125 C1.46875 31.4228125 1.46875 35.7128125 1.46875 40.1328125 C8.06875 40.1328125 14.66875 40.1328125 21.46875 40.1328125 C21.46875 42.4428125 21.46875 44.7528125 21.46875 47.1328125 C12.22875 47.1328125 2.98875 47.1328125 -6.53125 47.1328125 C-6.55415439 40.5999729 -6.57408288 34.06727153 -6.58618164 27.53442383 C-6.59122317 25.31013518 -6.59805623 23.08584987 -6.60668945 20.86157227 C-6.61876298 17.67202941 -6.62447996 14.48253021 -6.62890625 11.29296875 C-6.63406754 10.29193619 -6.63922882 9.29090363 -6.64454651 8.25953674 C-6.64462204 7.33865768 -6.64469757 6.41777863 -6.64477539 5.46899414 C-6.646996 4.65402969 -6.64921661 3.83906525 -6.65150452 2.99940491 C-6.39209124 -1.02721178 -3.35575953 0.00365437 0 0 Z " fill="#0DCF44" transform="translate(793.53125,7.8671875)"/>
<path d="M0 0 C0 2.97 0 5.94 0 9 C-4.75 7.125 -4.75 7.125 -7 6 C-11.65275976 5.6947378 -11.65275976 5.6947378 -16 7 C-16.30295931 9.37134428 -16.30295931 9.37134428 -16 12 C-14.48925395 13.75686228 -14.48925395 13.75686228 -12.375 15.0625 C-11.64539063 15.56910156 -10.91578125 16.07570313 -10.1640625 16.59765625 C-8.37533407 17.7567781 -6.56527386 18.88290839 -4.75 20 C-0.95186193 22.76228224 1.54583239 25.41865961 2.3828125 30.17578125 C2.65546239 35.58333749 1.59922057 38.78377019 -2 43 C-5.96541745 45.64361163 -9.2713595 46.07423297 -14 46 C-18.23906616 45.09303701 -21.90033344 44.09966656 -25 41 C-25.1953125 38.8359375 -25.1953125 38.8359375 -25.125 36.375 C-25.09792969 35.14910156 -25.09792969 35.14910156 -25.0703125 33.8984375 C-25.04710937 33.27195313 -25.02390625 32.64546875 -25 32 C-22.74902529 33.08765585 -20.78471242 34.15548547 -18.75 35.625 C-14.92658239 37.53670881 -12.24886673 37.28325778 -8 37 C-6.67254834 35.88741409 -6.67254834 35.88741409 -6.75 33.0625 C-6.8325 32.051875 -6.915 31.04125 -7 30 C-7.99 29.34 -8.98 28.68 -10 28 C-10 27.34 -10 26.68 -10 26 C-11.2684375 25.690625 -11.2684375 25.690625 -12.5625 25.375 C-17.95019437 23.21992225 -21.79243342 19.81134987 -25 15 C-25.74418819 10.4569907 -25.3686254 6.82940715 -23.5 2.625 C-16.80463443 -4.40513385 -8.45659931 -3.96403092 0 0 Z " fill="#0DC942" transform="translate(765,10)"/>
<path d="M0 0 C0.80103149 0.00202423 1.60206299 0.00404846 2.42736816 0.00613403 C3.24483521 0.00517731 4.06230225 0.00422058 4.90454102 0.00323486 C6.63627194 0.00255308 8.3680054 0.00440724 10.09973145 0.00857544 C12.75978298 0.01392374 15.41966566 0.00863041 18.07971191 0.00222778 C19.75809771 0.00288857 21.43648339 0.00416973 23.11486816 0.00613403 C23.91589966 0.0041098 24.71693115 0.00208557 25.54223633 0 C31.15616738 0.02399575 31.15616738 0.02399575 32.27111816 1.13894653 C32.39611816 4.13894653 32.39611816 4.13894653 32.27111816 7.13894653 C31.27111816 8.13894653 31.27111816 8.13894653 28.11096191 8.23660278 C26.17930176 8.21920044 26.17930176 8.21920044 24.20861816 8.20144653 C22.9182666 8.1924231 21.62791504 8.18339966 20.29846191 8.17410278 C19.29943848 8.16250122 18.30041504 8.15089966 17.27111816 8.13894653 C17.28271973 9.44605591 17.29432129 10.75316528 17.30627441 12.09988403 C17.37685093 23.82109974 17.07069383 35.4451524 16.27111816 47.13894653 C13.93817041 47.18136377 11.6040925 47.17987591 9.27111816 47.13894653 C8.27111816 46.13894653 8.27111816 46.13894653 8.15759277 42.53713989 C8.15775191 40.93434797 8.16344753 39.33155093 8.17346191 37.72879028 C8.17487686 36.88675552 8.17629181 36.04472076 8.17774963 35.1771698 C8.18336553 32.47689319 8.19592068 29.77669826 8.20861816 27.07644653 C8.21363112 25.25027585 8.21819438 23.42410388 8.22229004 21.59793091 C8.23334012 17.11157111 8.25061537 12.62527269 8.27111816 8.13894653 C6.91566895 8.17375122 6.91566895 8.17375122 5.53283691 8.20925903 C4.35334473 8.22730591 3.17385254 8.24535278 1.95861816 8.26394653 C0.20098145 8.29875122 0.20098145 8.29875122 -1.59216309 8.33425903 C-4.72888184 8.13894653 -4.72888184 8.13894653 -7.72888184 6.13894653 C-6.65041089 0.13032268 -6.1861256 0.02644149 0 0 Z " fill="#0DD044" transform="translate(570.7288818359375,7.861053466796875)"/>
<path d="M0 0 C3 0.125 3 0.125 4 1.125 C4.09295815 2.56789787 4.11746513 4.01529785 4.11352539 5.46118164 C4.11344986 6.3820607 4.11337433 7.30293976 4.11329651 8.25172424 C4.10813522 9.25275681 4.10297394 10.25378937 4.09765625 11.28515625 C4.0962413 12.30475937 4.09482635 13.32436249 4.09336853 14.37486267 C4.08775097 17.64577107 4.0751955 20.91661213 4.0625 24.1875 C4.05748726 26.39908756 4.05292396 28.61067618 4.04882812 30.82226562 C4.03777584 36.25653357 4.02102063 41.69076197 4 47.125 C1.36 47.125 -1.28 47.125 -4 47.125 C-4.02527002 40.59221214 -4.04283292 34.05943679 -4.05493164 27.52661133 C-4.05997317 25.30232268 -4.06680623 23.07803737 -4.07543945 20.85375977 C-4.08751298 17.66421691 -4.09322996 14.47471771 -4.09765625 11.28515625 C-4.10281754 10.28412369 -4.10797882 9.28309113 -4.11329651 8.25172424 C-4.11337204 7.33084518 -4.11344757 6.40996613 -4.11352539 5.46118164 C-4.115746 4.64621719 -4.11796661 3.83125275 -4.12025452 2.99159241 C-3.91578893 -0.18212552 -3.23001922 0.13458413 0 0 Z " fill="#0DCF44" transform="translate(542,7.875)"/>
<path d="M0 0 C4.55118301 1.13779575 5.96189605 2.53993717 9 6 C9 6.66 9 7.32 9 8 C9.66 8 10.32 8 11 8 C11.99 9.485 11.99 9.485 13 11 C13.33 7.37 13.66 3.74 14 0 C15.32 0 16.64 0 18 0 C18 6.6 18 13.2 18 20 C16.68 20 15.36 20 14 20 C11.640625 17.59375 11.640625 17.59375 9.25 14.5 C8.05117188 12.96859375 8.05117188 12.96859375 6.828125 11.40625 C6.22484375 10.6121875 5.6215625 9.818125 5 9 C4.67 12.3 4.34 15.6 4 19 C2.68 19.33 1.36 19.66 0 20 C0 13.4 0 6.8 0 0 Z " fill="#0DC741" transform="translate(630,78)"/>
<path d="M0 0 C2.875 0.6875 2.875 0.6875 3.875 1.6875 C4.13793056 5.71910191 4.16904844 7.24642734 1.875 10.6875 C2.865 10.0275 3.855 9.3675 4.875 8.6875 C5.865 8.6875 6.855 8.6875 7.875 8.6875 C7.66875 9.63625 7.4625 10.585 7.25 11.5625 C7.12625 12.59375 7.0025 13.625 6.875 14.6875 C7.535 15.3475 8.195 16.0075 8.875 16.6875 C8.875 17.6775 8.875 18.6675 8.875 19.6875 C7.92625 19.501875 6.9775 19.31625 6 19.125 C2.97631207 18.40063368 2.97631207 18.40063368 0.875 19.6875 C-4.41423988 20.13764808 -4.41423988 20.13764808 -7 18.5 C-8.52612198 16.04124792 -8.47295673 14.54074516 -8.125 11.6875 C-7.63 10.7284375 -7.63 10.7284375 -7.125 9.75 C-5.89008984 7.60070007 -5.89008984 7.60070007 -6.1875 4.5625 C-6.166875 3.61375 -6.14625 2.665 -6.125 1.6875 C-3.125 -0.3125 -3.125 -0.3125 0 0 Z M-2.125 3.6875 C-1.795 4.6775 -1.465 5.6675 -1.125 6.6875 C-0.795 5.6975 -0.465 4.7075 -0.125 3.6875 C-0.785 3.6875 -1.445 3.6875 -2.125 3.6875 Z M-3.125 12.6875 C-3.125 13.6775 -3.125 14.6675 -3.125 15.6875 C-2.135 15.6875 -1.145 15.6875 -0.125 15.6875 C-0.455 14.6975 -0.785 13.7075 -1.125 12.6875 C-1.785 12.6875 -2.445 12.6875 -3.125 12.6875 Z " fill="#0CC03F" transform="translate(497.125,78.3125)"/>
<path d="M0 0 C3.11917596 0.04488023 4.04888663 0.22121802 6.75 2 C8.1875 4.3125 8.1875 4.3125 7.9375 6.875 C7.69 7.679375 7.4425 8.48375 7.1875 9.3125 C7.1875 13.31009022 8.97543431 15.06352851 11.1875 18.3125 C11.1875 18.9725 11.1875 19.6325 11.1875 20.3125 C8.9375 20.1875 8.9375 20.1875 6.1875 19.3125 C4 16.3125 4 16.3125 2.1875 13.3125 C1.5275 12.9825 0.8675 12.6525 0.1875 12.3125 C0.1875 14.6225 0.1875 16.9325 0.1875 19.3125 C-1.75 19.875 -1.75 19.875 -3.8125 20.3125 C-5.3345959 18.7904041 -4.94209521 17.43039918 -4.9453125 15.3125 C-4.94660156 14.508125 -4.94789063 13.70375 -4.94921875 12.875 C-4.94535156 12.029375 -4.94148437 11.18375 -4.9375 10.3125 C-4.94136719 9.466875 -4.94523438 8.62125 -4.94921875 7.75 C-4.94792969 6.945625 -4.94664062 6.14125 -4.9453125 5.3125 C-4.94418457 4.57 -4.94305664 3.8275 -4.94189453 3.0625 C-4.68999355 -0.34434192 -3.5493606 0.2909312 0 0 Z M0.1875 4.3125 C0.1875 5.6325 0.1875 6.9525 0.1875 8.3125 C1.1775 7.9825 2.1675 7.6525 3.1875 7.3125 C3.1875 6.3225 3.1875 5.3325 3.1875 4.3125 C2.1975 4.3125 1.2075 4.3125 0.1875 4.3125 Z " fill="#0DCA42" transform="translate(689.8125,77.6875)"/>
<path d="M0 0 C8 0 8 0 10.5 1.125 C12.62732389 3.78415486 12.27676873 5.67877525 12 9 C11.74275212 12.0571662 11.74275212 12.0571662 13.5 14.5 C15 17 15 17 15 20 C12.75 19.875 12.75 19.875 10 19 C7.8125 16 7.8125 16 6 13 C5.34 12.67 4.68 12.34 4 12 C4 14.64 4 17.28 4 20 C2.68 20 1.36 20 0 20 C0 13.4 0 6.8 0 0 Z M4 4 C4 5.32 4 6.64 4 8 C5.32 7.67 6.64 7.34 8 7 C7.67 6.01 7.34 5.02 7 4 C6.01 4 5.02 4 4 4 Z " fill="#0DC340" transform="translate(578,78)"/>
<path d="M0 0 C1.51400391 0.01740234 1.51400391 0.01740234 3.05859375 0.03515625 C4.07050781 0.04417969 5.08242188 0.05320312 6.125 0.0625 C7.29869141 0.07990234 7.29869141 0.07990234 8.49609375 0.09765625 C8.16609375 1.41765625 7.83609375 2.73765625 7.49609375 4.09765625 C5.51609375 4.09765625 3.53609375 4.09765625 1.49609375 4.09765625 C1.49609375 5.41765625 1.49609375 6.73765625 1.49609375 8.09765625 C3.80609375 8.09765625 6.11609375 8.09765625 8.49609375 8.09765625 C8.49609375 9.41765625 8.49609375 10.73765625 8.49609375 12.09765625 C6.18609375 12.09765625 3.87609375 12.09765625 1.49609375 12.09765625 C1.49609375 13.41765625 1.49609375 14.73765625 1.49609375 16.09765625 C3.80609375 16.09765625 6.11609375 16.09765625 8.49609375 16.09765625 C8.49609375 17.41765625 8.49609375 18.73765625 8.49609375 20.09765625 C6.68367323 20.12452904 4.87114142 20.1439934 3.05859375 20.16015625 C2.04925781 20.17175781 1.03992188 20.18335937 0 20.1953125 C-2.50390625 20.09765625 -2.50390625 20.09765625 -3.50390625 19.09765625 C-3.60227835 17.76722 -3.63469217 16.43172281 -3.63671875 15.09765625 C-3.63800781 14.29328125 -3.63929688 13.48890625 -3.640625 12.66015625 C-3.63675781 11.81453125 -3.63289062 10.96890625 -3.62890625 10.09765625 C-3.63277344 9.25203125 -3.63664063 8.40640625 -3.640625 7.53515625 C-3.63933594 6.73078125 -3.63804687 5.92640625 -3.63671875 5.09765625 C-3.63559082 4.35515625 -3.63446289 3.61265625 -3.63330078 2.84765625 C-3.42332879 0.00788411 -2.84774008 0.11106631 0 0 Z " fill="#0DCB43" transform="translate(664.50390625,77.90234375)"/>
<path d="M0 0 C0.99 0 1.98 0 3 0 C4.33934716 2.95564708 5.67044247 5.9149378 7 8.875 C7.3815625 9.71675781 7.763125 10.55851562 8.15625 11.42578125 C8.5171875 12.23144531 8.878125 13.03710938 9.25 13.8671875 C9.58515625 14.61081543 9.9203125 15.35444336 10.265625 16.12060547 C11 18 11 18 11 20 C9.35 19.67 7.7 19.34 6 19 C5.67 17.35 5.34 15.7 5 14 C2.69 14.33 0.38 14.66 -2 15 C-2.99 17.475 -2.99 17.475 -4 20 C-5.32 20 -6.64 20 -8 20 C-7.3316356 15.62221316 -5.77089558 11.77628147 -4 7.75 C-3.72671875 7.11320312 -3.4534375 6.47640625 -3.171875 5.8203125 C-1.14074248 1.14074248 -1.14074248 1.14074248 0 0 Z M0 8 C0 8.66 0 9.32 0 10 C0.66 10 1.32 10 2 10 C2 9.34 2 8.68 2 8 C1.34 8 0.68 8 0 8 Z " fill="#0DC741" transform="translate(556,78)"/>
<path d="M0 0 C10 0 10 0 13 2 C13.4375 5.4375 13.4375 5.4375 13 9 C11.25 10.9375 11.25 10.9375 9 12 C7.68 12 6.36 12 5 12 C4.67 14.64 4.34 17.28 4 20 C2.68 20 1.36 20 0 20 C0 13.4 0 6.8 0 0 Z M5 4 C5 5.32 5 6.64 5 8 C6.32 7.67 7.64 7.34 9 7 C8.67 6.01 8.34 5.02 8 4 C7.01 4 6.02 4 5 4 Z " fill="#0DCA42" transform="translate(527,78)"/>
<path d="M0 0 C1.093125 0.103125 2.18625 0.20625 3.3125 0.3125 C3.9725 1.6325 4.6325 2.9525 5.3125 4.3125 C2.02273192 5.40908936 0.59946233 5.11203138 -2.6875 4.3125 C-2.6875 4.9725 -2.6875 5.6325 -2.6875 6.3125 C-1.924375 6.580625 -1.16125 6.84875 -0.375 7.125 C3.6897242 8.92104093 3.6897242 8.92104093 5.3125 11.3125 C5.70615568 14.46174548 5.84104531 16.43159116 4.1875 19.1875 C1.43159116 20.84104531 -0.53825452 20.70615568 -3.6875 20.3125 C-5.5625 18.8125 -5.5625 18.8125 -6.6875 17.3125 C-6.1925 15.8275 -6.1925 15.8275 -5.6875 14.3125 C-3.3775 14.9725 -1.0675 15.6325 1.3125 16.3125 C0.56701764 13.03377004 0.56701764 13.03377004 -2.6875 11.375 C-5.6875 9.3125 -5.6875 9.3125 -6.75 7.375 C-6.59925628 2.40045727 -4.90651773 0.41580659 0 0 Z " fill="#0DC440" transform="translate(717.6875,77.6875)"/>
<path d="M0 0 C5.61 0 11.22 0 17 0 C16.67 1.32 16.34 2.64 16 4 C14.35 4 12.7 4 11 4 C11 8.95 11 13.9 11 19 C9.68 19.33 8.36 19.66 7 20 C6.67 14.72 6.34 9.44 6 4 C4.35 4 2.7 4 1 4 C0.67 2.68 0.34 1.36 0 0 Z " fill="#0DCC43" transform="translate(601,78)"/>
</svg>
