<?xml version="1.0" encoding="UTF-8" standalone="no"?>
<!-- Created with Inkscape (http://www.inkscape.org/) -->

<svg
   version="1.1"
   id="svg1677"
   xml:space="preserve"
   width="682.66669"
   height="682.66669"
   viewBox="0 0 682.66669 682.66669"
   xmlns="http://www.w3.org/2000/svg"
   xmlns:svg="http://www.w3.org/2000/svg"><defs
     id="defs1681"><clipPath
       clipPathUnits="userSpaceOnUse"
       id="clipPath1699"><path
         d="M 0,512 H 512 V 0 H 0 Z"
         id="path1697" /></clipPath></defs><g
     id="g1683"
     transform="matrix(1.3333333,0,0,-1.3333333,0,682.66667)"><g
       id="g1685"
       transform="translate(191.7334,304.2002)"><path
         d="M 0,0 H 224.934"
         style="fill:none;stroke:#000000;stroke-width:30;stroke-linecap:round;stroke-linejoin:round;stroke-miterlimit:10;stroke-dasharray:none;stroke-opacity:1"
         id="path1687" /></g><g
       id="g1689"
       transform="translate(207.7998,239.9331)"><path
         d="M 0,0 H 192.8"
         style="fill:none;stroke:#000000;stroke-width:30;stroke-linecap:round;stroke-linejoin:round;stroke-miterlimit:10;stroke-dasharray:none;stroke-opacity:1"
         id="path1691" /></g><g
       id="g1693"><g
         id="g1695"
         clip-path="url(#clipPath1699)"><g
           id="g1701"
           transform="translate(111.4004,368.4668)"><path
             d="m 0,0 48.199,-192.8 h 289.2 L 385.6,0 Z"
             style="fill:none;stroke:#000000;stroke-width:30;stroke-linecap:round;stroke-linejoin:round;stroke-miterlimit:10;stroke-dasharray:none;stroke-opacity:1"
             id="path1703" /></g><g
           id="g1705"
           transform="translate(111.4004,368.4668)"><path
             d="M 0,0 C 0,0 -7.672,30.695 -14.364,57.446 -20.084,80.341 -40.657,96.4 -64.259,96.4 h -0.008 C -82.013,96.4 -96.4,82.02 -96.4,64.267"
             style="fill:none;stroke:#000000;stroke-width:30;stroke-linecap:round;stroke-linejoin:round;stroke-miterlimit:10;stroke-dasharray:none;stroke-opacity:1"
             id="path1707" /></g><g
           id="g1709"
           transform="translate(223.8662,111.3999)"><path
             d="m 0,0 c 17.738,0 32.134,-14.396 32.134,-32.133 0,-17.73 -14.396,-32.134 -32.134,-32.134 -17.737,0 -32.133,14.404 -32.133,32.134 C -32.133,-14.396 -17.737,0 0,0 Z"
             style="fill:none;stroke:#000000;stroke-width:30;stroke-linecap:round;stroke-linejoin:round;stroke-miterlimit:10;stroke-dasharray:none;stroke-opacity:1"
             id="path1711" /></g><g
           id="g1713"
           transform="translate(384.5332,111.3999)"><path
             d="m 0,0 c 17.738,0 32.134,-14.396 32.134,-32.133 0,-17.73 -14.396,-32.134 -32.134,-32.134 -17.737,0 -32.133,14.404 -32.133,32.134 C -32.133,-14.396 -17.737,0 0,0 Z"
             style="fill:none;stroke:#000000;stroke-width:30;stroke-linecap:round;stroke-linejoin:round;stroke-miterlimit:10;stroke-dasharray:none;stroke-opacity:1"
             id="path1715" /></g><g
           id="g1717"
           transform="translate(432.7334,111.3999)"><path
             d="m 0,0 h -257.066 l -16.068,64.267"
             style="fill:none;stroke:#000000;stroke-width:30;stroke-linecap:round;stroke-linejoin:round;stroke-miterlimit:10;stroke-dasharray:none;stroke-opacity:1"
             id="path1719" /></g></g></g></g></svg>
